<svg id="Layer_1" data-name="Layer 1" xmlns="http://www.w3.org/2000/svg" viewBox="0 0 410.18 52.39"><defs><style>.cls-1{fill:none;stroke:#d3ae8d;stroke-miterlimit:10;}.cls-2{fill:#d3ae8d;}</style></defs><title>banner</title><line class="cls-1" x1="235.19" y1="24.93" x2="410.18" y2="24.93"/><line class="cls-1" y1="24.93" x2="182.19" y2="24.93"/><path class="cls-2" d="M235.82,14.76c-.08-.12-.2-.08-.32-.08a5.18,5.18,0,0,1-.59,0l-.44-.06h-.27l0-.06.22-.22a.75.75,0,0,0,.28-.57c0-.19-.22-.23-.35-.31l-.23-.14-.22-.18a1.93,1.93,0,0,1-.23-.16.24.24,0,0,0-.36,0,3.52,3.52,0,0,0-.81.75,2.22,2.22,0,0,1-.2.21c-.09-.29-.16-.55-.24-.81s0-.23-.08-.35a2.69,2.69,0,0,0-.15-.44.2.2,0,0,0-.19-.07.79.79,0,0,0-.28.25,1.32,1.32,0,0,0-.14.4s0,.15.06.16.11.13.12.23a6.56,6.56,0,0,1-.14,1.27.89.89,0,0,1-.12.35,7.72,7.72,0,0,1-.42.67c-.17.24-.37.47-.55.71-.07.09-.12.18-.18.28l-.05,0a4.73,4.73,0,0,0,0-.48c0-.06-.07-.15-.12-.15a.22.22,0,0,0-.19.09,1,1,0,0,0-.11.37c0,.18,0,.37,0,.56a1,1,0,0,1-.06.25h-.08c0-.06,0-.11,0-.17s0-.2-.14-.19a.25.25,0,0,0-.17.15.7.7,0,0,0,0,.3.78.78,0,0,1-.22.62l-.91,1a2,2,0,0,0-.38.44,4.23,4.23,0,0,1-.36.51h-.05c-.06-.22-.12-.43-.17-.65a.6.6,0,0,1,0-.31,1.79,1.79,0,0,1,.25-.47c.21-.28.44-.54.66-.8,0,0,.05,0,.12,0,0,.16,0,.3,0,.44s0,.17,0,.18a.56.56,0,0,0,.3,0s.1-.13.1-.19c0-.25,0-.5,0-.74a.75.75,0,0,1,.08-.5l.19-.28c.21-.27.41-.55.63-.81s.47-.55.71-.83a.92.92,0,0,1,.15-.11c0,.07,0,.11,0,.15s0,.38.08.56a.19.19,0,0,0,.28.13.24.24,0,0,0,.14-.17c0-.23,0-.46,0-.7a.93.93,0,0,1,.1-.61c.07-.1.14-.2.21-.3a.31.31,0,0,0-.06-.36c-.13-.07-.2,0-.27.12l-.4.46-.68.82-.34.41c-.16.19-.34.37-.49.58-.32.43-.62.88-.95,1.31-.21.27-.43.54-.67.79s-.26.51-.5.68a.08.08,0,0,0,0,.07c.09.29-.08.6.07.89a2.8,2.8,0,0,1,.15.53.67.67,0,0,1-.13.73c-.3.31-.55.66-.82,1l-.55.69a.12.12,0,0,1-.12,0c-.09-.07-.17-.15-.25-.22,0-.26.05-.52.09-.79s.07-.26.07-.39c0-.46,0-.92.06-1.37,0-.21,0-.42,0-.63s0-.47,0-.71,0-.44,0-.66,0-.32,0-.47c0-.38-.07-.77-.14-1.15a3.14,3.14,0,0,0-.22-.73,3.41,3.41,0,0,0-.39-.65c-.32-.42-.64-.84-1-1.24a5.09,5.09,0,0,0-.69-.68,9.26,9.26,0,0,0-.86-.57l-1-.6a.42.42,0,0,1-.22-.29,5.39,5.39,0,0,1-.08-1.19,4.45,4.45,0,0,1,.13-1,2.68,2.68,0,0,1,.15-.47c.16-.34.34-.67.5-1a.33.33,0,0,0,0-.28.21.21,0,0,0-.3-.08.26.26,0,0,1-.17,0,2.33,2.33,0,0,1-1.07-.4c-.26-.2-.44-.2-.59.15a6.07,6.07,0,0,1-.35.59l-.26-.24-.5-.47a1.83,1.83,0,0,0-.23-.21c-.19-.12-.26-.11-.43,0l-.15.1c-.13.08-.26.17-.39.23s-.34.22-.56.11c0,0-.1,0-.13.05s-.06.15-.11.21-.07.27,0,.4a.67.67,0,0,1,.07.1,4.13,4.13,0,0,0,1,1.41.3.3,0,0,1,.11.19c0,.23-.06.46-.09.69a11.23,11.23,0,0,0-.17,1.19.86.86,0,0,1-.49.7.91.91,0,0,1-.35.1c-.29,0-.59.1-.89.12a1.13,1.13,0,0,1-.76-.2.83.83,0,0,1-.44-.59h0a1,1,0,0,1-.08-.76c.06-.29.14-.57.23-.86,0-.08,0-.17.16-.18s.19-.14.09-.23a.8.8,0,0,0-.41-.19c-.32,0-.65,0-1,0h-.22l-.32,0c-.05,0-.11,0-.16,0-.28.1-.57.12-.85.24a.33.33,0,0,0-.1.58.24.24,0,0,1,.08.16c0,.28,0,.56-.08.84a.7.7,0,0,1-.28.55,5.86,5.86,0,0,0-.54.34,11.84,11.84,0,0,0-1,.81c-.39.38-.74.79-1.11,1.18a.57.57,0,0,1-.12.07c-.07-.22-.13-.43-.22-.62s-.29-.63-.45-.94-.22-.33-.32-.49a4.41,4.41,0,0,0-.45-.68,7.18,7.18,0,0,0-.83-.69,1.5,1.5,0,0,0-.69-.34c-.23,0-.31,0-.42.21s-.18.42-.29.62-.25.37-.38.56c-.26.38-.24.43.2.63l.12.06v0h-.07c-.2-.05-.26,0-.35.17a3.93,3.93,0,0,1-.35.57,5.49,5.49,0,0,1-.43.48c-.28.29-.24.41.14.54a2.39,2.39,0,0,1,1,.69c.26.29.43.66.66,1a2.26,2.26,0,0,1,.35,1.23,1.09,1.09,0,0,1-.1.57,4.25,4.25,0,0,1-.49.7,2.7,2.7,0,0,0-.61,1.14c-.09.43-.2.86-.28,1.3a4,4,0,0,0,0,.53c0,.06,0,.14-.1.17-.62.12-1.23.26-1.85.37a2.89,2.89,0,0,1-1.79-.18,2,2,0,0,0-.31-.12c-.21-.06-.29,0-.37.18A3,3,0,0,1,199,23a2,2,0,0,0-.69.93,4,4,0,0,0-.15,1c0,.18,0,.35,0,.52s0,.21.09.25a.65.65,0,0,0,.3,0c.31-.07.62-.19.94-.24s.57-.07.71.28c0,0,.12.08.18.08a3,3,0,0,0,.36,0l.18.58-.34.21a1.35,1.35,0,0,1-.25.13c-.35.12-.7.21-1,.34a1,1,0,0,0-.7.76,4.56,4.56,0,0,1-.21.66.76.76,0,0,1-.13.23,3,3,0,0,0-.58,1.12,1.37,1.37,0,0,0-.08.5,1.78,1.78,0,0,0,.72,1.13,2.07,2.07,0,0,0,.75.47.12.12,0,0,1,.08.18,4.61,4.61,0,0,0-.22.59,2.57,2.57,0,0,0-.11,1.33.13.13,0,0,1,0,0,1.94,1.94,0,0,0,.3,1.07c.12.19.19.41.31.6a5.57,5.57,0,0,0,.57.88,5.2,5.2,0,0,0,.78.64c.23.17.47.34.71.5s.57.36.86.53l1.44.8c.27.16.61.18.72.6a5.2,5.2,0,0,0,.53,1c.13.25.22.53.35.77a5,5,0,0,0,.32.39c.18.27.35.56.53.83s.43.63.67.93.61.7.93,1l.68.71-.25.34-1,1.48c-.24.34-.5.66-.75,1s-.45.66-.68,1l-.66.9c-.13.18-.14.19-.33,0l-.08-.05c-.12-.09-.22-.11-.32,0a.23.23,0,0,0,.07.33,2.83,2.83,0,0,0,.24.16l-.17.2a1.86,1.86,0,0,1-.2-.16c-.09-.09-.19-.12-.29,0s-.14.21,0,.34l.15.16c.11.11.1.15,0,.23l-.08-.1L204,51.1a.3.3,0,0,0-.34-.13c-.13.07-.16.2-.06.35s.17.21.24.33a.3.3,0,0,1,0,.2s-.08.09-.1.08a1,1,0,0,1-.28-.22c-.09-.13-.14-.3-.23-.43a2,2,0,0,0-.58-.69.72.72,0,0,0-.84,0,.25.25,0,0,0-.13.25.9.9,0,0,0,.27.64s.09.11.08.14a1.09,1.09,0,0,1-.18.43,1.32,1.32,0,0,0-.4.76,1.82,1.82,0,0,0,.12,1,.49.49,0,0,1,0,.24c0,.19-.07.38-.1.58s-.06.49-.09.74,0,.33,0,.49a3.27,3.27,0,0,1-.06.78,8.94,8.94,0,0,1-.48,1.1.39.39,0,0,0,0,.37,1.6,1.6,0,0,1,.08.31,2.33,2.33,0,0,0,.15.52.34.34,0,0,0,.57,0,2.85,2.85,0,0,0,.43-.59c.17-.32.15-.33.51-.32.16,0,.33,0,.45-.1s.17-.22.27-.32.41-.36.62-.54l.54-.48c.26-.22.48-.56.91-.34h.08a.75.75,0,0,0,.66-.4,1,1,0,0,1,.74-.47.89.89,0,0,0,.84-.75.62.62,0,0,0-.08-.4.35.35,0,0,0-.44-.1,1.36,1.36,0,0,1-.34.06.24.24,0,0,1-.25-.13c-.08-.14-.18-.27-.27-.41a1.1,1.1,0,0,1-.06-.11l0,0c.11,0,.22.09.33.12s.21.05.28-.06a.19.19,0,0,0-.05-.28,4.24,4.24,0,0,0-.41-.23c-.24-.12-.26-.19-.09-.42a.87.87,0,0,0,.25.15.39.39,0,0,0,.27-.05s0-.16,0-.22a.48.48,0,0,0-.19-.18c-.14-.08-.07-.17,0-.25s.12,0,.16.05.23.25.41.23.18-.06.18-.1a.44.44,0,0,0-.06-.29,1.92,1.92,0,0,0-.32-.26c-.07-.06-.07-.12,0-.19a2,2,0,0,0,.22-.27c.14-.21.27-.43.4-.65l.42-.69.68-1.16.46-.73c.08-.13.15-.27.23-.39l.34-.5.33-.52.05-.1h.06l.34.49s0,.05.05.06.12.12.12.21,0,.42-.07.63c-.08.55-.17,1.09-.23,1.64a3.16,3.16,0,0,0,0,.74c0,.35.12.69.19,1a3.26,3.26,0,0,0,.14.46c0,.1.14.11.23.07s.18-.09.17-.22a4.3,4.3,0,0,1,.09-1.11c0-.14,0-.29.06-.44s.11-.37.16-.55c.05,0,.08.05.08.07,0,.51.09,1,.09,1.53s-.07,1.16-.12,1.73a3.37,3.37,0,0,1-.23,1.09,4.39,4.39,0,0,0-.23.66.3.3,0,0,0,.07.24.16.16,0,0,0,.24,0,1.25,1.25,0,0,0,.31-.38c.16-.44.25-.9.41-1.33s.13-.63.42-.82a.13.13,0,0,0,0-.09,5,5,0,0,0,.05-.58c0-.65,0-1.31,0-2a5.91,5.91,0,0,1,0-1.25.51.51,0,0,1,.07-.13l.11.07c.13.1.26.2.39.29a4.49,4.49,0,0,1,.57.33,9,9,0,0,0,1.24.74c.39.24.81.44,1.22.66a2.49,2.49,0,0,0,.44.25,7.51,7.51,0,0,1,1.17.54c.21.1.39.25.6.36s.61.3.92.44l.12.05s3.05.86,3.86,0a.67.67,0,0,0,.18-.2s.05,0,.08-.05a.25.25,0,0,0,.07-.08c.16-.38.34-.75.47-1.14a3,3,0,0,0,.11-.75c0-.16,0-.33,0-.49a7.29,7.29,0,0,1,.09-1,11.92,11.92,0,0,0,.35-1.48.29.29,0,0,1,0-.11l.41-.81a3.84,3.84,0,0,1,.63-.91c.34-.36.64-.76,1-1.15,0-.06.08-.12.13-.17s.33-.34.48-.52.08-.24.17-.29c.28-.16.35-.49.59-.68s.14-.22.22-.32.11-.2.19-.29a1.48,1.48,0,0,0,.2-.43c.05-.12.11-.24.15-.36.1-.32.42-.56.39-.94l0,0a3.62,3.62,0,0,0,.28-.49c.18-.45.35-.9.49-1.37a3.93,3.93,0,0,0,.2-1.39c0-.24,0-.49,0-.73s0-.61,0-.91,0-.36,0-.54a5.31,5.31,0,0,0-.07-.79,2.86,2.86,0,0,0-.22-.57,2.47,2.47,0,0,0-.45-.87.25.25,0,0,1-.05-.11,3.39,3.39,0,0,0-.12-.46,3.63,3.63,0,0,1-.28-1.12c0-.33,0-.66,0-1s0-.62,0-.92a3.41,3.41,0,0,0-.09-.34,3.36,3.36,0,0,0-.41-1.17l-.54-1-.41-.69-.34-.57c.11-.07-.07-.15-.19-.32a3.57,3.57,0,0,0-.26-.3l-.11-.13.58-.71,1-1.21c.17-.19.34-.4.63-.36a3,3,0,0,0,1.08-.08,4.43,4.43,0,0,1,.64-.06c.07,0,.15,0,.2,0a.4.4,0,0,0,.1-.19c.09-.27.17-.53.25-.8a1.55,1.55,0,0,0,0-.25.28.28,0,0,1,0-.14c.13-.17.27-.34.42-.5l.73-.81c.16-.17.29-.36.45-.54.32-.35.67-.68,1-1s.75-.85,1.11-1.29.7-.6.89-1C235.84,15,235.9,14.88,235.82,14.76Zm-11,10.1a8.07,8.07,0,0,1,0,.95c-.07.55-.17,1.1-.26,1.65,0,0,0,.08-.06.09-.22,0-.15.21-.15.34a1.27,1.27,0,0,0,0,.16.47.47,0,0,1-.4.54l-.77.17a.62.62,0,0,1-.27,0,.18.18,0,0,1-.11-.12.94.94,0,0,0-.64-.77l-.17-.09c-.12-.08-.21,0-.34,0a.66.66,0,0,1-.58,0l-.18-.1c0,.15-.1.18-.21.14l-.46-.16a.69.69,0,0,0-.12,0,1.85,1.85,0,0,1-.77-.45c-.23-.17-.46-.34-.71-.49s-.26-.06-.39-.16a2.23,2.23,0,0,1-.68-.74,2.48,2.48,0,0,0-.22-.31.73.73,0,0,1,0-.65,3.09,3.09,0,0,0,.13-.9,7.38,7.38,0,0,0-.24-1.32,3.89,3.89,0,0,0-.35-.85.8.8,0,0,1-.09-.55c.09-.42.23-.83.34-1.25a2,2,0,0,0,.13-.53,1.55,1.55,0,0,1,.23-.58c.06-.12.13-.23.2-.34a2.29,2.29,0,0,1,.68-.86,1.54,1.54,0,0,1,.87-.29.25.25,0,0,0,.14,0c.16-.11.33,0,.49,0s0,.06.06.1a.23.23,0,0,0,.41.09c.19-.2.38-.42.56-.63l.65-.8.58.43c.11.08.11.15,0,.28a1.28,1.28,0,0,0-.27,1c.06.25.15.49.23.73a3.87,3.87,0,0,0,1,1.39,11,11,0,0,1,.87,1,3.78,3.78,0,0,1,.38.78,7.16,7.16,0,0,1,.47,1.94A9.06,9.06,0,0,1,224.79,24.87Zm-3.05-9.29c.26,0,.55.27.66.72A1.05,1.05,0,0,1,221.74,15.57Zm-13.8,3.82a4.64,4.64,0,0,1,.16-.65,5.82,5.82,0,0,0,.23-.93,3.64,3.64,0,0,1,.15-.77,9.28,9.28,0,0,1,.29-.91c.2-.48.43-.95.65-1.42.1-.21.22-.42.33-.63a.4.4,0,0,1,.1-.13,2.7,2.7,0,0,0,.47-.63,1.22,1.22,0,0,1,.35-.29l1-.6.63-.35c.2-.1.41-.18.61-.28s.11-.14.09-.17a.5.5,0,0,0-.21-.23c-.07,0-.18,0-.27,0s-.14,0-.13-.11a2.66,2.66,0,0,1,.06-.41l.07.13c.15,0,.07-.15.06-.22s-.08-.12-.09-.18c-.07-.24,0-.31.29-.46.15-.07.29-.11.2-.32h.73c-.08.27-.17.54-.23.82a1.94,1.94,0,0,0,.1,1.23c.08.19.12.41.32.53l.3.17a.45.45,0,0,1,.09.11l-.13,0-.3,0-.72,0H213c-.13,0-.28,0-.29.15s.13.2.23.24a1.31,1.31,0,0,0,.43.1,3.69,3.69,0,0,0,1.16-.07c.18,0,.35-.14.53-.18.37-.09.74-.16,1.12-.23.15,0,.31-.09.45,0a.1.1,0,0,0,.1,0c.13-.22.38-.2.57-.31s.62-.28.89-.47a1,1,0,0,0,.48-.67.22.22,0,0,0,0-.11,1.41,1.41,0,0,1-.05-.58,8.29,8.29,0,0,0-.12-.87,3.1,3.1,0,0,1-.05-.46.23.23,0,0,0-.2-.25c-.16,0-.32-.06-.48-.11a1.15,1.15,0,0,1-.7-.52l-.41-.68c0-.08,0-.11.06-.11a1,1,0,0,0,.64-.34c.13-.13.21-.12.33,0s.32.28.47.43a2.44,2.44,0,0,1,.27.29,1.91,1.91,0,0,0,1,.63.78.78,0,0,0,.33,0s.09-.07.08-.1a.25.25,0,0,0-.08-.16,3.65,3.65,0,0,0-.42-.25c-.19-.1-.21-.12-.1-.31s.16-.27.25-.4.07,0,.11,0c.24.08.47.18.71.25a2.36,2.36,0,0,0,.41,0c-.09.17-.15.33-.24.47a3.37,3.37,0,0,0-.45,1.39,7.49,7.49,0,0,0,0,1.15,6.42,6.42,0,0,0,.1.7s0,0,0,0c-.12.26,0,.39.22.53a1.14,1.14,0,0,1,.15.18l.31.07a4.68,4.68,0,0,1,1.22.61,4.91,4.91,0,0,1,1.12,1,4.86,4.86,0,0,1,.91,1.41,8.09,8.09,0,0,1,.21,1c0,.22.09.45.14.67s0,.26.06.39,0,.56.09.83a1.15,1.15,0,0,1-.14.63,1.7,1.7,0,0,1-.15.27.43.43,0,0,1-.67.11,2.47,2.47,0,0,1-.9-1.33.59.59,0,0,1,0-.43,3.2,3.2,0,0,0,.1-.63s0,0,0-.06c.2-.29,0-.52-.1-.77a.68.68,0,0,1-.05-.1c-.14-.55-.58-.7-1.06-.75-.29,0-.34,0-.39.37a.52.52,0,0,1-.06.22c-.23.33-.47.65-.71,1a.37.37,0,0,1-.23.1c-.18,0-.36,0-.54,0a.29.29,0,0,1-.12,0,1.44,1.44,0,0,0-1,.05c-.26.07-.52.16-.77.26a6.42,6.42,0,0,0-1.14.62A5.09,5.09,0,0,0,215.5,19a4.06,4.06,0,0,0-.7,1.36c-.13.43-.15.9-.25,1.34a3.17,3.17,0,0,0,0,1.22,3.5,3.5,0,0,0,.19.55l.19.59a3.1,3.1,0,0,0,.65,1.07.45.45,0,0,1,.11.49c-.07.1-.16.2-.24.3a3.09,3.09,0,0,1-.72.62c-.25.16-.48.35-.72.53a.38.38,0,0,1-.17.07,5.08,5.08,0,0,1-.55,0l-.87,0a3.12,3.12,0,0,1-.65-.07,3.6,3.6,0,0,1-1-.37,5.78,5.78,0,0,0-.59-.39A.78.78,0,0,1,210,26c-.22-.28-.44-.57-.65-.86s-.25-.39-.37-.58l-.48-.79a2.85,2.85,0,0,1-.35-.91c-.06-.3-.13-.6-.16-.9a2.46,2.46,0,0,1,0-1,.35.35,0,0,0,0-.15,1.72,1.72,0,0,1-.07-.35C207.88,20.15,207.9,19.77,207.93,19.39Zm8.38,3.84a7,7,0,0,1-.22,1.19,4,4,0,0,1-.91-1.47,4.06,4.06,0,0,1,0-2l.07,0a1.59,1.59,0,0,1,.24.23c.17.25.33.52.49.78A2.22,2.22,0,0,1,216.31,23.23ZM205.77,11.82s.1,0,.14,0a2,2,0,0,1,.74.74,4,4,0,0,0,.33.38,1.12,1.12,0,0,1,.28.71c0,.27.05.54.07.81a1.17,1.17,0,0,1-.21.71l0-.52s0,0,0,0c-.23-.18-.07-.36,0-.53s.05-.23-.07-.29a.19.19,0,0,0-.28.1.48.48,0,0,1-.1.1l-.3-.4a.15.15,0,0,1,0-.21c.11-.12.07-.26-.1-.3a1,1,0,0,1-.63-.51,1.34,1.34,0,0,0-.23-.25C205.5,12.16,205.63,12,205.77,11.82Zm-.45,2-.42-.67,0,0a3,3,0,0,1,.38.24,2.51,2.51,0,0,1,.62.77.23.23,0,0,0,.08.1c.2.11.17.33.24.5a2.84,2.84,0,0,1,.11.78.48.48,0,0,1,0,.09c-.09-.2-.17-.37-.24-.55A6.77,6.77,0,0,0,205.32,13.85Zm-.22,6.84c.06-.36.15-.72.18-1.08a2.55,2.55,0,0,1,.36-.86,2.28,2.28,0,0,1,.11-.29c.14-.21.29-.4.46-.63,0,.07.05.08.05.1,0,.29,0,.58,0,.87a.18.18,0,0,1-.08.13l-.42.21c-.07,0-.18.07-.12.17a.32.32,0,0,0,.22.11,1.07,1.07,0,0,0,.29-.05c0,.1.05.18-.09.25a3.26,3.26,0,0,0-.57.41.28.28,0,0,0-.05.21.61.61,0,0,0,.27.07c.05,0,.1-.05.15-.08l.14,0s0,.09,0,.13a.21.21,0,0,1,0,0l-.93.45A.61.61,0,0,1,205.1,20.69Zm1.08,2s0,.1-.06.11a.45.45,0,0,1-.16,0v-.06l.19-.09Zm-.25-1.72a.3.3,0,0,1-.17.26c-.2.1-.38.23-.6.36l0-.51Zm-3.09,2.47a.25.25,0,0,1,.29-.14l.49.06a2.84,2.84,0,0,0,.5,0,.92.92,0,0,0,.4-.12.81.81,0,0,1,.76-.05,3.92,3.92,0,0,1-.55.28,1.13,1.13,0,0,1-.42,0c-.12,0-.24,0-.36-.05s-.33,0-.49,0a.57.57,0,0,0-.45.26l-.13.15C202.85,23.7,202.76,23.57,202.84,23.42Zm1.35.57h-.74A.84.84,0,0,1,204.18,24Zm-3.44.53a1.22,1.22,0,0,1-.6-.33.63.63,0,0,1-.14-.62c0-.12.12-.24.05-.38a0,0,0,0,1,0,0c.09-.18.18-.36.29-.53s.12,0,.18,0a2.24,2.24,0,0,0,.81,0c.25-.05.51-.09.76-.11s.18,0,.14.18.09.19.19.23l.06,0v0c-.14.06-.27.13-.42.17s-.15.12-.12.2a.28.28,0,0,0,.19.13,1.1,1.1,0,0,0,.3,0c0,.09-.06.17-.07.24s0,.11,0,.14a.37.37,0,0,1,0,.45.57.57,0,0,1-.42.26l-.38,0-.34.09a.24.24,0,0,1-.13,0A2.14,2.14,0,0,0,200.74,24.52Zm4.3,6.39a.66.66,0,0,1-.08.17,1.46,1.46,0,0,0-.27,1.06,7.26,7.26,0,0,1,.08,1.3c0,.3,0,.6,0,.9a2.76,2.76,0,0,1-.3,1,3,3,0,0,1-.16.39,2.18,2.18,0,0,0-.15.93c0,.15,0,.3,0,.44a.4.4,0,0,1-.07.17,4,4,0,0,1-.25.38c-.11.13-.28.12-.43.13a2.54,2.54,0,0,1-.46,0,2,2,0,0,1-1.28-.66c-.29-.33-.61-.65-.87-1a4.21,4.21,0,0,1-.38-.79c-.07-.16-.12-.33-.19-.49a1.8,1.8,0,0,1-.21-.94c0-.33.06-.65.1-1a1.29,1.29,0,0,1,.08-.23c.08.15.15.27.22.38a.32.32,0,0,0,.13.13.27.27,0,0,0,.19,0s0-.11,0-.16a7.89,7.89,0,0,0-.38-.8.71.71,0,0,0-.31-.24c-.18-.09-.38-.13-.56-.22s-.53-.29-.79-.44a.27.27,0,0,1-.16-.32c0-.31.05-.62.09-.93a1.36,1.36,0,0,1,.09-.28h.05c0,.11,0,.21,0,.32s0,.34,0,.51.06.2.18.2.23,0,.26-.15a2.94,2.94,0,0,0,0-1.23A5.08,5.08,0,0,1,199,28a.49.49,0,0,1,.08-.17l0,0c.08-.29.36-.32.58-.41s.59-.19.89-.28a.22.22,0,0,0,.09,0,3.89,3.89,0,0,1,.9-.59.18.18,0,0,0,.07-.06.69.69,0,0,1,.43-.3c.08,0,.14-.14.19-.22s.11-.25.3-.17a.17.17,0,0,0,.15,0c.18-.17.35-.33.51-.52a3.46,3.46,0,0,0,.24-.37.2.2,0,0,1,.07-.06c.19-.1.38-.19.56-.3a.36.36,0,0,1,.37,0h0l.25,0a1.89,1.89,0,0,0-.09-.27s-.08-.07-.11-.1c.34-.14.66-.29,1-.39a1.26,1.26,0,0,1,.49,0c.16,0,.3,0,.4-.12.13.14.12.16,0,.21a3.31,3.31,0,0,0-.35.16.68.68,0,0,1-.19.08.35.35,0,0,0-.33.32c0,.15,0,.24.19.22s.1,0,.14,0c.33.1.53-.15.77-.29l.17-.12c.29.26.57.5.85.74a1.24,1.24,0,0,0,.35.2,1.41,1.41,0,0,1,.67.67c.08.13.16.27.23.41l0,0c-.18-.18-.35-.36-.53-.53s-.34-.28-.51-.42a.16.16,0,0,0-.25,0,.2.2,0,0,0,0,.28c.15.15.28.3.44.44s.47.39.72.57a3.24,3.24,0,0,0,.41.21l.1.08a.79.79,0,0,1-.47,0c-.16,0-.31-.12-.46-.16a.32.32,0,0,0-.21,0,.38.38,0,0,0-.06.37c.07.1.15.1.27.09a1.38,1.38,0,0,1,.46.11l.42.13a.15.15,0,0,0,.11,0c.25-.16.51-.05.76,0s.45.13.68.18a1.9,1.9,0,0,0,.3,0v.05a3,3,0,0,1-.46.19.24.24,0,0,0-.21.21c0,.08-.11.14-.16.21l-.29.35a2.58,2.58,0,0,1-.36.42,1,1,0,0,1-.39.12c-.4.09-.8.15-1.19.25-.21.05-.4.18-.6.23a1.18,1.18,0,0,0-.83.9.24.24,0,0,1-.23.18l-.77.12h-.07a1.73,1.73,0,0,0-.12-.28.12.12,0,0,0-.22,0C205.1,30.69,205.07,30.8,205,30.91Zm-.36,20.58.49.4.66.51c.11.08.12.15,0,.23-.25-.2-.48-.4-.73-.59a3.47,3.47,0,0,0-.41-.24C204.5,51.7,204.49,51.68,204.67,51.49Zm1.58,2.81a.8.8,0,0,0,.84.32.39.39,0,0,1,.13,0,.51.51,0,0,1,0,.12.57.57,0,0,1-.45.26,1.42,1.42,0,0,0-.8.45l-.33.34a.16.16,0,0,1-.25,0,.35.35,0,0,0-.45,0c-.07,0-.17,0-.23.09s-.29.22-.42.33l-.74.64a1.94,1.94,0,0,0-.57.61c-.09.18-.26.16-.43.14a.67.67,0,0,0-.69.36,6.47,6.47,0,0,1-.4.62l0,0c0-.12,0-.24,0-.36a.52.52,0,0,0-.06-.19.24.24,0,0,1,0-.27c.12-.22.19-.46.33-.66a2.5,2.5,0,0,0,.21-1.45,5.31,5.31,0,0,1,.07-.67c0-.26.14-.51.16-.77a1.44,1.44,0,0,0-.09-.6,1.35,1.35,0,0,1,.29-1.33.77.77,0,0,0,0-1.1.38.38,0,0,1-.1-.13c-.05-.08,0-.14.07-.15a.32.32,0,0,1,.35.13c.16.27.3.54.46.81s.61.65,1,.43a1,1,0,0,1,.26-.1.19.19,0,0,1,.13,0l1,.72a.75.75,0,0,1,.14.1s.1.12.09.17c-.06.27.13.43.24.63A4.68,4.68,0,0,0,206.25,54.29ZM206.17,52S206,52,206,52l-.59-.46-.42-.35a.11.11,0,0,1,0-.11c.05-.06.09-.14.21-.1a2,2,0,0,1,.71.43c.12.11.26.2.39.3a.73.73,0,0,1,.1.12A1.36,1.36,0,0,1,206.17,52Zm6-.2h-.07l0-.48h0Zm.31-11.39c-.21.31-.43.61-.62.92a5.57,5.57,0,0,0-.36.75c-.07.16.1.36.34.42l-.33.53-.85,1.42c-.12.19-.25.38-.37.57a.27.27,0,0,0,0,.38.1.1,0,0,1,0,.1l-.55.87-.45.73c-.16.26-.31.53-.47.78-.26.41-.53.82-.78,1.23s-.4.75-.63,1.11-.47.7-.71,1.05a.1.1,0,0,1-.08,0,.26.26,0,0,1-.21-.34,4.2,4.2,0,0,1,.57-.83,2.41,2.41,0,0,0,.31-.54c.16-.29.3-.58.47-.87s.34-.53.51-.8.35-.61.53-.92.36-.55.53-.82a1,1,0,0,0,.14-.32c0-.07,0-.15-.06-.23s-.19,0-.23.09a6.16,6.16,0,0,0-.51.71q-.54.91-1,1.84c-.26.48-.5,1-.76,1.46-.14.24-.32.46-.48.69a2.88,2.88,0,0,0-.16.31l-.09.18-.3-.24.68-.89.6-.75s.05,0,.06-.07.11-.19,0-.27-.16,0-.21.11c-.23.28-.46.57-.68.86s-.36.47-.55.7a.56.56,0,0,1-.25.16.41.41,0,0,1,0-.13l.73-1c.28-.38.54-.77.82-1.15s.44-.55.64-.83c.33-.45.66-.91,1-1.37s.68-1,1-1.57l.79-1.21c.16-.25.33-.49.47-.75s.21-.45.32-.67a4.85,4.85,0,0,1,.29-.44l.88-1.28,0,0A.29.29,0,0,1,212.44,40.44ZM228.91,33c.06.16.1.32.15.48s.2.55.27.83a3.58,3.58,0,0,1,.17,1.21,7.78,7.78,0,0,1-.2,1.58c-.07.23-.16.45-.25.66-.17.41-.33.82-.52,1.22s-.34.64-.52,1-.34.61-.5.92a9.41,9.41,0,0,1-1.07,1.54c-.21.26-.44.51-.64.78s-.51.72-.76,1.09c-.13.18-.26.36-.37.55s-.27.51-.41.76a5.19,5.19,0,0,0-.47,1.48c-.09.42-.13.86-.19,1.29,0,.2,0,.39-.06.59s0,.56-.07.84a2.25,2.25,0,0,0,.05.67.65.65,0,0,1,0,.26.14.14,0,0,0-.06.11s0,0,0,.07l0,.09a2.07,2.07,0,0,1-.35.56,1.65,1.65,0,0,1-.45.28,1.73,1.73,0,0,1-1.14.08c-.43-.07-.86-.15-1.29-.24a4.62,4.62,0,0,1-.58-.18,5.78,5.78,0,0,1-1.06-.4c-.65-.39-1.33-.71-2-1-.25-.12-.47-.28-.71-.42l-.88-.46c-.15-.08-.28-.19-.42-.28l-.48-.31c-.23-.16-.45-.33-.68-.48a4,4,0,0,0-.52-.27c-.1,0-.15-.08-.14-.21a3.81,3.81,0,0,0,0-.51,7.24,7.24,0,0,0,0-1.09,3,3,0,0,1,0-.9,3.16,3.16,0,0,1,.27-.77,14.38,14.38,0,0,0,.54-1.42,5.86,5.86,0,0,0,.09-1.63c0-.32,0-.65,0-1s-.05-.66,0-1c0-.09.06-.17.07-.26a.53.53,0,0,0,0-.25c-.06-.16-.14-.18-.29-.1,0-.45.07-.9.1-1.35,0-.21,0-.41,0-.62s0-.56,0-.83c0-.47,0-.93,0-1.4s-.06-.78-.11-1.17c0-.18-.07-.35-.11-.52a6.73,6.73,0,0,0-.16-.74c0-.13,0-.32-.24-.36a.37.37,0,0,0-.25,0,.25.25,0,0,0-.06.21c.06.33.16.66.2,1s.05.79.07,1.19a4.09,4.09,0,0,1,0,.57,5,5,0,0,1-.12.81c-.13.46-.27.92-.44,1.37s-.42,1-.64,1.48-.42.79-.58,1.2a3.83,3.83,0,0,0-.23.94c0,.37,0,.74-.05,1.11a1,1,0,0,1-.13.35c-.11.21-.22.41-.34.61-.21.37-.42.74-.64,1.1s-.47.69-.72,1.06c-.2-.19-.41-.36-.59-.56s-.43-.51-.64-.78c-.34-.44-.67-.89-1-1.35a9.53,9.53,0,0,1-.55-.89,4.11,4.11,0,0,1-.2-.55c-.15-.4-.31-.79-.44-1.2a2.9,2.9,0,0,1-.1-.51c0-.2-.05-.41-.07-.61s0-.56-.07-.84,0-.32-.07-.48a2.46,2.46,0,0,1,.3-1.79,2.44,2.44,0,0,0,.21-2.08.52.52,0,0,1,0-.29c.07-.26.17-.51.25-.76a.74.74,0,0,1,.33-.43,3.1,3.1,0,0,0,.4-.35l.17-.12,0,0-.05.14a11.35,11.35,0,0,0-.45,1.07,15.37,15.37,0,0,0-.4,1.82,3.6,3.6,0,0,0,.19,1.8l.13.41a.84.84,0,0,0,.58.57c.13-.15,0-.27,0-.4s-.2-.45-.3-.68a1.05,1.05,0,0,1-.07-.27.8.8,0,0,1,0-.2.45.45,0,0,0,0-.16,2,2,0,0,1,0-.77c0-.09,0-.19,0-.28a3.31,3.31,0,0,1,.16-.67c.19-.44.42-.87.63-1.3a1.73,1.73,0,0,0,.11-.36,5.77,5.77,0,0,0,.13-.67c0-.22,0-.44,0-.66a.62.62,0,0,1,0-.26,1.92,1.92,0,0,1,.2.93,7.76,7.76,0,0,1-.41,1.5.59.59,0,0,0,0,.54,4.49,4.49,0,0,0,.78.94c.23.22.53.37.78.57s.4.4.61.62a.6.6,0,0,1-.12.07c-.14,0-.15.12-.16.25,0,.31,0,.62-.07.93h-.08c0-.18,0-.37-.07-.55a2.86,2.86,0,0,0-.08-.46,2,2,0,0,0-.84-1.11,2.55,2.55,0,0,1-.71-.84,3,3,0,0,0-.27-.35.16.16,0,0,0-.24,0s0,.1,0,.15a2.14,2.14,0,0,1-.1.35,3.56,3.56,0,0,1-.19.38.75.75,0,0,0-.07.62,1.6,1.6,0,0,1,0,.22,3.84,3.84,0,0,0,.52,1.19.31.31,0,0,0,.34.19c.06,0,.14,0,.16-.09a.23.23,0,0,0,0-.2,2.61,2.61,0,0,1-.59-1.36.49.49,0,0,1,.12-.46c.17.38.53.56.79.84a1.93,1.93,0,0,1,.29.41,6.37,6.37,0,0,1,.37.84,1.45,1.45,0,0,1,0,.47c0,.07,0,.16,0,.22a.3.3,0,0,0,.17.17c.07,0,.16,0,.22-.09a.94.94,0,0,0,.15-.18c0,.08,0,.16,0,.24a1,1,0,0,1-.05.12c-.05.14,0,.26.08.3a.24.24,0,0,0,.35-.15,4.37,4.37,0,0,0,.31-1.37,2.8,2.8,0,0,0,0-.31h.05a1.18,1.18,0,0,0,.11.13,3.18,3.18,0,0,0,.32.27.17.17,0,0,0,.17,0,.32.32,0,0,0,.06-.21c0-.06-.06-.11-.1-.16a1.52,1.52,0,0,1-.27-.62c0-.12-.08-.28-.29-.26,0,0-.09-.06-.13-.11a1.72,1.72,0,0,0-.51-.45,3.9,3.9,0,0,1-1.08-.93,1.65,1.65,0,0,1-.25-.38.45.45,0,0,1,0-.32,4.17,4.17,0,0,0,.32-1.3,1.35,1.35,0,0,1,0-.18,2.11,2.11,0,0,0-.25-1.19.43.43,0,0,1,0-.06h.18a1.55,1.55,0,0,0,.24,0A4.33,4.33,0,0,0,209,30c.17-.05.33-.16.5-.21.38-.12.54-.49.82-.72a1.18,1.18,0,0,1,.63-.27,6.43,6.43,0,0,0,.71-.11,1.69,1.69,0,0,0,.51-.22c.26-.17.51-.36.75-.56s.18-.22.35-.22h.14v0a2.1,2.1,0,0,1-.24.14,1.17,1.17,0,0,0-.58.54.28.28,0,0,0,.06.36.17.17,0,0,0,.28-.07,1.15,1.15,0,0,1,.47-.46,1.08,1.08,0,0,1,.3-.15.56.56,0,0,1,.29,0,5.16,5.16,0,0,1,.78.24,1.44,1.44,0,0,0,.78,0c.13,0,.13-.11,0-.18a1.15,1.15,0,0,0-.28-.14l-.15,0,0-.08c.08-.13,0-.28-.11-.29s-.26-.15-.39-.27L215,27a.57.57,0,0,1,.46-.19c.1,0,.22-.08.33-.14l.45-.23a.55.55,0,0,1,.18,0v0l-.39.19c-.16.07-.34.13-.5.22a.31.31,0,0,0-.12.19s.07.1.12.13.36,0,.52-.11l.75-.45s.08,0,.1,0l.4.36-1,.3a.23.23,0,0,0-.12.16.22.22,0,0,0,.08.18.35.35,0,0,0,.36,0l.67-.33c.16-.07.18-.1.14-.28.26.14.52.27.77.42s.62.39.93.6a3.4,3.4,0,0,1,.46.4.42.42,0,0,0,.43.11h0c.26-.08.31,0,.26.26l-.16-.1a.18.18,0,0,0-.27.09c-.05.1,0,.19.11.22l.06,0c.27.14.31.12.36-.17l.51-.15c.11,0,.15-.2.1-.35s0-.1-.08-.16c.13,0,.21,0,.27.11a.79.79,0,0,1-.22.87,2,2,0,0,0-.45,1.05,2.57,2.57,0,0,0,.31,1.42,4.46,4.46,0,0,1,.26.79c.07.27.13.55.19.83s.07.5.1.75a.13.13,0,0,1-.05.1c-.22.15-.43.31-.66.43a8.61,8.61,0,0,0-1.06.71c-.37.29-.43.72-.65,1.07a.24.24,0,0,0,.1.32.17.17,0,0,0,.27-.1,1.89,1.89,0,0,1,.59-1A10.2,10.2,0,0,1,221,35l.26-.14h0a4.79,4.79,0,0,1,.43-.35,1,1,0,0,0,.27-1.16c-.17-.42-.3-.86-.44-1.29a7.44,7.44,0,0,1-.25-.8,1.92,1.92,0,0,1,.11-1.26,2.26,2.26,0,0,0,.24-1.53s0-.07,0-.15c.12.1.22.15.17.3a1.7,1.7,0,0,0,0,.17.18.18,0,0,0,.12.24.22.22,0,0,0,.28-.13l.09-.22.06,0c0,.14-.09.29-.12.43-.08.44-.4.81-.42,1.27a2.46,2.46,0,0,0,0,.58c.07.34.16.68.24,1s.1.4.16.6c.11.36.22.71.34,1.07.18.52.36,1.05.58,1.56a7.15,7.15,0,0,0,.48.78c.36.61.72,1.22,1.08,1.83.07.13.1.29.16.42a2.1,2.1,0,0,0,.19.28,1.72,1.72,0,0,0-.33.1.3.3,0,0,0-.13.17c-.07.27-.14.54-.19.82,0,.11,0,.24,0,.34-.13.4-.28.8-.4,1.2s-.25.82-.35,1.24a7.19,7.19,0,0,0-.14,1,6.62,6.62,0,0,0,0,.73c0,.1,0,.19,0,.29s0,.21.14.19a.27.27,0,0,0,.15-.2,12.6,12.6,0,0,1,.09-1.37,6.68,6.68,0,0,1,.34-1.44,13.33,13.33,0,0,0,.46-1.25c.08-.26.12-.54.18-.8a1.15,1.15,0,0,1,.06-.14,2,2,0,0,1,.1.24c0,.14,0,.3.1.44a1.48,1.48,0,0,1,0,.69.4.4,0,0,0,0,.23.24.24,0,0,0,.19.11.23.23,0,0,0,.16-.14,1.83,1.83,0,0,0,0-1c-.07-.25-.12-.51-.19-.77a3.43,3.43,0,0,0-.12-.32l0,0a.68.68,0,0,1,.14.15,6.77,6.77,0,0,1,.33.76c.08.24.11.5.17.75,0,.08.07.18.12.2s.19,0,.23-.16,0-.06,0-.09a1.82,1.82,0,0,0-.19-.94c-.06-.1-.1-.22-.16-.33l-.61-1a1,1,0,0,1-.11-.26,2,2,0,0,0-.26-.51c-.44-.69-.84-1.4-1.27-2.08a4.05,4.05,0,0,1-.37-.87c-.07-.2-.17-.39-.24-.59s-.14-.46-.21-.7l-.09-.29-.27-.91c0-.11-.07-.22-.1-.34-.08-.33-.16-.66-.24-1a.52.52,0,0,1,0-.22,1.26,1.26,0,0,1,.29-.67.4.4,0,0,0,.08-.22c0-.11.08-.12.18-.12a3.11,3.11,0,0,0,.81,0,2.31,2.31,0,0,0,1-.5c.11-.1.17-.07.27,0a2.86,2.86,0,0,0,1,.67,1.29,1.29,0,0,0,.33.06,2.5,2.5,0,0,1,1,.27c.05,0,.09.09.12.14l.6.76a.77.77,0,0,0,.12.13,1.38,1.38,0,0,1,.41.69C228.56,32.08,228.74,32.54,228.91,33Zm-1.78-6.38a1.94,1.94,0,0,1,.38.57,8.9,8.9,0,0,1,.43,1,.93.93,0,0,0,.28.39,1,1,0,0,1,.14.79l-.46-.16a.32.32,0,0,1-.14-.07,1,1,0,0,0-.58-.3c-.2-.05-.22-.08-.26-.24a1.3,1.3,0,0,1-.28,0c-.27-.11-.32-.09-.44.22-.18-.09-.36-.2-.55-.28a.69.69,0,0,1-.38-.39.23.23,0,0,1,0-.12c.06-.37.12-.75.18-1.12.14,0,.27.08.19-.12a.09.09,0,0,1,0-.07.89.89,0,0,1,.65-.36A1.16,1.16,0,0,1,227.13,26.63Zm.47-5a.63.63,0,0,0-.2.36c0,.15-.18.28-.28.41a3.65,3.65,0,0,1-.23.3c-.1.11-.16.27-.36.29s-.14.12-.21.19l-.17.19c-.16-.11-.17-.22-.07-.37a5.5,5.5,0,0,1,.91-1c.21-.19.39-.41.58-.63,0,0,0-.08.09-.1C227.68,21.45,227.72,21.56,227.6,21.67Zm.77-1.47s-.14,0-.2,0-.16.06-.1.18,0,.08,0,.1c-.26.27-.52.54-.77.81a15.8,15.8,0,0,0-1.53,1.66l-.06.1c-.14-.21-.13-.34,0-.49.3-.36.59-.72.89-1.08.15-.18.33-.33.49-.49s.35-.39.52-.59a.3.3,0,0,1,.26-.14.18.18,0,0,0,.2-.19.94.94,0,0,1,.3-.56l.5-.63.36-.46c.07-.09.12-.2.19-.29l.35-.44c.3-.37.59-.74.9-1.1s.57-.61.86-.92a1.88,1.88,0,0,0,.14-.21c.14-.2.27-.4.42-.59s.3-.38.46-.56a7.22,7.22,0,0,1,.56-.61,1.91,1.91,0,0,1,.42-.23l0,0-.13.17c-.16.17-.32.34-.47.52s-.14.21.07.35l-.23.26c-.3.38-.59.77-.9,1.15-.18.23-.39.43-.58.65s-.2.29-.31.42-.21.23-.31.34l0,0c.17-.22.35-.44.51-.67a.93.93,0,0,0,.12-.3s0-.09-.07-.1a.14.14,0,0,0-.13,0l-.65.84-.28.37-.38.51a2.69,2.69,0,0,0-.17.23,1.82,1.82,0,0,0-.09.22l0,.05a1.12,1.12,0,0,0,.22-.11,1.4,1.4,0,0,0,.17-.19l0,0a2.42,2.42,0,0,1-.3.46,3.28,3.28,0,0,0-.48.69,4.23,4.23,0,0,1-.28.37l-.56.72a.12.12,0,0,1-.11,0s.09-.07.1-.11A.31.31,0,0,0,228.36,20.2Zm2-2.46a1.28,1.28,0,0,1-.36.45l-.06-.05.37-.44Zm4.15-2.27a.48.48,0,0,1-.13.16c-.06.06-.11.11-.22.08a.63.63,0,0,0-.32,0,.32.32,0,0,0-.21.13c0,.05,0,.15.1.21a.86.86,0,0,0,.23.12c-.07.12-.14.24-.23.35s-.19.2-.27.31c-.21.29-.42.59-.63.87s-.38.48-.57.72c-.06.07-.1.15-.16.22l-.87,1-.44.52a.53.53,0,0,1-.39.21,3,3,0,0,0-.68.19.19.19,0,0,0,0,.36c.2.08.42.12.62.19s.09.12.13.18a.68.68,0,0,1-.15.05l-.66.07-.66.08a.27.27,0,0,1-.28-.11s-.11,0-.15,0a1.31,1.31,0,0,1-.24-.17s0-.09.06-.15c.17.2.3,0,.41,0a3.1,3.1,0,0,1,.74-.41c.06,0,.14-.11.13-.15s-.1-.15-.15-.15a1.73,1.73,0,0,0-.41.07.78.78,0,0,1-.2.06l.27-.36c.18.13.33.05.51,0a6.72,6.72,0,0,1,.68-.24,1.52,1.52,0,0,0,.33-.18.21.21,0,0,0,.08-.29c-.07-.12-.17-.06-.26,0l-1,.4,0,0,.13-.2.11-.19a.64.64,0,0,0,.71-.27c.05-.08.08-.15,0-.2a.37.37,0,0,0-.22,0s-.08.05-.12.08l-.05,0,.32-.41c.08.07.13.2.25.11a.28.28,0,0,0,.13-.18c0-.05-.09-.11-.16-.19a1.21,1.21,0,0,1,.12-.22c.17-.21.36-.42.54-.63a.22.22,0,0,1,.15-.05l.56,0a.25.25,0,0,0,.15-.07s.09-.11.07-.14a.24.24,0,0,0-.14-.11,1.59,1.59,0,0,0-.26-.05,1.72,1.72,0,0,1,.3-.23,3.2,3.2,0,0,1,.36-.08,1.16,1.16,0,0,0,.34-.15s0-.15.07-.22a.86.86,0,0,0-.23-.05,3.52,3.52,0,0,0-.39.07.39.39,0,0,1,.36-.34.49.49,0,0,0,.2,0,.22.22,0,0,0,.11-.13s-.05-.09-.09-.13-.07,0-.12,0a2.79,2.79,0,0,1,.31-.38.24.24,0,0,1,.24,0,.34.34,0,0,0,.45.07,2.08,2.08,0,0,1,1-.17C234.79,15.26,234.59,15.34,234.54,15.47Z" transform="translate(-5.08 -6.71)"/><path class="cls-2" d="M220.78,37.62a5.57,5.57,0,0,1,.38-1.52,2.18,2.18,0,0,1,.89-1,.7.7,0,0,1,.53-.13.28.28,0,0,1,.16.11c.16.25.3.51.48.75a7.3,7.3,0,0,1,.8,1.35,2.69,2.69,0,0,1,.2.87,3,3,0,0,1-.1,1.29c-.05.15,0,.32-.08.47s-.12.41-.19.62-.17.48-.24.72a10.45,10.45,0,0,0-.32,1.24,13.28,13.28,0,0,0-.12,1.5,2.74,2.74,0,0,0,.09.53,1.63,1.63,0,0,1,0,.38.28.28,0,0,1-.13.2.17.17,0,0,1-.23-.13,5.19,5.19,0,0,1-.1-.53q0-.36-.08-.72a3.23,3.23,0,0,1,0-.39c0-.28,0-.56,0-.84A13,13,0,0,1,222.9,41c.11-.61.31-1.2.44-1.8a4.09,4.09,0,0,0,.08-.84,8.42,8.42,0,0,0-.06-.87,2.11,2.11,0,0,0-.43-1,4.89,4.89,0,0,1-.53-.93c-.06-.15-.08-.16-.21-.06a1.82,1.82,0,0,0-.71.78,7,7,0,0,0-.23.81,2.87,2.87,0,0,0-.1,1s-.05.11-.1.14-.11,0-.13-.08S220.83,37.79,220.78,37.62Z" transform="translate(-5.08 -6.71)"/><path class="cls-2" d="M220.43,35.95a2.45,2.45,0,0,0-.24.29,6,6,0,0,0-.3.56c-.09.18-.16.36-.23.55s-.12.18-.24.14a.18.18,0,0,1-.1-.14,2.14,2.14,0,0,1,.42-1.06,1.56,1.56,0,0,0,.15-.26.84.84,0,0,1,.51-.46,2,2,0,0,0,.42-.18c.13-.08.22,0,.32,0s.09.12,0,.2a3.9,3.9,0,0,0-.72,1.87,2.38,2.38,0,0,0,.09,1.22.88.88,0,0,1,0,.14q0,.12.06.23s0,0,0,.07a.66.66,0,0,1,0,.26.19.19,0,0,1-.17.07.37.37,0,0,1-.17-.19c-.07-.22-.11-.45-.17-.68a3.93,3.93,0,0,1,.21-2.28,2.47,2.47,0,0,1,.17-.34Z" transform="translate(-5.08 -6.71)"/><path class="cls-2" d="M212.06,30.27a2.11,2.11,0,0,1-.3,0,1.26,1.26,0,0,0-.83.2,2.83,2.83,0,0,1-1.16.48,1,1,0,0,1-.86-.22s-.07-.11-.05-.14a.4.4,0,0,1,.15-.14.17.17,0,0,1,.12,0,1.38,1.38,0,0,0,1.11-.18c.23-.11.45-.24.68-.35a1,1,0,0,1,.86,0h0C212.07,30,212.07,30,212.06,30.27Z" transform="translate(-5.08 -6.71)"/><path class="cls-2" d="M210.06,31.56a1.16,1.16,0,0,0-.73.07s-.12,0-.17-.08,0-.1,0-.14a.78.78,0,0,1,.72-.28.85.85,0,0,0,.74-.25,1.29,1.29,0,0,1,.61-.41c.21,0,.36.05.37.26,0,0-.08.15-.12.14a.47.47,0,0,0-.43.23A1.21,1.21,0,0,1,210.06,31.56Z" transform="translate(-5.08 -6.71)"/><path class="cls-2" d="M221.29,34.83a.57.57,0,0,0,.5-.16,2.56,2.56,0,0,0,.38-.36.26.26,0,0,1,.39,0c.12.12,0,.2-.06.28l-.6.57a.52.52,0,0,1-.5.07.19.19,0,0,1-.13-.29.51.51,0,0,0,0-.11Z" transform="translate(-5.08 -6.71)"/><path class="cls-2" d="M212,31.21l-.1-.38a1,1,0,0,1-.06-.24c0-.06,0-.17.08-.17s.19,0,.22.06a3,3,0,0,1,.23.58.44.44,0,0,1-.06.29c0,.06-.15.14-.19.12s-.1-.13-.14-.2,0,0,0-.06Z" transform="translate(-5.08 -6.71)"/><path class="cls-2" d="M211.72,31.41c0,.06-.06.13-.09.13s-.21,0-.26,0a.78.78,0,0,1-.17-.32s0-.13.09-.16a.17.17,0,0,1,.16,0C211.55,31.16,211.63,31.29,211.72,31.41Z" transform="translate(-5.08 -6.71)"/><path class="cls-2" d="M220.1,29.21c.07.06.13.08.15.12a.21.21,0,0,1,0,.17.24.24,0,0,0-.06.24.2.2,0,0,1-.1.17.21.21,0,0,1-.2,0,.21.21,0,0,1,0-.2.32.32,0,0,0,.07-.23C220,29.36,220,29.29,220.1,29.21Z" transform="translate(-5.08 -6.71)"/><path class="cls-2" d="M217.4,28l-.17,0c-.1,0-.13-.07-.11-.19s.1-.12.19-.12a.75.75,0,0,1,.22,0c.06,0,.14.06.14.1a.23.23,0,0,1-.09.17A.53.53,0,0,1,217.4,28Z" transform="translate(-5.08 -6.71)"/><path class="cls-2" d="M210,15c-.07-.06-.17-.12-.18-.19s.07-.16.14-.19A3.17,3.17,0,0,1,211,14.3c.06,0,.12.07.19.11s-.06.13-.11.15l-1,.37-.11,0Z" transform="translate(-5.08 -6.71)"/><path class="cls-2" d="M211.13,13.67a.81.81,0,0,1,.19,0,.65.65,0,0,1,.15.09s-.05.11-.1.13a3.25,3.25,0,0,1-.32.1c-.17.06-.34.13-.52.17s-.2,0-.22,0a.29.29,0,0,1,0-.26.49.49,0,0,1,.27-.17,4.65,4.65,0,0,1,.55-.06Z" transform="translate(-5.08 -6.71)"/><path class="cls-2" d="M209.49,15.9c-.08-.08-.17-.13-.18-.2a.23.23,0,0,1,.1-.2,6.64,6.64,0,0,1,.73-.21.18.18,0,0,1,.14.07.14.14,0,0,1,0,.14Z" transform="translate(-5.08 -6.71)"/><path class="cls-2" d="M211.21,13l.21.16a1.64,1.64,0,0,1-.18.18,1.07,1.07,0,0,1-.26.15.41.41,0,0,1-.25,0,.25.25,0,0,1-.14-.17s.05-.13.11-.16S211,13.11,211.21,13Z" transform="translate(-5.08 -6.71)"/><path class="cls-2" d="M209.52,16.36c-.11.1-.18.2-.26.21a.19.19,0,0,1-.2-.18.24.24,0,0,1,.24-.2C209.37,16.2,209.42,16.28,209.52,16.36Z" transform="translate(-5.08 -6.71)"/><path class="cls-2" d="M217.56,24.87c0-.11.05-.15.17-.18a6.21,6.21,0,0,0,.67-.2l.49-.19a.16.16,0,0,1,.14,0,.17.17,0,0,1,0,.24,3.21,3.21,0,0,1-1.15.52C217.66,25.14,217.55,25,217.56,24.87Z" transform="translate(-5.08 -6.71)"/><path class="cls-2" d="M217.9,25.62a.18.18,0,0,1-.23-.17c0-.06.07-.16.14-.19.29-.12.59-.23.89-.34a1.35,1.35,0,0,0,.18-.06.12.12,0,0,1,.2.06.23.23,0,0,1-.07.2,2.7,2.7,0,0,1-.38.19l-.59.28A.55.55,0,0,1,217.9,25.62Z" transform="translate(-5.08 -6.71)"/><path class="cls-2" d="M217.55,20.65c0,.1-.08.18-.12.26a.77.77,0,0,1-.15.21.41.41,0,0,1-.23.09.19.19,0,0,1-.15-.12.29.29,0,0,1,0-.22,1.57,1.57,0,0,1,.28-.31.33.33,0,0,1,.22-.07S217.51,20.59,217.55,20.65Z" transform="translate(-5.08 -6.71)"/><path class="cls-2" d="M218.25,26.19c-.08,0-.17,0-.22-.11s0-.23.12-.27l.34-.12a.21.21,0,0,1,.29.12c0,.13,0,.19-.14.23Z" transform="translate(-5.08 -6.71)"/><path class="cls-2" d="M217.86,24.16a.24.24,0,0,1,.23.22.18.18,0,0,1-.18.18c-.11,0-.18-.11-.18-.25S217.78,24.15,217.86,24.16Z" transform="translate(-5.08 -6.71)"/><path class="cls-2" d="M218.89,26.53a.13.13,0,0,1-.15.12.21.21,0,0,1-.2-.23c0-.05.1-.11.16-.13S218.89,26.38,218.89,26.53Z" transform="translate(-5.08 -6.71)"/><path class="cls-2" d="M217.25,21.4c.08.09.15.14.17.2a.14.14,0,0,1-.16.18c-.07,0-.14-.11-.2-.17Z" transform="translate(-5.08 -6.71)"/><path class="cls-2" d="M205.64,25.43a2.85,2.85,0,0,0-1.08.19,5.31,5.31,0,0,0-.54.26c-.06,0-.13.09-.13.14a.34.34,0,0,1-.22.27c-.18.1-.2.29-.29.44a2.39,2.39,0,0,0-.2.61c0,.08-.18.15-.28.17s-.28,0-.3-.18a1.26,1.26,0,0,1,0-.35,5.09,5.09,0,0,1,.13-.67,1.76,1.76,0,0,1,.55-.93l.38-.29s.06-.05.06-.07c0-.21.15-.27.26-.37a.19.19,0,0,1,.32.06c0,.08.09.08.17.06a2.09,2.09,0,0,1,1.26,0,2.74,2.74,0,0,1,.58.36s0,.09,0,.12-.3.15-.46.17A1.32,1.32,0,0,1,205.64,25.43Z" transform="translate(-5.08 -6.71)"/><path class="cls-2" d="M202.84,37.45a1.53,1.53,0,0,1-.33-.19c-.31-.31-.63-.63-.92-1a.94.94,0,0,1-.28-.66,1.48,1.48,0,0,0,0-.22.31.31,0,0,0-.21-.31c-.15-.05-.14-.26,0-.56a.23.23,0,0,1,.31-.11.41.41,0,0,1,.2.24c.09.32.17.64.24,1a1.18,1.18,0,0,0,.37.6c.28.28.56.57.83.87,0,0,.09.15.07.18A1.18,1.18,0,0,1,202.84,37.45Z" transform="translate(-5.08 -6.71)"/><path class="cls-2" d="M202.89,31.4a2,2,0,0,1,.2-.42,1.38,1.38,0,0,1,.45-.43,1.68,1.68,0,0,0,.68-.69.74.74,0,0,0,.1-.59.16.16,0,0,1,.16-.21.34.34,0,0,1,.33.33,1.85,1.85,0,0,1-.42,1.09,5.3,5.3,0,0,1-.73.61.75.75,0,0,0-.28.45.23.23,0,0,1-.3.15.22.22,0,0,1-.16-.26Z" transform="translate(-5.08 -6.71)"/><path class="cls-2" d="M202.17,27.55c.08.14,0,.23-.06.33a1,1,0,0,0,0,.17l0,.11c-.05.16-.12.32-.16.49s-.11.59-.19.88a.91.91,0,0,1-.21.29l-.37.41a.41.41,0,0,1-.4.1c-.15,0-.19-.18-.09-.31a4.53,4.53,0,0,1,.36-.42,1.42,1.42,0,0,0,.41-1A1.06,1.06,0,0,1,202.17,27.55Z" transform="translate(-5.08 -6.71)"/><path class="cls-2" d="M209,28.25c-.39,0-.73-.05-1.06-.06a.66.66,0,0,0-.55.21c0,.05-.06.14-.12.18s-.18.11-.25.09a.3.3,0,0,1-.14-.22.57.57,0,0,1,.28-.58,1.39,1.39,0,0,1,1-.14,2.28,2.28,0,0,0,.84,0,.58.58,0,0,0,.22-.11.21.21,0,0,1,.32,0,.25.25,0,0,1,0,.33A1,1,0,0,1,209,28.25Z" transform="translate(-5.08 -6.71)"/><path class="cls-2" d="M204.49,27.79c.29.12.63.06.89.28a.92.92,0,0,0,.29.13.54.54,0,0,1,.41.4.23.23,0,0,1,0,.18s-.12,0-.17,0c-.28-.14-.56-.29-.85-.42a1,1,0,0,0-.43-.08c-.18,0-.26.16-.33.31a.25.25,0,0,1-.34.16c-.14-.05-.16-.15-.12-.32a.76.76,0,0,1,.47-.56Z" transform="translate(-5.08 -6.71)"/><path class="cls-2" d="M204.85,26.17l.6.19.29.06.25.07.37.11s.12.05.12.07a.25.25,0,0,1-.07.16.57.57,0,0,1-.5.05l-1.3-.25c-.06,0-.15-.1-.15-.15a.25.25,0,0,1,.19-.26l.19,0Z" transform="translate(-5.08 -6.71)"/><path class="cls-2" d="M200.42,34.49a1.6,1.6,0,0,1,.39-.81,1.12,1.12,0,0,1,.48-.19s.14.06.16.12a.21.21,0,0,1-.08.18,1.59,1.59,0,0,0-.53.87.24.24,0,0,1-.12.13C200.57,34.84,200.42,34.71,200.42,34.49Z" transform="translate(-5.08 -6.71)"/><path class="cls-2" d="M202.72,35.42c0,.07,0,.17.06.27s.12.37.17.56a.21.21,0,0,1-.08.17.26.26,0,0,1-.36-.05,2,2,0,0,1-.21-1,.23.23,0,0,1,.28-.2C202.71,35.17,202.75,35.26,202.72,35.42Z" transform="translate(-5.08 -6.71)"/><path class="cls-2" d="M200.39,29.11c-.09-.06-.24-.12-.23-.15a.62.62,0,0,1,.15-.38,1.53,1.53,0,0,1,.51-.21c.16,0,.24,0,.27.18s-.06.2-.18.24a1.62,1.62,0,0,0-.31.19Z" transform="translate(-5.08 -6.71)"/><path class="cls-2" d="M206.7,25.84a.47.47,0,0,1,.42.2.24.24,0,0,1,0,.17s-.08.07-.12.07a4.85,4.85,0,0,1-.65,0,.26.26,0,0,1-.16-.18c0-.11.08-.13.18-.14A1.76,1.76,0,0,0,206.7,25.84Z" transform="translate(-5.08 -6.71)"/><path class="cls-2" d="M208.75,28.56a.69.69,0,0,1-.15.14,5.51,5.51,0,0,1-.52.23.15.15,0,0,1-.13,0,.15.15,0,0,1,0-.14,3.29,3.29,0,0,1,.46-.41C208.54,28.25,208.76,28.4,208.75,28.56Z" transform="translate(-5.08 -6.71)"/><path class="cls-2" d="M202.79,29.94a.28.28,0,0,1-.29-.25c0-.13.1-.17.2-.17s.25.11.25.27S202.87,29.94,202.79,29.94Z" transform="translate(-5.08 -6.71)"/><path class="cls-2" d="M203.25,37c0-.05-.11-.14-.09-.2a.31.31,0,0,1,.2-.18.21.21,0,0,1,.24.18C203.59,36.88,203.44,37,203.25,37Z" transform="translate(-5.08 -6.71)"/><path class="cls-2" d="M202.89,52.36a1.2,1.2,0,0,1,.32.16.8.8,0,0,0,.64.16c.21,0,.27,0,.37.24a1,1,0,0,0,.22.23c.16.16.18.28,0,.37a.34.34,0,0,1-.42-.07.68.68,0,0,0-.54-.25s-.12.07-.12.08c.15.42-.2.69-.29,1l-.18.62c-.06.22-.11.44-.18.65a.2.2,0,0,1-.24.13c-.11,0-.2-.07-.2-.19a6.16,6.16,0,0,1,0-.88,3.25,3.25,0,0,1,.2-.65,1,1,0,0,0-.06-.79.69.69,0,0,1,.15-.75C202.67,52.4,202.79,52.39,202.89,52.36Z" transform="translate(-5.08 -6.71)"/><path class="cls-2" d="M205.46,54.46a.34.34,0,0,1,.26.25c0,.13-.06.19-.14.21a.69.69,0,0,0-.39.34,1,1,0,0,1-.42.37c-.17.08-.29.26-.45.36a5.68,5.68,0,0,1-1,.64.53.53,0,0,0-.23.22.27.27,0,0,1-.34.14.21.21,0,0,0-.16,0,.25.25,0,0,1-.36,0c-.1-.11,0-.19.05-.28a6.45,6.45,0,0,1,.57-.59,6.27,6.27,0,0,1,1-.62,2.72,2.72,0,0,0,.73-.43,4,4,0,0,1,.44-.41A2.73,2.73,0,0,1,205.46,54.46Z" transform="translate(-5.08 -6.71)"/><path class="cls-2" d="M210.25,44.42a1.3,1.3,0,0,1,.07-.25c.15-.29.3-.57.46-.85a1.06,1.06,0,0,1,.22-.24.43.43,0,0,1,.14-.05c0,.06.06.12,0,.17a2,2,0,0,1-.19.38q-.25.4-.53.79s-.11.07-.17.1Z" transform="translate(-5.08 -6.71)"/></svg>