<?xml version="1.0" encoding="utf-8"?>
<!-- Generator: Adobe Illustrator 21.0.0, SVG Export Plug-In . SVG Version: 6.00 Build 0)  -->
<svg version="1.1" id="Layer_1" xmlns="http://www.w3.org/2000/svg" xmlns:xlink="http://www.w3.org/1999/xlink" x="0px" y="0px"
	 viewBox="0 0 107.6 146.3" style="enable-background:new 0 0 107.6 146.3;" xml:space="preserve">
<style type="text/css">
	.st0{fill:#D05C63;}
	.st1{fill:#F8B0AD;}
	.st2{fill:#EAD8C7;}
	.st3{fill:#797993;}
	.st4{fill:none;stroke:#EAD8C7;stroke-miterlimit:10;}
	.st5{fill:#252430;}
</style>
<g>
	<path class="st0" d="M87.9,77.5c-0.2-3.1-1-5.7-2.4-8.3c0.2-0.5,0.2-0.9,0.2-1.5c0-2.4-2.1-4.7-4.6-4.6c-0.1,0-0.1,0-0.1,0
		c-0.3-0.2-0.6-0.3-0.9-0.5c-1-0.6-1.9-1.2-3.1-1.6c-2.2-0.8-4.7-0.6-6.7,0.8c-0.7-0.5-1.5-1-1.8-1.2c-2.4-1.5-5-1.3-7.6-1.6
		c-0.3,0-0.1-0.1-0.4-0.1c-0.5-0.8-2.2-2.6-2.4-2.8c-2.9-1.9-6-0.4-8.8,0.9c-2.4,1.1-4.7,2.3-7,3.7c-0.2,0.2-0.5,0.3-0.7,0.5
		c-2.2,0-3.5,1.3-4.1,2.8c-0.3,0.2-0.5,0.3-0.6,0.3c-1.9-0.4-3.9,0.2-5,2c-0.2,0.3-0.3,0.6-0.4,0.9c-2.3,0.3-3.9,2.2-4,4.5l-0.4,5.9
		c-0.7,0.6-1.3,1.4-1.5,2.3c-0.2,1.3-0.1,2.5,0.2,3.6c0,0.6-0.1,1.3,0,1.9c0.1,1.8,0.6,3.4,1.4,5c1.2,2.7,2.6,5.4,4,8.1
		c0.4,0.9,1.1,1.5,1.9,1.8c-0.1,1.1,0.6,2.3,2,2.3c1.4,0,2.1-1.2,2-2.3c1.2-0.5,2.1-1.5,2.4-2.9c0.7-3.6,1.8-7.1,3.2-10.4
		c0.5,1.1,1.5,1.9,2.8,2.5c0.4,0.2,0.8,0.3,1.2,0.4c-0.2,1-0.4,2-0.6,2.9c-0.7,3.9-1.5,7.7-2.2,11.6c-0.1,0.4-0.1,0.8-0.1,1.2
		c-0.2,0.7-0.2,1.5,0.1,2.2c1,2.8,3.1,4.5,6,5.2c0.8,0.2,1.4,0.2,2,0.7c0.9,0.7,1.6,1.6,2.5,2.3c4.3,3.5,9.2,5.2,14.8,4.6
		c2.5-0.2,4.6-1.9,4.6-4.6c0-0.8-0.3-1.7-0.7-2.4c0.2-0.5,0.3-1,0.3-1.6c0.1-2.7,0.5-5.3,1.4-7.7c1.8,0.3,3.7-0.5,4.8-2.2
		c1-1.5,1.3-3.2,2-4.8c0.4-0.9,1.1-1.4,1.9-2.2c2.1-2.3,3.3-5.2,3.8-8.3C87.9,83.8,88.1,80.6,87.9,77.5z"/>
	<path class="st1" d="M84.4,55.6c-1.2-0.9-2.6-1.3-4-1.6c-0.5-0.1-2-0.4-2-0.4c-0.5-0.4-0.8-1.5-1.1-2.3c-0.5-1.5-1-2.9-1.4-4.4
		c-0.3-1.1-0.5-2.2-0.8-3.3c1.4-1,1.9-2.9,1.6-4.7c0-0.2,0-0.3-0.1-0.5c0.7-0.9,1-2.2,0.6-3.5c-0.3-1-0.6-1.9-0.9-2.8
		c-0.1-0.9-0.2-1.7-0.4-2.5c-0.9-3.4-3.2-6-6.3-7.4c0-0.3-0.1-0.7-0.4-1c-1.2-1.8-2.8-3-4.7-3.6c0.3-1.8,0.4-3.7,0.1-5.4
		c1.8-0.7,1.8-3.8-0.2-4.3C64,7.6,63.5,7.5,63,7.5c-1,0-1.6,0.5-2,1.2c-0.7-0.4-1.4-0.7-2.1-1c-2.6-1.4-4.9,2.6-2.3,3.9
		c0.8,0.4,1.5,0.8,2.3,1.2c0.4,0.2,0.7,0.4,1.1,0.6c0,0,0,0,0,0c0.4,1.6-0.1,3.8-0.5,5.4c-0.1,0.4-0.1,0.8,0,1.1
		c-3.3-0.5-6.6-0.1-9.9,0.5c0-0.3,0-0.6,0-0.9c-0.1-1.4-0.2-2.7-0.3-4.1c-0.1-2-2.4-2.7-3.7-1.8c-1.3,0.1-2.6,1.2-2.1,2.8
		c0.3,0.9,0,1.7-0.2,2.6c0,0,0,0-0.1,0c-0.7,0.4-1.2,1.2-1.1,2c-0.8,0.2-1.5,0.5-2,1.2c-2.5,3.1-4.1,6.4-5.6,10
		c-1.5,3.5-3,7.2-3,11.1c0,8.2,6.8,12.1,13.5,14.7c1.3,0.5,2.6,0.1,3.7-0.7c0.7,0,1.5-0.1,2.3-0.6c1.9-1.1,2.9-4.1,1.6-6
		c-1.5-2.1-1.9-4.5-1.9-7c0-0.6,0-1.2,0-1.9c0-0.3,0-0.7,0-1c0.7-0.7,1.6-1.2,2.5-1.6c0,0.6,0.2,1.2,0.5,1.7
		c-0.5,2.2,0.5,4.9,3.1,5.4c0,2.2,0,4.4,0,6.6c0,2.5,1.7,3.9,3.6,4.2c3.3,3.1,7.3,4.8,11.8,5.1c0.9,0.1,1.9-0.3,2.6-0.9
		c0.7,0.3,1.5,0.6,2.3,0.8c1.1,0.3,2.2,0.3,3,0.9c1.9,1.4,4.9,0.3,6-1.6C87.3,59.4,86.3,57,84.4,55.6z M61.6,33.1
		c-0.5-0.4-1-0.8-1.5-1.2c1-0.1,2-0.1,3,0C62.5,32.2,62,32.6,61.6,33.1z"/>
	<path class="st1" d="M33.7,25.9c-0.4-2.3-1.6-4.3-2.9-6.2c-1.2-1.8-3.4-1.2-4.2,0.5c-0.6,1.4-1.7,3.1-0.9,4.7
		c0.7,1.4,2.4,2.6,3.6,3.7c0,0,0,0,0,0c0,1.6-0.2,3.5-0.9,4.7c-0.3,0.6-0.9,0.9-1.3,1.3c-0.6,0.7-0.9,1.5-1.1,2.3
		c-0.6,2.1-0.8,4.3-0.7,6.5c0.1,2.9,4.7,2.9,4.6,0c-0.1-2-0.2-4.7,1.2-6.2c1.4-1.5,1.9-2.9,2.3-4.9C33.7,30.2,34,28.1,33.7,25.9z"/>
	<path class="st1" d="M19.9,44.4c-0.9-0.5-2-0.3-2.8,0.4c-0.3,0.3-0.5,0.6-0.7,0.9c-0.6-0.2-1.3-0.1-1.8,0.2
		c-0.4,0.2-0.8,0.5-1.1,0.7c-1.5,1-1.4,2.9,0,3.9c0.5,0.4,1.1,0.6,1.8,0.7c1,0.6,2.1,0.6,3.2,0.1c0.1,0,0.1-0.1,0.2-0.1
		c0.5,0.1,1,0,1.4-0.3C22.2,49.3,22.3,45.9,19.9,44.4z"/>
	<path class="st2" d="M38.1,55.9c-1,0-1.9-0.3-2.8-0.6c0.3-0.7,0.5-1.3,0.5-2.1c0-0.8-0.2-1.5-0.6-2.2c-0.8-1.3-2.2-2.1-3.7-2.1
		c-0.6,0-1.3,0.2-1.9,0.6c-1.2-1.7-2.5-3-5-3c-1.4,0-2.8,1-3.1,2.4c-0.2,0.9-0.3,1.8-0.1,2.8c0.1,0.5,0.4,1.2,0.5,1.8
		c-0.2-0.1-0.3-0.1-0.5-0.1c-1.9,0.1-3.6,1.2-4.4,2.9c0,0.1-0.1,0.2-0.1,0.3c-0.5,0.1-1.1,0.1-1.6,0.3c-1.7,0.4-3.3,1.3-4.4,2.6
		c-2.5,2.8-3,7-1.1,10.2c0.7,1.1,2,2,2.5,3.3c0.6,1.4,0.5,2.8,1.5,4c-0.2,1.1,0,2.4,0.7,3.4c1.2,1.9,3.8,3,5.6,4.2
		c2.8,1.9,5.5-1.5,4.5-4c0.4-0.5,0.7-1.2,0.8-2c0.2-2.9,0.4-5.8,0.6-8.7c0-0.1,0.1-1.3,0.2-2.1c0.2,0,0.4,0,0.6,0
		c0.7,0,1.5-0.3,2.2-0.6c1.6-1,1.9-3,3.6-3.8c1.7-0.8,3.9-0.8,5.8-0.8C42.3,62.3,42.3,56.1,38.1,55.9z"/>
	<path class="st2" d="M99,26.7c-2,0.7-3.9,1.7-5.4,3.3c-1.5,1.6-2.2,3.8-3.7,5.4c-1.3,1.4-2.9,2.8-3.3,4.7c-1.7-0.2-2.4,2.7-0.5,3.4
		c1,0.4,2,0.6,3.1,0.7c1.8,0.2,3.5-4.6,4.2-5.5c1.2-1.6,2.3-3.2,3.5-4.8c1-1.4,1.9-3.3,3.5-4.1C102,28.9,100.9,26.1,99,26.7z"/>
	<path class="st3" d="M44,90.3c-1.9,2.3-3.5,4.7-4.8,7.4c-0.7,1.4-1.1,3-1.7,4.5c-0.9,1-1.7,2.2-2.4,3.4c-0.2,0.3-0.4,0.5-0.6,0.8
		c-0.5,0.3-1,0.6-1.4,1.1c-0.5,0.5-0.7,1.2-0.9,1.8c-1.7,2-3.4,4-5.2,6c-0.7,0.8-0.6,2.1,0.3,2.7c0.6,0.3,1.1,0.6,1.7,1
		c0.9,0.5,2.3,0.1,2.5-1c0.4-2.3,2.5-3.7,3.4-5.7c0.1-0.4,0.2-0.7,0.3-1.1c0.2-0.2,0.3-0.4,0.5-0.6c0.7,0,1.3-0.4,1.6-1.2
		c0.1-0.3,0.2-0.5,0.3-0.7c0.6-0.5,1.1-1.1,1.5-1.7c0.4-0.7,0.8-1.4,1.1-2.1c0.3-0.4,0.6-0.8,0.9-1.3c0.4-0.5,0.4-1.1,0.1-1.5
		c0.2-0.6,0.5-1.2,0.7-1.8c1.2-2.6,2.7-5.1,4.5-7.3C47.8,91.1,45.4,88.6,44,90.3z"/>
	<path class="st3" d="M96.5,23.7c-0.6,1.6-2.5,2.7-3.6,3.9c-1.4,1.6-2.6,3.3-3.9,5c-2.6,3.4-5.2,6.9-8,10.1
		c-1.3,1.5-5.5,4.3-3.1,6.6c0.8,0.8,1.9,0.6,2.7-0.1c1.7-1.4,3.1-3.4,4.5-5.1c0.6-0.8,0.1-1.8-0.6-2c1.2-1.4,2.3-2.9,3.4-4.3
		c2.1-2.7,4.1-5.4,6.2-8c1.6-1.9,3.8-3.1,4.7-5.4C99.2,22.9,97,22.3,96.5,23.7z"/>
	<path class="st2" d="M31.2,126.2c-0.9-0.6-1.8-1.4-2.4-2.4c-0.3-0.4-0.7-0.9-0.6-1.4c0.1-0.4,0.4-0.4,0.6-0.8
		c0.9-1,0.8-2.5-0.1-3.4c-1-1-2.6-0.9-3.5,0c-0.7,0.7-0.8,1.9-2,1.7c-1.1-0.1-1.8-1.6-2.3-2.5c-0.9-1.5-3.2-0.1-2.3,1.3
		c0.4,0.6,0.8,1.2,1.2,1.8c-1.6,0.9-1.4,3.5-1.4,5.2c0,3.4-0.6,6.7-1.7,9.9c-0.1,0.3-0.2,0.6-0.3,0.9c-0.4,1.7,2,2.3,2.6,0.7
		c0-0.1,0.1-0.2,0.1-0.3c0.4-1,2-1.1,2.8-1.8c1-0.8,1.6-1.9,2.6-2.6c2-1.7,4.5-3.1,6.9-4.2C32.1,128.1,31.9,126.7,31.2,126.2z
		 M28,127.1c-0.3,0.2-0.7,0.3-1,0.5c0.1-0.5,0.1-1.1,0-1.6C27.3,126.3,27.7,126.7,28,127.1z"/>
	<g>
		<g>
			<path class="st4" d="M115,120.2"/>
		</g>
	</g>
	<path class="st2" d="M90.6,22.7c-3.1,4.7-6.4,9.3-9.7,13.9c-1.3,1.8,1.7,3.5,3,1.7c3.2-4.6,6.5-9.2,9.7-13.9
		C94.8,22.6,91.9,20.9,90.6,22.7z"/>
	<g>
		<path class="st5" d="M103.8,26.4c-0.2-0.3-0.5-0.2-0.8-0.2c-0.5,0-1,0-1.5,0c-0.4,0-0.7-0.1-1.1-0.1c-0.2,0-0.5,0-0.7,0
			c0-0.1,0-0.1,0-0.2c0.2-0.2,0.4-0.4,0.6-0.6c0.4-0.4,0.8-0.9,0.7-1.4c0-0.5-0.5-0.6-0.9-0.8c-0.2-0.1-0.4-0.2-0.6-0.4
			c-0.2-0.1-0.4-0.3-0.5-0.4c-0.2-0.1-0.4-0.2-0.6-0.4c-0.2-0.2-0.5-0.3-0.9,0c-0.7,0.6-1.5,1.1-2,1.9c-0.1,0.2-0.3,0.3-0.5,0.5
			c-0.2-0.7-0.4-1.4-0.6-2c-0.1-0.3-0.1-0.6-0.2-0.9c-0.1-0.4-0.2-0.8-0.4-1.1c-0.1-0.1-0.4-0.2-0.5-0.2c-0.3,0.2-0.5,0.4-0.7,0.6
			c-0.2,0.3-0.3,0.7-0.4,1c0,0.1,0.1,0.4,0.1,0.4c0.3,0.1,0.3,0.3,0.3,0.6c0.1,1.1-0.3,2.1-0.3,3.2c0,0.3-0.1,0.6-0.3,0.9
			c-0.3,0.6-0.7,1.1-1.1,1.7c-0.4,0.6-0.9,1.2-1.4,1.8c-0.2,0.2-0.3,0.5-0.4,0.7L89,30.9c0-0.4,0-0.8,0-1.2c0-0.1-0.2-0.4-0.3-0.4
			c-0.2,0-0.4,0.1-0.5,0.2c-0.1,0.3-0.3,0.6-0.3,0.9c0,0.5,0.1,0.9,0.1,1.4c0,0.2-0.1,0.4-0.2,0.6l-0.2,0c0-0.1,0-0.3,0-0.4
			c0-0.3-0.1-0.5-0.4-0.5c-0.2,0-0.4,0.2-0.4,0.4c-0.1,0.2-0.1,0.5-0.1,0.8c0.1,0.6-0.2,1.1-0.6,1.6c-0.8,0.8-1.5,1.7-2.3,2.5
			c-0.3,0.4-0.7,0.6-1,1.1c-0.2,0.5-0.6,0.9-0.9,1.3c0,0-0.1,0-0.1,0c-0.1-0.5-0.3-1.1-0.4-1.6c-0.1-0.3-0.1-0.6-0.1-0.8
			c0.2-0.4,0.4-0.8,0.6-1.2c0.5-0.7,1.1-1.4,1.7-2c0-0.1,0.1-0.1,0.3-0.1c0,0.4,0.1,0.8,0.1,1.1c0,0.2,0,0.4,0.1,0.5
			c0.2,0.1,0.5,0.1,0.8,0.1c0.1,0,0.2-0.3,0.2-0.5c0-0.6-0.1-1.3-0.1-1.9c0-0.4-0.1-0.9,0.2-1.3c0.2-0.2,0.3-0.5,0.5-0.7
			c0.5-0.7,1-1.4,1.6-2.1c0.6-0.7,1.2-1.4,1.8-2.1c0.1-0.1,0.2-0.2,0.4-0.3c0,0.2,0.1,0.3,0.1,0.4c0.1,0.5,0.1,1,0.2,1.4
			c0.1,0.4,0.4,0.4,0.7,0.3c0.2-0.1,0.4-0.3,0.4-0.4c0-0.6-0.1-1.2-0.1-1.8c0-0.5-0.1-1.1,0.2-1.5c0.2-0.2,0.4-0.5,0.5-0.8
			c0.2-0.3,0.1-0.8-0.2-0.9c-0.3-0.2-0.5,0.1-0.7,0.3c-0.3,0.4-0.7,0.8-1,1.2c-0.6,0.7-1.1,1.4-1.7,2.1c-0.3,0.3-0.6,0.7-0.9,1
			c-0.4,0.5-0.9,0.9-1.2,1.5c-0.8,1.1-1.6,2.2-2.4,3.3c-0.5,0.7-1.1,1.4-1.7,2c-0.5,0.5-0.7,1.3-1.3,1.7c0,0-0.1,0.1-0.1,0.2
			c0.2,0.7-0.2,1.5,0.2,2.2c0.2,0.4,0.3,0.9,0.4,1.3c0.2,0.7,0.2,1.3-0.3,1.9c-0.7,0.8-1.4,1.7-2.1,2.5c-0.5,0.6-0.9,1.2-1.4,1.7
			c0,0.1-0.2,0.1-0.3,0c-0.2-0.2-0.4-0.4-0.6-0.6c0.1-0.6,0.1-1.3,0.2-2c0-0.3,0.2-0.6,0.2-1c0.1-1.2,0.1-2.3,0.2-3.5
			c0-0.5,0.1-1.1,0.1-1.6c0-0.6,0-1.2,0-1.8c0-0.6-0.1-1.1-0.1-1.7c0-0.4,0-0.8,0-1.2c-0.1-1-0.2-1.9-0.3-2.9
			c-0.1-0.6-0.3-1.3-0.6-1.8c-0.3-0.6-0.6-1.1-1-1.7c-0.8-1.1-1.6-2.1-2.5-3.1c-0.5-0.6-1.1-1.2-1.7-1.7c-0.7-0.5-1.4-1-2.2-1.4
			c-0.8-0.5-1.7-1-2.5-1.5c-0.3-0.2-0.5-0.4-0.6-0.7c-0.2-1-0.2-2-0.2-3c0-0.8,0.1-1.7,0.3-2.5c0.1-0.4,0.2-0.8,0.4-1.2
			c0.4-0.9,0.9-1.7,1.3-2.5c0.1-0.2,0-0.5-0.1-0.7c-0.2-0.2-0.4-0.4-0.8-0.2c-0.1,0.1-0.3,0.1-0.4,0c-1-0.2-1.9-0.4-2.7-1
			c-0.7-0.5-1.1-0.5-1.5,0.4c-0.2,0.5-0.6,1-0.9,1.5c-0.3-0.3-0.5-0.4-0.7-0.6c-0.4-0.4-0.8-0.8-1.3-1.2c-0.2-0.2-0.4-0.4-0.6-0.5
			C57.9,6,57.8,6,57.3,6.4c-0.1,0.1-0.2,0.2-0.4,0.2c-0.3,0.2-0.6,0.4-1,0.6c-0.4,0.2-0.9,0.6-1.4,0.3c-0.1,0-0.3,0-0.3,0.1
			C54.1,7.8,54.1,8,54,8.1c-0.3,0.4-0.2,0.7,0.1,1c0.1,0.1,0.1,0.2,0.2,0.3c0.6,1.3,1.4,2.6,2.5,3.6c0.1,0.1,0.3,0.3,0.3,0.5
			c0,0.6-0.1,1.2-0.2,1.7c-0.2,1-0.4,2-0.4,3c0,0.9-0.6,1.4-1.2,1.8c-0.2,0.2-0.6,0.2-0.9,0.2c-0.7,0.1-1.5,0.2-2.2,0.3
			c-0.7,0.1-1.3-0.1-1.9-0.5c-0.6-0.4-1-0.8-1.1-1.5c0,0,0,0,0,0c-0.4-0.6-0.3-1.3-0.2-1.9c0.1-0.7,0.4-1.4,0.6-2.2
			c0.1-0.2,0.1-0.4,0.4-0.5c0.4,0,0.5-0.3,0.2-0.6c-0.3-0.2-0.7-0.5-1-0.5c-0.8-0.1-1.6,0-2.4,0c-0.2,0-0.4,0-0.6,0
			c-0.3,0-0.5,0.1-0.8,0.1c-0.1,0-0.3-0.1-0.4,0c-0.7,0.2-1.4,0.3-2.1,0.6c-0.8,0.3-0.8,1-0.3,1.5c0.1,0.1,0.2,0.3,0.2,0.4
			c0,0.7-0.1,1.4-0.2,2.1c-0.1,0.5-0.2,1.1-0.7,1.4c-0.5,0.3-0.9,0.5-1.4,0.9c-0.8,0.7-1.7,1.3-2.4,2c-1,0.9-1.9,2-2.8,3
			c-0.1,0.1-0.2,0.1-0.3,0.2c-0.2-0.6-0.3-1.1-0.5-1.6c-0.3-0.8-0.7-1.6-1.1-2.4c-0.2-0.4-0.5-0.8-0.8-1.2c-0.4-0.6-0.7-1.2-1.1-1.7
			c-0.6-0.7-1.4-1.2-2.1-1.7c-0.5-0.4-1.1-0.8-1.7-0.9c-0.6-0.1-0.8,0-1.1,0.5c-0.2,0.5-0.4,1.1-0.7,1.6c-0.3,0.5-0.6,0.9-1,1.4
			c-0.7,1-0.6,1.1,0.5,1.6c0.1,0,0.2,0.1,0.3,0.2c0,0,0,0.1,0,0.1c-0.1,0-0.1,0-0.2,0c-0.5-0.1-0.7,0-0.9,0.4
			c-0.3,0.5-0.5,1-0.9,1.4c-0.3,0.4-0.7,0.8-1.1,1.2c-0.7,0.7-0.6,1,0.3,1.4c1,0.3,1.9,1,2.6,1.7c0.6,0.7,1.1,1.7,1.7,2.5
			c0.7,0.9,0.8,2,0.9,3.1c0,0.5,0,1-0.2,1.4c-0.3,0.6-0.8,1.2-1.2,1.8c-0.7,0.9-1.3,1.8-1.5,2.9c-0.2,1.1-0.5,2.2-0.7,3.3
			c-0.1,0.4,0,0.9,0,1.3c0,0.2,0.1,0.4-0.2,0.4c-1.6,0.3-3.1,0.6-4.7,0.9c-1.5,0.3-3.1,0.2-4.5-0.4c-0.3-0.1-0.5-0.2-0.8-0.3
			c-0.5-0.1-0.7,0-0.9,0.5c-0.4,1.1-1,2-1.9,2.8c-0.7,0.7-1.5,1.3-1.7,2.3c-0.2,0.9-0.4,1.7-0.4,2.6c0,0.4,0.1,0.9,0.1,1.3
			c0,0.3-0.1,0.5,0.2,0.6c0.2,0.1,0.5,0.1,0.8,0c0.8-0.2,1.6-0.5,2.4-0.6c0.7-0.1,1.4-0.2,1.8,0.7c0,0.1,0.3,0.2,0.4,0.2
			c0.3,0,0.6-0.1,0.9-0.1c0.1,0.5,0.3,1,0.4,1.5c-0.2,0.2-0.5,0.4-0.9,0.5c-0.2,0.1-0.4,0.2-0.6,0.3c-0.9,0.3-1.8,0.5-2.6,0.9
			c-0.9,0.4-1.6,0.9-1.8,1.9c-0.1,0.6-0.3,1.1-0.5,1.7c-0.1,0.2-0.2,0.4-0.3,0.6c-0.7,0.8-1.1,1.8-1.5,2.8c-0.1,0.4-0.2,0.8-0.2,1.2
			c0.1,1.3,1,2.1,1.8,2.9c0.6,0.5,1.2,1,1.9,1.2c0.2,0.1,0.3,0.2,0.2,0.4c-0.2,0.5-0.4,1-0.6,1.5c-0.3,1.1-0.6,2.2-0.3,3.4
			c0,0,0,0.1,0,0.1c0,1,0.2,1.9,0.8,2.7c0.3,0.5,0.5,1,0.8,1.5c0.4,0.8,0.9,1.6,1.4,2.2c0.6,0.6,1.3,1.1,2,1.6
			c0.6,0.4,1.2,0.9,1.8,1.3c0.7,0.5,1.4,0.9,2.2,1.3c1.2,0.7,2.4,1.3,3.6,2c0.7,0.4,1.5,0.5,1.8,1.5c0.2,0.9,0.9,1.6,1.3,2.5
			c0.3,0.6,0.5,1.3,0.9,2c0.2,0.4,0.6,0.6,0.8,1c0.5,0.7,0.9,1.4,1.3,2.1c0.5,0.8,1.1,1.6,1.7,2.3c0.7,0.9,1.6,1.8,2.3,2.6
			c0.5,0.6,1.1,1.2,1.7,1.8c-0.2,0.2-0.4,0.6-0.6,0.9c-0.9,1.2-1.8,2.5-2.6,3.7c-0.6,0.9-1.3,1.7-1.9,2.5c-0.6,0.8-1.1,1.7-1.7,2.5
			c-0.5,0.8-1.1,1.5-1.7,2.3c-0.3,0.5-0.3,0.5-0.8,0.1c-0.1-0.1-0.1-0.1-0.2-0.1c-0.3-0.2-0.6-0.3-0.8,0.1c-0.2,0.3-0.1,0.6,0.2,0.8
			c0.2,0.2,0.4,0.3,0.6,0.4c-0.2,0.3-0.3,0.4-0.4,0.5c-0.2-0.1-0.4-0.2-0.5-0.4c-0.2-0.2-0.5-0.3-0.7-0.1c-0.3,0.3-0.3,0.5-0.1,0.9
			c0.1,0.1,0.2,0.3,0.4,0.4c0.3,0.3,0.3,0.4-0.1,0.6c-0.1-0.1-0.1-0.2-0.2-0.2c-0.1-0.1-0.2-0.3-0.2-0.4c-0.2-0.3-0.6-0.5-0.9-0.3
			c-0.3,0.2-0.4,0.5-0.1,0.9c0.2,0.3,0.4,0.5,0.6,0.8c0.1,0.1,0.1,0.3,0,0.5c0,0.1-0.2,0.2-0.2,0.2c-0.3-0.2-0.5-0.3-0.7-0.6
			c-0.2-0.3-0.3-0.8-0.6-1.1c-0.4-0.6-0.8-1.3-1.5-1.7c-0.8-0.5-1.4-0.4-2.1,0c-0.2,0.1-0.4,0.3-0.3,0.6c0,0.6,0.2,1.2,0.7,1.6
			c0.1,0.1,0.2,0.3,0.2,0.4c-0.1,0.4-0.2,0.8-0.5,1.1c-0.5,0.6-0.9,1.1-1,1.9c-0.1,0.9-0.1,1.7,0.3,2.5c0.1,0.2,0.1,0.4,0.1,0.6
			c-0.1,0.5-0.2,1-0.3,1.5c-0.1,0.6-0.2,1.2-0.2,1.9c0,0.4,0,0.8,0,1.2c0,0.7,0,1.4-0.2,2c-0.3,1-0.8,1.9-1.2,2.8
			c-0.2,0.3-0.1,0.6,0.1,0.9c0.1,0.2,0.1,0.5,0.2,0.8c0.1,0.4,0.2,0.9,0.4,1.3c0.3,0.5,1,0.6,1.4,0.1c0.4-0.4,0.8-1,1.1-1.5
			c0.4-0.8,0.4-0.8,1.3-0.8c0.4,0,0.8,0.1,1.1-0.2c0.2-0.2,0.4-0.6,0.7-0.8c0.5-0.5,1-0.9,1.6-1.4c0.5-0.4,0.9-0.8,1.4-1.2
			c0.7-0.6,1.2-1.4,2.3-0.9c0.1,0,0.1,0,0.2,0c0.8,0,1.3-0.5,1.7-1c0.5-0.7,1.1-1,1.9-1.2c1.1-0.2,1.9-0.7,2.1-1.9
			c0-0.3,0-0.7-0.2-1c-0.2-0.4-0.7-0.4-1.1-0.2c-0.3,0.1-0.6,0.1-0.9,0.2c-0.3,0-0.5-0.1-0.6-0.3c-0.2-0.4-0.5-0.7-0.7-1
			c-0.1-0.1-0.1-0.2-0.1-0.3c0,0,0.1-0.1,0.1-0.1c0.3,0.1,0.5,0.2,0.8,0.3c0.3,0.1,0.5,0.1,0.7-0.1c0.2-0.3,0.1-0.5-0.1-0.7
			c-0.3-0.2-0.7-0.4-1-0.6c-0.6-0.3-0.6-0.5-0.2-1.1c0.2,0.1,0.4,0.3,0.6,0.4c0.2,0,0.5,0,0.7-0.1c0.1-0.1,0.1-0.4,0-0.6
			c-0.1-0.2-0.3-0.4-0.5-0.5c-0.4-0.2-0.2-0.4,0-0.6c0.2-0.2,0.3,0,0.4,0.1c0.3,0.3,0.6,0.6,1,0.6c0.2,0,0.4-0.2,0.5-0.3
			c0-0.2,0-0.6-0.2-0.7c-0.2-0.3-0.5-0.4-0.8-0.7c-0.2-0.1-0.2-0.3,0-0.5c0.2-0.2,0.4-0.4,0.6-0.7c0.3-0.5,0.7-1.1,1-1.6
			c0.4-0.6,0.7-1.2,1.1-1.7c0.6-1,1.1-2,1.7-2.9c0.4-0.6,0.8-1.2,1.2-1.8c0.2-0.3,0.4-0.7,0.6-1c0.3-0.4,0.6-0.8,0.8-1.3
			c0.3-0.4,0.6-0.9,0.8-1.3c0-0.1,0.1-0.2,0.1-0.2l0.1,0c0.3,0.4,0.6,0.8,0.9,1.2c0,0.1,0.1,0.1,0.1,0.1c0.3,0.1,0.3,0.3,0.3,0.5
			c0,0.5-0.1,1.1-0.2,1.6c-0.2,1.4-0.4,2.8-0.6,4.1c-0.1,0.6-0.1,1.3,0,1.9c0.1,0.9,0.3,1.7,0.5,2.6c0.1,0.4,0.2,0.8,0.3,1.2
			c0.1,0.3,0.4,0.3,0.6,0.2c0.2-0.1,0.4-0.2,0.4-0.6c0-0.9,0-1.9,0.2-2.8c0.1-0.4,0.1-0.7,0.2-1.1c0.1-0.5,0.3-0.9,0.4-1.4
			c0.1,0.1,0.2,0.1,0.2,0.2c0.1,1.3,0.2,2.6,0.2,3.8c0,1.5-0.2,2.9-0.3,4.4c-0.1,0.9-0.2,1.9-0.6,2.8c-0.2,0.5-0.4,1.1-0.6,1.7
			c0,0.2,0,0.5,0.2,0.6c0.1,0.2,0.4,0.2,0.6,0c0.3-0.3,0.6-0.6,0.8-0.9c0.4-1.1,0.6-2.3,1-3.4c0.3-0.7,0.3-1.6,1.1-2.1
			c0.1,0,0.1-0.1,0.1-0.2c0.1-0.5,0.1-1,0.1-1.5c0-1.6-0.1-3.3-0.1-4.9c0-1.1-0.1-2.1,0.1-3.1c0-0.1,0.1-0.2,0.2-0.3
			c0.1,0.1,0.2,0.1,0.3,0.2c0.3,0.2,0.6,0.5,1,0.7c0.5,0.3,1,0.5,1.4,0.8c0.9,0.8,2.1,1.2,3.1,1.9c1,0.6,2,1.1,3.1,1.7
			c0.4,0.2,0.7,0.5,1.1,0.6c1.1,0.3,2,0.9,3,1.4c0.5,0.3,1,0.6,1.5,0.9c0.8,0.4,1.5,0.8,2.3,1.1c0.1,0,0.2,0.1,0.3,0.1
			c0,0.1,7.7,2.2,9.7-0.1c0.2-0.1,0.3-0.3,0.5-0.5c0-0.1,0.1-0.1,0.2-0.1c0.1-0.1,0.2-0.1,0.2-0.2c0.4-1,0.9-1.9,1.2-2.9
			c0.2-0.6,0.2-1.3,0.3-1.9c0-0.4-0.1-0.8-0.1-1.2c0-0.9,0.1-1.7,0.2-2.6c0.2-1.3,0.8-2.4,0.9-3.7c0-0.1,0-0.2,0.1-0.3
			c0.3-0.7,0.7-1.4,1-2.1c0.4-0.8,0.9-1.6,1.6-2.3c0.9-0.9,1.6-1.9,2.4-2.9c0.1-0.1,0.2-0.3,0.3-0.4c0.4-0.4,0.8-0.9,1.2-1.3
			c0.2-0.2,0.2-0.6,0.4-0.7c0.7-0.4,0.9-1.2,1.5-1.7c0.2-0.2,0.3-0.6,0.6-0.8c0.2-0.2,0.3-0.5,0.5-0.7c0.3-0.3,0.3-0.7,0.5-1.1
			c0.1-0.3,0.3-0.6,0.4-0.9c0.3-0.8,1.1-1.4,1-2.4c0,0,0,0,0-0.1c0.2-0.4,0.5-0.8,0.7-1.2c0.4-1.1,0.9-2.3,1.2-3.4
			c0.4-1.1,0.6-2.3,0.5-3.5c0-0.6,0-1.2,0.1-1.8c0-0.8,0-1.5,0.1-2.3c0-0.5,0-0.9,0-1.4c0-0.7,0-1.3-0.2-2c-0.1-0.5-0.4-1-0.6-1.4
			c-0.3-0.8-0.5-1.6-1.1-2.2c-0.1-0.1-0.1-0.2-0.1-0.3c-0.1-0.4-0.1-0.8-0.3-1.2c-0.4-0.9-0.6-1.9-0.7-2.8c-0.1-0.8,0-1.7-0.1-2.5
			c0-0.8,0-1.6,0-2.3c0-0.3-0.2-0.6-0.2-0.9c-0.2-1.1-0.5-2-1-3c-0.5-0.8-0.9-1.6-1.4-2.4c-0.3-0.6-0.7-1.2-1-1.7
			c-0.3-0.5-0.6-1-0.9-1.4c0.3-0.2-0.2-0.4-0.5-0.8c-0.2-0.3-0.4-0.5-0.7-0.7c-0.1-0.1-0.2-0.3-0.3-0.3c0.5-0.6,1-1.2,1.5-1.8
			c0.8-1,1.7-2,2.5-3c0.4-0.5,0.8-1,1.6-0.9c0.9,0.1,1.8,0,2.7-0.2c0.5-0.1,1.1-0.1,1.6-0.2c0.2,0,0.4,0.1,0.5,0
			c0.1-0.1,0.2-0.3,0.2-0.5c0.2-0.7,0.4-1.3,0.6-2c0.1-0.2,0-0.4,0.1-0.6c0-0.1,0-0.3,0.1-0.3c0.3-0.4,0.7-0.9,1.1-1.3
			c0.6-0.7,1.2-1.3,1.9-2c0.4-0.4,0.7-0.9,1.1-1.4c0.8-0.9,1.7-1.7,2.5-2.6c1-1.1,1.9-2.1,2.8-3.2c0.7-0.9,1.8-1.5,2.2-2.6
			C103.8,27,104,26.7,103.8,26.4z M76,51.9c0,0.8,0,1.6-0.1,2.4c-0.2,1.4-0.4,2.8-0.7,4.2c0,0.1-0.1,0.2-0.1,0.2
			c-0.6,0.1-0.4,0.5-0.4,0.8c0,0.1,0,0.3,0,0.4c0.1,0.7-0.3,1.2-1,1.4c-0.6,0.2-1.3,0.3-2,0.4c-0.2,0-0.5,0-0.7,0
			c-0.1,0-0.3-0.2-0.3-0.3c-0.1-1-0.7-1.6-1.6-1.9c-0.1-0.1-0.3-0.1-0.4-0.2c-0.3-0.2-0.5-0.1-0.9,0c-0.4,0.2-1,0.3-1.5,0
			c-0.1-0.1-0.3-0.1-0.5-0.2c-0.1,0.4-0.3,0.4-0.5,0.4c-0.4-0.1-0.8-0.3-1.2-0.4c-0.1,0-0.2-0.1-0.3-0.1c-0.8-0.1-1.3-0.7-1.9-1.1
			c-0.6-0.4-1.2-0.9-1.8-1.2c-0.3-0.2-0.7-0.1-1-0.4c-0.7-0.5-1.3-1.1-1.7-1.9c-0.1-0.3-0.4-0.5-0.5-0.8c-0.4-0.5-0.2-1.1-0.1-1.6
			c0.2-0.7,0.4-1.5,0.3-2.3c-0.1-1.1-0.3-2.2-0.6-3.3c-0.2-0.7-0.5-1.5-0.9-2.1c-0.2-0.5-0.3-0.9-0.2-1.4c0.2-1.1,0.6-2.1,0.9-3.2
			c0.1-0.4,0.3-0.8,0.3-1.3c0-0.5,0.4-1,0.6-1.5c0.1-0.3,0.3-0.6,0.5-0.9c0.5-0.8,0.9-1.7,1.7-2.2c0.7-0.4,1.4-0.7,2.2-0.7
			c0.1,0,0.3,0,0.3-0.1c0.4-0.3,0.8,0,1.2,0c0.1,0,0.1,0.2,0.2,0.2c0.2,0.5,0.7,0.6,1,0.2c0.5-0.5,0.9-1,1.4-1.6
			c0.6-0.7,1.1-1.4,1.6-2c0.5,0.4,1,0.7,1.5,1.1c0.3,0.2,0.3,0.4,0.1,0.7c-0.5,0.8-0.9,1.6-0.7,2.5c0.1,0.6,0.4,1.2,0.6,1.8
			c0.5,1.4,1.6,2.4,2.6,3.5c0.8,0.8,1.5,1.6,2.2,2.4c0.4,0.6,0.7,1.3,1,2c0.7,1.6,1,3.2,1.2,4.9C76,49.8,76,50.8,76,51.9z
			 M68.3,28.4c0.6-0.1,1.4,0.7,1.7,1.8C69.1,30,68.4,29.2,68.3,28.4z M33.4,38.1c0.1-0.6,0.3-1.1,0.4-1.6c0.2-0.8,0.5-1.6,0.6-2.4
			c0.1-0.7,0.2-1.3,0.4-1.9c0.2-0.8,0.4-1.6,0.7-2.3c0.5-1.2,1.1-2.4,1.6-3.6c0.3-0.5,0.5-1.1,0.8-1.6c0.1-0.1,0.1-0.2,0.2-0.3
			c0.5-0.4,0.8-1,1.2-1.6c0.2-0.3,0.6-0.5,0.9-0.7c0.8-0.5,1.7-1,2.6-1.5c0.5-0.3,1.1-0.6,1.6-0.9c0.5-0.3,1-0.5,1.5-0.7
			c0.1-0.1,0.3-0.3,0.2-0.4c-0.1-0.2-0.3-0.5-0.5-0.6c-0.2-0.1-0.5,0-0.7,0.1c-0.2,0.1-0.4,0-0.3-0.3c0-0.3,0-0.7,0.1-1
			c0.1,0.1,0.1,0.2,0.2,0.3c0.4-0.1,0.2-0.4,0.1-0.6c0-0.2-0.2-0.3-0.2-0.5c-0.2-0.6-0.1-0.8,0.7-1.2c0.4-0.2,0.7-0.3,0.5-0.8H48
			c-0.2,0.7-0.4,1.4-0.6,2.1c-0.2,1.1-0.2,2.1,0.3,3.1c0.2,0.5,0.3,1,0.8,1.3c0.3,0.1,0.5,0.3,0.8,0.4c0.1,0.1,0.2,0.2,0.2,0.3
			c-0.1,0-0.2,0.1-0.3,0.1c-0.3,0-0.5,0.1-0.8,0.1c-0.6,0-1.2,0-1.8,0c-0.1,0-0.2,0-0.3,0c-0.3,0-0.7,0.1-0.7,0.4
			c0,0.2,0.3,0.5,0.6,0.6c0.3,0.2,0.7,0.2,1.1,0.3c1,0.1,2,0.1,2.9-0.2c0.5-0.1,0.9-0.4,1.3-0.5c0.9-0.2,1.9-0.4,2.8-0.6
			c0.4-0.1,0.8-0.2,1.1,0.1c0,0,0.2,0,0.3,0c0.3-0.6,1-0.5,1.4-0.8c0.7-0.4,1.6-0.7,2.3-1.2c0.6-0.4,1.1-0.9,1.2-1.7
			c0-0.1,0-0.2,0-0.3c-0.2-0.5-0.1-1-0.1-1.5c0-0.7-0.2-1.5-0.3-2.2c-0.1-0.4-0.1-0.8-0.1-1.2c0-0.4-0.2-0.5-0.5-0.6
			c-0.4-0.1-0.8-0.2-1.2-0.3c-0.7-0.2-1.4-0.6-1.8-1.3c-0.3-0.6-0.7-1.1-1-1.7c-0.1-0.2,0-0.3,0.1-0.3c0.7,0,1.2-0.4,1.6-0.9
			c0.3-0.3,0.5-0.3,0.8,0c0.4,0.4,0.8,0.7,1.2,1.1c0.2,0.2,0.5,0.5,0.7,0.7c0.6,0.9,1.6,1.3,2.5,1.6c0.3,0.1,0.6,0,0.8,0
			c0.1,0,0.2-0.2,0.2-0.2c0-0.1-0.1-0.3-0.2-0.4c-0.3-0.2-0.7-0.5-1.1-0.6c-0.5-0.3-0.5-0.3-0.2-0.8c0.2-0.3,0.4-0.7,0.6-1
			c0-0.1,0.2-0.1,0.3,0c0.6,0.2,1.2,0.5,1.8,0.6c0.3,0.1,0.6,0.1,1,0.1c-0.2,0.4-0.4,0.8-0.6,1.2c-0.7,1.1-1,2.3-1.1,3.5
			c-0.1,1-0.1,1.9,0,2.9c0,0.6,0.2,1.2,0.2,1.8c0,0,0,0,0,0c-0.3,0.7,0.1,1,0.5,1.3c0.2,0.1,0.3,0.3,0.4,0.5
			c0.3,0.1,0.5,0.1,0.8,0.2c1.1,0.3,2.1,0.9,3.1,1.5c1,0.7,2,1.5,2.8,2.5c0.9,1.1,1.8,2.2,2.3,3.6c0.3,0.8,0.4,1.7,0.5,2.5
			c0.1,0.6,0.2,1.1,0.3,1.7c0.1,0.3,0.1,0.7,0.1,1c0.1,0.7,0.1,1.4,0.2,2.1c0.1,0.6-0.2,1.1-0.4,1.6c-0.1,0.2-0.3,0.5-0.4,0.7
			C74.3,38,73.6,38,73,37.6c-1.2-0.8-1.8-2-2.3-3.4c-0.1-0.4-0.1-0.7,0-1.1c0.2-0.5,0.2-1.1,0.3-1.6c0-0.1,0-0.1,0-0.2
			c0.5-0.7,0-1.3-0.3-1.9c0-0.1-0.1-0.2-0.1-0.2c-0.4-1.4-1.5-1.8-2.7-1.9c-0.7-0.1-0.9,0.1-1,0.9c0,0.2-0.1,0.4-0.2,0.5
			c-0.6,0.8-1.2,1.7-1.8,2.5c-0.1,0.1-0.4,0.2-0.6,0.3c-0.5,0.1-0.9,0.1-1.4,0.1c-0.1,0-0.2,0-0.3,0c-0.9-0.4-1.7-0.1-2.5,0.1
			c-0.7,0.2-1.3,0.4-1.9,0.7c-1,0.4-1.9,1-2.9,1.6c-1.2,0.8-2,1.9-2.9,3c-0.8,1-1.4,2.2-1.8,3.4c-0.3,1.1-0.4,2.3-0.6,3.4
			c-0.2,1-0.1,2.1,0,3.1c0.1,0.5,0.3,0.9,0.5,1.4c0.2,0.5,0.3,1,0.5,1.5c0.3,1,0.9,1.9,1.6,2.7c0.3,0.4,0.5,0.9,0.3,1.2
			c-0.2,0.3-0.4,0.5-0.6,0.8c-0.5,0.6-1.1,1.1-1.8,1.6c-0.6,0.4-1.2,0.9-1.8,1.3c-0.1,0.1-0.3,0.2-0.4,0.2c-0.5,0-0.9,0.1-1.4,0.1
			c-0.7,0-1.5,0-2.2-0.1c-0.6,0-1.1,0-1.6-0.2c-0.9-0.2-1.8-0.5-2.5-0.9c-0.5-0.3-1-0.7-1.5-1c-0.2-0.1-0.4-0.4-0.6-0.6
			c-0.6-0.7-1.1-1.4-1.6-2.2c-0.3-0.5-0.6-1-0.9-1.5c-0.4-0.7-0.8-1.3-1.2-2c-0.4-0.7-0.7-1.5-0.9-2.3c-0.2-0.8-0.3-1.5-0.4-2.3
			c-0.1-0.8-0.2-1.6,0-2.5c0-0.1,0-0.3,0-0.4c-0.1-0.3-0.2-0.6-0.2-0.9C33.3,40,33.3,39,33.4,38.1z M54.6,47.7c-0.1,1-0.3,2-0.5,3
			c-1-1.1-1.9-2.3-2.3-3.7c-0.5-1.7-0.3-3.3,0-5c0.1,0,0.1-0.1,0.2-0.1c0.2,0.2,0.4,0.4,0.6,0.6c0.4,0.6,0.8,1.3,1.2,2
			C54.4,45.5,54.6,46.6,54.6,47.7z M28,19c0-0.1,0.2,0,0.3,0c0.8,0.4,1.4,1.1,1.9,1.9c0.2,0.3,0.5,0.7,0.8,1
			c0.5,0.5,0.7,1.1,0.7,1.8c0,0.7,0.1,1.4,0.2,2c0,0.7-0.2,1.3-0.5,1.8c0-0.4,0-0.9-0.1-1.3c0,0,0-0.1,0-0.1c-0.6-0.4-0.2-0.9,0-1.3
			c0.1-0.3,0.1-0.6-0.2-0.7c-0.3-0.1-0.5-0.1-0.7,0.2c0,0.1-0.2,0.2-0.2,0.3c-0.3-0.4-0.5-0.7-0.8-1c-0.1-0.2-0.2-0.3,0-0.5
			c0.3-0.3,0.2-0.7-0.3-0.8c-0.7-0.2-1.2-0.6-1.6-1.3c-0.1-0.3-0.4-0.4-0.6-0.6C27.3,19.8,27.6,19.4,28,19z M26.8,24.1
			c-0.4-0.6-0.7-1.1-1.1-1.7c0,0,0-0.1,0.1-0.1c0.3,0.2,0.7,0.4,1,0.6c0.6,0.5,1.2,1.2,1.6,1.9c0,0.1,0.1,0.2,0.2,0.3
			c0.5,0.3,0.4,0.8,0.6,1.3c0.3,0.7,0.2,1.3,0.3,2c0,0.1,0,0.1,0,0.2c-0.2-0.5-0.4-0.9-0.6-1.4C28.4,26,27.5,25.1,26.8,24.1z
			 M26.3,41.3c0.2-0.9,0.4-1.8,0.5-2.7c0.1-0.8,0.6-1.5,0.9-2.2c0.1-0.2,0.1-0.5,0.3-0.7c0.3-0.5,0.7-1,1.2-1.6
			c0.1,0.2,0.1,0.2,0.1,0.2c0,0.7,0.1,1.5,0.1,2.2c0,0.1-0.1,0.3-0.2,0.3c-0.3,0.2-0.7,0.4-1.1,0.5c-0.2,0.1-0.5,0.2-0.3,0.4
			c0.1,0.2,0.4,0.3,0.6,0.3c0.2,0,0.5-0.1,0.7-0.1c0.1,0.3,0.1,0.4-0.2,0.6c-0.5,0.3-1,0.6-1.4,1c-0.1,0.1-0.2,0.5-0.1,0.5
			c0.2,0.1,0.5,0.2,0.7,0.2c0.1,0,0.3-0.1,0.4-0.2c0.1,0,0.2-0.1,0.4-0.1c0,0.1,0,0.2,0,0.3c0,0.1,0,0.1,0,0.1
			c-0.8,0.4-1.5,0.7-2.4,1.1C26.3,41.5,26.3,41.4,26.3,41.3z M29,46.3c0,0.1-0.1,0.2-0.2,0.3c-0.1,0-0.3,0-0.4,0c0-0.1,0-0.1,0-0.2
			C28.6,46.4,28.7,46.3,29,46.3C28.9,46.3,29,46.3,29,46.3z M28.4,42c0,0.3-0.1,0.5-0.4,0.6c-0.5,0.3-1,0.6-1.5,0.9
			c0-0.5-0.1-0.9-0.1-1.3C27,42.2,27.7,42.1,28.4,42z M20.6,48.2c0.2-0.3,0.4-0.4,0.7-0.3c0.4,0,0.8,0.1,1.2,0.2
			c0.4,0,0.8,0.1,1.3,0.1c0.3,0,0.7-0.1,1-0.3c0.6-0.4,1.2-0.4,1.9-0.1c-0.5,0.3-0.9,0.6-1.4,0.7c-0.3,0.1-0.7,0-1.1,0
			c-0.3,0-0.6-0.1-0.9-0.1c-0.4,0-0.8,0-1.2,0c-0.5,0-0.8,0.3-1.1,0.6c-0.1,0.1-0.2,0.2-0.3,0.4C20.6,48.9,20.4,48.6,20.6,48.2z
			 M24,49.7h-1.9C22.4,49.4,23.7,49.4,24,49.7z M15.3,51c-0.6-0.1-1.1-0.4-1.5-0.8c-0.4-0.3-0.5-1-0.4-1.6c0.1-0.3,0.3-0.6,0.1-1
			c0,0,0-0.1,0-0.1c0.2-0.5,0.5-0.9,0.7-1.3c0.1-0.1,0.3-0.1,0.5-0.1c0.7,0.1,1.3,0.2,2,0.1c0.6-0.1,1.3-0.2,1.9-0.3
			c0.4,0,0.4,0,0.4,0.4c-0.1,0.4,0.2,0.5,0.5,0.6c0,0,0.1,0,0.1,0.1c0,0,0,0.1,0,0.1c-0.3,0.1-0.7,0.3-1,0.4
			c-0.3,0.1-0.4,0.3-0.3,0.5c0.1,0.2,0.3,0.3,0.5,0.3c0.2,0,0.5,0,0.8-0.1c-0.1,0.2-0.1,0.4-0.2,0.6c0,0.1,0,0.3,0,0.3
			c0.3,0.4,0.2,0.8,0,1.1c-0.2,0.4-0.6,0.6-1.1,0.6c-0.3,0.1-0.6,0-1,0.1c-0.3,0.1-0.6,0.2-0.9,0.2c-0.1,0-0.2,0-0.3,0
			C15.9,51.3,15.6,51.1,15.3,51z M26.1,67.1c-0.1,0.1-0.1,0.3-0.2,0.4c-0.6,0.8-0.8,1.7-0.7,2.7c0.1,1.1,0.3,2.2,0.2,3.3
			c-0.1,0.8,0,1.5,0,2.3c0,0.9-0.4,1.7-0.7,2.5c-0.1,0.3-0.2,0.7-0.4,1C23.9,80,24,80.8,24,81.6c0,0.4,0,0.7,0,1.1
			c0,0.1-0.1,0.3-0.2,0.4c-0.2,0.3-0.4,0.7-0.6,1c-0.3,0.3-0.7,0.3-1.1,0.3c-0.4,0-0.8,0-1.2-0.1c-1.3-0.1-2.4-0.7-3.2-1.7
			c-0.7-0.8-1.5-1.6-2.2-2.5c-0.4-0.6-0.7-1.3-1-2c-0.2-0.4-0.3-0.8-0.5-1.2c-0.3-0.8-0.6-1.5-0.5-2.4c0.1-0.8,0.2-1.6,0.3-2.5
			c0-0.2,0.1-0.3,0.2-0.6c0.2,0.4,0.4,0.7,0.6,1c0.1,0.1,0.2,0.3,0.3,0.3c0.1,0.1,0.3,0,0.5,0c0.1,0,0.1-0.3,0-0.4
			c-0.3-0.7-0.6-1.4-1-2c-0.2-0.3-0.5-0.5-0.8-0.6c-0.5-0.2-1-0.3-1.4-0.5c-0.7-0.3-1.3-0.7-2-1.1c-0.3-0.2-0.5-0.4-0.4-0.8
			c0.1-0.8,0.1-1.6,0.2-2.3c0-0.2,0.2-0.5,0.2-0.7c0,0,0.1,0,0.1,0c0,0.3,0.1,0.5,0.1,0.8c0,0.4,0.1,0.9,0.1,1.3
			c0,0.3,0.1,0.5,0.4,0.5c0.3,0,0.6,0,0.7-0.4c0.2-1,0.1-2.1-0.1-3.1c-0.3-1.2-0.7-2.3-0.6-3.5c0-0.1,0.1-0.3,0.2-0.4
			c0,0,0.1,0,0.1-0.1c0.2-0.7,0.9-0.8,1.5-1c0.7-0.3,1.5-0.5,2.3-0.7c0.1,0,0.2,0,0.2-0.1c0.7-0.6,1.5-1,2.3-1.5
			c0.1,0,0.1-0.1,0.2-0.2c0.2-0.4,0.6-0.6,1.1-0.7c0.2-0.1,0.3-0.4,0.5-0.6c0.2-0.3,0.3-0.6,0.7-0.4c0.1,0,0.3,0,0.4-0.1
			c0.4-0.4,0.9-0.8,1.3-1.3c0.2-0.3,0.4-0.6,0.6-0.9c0-0.1,0.1-0.1,0.2-0.1c0.5-0.2,1-0.5,1.4-0.7c0.3-0.2,0.6-0.3,0.9-0.1
			c0,0,0.1,0,0.1,0c0.2,0,0.4,0,0.6-0.1c-0.1-0.2-0.1-0.5-0.2-0.7c-0.1-0.1-0.2-0.2-0.3-0.2c0.9-0.3,1.7-0.7,2.5-1
			c0.4-0.1,0.8-0.1,1.2,0c0.4,0,0.8,0.1,1-0.3c0.3,0.4,0.3,0.4-0.1,0.5c-0.3,0.1-0.6,0.3-0.9,0.4c-0.2,0.1-0.3,0.2-0.5,0.2
			c-0.5,0.1-0.7,0.3-0.8,0.8c-0.1,0.4,0.1,0.6,0.5,0.6c0.1,0,0.2-0.1,0.3-0.1c0.8,0.2,1.3-0.4,1.9-0.7c0.2-0.1,0.3-0.2,0.4-0.3
			c0.7,0.6,1.4,1.3,2.1,1.9c0.3,0.2,0.6,0.4,0.9,0.5c0.8,0.3,1.2,1,1.7,1.7c0.2,0.3,0.4,0.7,0.6,1c0,0-0.1,0.1-0.1,0.1
			c-0.4-0.4-0.9-0.9-1.3-1.3c-0.4-0.4-0.9-0.7-1.3-1.1c-0.2-0.2-0.5-0.1-0.6,0.1c-0.1,0.2-0.2,0.5,0,0.7c0.4,0.4,0.7,0.8,1.1,1.1
			c0.6,0.5,1.2,1,1.8,1.4c0.3,0.2,0.7,0.4,1,0.5c0.1,0,0.1,0.1,0.2,0.2c-0.5,0.1-0.8,0.1-1.2,0c-0.4-0.1-0.8-0.3-1.2-0.4
			c-0.2,0-0.4,0-0.5,0.1c-0.2,0.1-0.3,0.7-0.2,0.9c0.2,0.2,0.4,0.2,0.7,0.2c0.4,0,0.8,0.2,1.2,0.3c0.4,0.1,0.7,0.2,1.1,0.3
			c0.1,0,0.2,0,0.3,0c0.6-0.4,1.3-0.1,1.9,0c0.6,0.1,1.1,0.3,1.7,0.5c0.2,0.1,0.5,0,0.7,0.1c0,0,0,0.1,0,0.1
			c-0.4,0.2-0.8,0.4-1.2,0.5c-0.3,0.1-0.5,0.2-0.5,0.5c0,0.2-0.3,0.4-0.4,0.5c-0.2,0.3-0.5,0.6-0.7,0.9c-0.3,0.4-0.5,0.8-0.9,1.1
			c-0.3,0.2-0.7,0.2-1,0.3c-1,0.2-2,0.4-3,0.6c-0.5,0.1-1,0.4-1.5,0.6c-1.2,0.3-1.8,1.2-2.1,2.3c-0.1,0.3-0.3,0.4-0.6,0.5
			c-0.6,0.1-1.3,0.2-1.9,0.3c-0.1,0-0.1,0-0.2,0c-0.1-0.3-0.2-0.5-0.3-0.7c-0.2-0.3-0.4-0.2-0.6,0C26.3,66.6,26.2,66.8,26.1,67.1z
			 M25.2,119c0.4,0.3,0.8,0.7,1.2,1c0.6,0.4,1.1,0.9,1.7,1.3c0.3,0.2,0.3,0.4,0,0.6c-0.6-0.5-1.2-1-1.8-1.5c-0.3-0.2-0.7-0.4-1-0.6
			C24.8,119.6,24.8,119.5,25.2,119z M29.2,126.1c0.5,0.7,1.3,1,2.1,0.8c0.1,0,0.2,0,0.3,0c0,0.1,0,0.2-0.1,0.3
			c-0.2,0.4-0.7,0.6-1.1,0.7c-0.8,0.1-1.4,0.6-2,1.1c-0.3,0.3-0.6,0.6-0.8,0.9c-0.2,0.2-0.4,0.2-0.6,0c-0.4-0.3-0.8-0.2-1.1,0
			c-0.2,0.1-0.4,0.1-0.6,0.2c-0.4,0.3-0.7,0.5-1.1,0.8c-0.6,0.5-1.2,1.1-1.9,1.6c-0.5,0.5-1.1,0.9-1.4,1.5c-0.2,0.5-0.7,0.4-1.1,0.4
			c-0.8-0.1-1.4,0.3-1.7,0.9c-0.3,0.5-0.7,1-1,1.6c0,0-0.1,0-0.1-0.1c0-0.3,0-0.6-0.1-0.9c0-0.2-0.1-0.3-0.1-0.5
			c-0.1-0.2-0.1-0.4,0-0.7c0.3-0.5,0.5-1.2,0.8-1.7c0.8-1.1,0.5-2.4,0.5-3.7c0-0.6,0.1-1.1,0.2-1.7c0.1-0.7,0.3-1.3,0.4-1.9
			c0-0.5,0-1-0.2-1.5c-0.4-0.9-0.1-2.6,0.7-3.4c0.7-0.6,0.9-2.2,0-2.8c-0.1-0.1-0.2-0.2-0.2-0.3c-0.1-0.2,0-0.4,0.2-0.4
			c0.3,0,0.7,0,0.9,0.3c0.4,0.7,0.8,1.4,1.2,2.1c0.4,0.7,1.5,1.6,2.5,1.1c0.2-0.1,0.4-0.2,0.7-0.2c0.1,0,0.2,0,0.3,0.1
			c0.8,0.6,1.7,1.2,2.5,1.8c0.1,0.1,0.3,0.1,0.4,0.3c0.1,0.1,0.3,0.3,0.2,0.4c-0.2,0.7,0.3,1.1,0.6,1.6
			C28.6,125.3,28.9,125.7,29.2,126.1z M29,120.4c-0.1,0-0.3-0.1-0.4-0.2c-0.5-0.4-1-0.8-1.5-1.2c-0.4-0.3-0.7-0.6-1.1-0.9
			c-0.1,0-0.1-0.2,0-0.3c0.1-0.1,0.2-0.4,0.5-0.3c0.7,0.2,1.3,0.6,1.8,1.1c0.3,0.3,0.7,0.5,1,0.7c0.1,0.1,0.1,0.2,0.2,0.3
			C29.3,120,29.2,120.2,29,120.4z M44,119.9c-0.1,0-0.1,0-0.2,0c0-0.4,0.1-0.8,0.1-1.2c0,0,0.1,0,0.1,0V119.9z M44.8,91.2
			c-0.5,0.8-1.1,1.5-1.6,2.3c-0.4,0.6-0.6,1.2-0.9,1.9c-0.2,0.4,0.3,0.9,0.9,1c-0.3,0.5-0.6,0.9-0.8,1.3c-0.7,1.2-1.4,2.4-2.1,3.6
			c-0.3,0.5-0.6,1-0.9,1.4c-0.2,0.3-0.3,0.6,0,1c0,0,0.1,0.2,0,0.2c-0.5,0.7-0.9,1.5-1.4,2.2c-0.4,0.6-0.8,1.2-1.1,1.8
			c-0.4,0.7-0.8,1.3-1.2,2c-0.7,1-1.3,2.1-2,3.1c-0.6,0.9-1,1.9-1.6,2.8c-0.6,0.9-1.2,1.8-1.8,2.7c0,0.1-0.1,0.1-0.2,0.1
			c-0.4,0-0.7-0.5-0.5-0.9c0.4-0.7,0.8-1.5,1.4-2.1c0.3-0.4,0.5-0.9,0.8-1.4c0.4-0.7,0.8-1.5,1.2-2.2c0.4-0.7,0.9-1.3,1.3-2
			c0.5-0.8,0.9-1.6,1.3-2.3c0.4-0.7,0.9-1.4,1.3-2.1c0.2-0.2,0.3-0.5,0.4-0.8c0-0.2-0.1-0.4-0.2-0.6c-0.2,0.1-0.5,0.1-0.6,0.2
			c-0.5,0.6-0.9,1.2-1.3,1.8c-0.9,1.5-1.8,3.1-2.6,4.7c-0.7,1.2-1.2,2.5-1.9,3.7c-0.3,0.6-0.8,1.2-1.2,1.7c-0.2,0.2-0.3,0.5-0.4,0.8
			c-0.1,0.1-0.1,0.3-0.2,0.5c-0.3-0.2-0.5-0.4-0.8-0.6c0.6-0.8,1.1-1.5,1.7-2.2c0.5-0.6,1-1.3,1.5-1.9c0.1-0.1,0.1-0.1,0.2-0.2
			c0.1-0.2,0.3-0.5,0-0.7c-0.3-0.2-0.4,0.1-0.5,0.3c-0.6,0.7-1.1,1.4-1.7,2.2c-0.5,0.6-0.9,1.2-1.4,1.8c-0.1,0.2-0.4,0.3-0.6,0.4
			c0-0.1,0-0.2,0.1-0.3c0.6-0.9,1.2-1.7,1.8-2.5c0.7-1,1.4-1.9,2.1-2.9c0.5-0.7,1.1-1.4,1.6-2.1c0.8-1.1,1.7-2.3,2.5-3.5
			c0.9-1.3,1.7-2.6,2.6-4c0.7-1,1.3-2,2-3c0.4-0.6,0.8-1.2,1.2-1.9c0.3-0.5,0.5-1.1,0.8-1.7c0.2-0.4,0.5-0.7,0.7-1.1
			c0.7-1.1,1.5-2.2,2.2-3.2c0,0,0.1,0,0.1-0.1C45.1,90.6,45,90.9,44.8,91.2z M86.3,72.4c0.1,0.4,0.2,0.8,0.4,1.2
			c0.2,0.7,0.5,1.4,0.7,2.1c0.2,1,0.5,2,0.4,3.1c-0.1,1.3-0.1,2.7-0.5,4c-0.2,0.6-0.4,1.1-0.6,1.7c-0.4,1-0.8,2.1-1.3,3.1
			c-0.4,0.8-0.9,1.6-1.3,2.4c-0.4,0.8-0.9,1.5-1.3,2.3c-0.7,1.4-1.7,2.6-2.7,3.9c-0.5,0.7-1.1,1.3-1.6,2c-0.7,0.9-1.3,1.8-1.9,2.7
			c-0.3,0.5-0.7,0.9-0.9,1.4c-0.4,0.6-0.7,1.3-1,1.9c-0.6,1.2-0.9,2.5-1.2,3.7c-0.2,1.1-0.3,2.2-0.5,3.3c-0.1,0.5-0.1,1-0.2,1.5
			c-0.1,0.7-0.1,1.4-0.2,2.1c-0.1,0.6,0,1.1,0.1,1.7c0,0.2,0,0.4,0,0.7c-0.1,0.1-0.1,0.2-0.1,0.3c0,0.1,0,0.1,0,0.2
			c0,0.1-0.1,0.1-0.1,0.2c-0.2,0.5-0.5,1-0.9,1.4c-0.3,0.3-0.7,0.5-1.1,0.7c-0.9,0.5-1.9,0.3-2.9,0.2c-1.1-0.2-2.2-0.4-3.2-0.6
			c-0.5-0.1-1-0.3-1.5-0.5c-0.9-0.3-1.9-0.5-2.7-1c-1.6-1-3.3-1.8-5.1-2.6c-0.6-0.3-1.2-0.7-1.8-1c-0.7-0.4-1.5-0.8-2.2-1.2
			c-0.4-0.2-0.7-0.5-1.1-0.7c-0.4-0.3-0.8-0.5-1.2-0.8c-0.6-0.4-1.1-0.8-1.7-1.2c-0.4-0.3-0.9-0.5-1.3-0.7c-0.3-0.1-0.4-0.2-0.3-0.5
			c0.1-0.4,0-0.9,0-1.3c0-0.9,0.1-1.9,0-2.7c-0.1-0.8-0.1-1.5,0.1-2.3c0.1-0.7,0.4-1.3,0.7-2c0.5-1.2,1-2.4,1.4-3.6
			c0.4-1.4,0.2-2.7,0.2-4.1c0-0.8-0.1-1.6-0.1-2.4c0.1-0.8-0.1-1.7-0.1-2.5c0-0.2,0.2-0.4,0.2-0.6c0-0.2,0.1-0.4,0-0.6
			c-0.1-0.4-0.4-0.5-0.7-0.2c0.1-1.1,0.2-2.3,0.2-3.4c0-0.5,0.1-1,0.1-1.6c0-0.7,0.1-1.4,0-2.1c0-1.2,0-2.3-0.1-3.5
			c-0.1-1-0.2-2-0.3-2.9c-0.1-0.4-0.2-0.9-0.3-1.3c-0.1-0.6-0.2-1.3-0.4-1.9c-0.1-0.3-0.1-0.8-0.6-0.9c-0.2,0-0.5-0.1-0.6,0
			c-0.1,0.1-0.2,0.4-0.2,0.5c0.2,0.8,0.4,1.7,0.5,2.5c0.1,1,0.1,2,0.2,3c0,0.5,0,1,0,1.4c-0.1,0.7-0.1,1.4-0.3,2
			c-0.3,1.2-0.7,2.3-1.1,3.5c-0.5,1.3-1.1,2.5-1.6,3.7c-0.5,1-1,2-1.5,3c-0.3,0.7-0.5,1.6-0.6,2.4c-0.1,0.9-0.1,1.9-0.1,2.8
			c0,0.3-0.2,0.6-0.3,0.9c-0.3,0.5-0.6,1-0.9,1.5c-0.5,0.9-1,1.9-1.6,2.8c-0.6,0.9-1.2,1.7-1.8,2.7c-0.5-0.5-1-0.9-1.5-1.4
			c-0.6-0.6-1.1-1.3-1.6-2c-0.8-1.1-1.7-2.2-2.5-3.4c-0.5-0.7-1-1.5-1.4-2.2c-0.2-0.4-0.3-0.9-0.5-1.4c-0.4-1-0.8-2-1.1-3
			c-0.1-0.4-0.2-0.9-0.2-1.3c-0.1-0.5-0.1-1-0.2-1.6c-0.1-0.7-0.1-1.4-0.2-2.1c0-0.4-0.1-0.8-0.2-1.2c-0.3-1.6-0.1-3.1,0.8-4.5
			c1-1.7,1.1-3.4,0.5-5.3c-0.1-0.2-0.1-0.5,0-0.7c0.2-0.6,0.4-1.3,0.6-1.9c0.2-0.5,0.4-0.8,0.8-1.1c0.4-0.2,0.7-0.6,1-0.9
			c0.1-0.1,0.3-0.2,0.4-0.3c0,0,0.1,0.1,0.1,0.1c0,0.1-0.1,0.2-0.1,0.3c-0.4,0.9-0.9,1.8-1.1,2.7c-0.5,1.5-0.7,3-1,4.6
			c-0.3,1.6,0,3.1,0.5,4.5c0.1,0.3,0.2,0.7,0.3,1c0.2,0.7,0.7,1.2,1.5,1.4c0.3-0.4,0.1-0.7-0.1-1c-0.3-0.6-0.5-1.1-0.7-1.7
			c-0.1-0.2-0.2-0.5-0.2-0.7c0-0.2,0.1-0.3,0.1-0.5c0-0.1,0.1-0.3,0-0.4c-0.2-0.7-0.1-1.3,0-2c0-0.2,0-0.5,0-0.7
			c0.1-0.6,0.2-1.2,0.4-1.7c0.5-1.1,1.1-2.2,1.6-3.3c0.1-0.3,0.2-0.6,0.3-0.9c0.1-0.6,0.3-1.1,0.3-1.7c0.1-0.6,0-1.1,0-1.7
			c0-0.2,0-0.4,0.1-0.7c0.2,0.8,0.7,1.5,0.5,2.4c-0.2,1.3-0.6,2.6-1,3.8c-0.2,0.4-0.2,0.9,0.1,1.4c0.5,0.9,1.2,1.7,2,2.4
			c0.6,0.6,1.3,0.9,2,1.4c0.5,0.5,1,1,1.5,1.6c-0.2,0.1-0.2,0.2-0.3,0.2c-0.4,0.1-0.4,0.3-0.4,0.6c0,0.8-0.1,1.6-0.2,2.3
			c-0.1,0-0.1,0-0.2,0c-0.1-0.5-0.1-0.9-0.2-1.4c-0.1-0.4-0.1-0.8-0.2-1.2c-0.4-1.2-1.1-2.1-2.1-2.8c-0.8-0.5-1.3-1.3-1.8-2.1
			c-0.2-0.3-0.4-0.6-0.7-0.9c-0.2-0.2-0.4-0.2-0.6,0c-0.1,0,0,0.3,0,0.4c-0.1,0.3-0.1,0.6-0.2,0.9c-0.1,0.3-0.3,0.6-0.5,1
			c-0.3,0.5-0.4,1-0.2,1.6c0.1,0.2,0,0.4,0,0.6c0.2,1.1,0.8,2,1.3,3c0.2,0.4,0.5,0.5,0.9,0.5c0.2,0,0.4-0.1,0.4-0.2
			c0.1-0.1,0-0.4-0.1-0.5c-0.8-1-1.3-2.2-1.5-3.4c0-0.4-0.1-0.8,0.3-1.2c0.4,1,1.3,1.4,2,2.1c0.3,0.3,0.5,0.7,0.7,1
			c0.3,0.7,0.7,1.4,0.9,2.1c0.1,0.4,0,0.8,0,1.2c0,0.2-0.1,0.4,0,0.6c0.1,0.2,0.3,0.4,0.4,0.4c0.2,0,0.4-0.1,0.6-0.2
			c0.2-0.1,0.2-0.3,0.4-0.4c0,0.2-0.1,0.4-0.1,0.6c0,0.1-0.1,0.2-0.1,0.3c-0.1,0.4-0.1,0.7,0.2,0.8c0.5,0.2,0.7,0,0.9-0.4
			c0.5-1.1,0.6-2.3,0.8-3.4c0-0.3,0-0.5,0-0.8c0,0,0.1,0,0.1,0c0.1,0.1,0.2,0.2,0.3,0.3c0.3,0.2,0.5,0.5,0.8,0.7
			c0.1,0.1,0.4,0.1,0.4,0c0.1-0.1,0.2-0.3,0.1-0.5c0-0.1-0.2-0.3-0.2-0.4c-0.3-0.5-0.6-1-0.7-1.6c0-0.3-0.2-0.7-0.7-0.7
			c-0.1,0-0.2-0.2-0.3-0.3c-0.4-0.5-0.8-0.8-1.3-1.1c-1-0.6-2-1.4-2.7-2.3c-0.2-0.3-0.5-0.6-0.6-1c-0.1-0.2-0.1-0.6,0-0.8
			c0.4-1.1,0.7-2.1,0.8-3.3c0-0.2,0.1-0.3,0.1-0.5c0.2-1.1-0.3-2-0.6-3c0,0,0-0.1,0-0.2c0.2,0,0.3,0,0.5,0c0.2,0,0.4,0,0.6,0
			c0.5-0.1,1-0.1,1.5-0.3c0.4-0.1,0.8-0.4,1.3-0.5c1-0.3,1.4-1.2,2.1-1.8c0.5-0.4,1-0.6,1.6-0.7c0.6-0.1,1.2-0.1,1.8-0.3
			c0.4-0.1,0.9-0.3,1.3-0.5c0.7-0.4,1.3-0.9,1.9-1.4c0.3-0.2,0.5-0.6,0.9-0.5c0.1,0,0.2,0,0.3,0c0,0,0,0.1,0,0.1
			c-0.2,0.1-0.4,0.3-0.6,0.4c-0.6,0.3-1.1,0.7-1.5,1.4c-0.2,0.3-0.1,0.7,0.2,0.9c0.3,0.2,0.6,0.1,0.7-0.2c0.2-0.6,0.7-0.8,1.2-1.2
			c0.2-0.2,0.5-0.3,0.8-0.4c0.2-0.1,0.5-0.2,0.7-0.1c0.7,0.2,1.3,0.3,2,0.6c0.7,0.3,1.3,0.2,2,0.1c0.3,0,0.3-0.3,0.1-0.4
			c-0.2-0.2-0.5-0.3-0.7-0.4c-0.1,0-0.2-0.1-0.4-0.1c0-0.1,0.1-0.2,0.1-0.2c0.2-0.3,0.1-0.7-0.3-0.7c-0.5,0-0.7-0.4-1-0.7
			c0.2-0.2,0.5-0.5,0.7-0.7c0.3-0.3,0.7-0.5,1.2-0.5c0.3,0,0.6-0.2,0.8-0.3c0.4-0.2,0.8-0.4,1.1-0.6c0.1-0.1,0.3,0,0.5,0
			c0,0,0,0.1,0,0.1c-0.3,0.2-0.7,0.3-1,0.5c-0.4,0.2-0.9,0.3-1.3,0.6c-0.2,0.1-0.3,0.3-0.3,0.5c0,0.1,0.2,0.3,0.3,0.3
			c0.5,0.2,0.9,0,1.3-0.3c0.6-0.4,1.3-0.8,1.9-1.1c0.1,0,0.2-0.1,0.3,0c0.4,0.3,0.7,0.6,1,0.9c-0.9,0.3-1.7,0.5-2.5,0.8
			c-0.1,0-0.3,0.3-0.3,0.4c0,0.1,0.1,0.4,0.2,0.5c0.3,0.2,0.6,0.2,0.9,0.1c0.6-0.3,1.1-0.6,1.7-0.8c0.4-0.2,0.4-0.3,0.4-0.7
			c0.7,0.4,1.3,0.7,1.9,1.1c0.8,0.5,1.6,1,2.3,1.5c0.4,0.3,0.8,0.6,1.2,1c0.3,0.3,0.6,0.4,1.1,0.3c0,0,0,0,0,0
			c0.7-0.2,0.8-0.1,0.7,0.6c-0.1-0.1-0.3-0.2-0.4-0.2c-0.3-0.2-0.5,0-0.7,0.2c-0.1,0.3,0,0.5,0.3,0.5c0.1,0,0.1,0,0.1,0.1
			c0.7,0.4,0.8,0.3,0.9-0.4c0.4-0.1,0.9-0.2,1.3-0.4c0.3-0.1,0.4-0.5,0.2-0.9c-0.1-0.1-0.1-0.3-0.2-0.4c0.3-0.1,0.5,0,0.7,0.3
			c0.4,0.9,0,1.5-0.5,2.2c-0.6,0.8-1,1.7-1.1,2.7c-0.1,1.3,0.2,2.4,0.8,3.6c0.3,0.6,0.5,1.3,0.6,2c0.2,0.7,0.3,1.4,0.5,2.1
			c0.1,0.6,0.2,1.3,0.2,1.9c0,0.1-0.1,0.2-0.1,0.3c-0.5,0.4-1.1,0.8-1.7,1.1c-0.9,0.5-1.8,1.1-2.7,1.8c-0.9,0.7-1.1,1.8-1.6,2.7
			c-0.2,0.3,0,0.6,0.3,0.8c0.3,0.2,0.6,0,0.7-0.3c0.3-1,0.7-1.9,1.5-2.6c0.9-0.7,1.9-1.1,2.8-1.7c0.2-0.1,0.4-0.2,0.7-0.4l0,0
			c0.4-0.3,0.7-0.6,1.1-0.9c0.9-0.6,1-2,0.7-2.9c-0.4-1.1-0.7-2.2-1.1-3.3c-0.2-0.7-0.5-1.3-0.6-2c-0.2-1.1-0.2-2.2,0.3-3.2
			c0.6-1.2,0.9-2.5,0.6-3.9c0-0.1,0-0.2,0-0.4c0.3,0.2,0.5,0.4,0.4,0.7c0,0.1-0.1,0.3-0.1,0.4c-0.1,0.3,0,0.5,0.3,0.6
			c0.3,0.1,0.6,0,0.7-0.3c0.1-0.2,0.1-0.4,0.2-0.6c0.1,0,0.1,0,0.2,0.1c-0.1,0.4-0.2,0.7-0.3,1.1c-0.2,1.1-1,2-1.1,3.2
			c0,0.5,0,1,0.1,1.5c0.2,0.9,0.4,1.7,0.6,2.6c0.1,0.5,0.2,1,0.4,1.5c0.3,0.9,0.5,1.8,0.9,2.7c0.5,1.3,0.9,2.7,1.5,3.9
			c0.3,0.7,0.8,1.3,1.2,2c0.9,1.5,1.8,3.1,2.7,4.6c0.2,0.3,0.2,0.7,0.4,1.1c0.1,0.3,0.3,0.5,0.5,0.7c-0.3,0.1-0.6,0.1-0.8,0.2
			c-0.1,0.1-0.3,0.3-0.3,0.4c-0.2,0.7-0.3,1.4-0.5,2.1c-0.1,0.3,0,0.6-0.1,0.9c-0.3,1-0.7,2-1,3c-0.3,1-0.6,2.1-0.9,3.1
			c-0.2,0.8-0.3,1.7-0.4,2.5c-0.1,0.6,0,1.2,0,1.8c0,0.2,0.1,0.5,0,0.7c0,0.3,0.1,0.5,0.3,0.5c0.2,0,0.4-0.3,0.4-0.5
			c0.1-1.2,0-2.3,0.2-3.5c0.2-1.2,0.4-2.5,0.9-3.6c0.4-1,0.8-2.1,1.2-3.2c0.2-0.7,0.3-1.4,0.4-2c0-0.1,0.1-0.2,0.1-0.4
			c0.1,0.3,0.2,0.4,0.3,0.6c0.1,0.4,0.1,0.7,0.2,1.1c0.2,0.6,0.1,1.2,0,1.7c0,0.2,0,0.4,0,0.6c0.1,0.1,0.3,0.3,0.5,0.3
			c0.1,0,0.4-0.2,0.4-0.4c0.2-0.9,0.3-1.7,0.1-2.6c-0.2-0.6-0.3-1.3-0.5-1.9c-0.1-0.3-0.2-0.5-0.3-0.8c0,0,0.1,0,0.1-0.1
			c0.1,0.1,0.3,0.2,0.4,0.4c0.3,0.6,0.6,1.3,0.8,1.9c0.2,0.6,0.3,1.3,0.4,1.9c0,0.2,0.2,0.5,0.3,0.5c0.3,0.1,0.5-0.1,0.6-0.4
			c0-0.1,0.1-0.1,0.1-0.2c0-0.8-0.1-1.6-0.5-2.4c-0.2-0.3-0.2-0.6-0.4-0.8c-0.5-0.8-1-1.6-1.5-2.4c-0.1-0.2-0.2-0.4-0.3-0.7
			c-0.1-0.5-0.4-0.9-0.7-1.3c-1.1-1.7-2.1-3.5-3.2-5.3c-0.4-0.7-0.7-1.4-0.9-2.2c-0.2-0.5-0.4-1-0.6-1.5c-0.2-0.6-0.4-1.2-0.5-1.8
			c-0.1-0.2-0.2-0.5-0.2-0.7c-0.2-0.8-0.5-1.5-0.7-2.3c-0.1-0.3-0.2-0.6-0.3-0.8c-0.2-0.8-0.4-1.7-0.6-2.5c0-0.2,0-0.4,0-0.6
			c0.1-0.6,0.2-1.2,0.7-1.7c0.1-0.1,0.2-0.4,0.2-0.5c0-0.3,0.2-0.3,0.4-0.3c0.7,0,1.4,0.1,2-0.1c0.9-0.2,1.8-0.6,2.5-1.3
			c0.3-0.2,0.4-0.2,0.7,0c0.8,0.7,1.6,1.4,2.6,1.7c0.3,0.1,0.5,0.1,0.8,0.2c0.9,0,1.8,0.3,2.6,0.7c0.1,0.1,0.2,0.2,0.3,0.4
			c0.5,0.6,1,1.3,1.5,1.9c0.1,0.1,0.2,0.2,0.3,0.3c0.6,0.5,0.8,1.1,1,1.8C85.5,70.1,85.9,71.2,86.3,72.4z M81.9,56.3
			c0.4,0.4,0.7,0.9,1,1.4c0.4,0.8,0.8,1.7,1.1,2.5c0.1,0.4,0.4,0.7,0.7,1c0.3,0.3,0.5,1.5,0.4,2c-0.4-0.1-0.8-0.3-1.2-0.4
			c-0.1,0-0.3-0.1-0.4-0.2c-0.4-0.5-0.9-0.6-1.5-0.8c-0.5-0.1-0.6-0.2-0.6-0.6c-0.2,0-0.5,0-0.7-0.1C80,61,79.8,61,79.5,61.8
			c-0.5-0.2-0.9-0.5-1.4-0.7c-0.5-0.2-0.7-0.5-1-1c0-0.1-0.1-0.2-0.1-0.3c0.1-0.9,0.3-1.9,0.5-2.8c0.3,0,0.7,0.2,0.5-0.3
			c0,0,0-0.1,0.1-0.2c0.4-0.5,0.9-0.9,1.6-0.9C80.5,55.6,81.3,55.8,81.9,56.3z M83,43.8c-0.2,0.2-0.4,0.5-0.5,0.9
			c-0.1,0.4-0.5,0.7-0.7,1c-0.2,0.3-0.4,0.5-0.6,0.8c-0.3,0.3-0.4,0.7-0.9,0.7c-0.2,0-0.4,0.3-0.5,0.5c-0.2,0.2-0.3,0.3-0.4,0.5
			c-0.4-0.3-0.4-0.5-0.2-0.9c0.6-1,1.4-1.8,2.3-2.5c0.5-0.5,1-1,1.5-1.6c0.1-0.1,0.1-0.2,0.2-0.3C83.3,43.3,83.3,43.5,83,43.8z
			 M85,40.1c-0.1-0.1-0.3-0.1-0.5,0c-0.2,0.1-0.4,0.2-0.2,0.4c0,0.1,0,0.2-0.1,0.3c-0.6,0.7-1.3,1.4-1.9,2c-1.3,1.4-2.8,2.6-3.9,4.2
			c-0.1,0.1-0.1,0.2-0.1,0.3c-0.4-0.5-0.3-0.8,0-1.2c0.8-0.9,1.5-1.8,2.2-2.7c0.4-0.4,0.8-0.8,1.2-1.2c0.5-0.5,0.9-1,1.3-1.5
			c0.2-0.2,0.4-0.4,0.7-0.3c0.3,0,0.5-0.2,0.5-0.5c0-0.6,0.4-1,0.8-1.4c0.4-0.5,0.8-1.1,1.3-1.6c0.3-0.4,0.6-0.8,0.9-1.2
			c0.2-0.2,0.3-0.5,0.5-0.7c0.3-0.4,0.6-0.7,0.9-1.1c0.8-0.9,1.5-1.9,2.3-2.8c0.7-0.8,1.4-1.5,2.2-2.3c0.1-0.2,0.2-0.3,0.4-0.5
			c0.3-0.5,0.7-1,1.1-1.5c0.4-0.5,0.8-1,1.2-1.4c0.5-0.5,0.9-1.1,1.4-1.6c0.3-0.3,0.7-0.4,1.1-0.6c0,0,0.1,0.1,0.1,0.1
			c-0.1,0.1-0.2,0.3-0.3,0.4c-0.4,0.4-0.8,0.9-1.2,1.3c-0.4,0.5-0.4,0.5,0.2,0.9c-0.2,0.2-0.4,0.4-0.6,0.7c-0.8,1-1.5,2-2.3,2.9
			c-0.5,0.6-1,1.1-1.5,1.6c-0.3,0.3-0.5,0.7-0.8,1.1c-0.2,0.3-0.5,0.6-0.8,0.9c0,0-0.1-0.1-0.1-0.1c0.4-0.6,0.9-1.1,1.3-1.7
			c0.2-0.2,0.2-0.5,0.3-0.8c0-0.1-0.1-0.2-0.2-0.3c-0.1,0-0.3,0-0.3,0.1c-0.6,0.7-1.1,1.4-1.6,2.1c-0.2,0.3-0.5,0.6-0.7,0.9
			c-0.3,0.4-0.6,0.9-1,1.3c-0.1,0.2-0.3,0.4-0.4,0.6c-0.1,0.2-0.2,0.4-0.2,0.6c0,0,0.1,0.1,0.1,0.1c0.2-0.1,0.4-0.1,0.5-0.3
			c0.2-0.1,0.3-0.3,0.4-0.5l0.1,0.1c-0.2,0.4-0.4,0.9-0.8,1.2c-0.5,0.5-0.8,1.1-1.2,1.7c-0.2,0.3-0.5,0.6-0.7,0.9
			c-0.5,0.6-0.9,1.2-1.4,1.8c-0.1,0.1-0.1,0.1-0.3,0.1c0.1-0.1,0.2-0.2,0.3-0.3C85,40.5,85,40.2,85,40.1z M90.1,33.9
			c-0.2,0.5-0.6,0.8-0.9,1.1c0,0-0.1-0.1-0.1-0.1c0.3-0.4,0.6-0.7,0.9-1.1C90,33.8,90,33.9,90.1,33.9z M100.5,28.2
			c-0.1,0.2-0.2,0.3-0.3,0.4c-0.2,0.1-0.3,0.3-0.6,0.2c-0.2-0.1-0.5-0.1-0.8,0c-0.2,0-0.5,0.2-0.5,0.3c-0.1,0.1,0.1,0.4,0.3,0.5
			c0.1,0.1,0.3,0.2,0.6,0.3c-0.2,0.3-0.4,0.6-0.6,0.9c-0.2,0.3-0.5,0.5-0.7,0.8c-0.5,0.7-1,1.5-1.6,2.2c-0.5,0.6-1,1.2-1.4,1.8
			c-0.1,0.2-0.2,0.4-0.4,0.6c-0.7,0.9-1.5,1.7-2.2,2.6c-0.4,0.4-0.7,0.9-1.1,1.3c-0.3,0.3-0.5,0.5-1,0.5c-0.6,0.1-1.2,0.3-1.7,0.5
			c-0.2,0.1-0.3,0.3-0.3,0.5c0,0.2,0.2,0.4,0.3,0.4c0.5,0.2,1,0.3,1.6,0.5c0.1,0.1,0.2,0.3,0.3,0.4c-0.1,0-0.2,0.1-0.4,0.1
			c-0.6,0.1-1.1,0.1-1.7,0.2c-0.6,0.1-1.1,0.1-1.7,0.2c-0.3,0-0.5,0-0.7-0.3c-0.1-0.1-0.3-0.1-0.4-0.1c-0.2-0.1-0.4-0.3-0.6-0.4
			c0,0,0.1-0.2,0.2-0.4c0.4,0.5,0.7,0.1,1-0.1c0.6-0.4,1.2-0.8,1.9-1c0.1,0,0.4-0.3,0.3-0.4c0-0.2-0.2-0.4-0.4-0.4
			c-0.3,0-0.7,0.1-1,0.2c-0.2,0-0.3,0.1-0.5,0.2c0.2-0.3,0.4-0.6,0.7-0.9c0.5,0.3,0.8,0.1,1.3-0.1c0.5-0.3,1.1-0.4,1.7-0.6
			c0.3-0.1,0.6-0.3,0.8-0.4c0.2-0.2,0.4-0.5,0.2-0.7c-0.2-0.3-0.4-0.1-0.7,0c-0.9,0.3-1.7,0.7-2.6,1c0,0,0-0.1-0.1-0.1
			c0.1-0.2,0.2-0.3,0.3-0.5c0.1-0.2,0.2-0.3,0.3-0.5c0.8,0.2,1.4-0.1,1.8-0.7c0.1-0.2,0.2-0.4,0-0.5c-0.1-0.1-0.4-0.1-0.6,0
			c-0.1,0-0.2,0.1-0.3,0.2c0,0-0.1-0.1-0.1-0.1c0.3-0.3,0.5-0.7,0.8-1c0.2,0.2,0.3,0.5,0.6,0.3c0.1-0.1,0.3-0.3,0.3-0.5
			c0-0.1-0.2-0.3-0.4-0.5c0.1-0.1,0.2-0.4,0.3-0.5c0.4-0.5,0.9-1.1,1.4-1.6c0.1-0.1,0.3-0.1,0.4-0.1c0.5,0,0.9,0,1.4,0
			c0.1,0,0.3-0.1,0.4-0.2c0.1-0.1,0.2-0.3,0.2-0.4c0-0.1-0.2-0.2-0.3-0.3c-0.2-0.1-0.3-0.1-0.7-0.1c0.3-0.2,0.5-0.5,0.8-0.6
			c0.3-0.1,0.6-0.1,0.9-0.2c0.3-0.1,0.6-0.2,0.9-0.4c0.1-0.1,0.1-0.4,0.2-0.6c-0.2,0-0.4-0.1-0.6-0.1c-0.3,0-0.6,0.1-1,0.2
			c0.1-0.5,0.5-0.9,0.9-0.9c0.2,0,0.4,0,0.5-0.1c0.1-0.1,0.3-0.2,0.3-0.3c0-0.1-0.1-0.2-0.2-0.3c-0.1-0.1-0.2-0.1-0.3-0.1
			c0.3-0.3,0.5-0.7,0.8-0.9c0.1-0.1,0.5-0.1,0.6,0c0.4,0.4,0.7,0.4,1.1,0.2c0.8-0.4,1.6-0.4,2.4-0.4
			C101.2,27.6,100.7,27.8,100.5,28.2z"/>
		<path class="st5" d="M65.8,84.1c0.2-1.3,0.4-2.6,0.9-3.8c0.5-1.1,1.3-1.8,2.2-2.4c0.4-0.3,0.9-0.4,1.3-0.3c0.1,0,0.3,0.1,0.4,0.3
			c0.4,0.6,0.8,1.3,1.2,1.9c0.8,1.1,1.5,2.2,2,3.4c0.3,0.7,0.4,1.4,0.5,2.2c0.1,1.1,0.1,2.2-0.3,3.3c-0.1,0.4-0.1,0.8-0.2,1.2
			c-0.1,0.5-0.3,1-0.5,1.6c-0.2,0.6-0.4,1.2-0.6,1.8c-0.3,1-0.6,2.1-0.8,3.1c-0.2,1.2-0.2,2.5-0.3,3.8c0,0.4,0.2,0.9,0.2,1.3
			c0.1,0.3,0.1,0.6,0.1,1c0,0.2-0.2,0.4-0.3,0.5c-0.3,0.1-0.5,0-0.6-0.3c-0.1-0.4-0.2-0.9-0.2-1.3c-0.1-0.6-0.2-1.2-0.2-1.8
			c0-0.3,0-0.7,0-1c0-0.7,0-1.4,0.1-2.1c0.1-1.2,0.1-2.5,0.3-3.7c0.3-1.5,0.8-3,1.1-4.5c0.2-0.7,0.2-1.4,0.2-2.1
			c0-0.7-0.1-1.5-0.1-2.2c-0.1-0.9-0.6-1.7-1.1-2.5c-0.5-0.8-1-1.5-1.3-2.4c-0.1-0.4-0.2-0.4-0.5-0.2c-0.7,0.5-1.5,1.1-1.8,2
			c-0.2,0.7-0.4,1.4-0.6,2c-0.2,0.8-0.4,1.6-0.3,2.5c0,0.1-0.1,0.3-0.3,0.4c-0.1,0-0.3-0.1-0.3-0.2C66.1,84.9,66,84.5,65.8,84.1z"/>
		<path class="st5" d="M65,79.8c-0.2,0.2-0.4,0.5-0.6,0.7c-0.3,0.5-0.5,0.9-0.7,1.4c-0.2,0.5-0.4,0.9-0.6,1.4
			c-0.1,0.3-0.3,0.5-0.6,0.4c-0.1,0-0.3-0.2-0.3-0.4c0.1-1,0.5-1.9,1.1-2.7c0.1-0.2,0.3-0.4,0.4-0.7c0.3-0.6,0.7-1,1.3-1.2
			c0.4-0.1,0.7-0.2,1.1-0.4c0.3-0.2,0.6,0,0.8,0.1c0.2,0.1,0.2,0.3,0.1,0.5c-1,1.4-1.6,3-1.8,4.7c-0.1,1-0.2,2.1,0.2,3.1
			c0,0.1,0,0.2,0,0.4c0,0.2,0.1,0.4,0.2,0.6c0,0.1,0.1,0.1,0.1,0.2c0,0.2,0,0.5-0.1,0.6c-0.1,0.1-0.3,0.2-0.4,0.2
			c-0.2-0.1-0.4-0.3-0.4-0.5c-0.2-0.6-0.3-1.1-0.4-1.7c-0.5-2-0.1-3.9,0.5-5.8c0.1-0.3,0.3-0.6,0.4-0.9C65.1,79.9,65,79.9,65,79.8z"
			/>
		<path class="st5" d="M43.9,65.5c-0.3,0-0.5,0-0.8,0c-0.8-0.1-1.4,0.1-2.1,0.5c-0.9,0.5-1.8,1.1-2.9,1.2c-0.8,0.1-1.6,0.1-2.2-0.6
			c-0.1-0.1-0.2-0.3-0.1-0.4c0.1-0.1,0.2-0.3,0.4-0.3c0.1,0,0.2,0,0.3,0c1,0.4,1.9,0,2.8-0.4c0.6-0.3,1.1-0.6,1.7-0.9
			c0.7-0.3,1.4-0.4,2.2-0.1c0,0,0,0,0.1,0C43.9,64.7,43.9,64.7,43.9,65.5z"/>
		<path class="st5" d="M38.8,68.8c-0.6-0.2-1.2-0.1-1.8,0.2c-0.1,0-0.3-0.1-0.4-0.2c-0.1-0.1,0-0.3,0-0.3c0.3-0.5,1.2-0.8,1.8-0.7
			c0.7,0.1,1.3-0.2,1.9-0.6c0.5-0.4,0.9-0.9,1.5-1c0.5-0.1,0.9,0.1,0.9,0.7c0,0.1-0.2,0.4-0.3,0.4c-0.5,0-0.8,0.2-1.1,0.6
			C40.8,68.4,39.9,68.8,38.8,68.8z"/>
		<path class="st5" d="M67.1,77c0.5,0.2,0.9-0.2,1.3-0.4c0.4-0.2,0.7-0.6,1-0.9c0.3-0.3,0.7-0.3,1,0c0.3,0.3,0,0.5-0.2,0.7
			c-0.5,0.5-1,1-1.5,1.4c-0.4,0.3-0.8,0.3-1.3,0.2c-0.3-0.1-0.5-0.4-0.3-0.7C67.1,77.2,67.1,77.1,67.1,77C67.1,77,67.1,77,67.1,77z"
			/>
		<path class="st5" d="M43.6,67.9c-0.1-0.3-0.2-0.6-0.3-1c-0.1-0.2-0.2-0.4-0.2-0.6c0-0.2,0.1-0.4,0.2-0.4c0.2,0,0.5,0,0.5,0.2
			c0.2,0.5,0.4,1,0.6,1.5c0.1,0.2,0,0.5-0.1,0.7c-0.1,0.2-0.4,0.3-0.5,0.3c-0.2-0.1-0.2-0.3-0.4-0.5C43.5,68,43.5,67.9,43.6,67.9
			C43.6,67.9,43.6,67.9,43.6,67.9z"/>
		<path class="st5" d="M43,68.4c-0.1,0.2-0.2,0.3-0.2,0.3c-0.2,0-0.5,0-0.7-0.1c-0.2-0.2-0.3-0.5-0.4-0.8c0-0.1,0.1-0.3,0.2-0.4
			c0.1-0.1,0.3,0,0.4,0.1C42.6,67.7,42.8,68.1,43,68.4z"/>
		<path class="st5" d="M64.1,62.8c0.2,0.1,0.3,0.2,0.4,0.3c0.1,0.1,0.1,0.3,0,0.4c-0.1,0.2-0.2,0.3-0.1,0.6c0,0.1-0.1,0.4-0.3,0.4
			c-0.1,0.1-0.4,0-0.5-0.1c-0.1-0.1-0.1-0.4,0-0.5c0.2-0.2,0.2-0.4,0.2-0.6C63.8,63.2,64,63,64.1,62.8z"/>
		<path class="st5" d="M57.3,59.8c-0.2,0-0.3-0.1-0.4-0.1c-0.2-0.1-0.3-0.2-0.3-0.5c0.1-0.3,0.3-0.3,0.5-0.3c0.2,0,0.4,0,0.6,0
			c0.1,0,0.3,0.2,0.4,0.3c0,0.1-0.1,0.3-0.2,0.4C57.6,59.7,57.4,59.7,57.3,59.8z"/>
		<path class="st5" d="M38.5,26.9c-0.2-0.2-0.4-0.3-0.5-0.5c0-0.1,0.2-0.4,0.4-0.5c0.9-0.4,1.8-0.7,2.8-0.7c0.2,0,0.3,0.2,0.5,0.3
			c-0.1,0.1-0.2,0.3-0.3,0.4c-0.8,0.3-1.7,0.6-2.5,0.9C38.8,26.8,38.7,26.8,38.5,26.9C38.6,26.9,38.6,26.9,38.5,26.9z"/>
		<path class="st5" d="M41.5,23.6c0.2,0,0.3,0,0.5,0c0.1,0,0.2,0.2,0.4,0.2c-0.1,0.1-0.1,0.3-0.2,0.3c-0.3,0.1-0.5,0.2-0.8,0.2
			c-0.4,0.1-0.9,0.3-1.3,0.4c-0.2,0-0.5,0-0.6-0.1c-0.1-0.2-0.1-0.5,0-0.6c0.1-0.2,0.4-0.4,0.7-0.4C40.5,23.6,41,23.6,41.5,23.6
			C41.5,23.6,41.5,23.6,41.5,23.6z"/>
		<path class="st5" d="M37.4,29.3c-0.2-0.2-0.4-0.3-0.5-0.5c0-0.2,0.1-0.5,0.3-0.5c0.6-0.2,1.2-0.4,1.8-0.5c0.1,0,0.3,0.1,0.4,0.2
			c0.1,0.1,0,0.3,0,0.3C38.7,28.6,38.1,28.9,37.4,29.3z"/>
		<path class="st5" d="M41.7,22c0.2,0.1,0.4,0.3,0.5,0.4c-0.1,0.2-0.3,0.3-0.4,0.4c-0.2,0.2-0.4,0.3-0.7,0.4
			c-0.2,0.1-0.4,0.1-0.6,0.1c-0.2,0-0.3-0.3-0.3-0.4c0-0.1,0.1-0.3,0.3-0.4C40.8,22.3,41.2,22.2,41.7,22z"/>
		<path class="st5" d="M37.4,30.4c-0.3,0.2-0.5,0.5-0.7,0.5c-0.2,0-0.5-0.1-0.5-0.5c0-0.2,0.3-0.6,0.6-0.5
			C37.1,30,37.2,30.2,37.4,30.4z"/>
		<path class="st5" d="M57.7,51.9c0-0.3,0.1-0.4,0.4-0.4c0.6-0.1,1.1-0.3,1.7-0.5c0.4-0.1,0.8-0.3,1.2-0.5c0.1,0,0.3,0,0.4,0.1
			c0.1,0.1,0.1,0.2,0.1,0.3c0,0.1-0.1,0.2-0.2,0.2c-0.9,0.6-1.8,1.1-2.9,1.3C58,52.6,57.7,52.3,57.7,51.9z"/>
		<path class="st5" d="M58.6,53.8c-0.4,0.1-0.5-0.2-0.6-0.4c0-0.1,0.2-0.4,0.4-0.5c0.7-0.3,1.5-0.6,2.2-0.9c0.1-0.1,0.3-0.1,0.5-0.1
			c0.2-0.1,0.4,0,0.5,0.2c0,0.1-0.1,0.4-0.2,0.5c-0.3,0.2-0.6,0.3-1,0.5c-0.5,0.2-1,0.5-1.5,0.7C58.8,53.8,58.7,53.7,58.6,53.8z"/>
		<path class="st5" d="M57.7,41.2c-0.1,0.2-0.2,0.5-0.3,0.6c-0.1,0.2-0.2,0.4-0.4,0.5c-0.2,0.1-0.4,0.2-0.6,0.2
			c-0.1,0-0.3-0.2-0.4-0.3c0-0.2,0-0.4,0.1-0.5c0.2-0.3,0.4-0.6,0.7-0.8c0.1-0.1,0.4-0.2,0.6-0.2C57.5,40.9,57.6,41.1,57.7,41.2z"/>
		<path class="st5" d="M59.5,55.2c-0.2-0.1-0.4-0.1-0.5-0.3c-0.2-0.2,0-0.6,0.3-0.7c0.3-0.1,0.6-0.2,0.9-0.3c0.3-0.1,0.6,0,0.7,0.3
			c0.1,0.3-0.1,0.5-0.3,0.6C60.2,55,59.8,55.1,59.5,55.2z"/>
		<path class="st5" d="M58.5,50.1c0.3,0,0.6,0.3,0.6,0.5c0,0.3-0.2,0.4-0.5,0.5c-0.3,0-0.5-0.3-0.5-0.6
			C58.1,50.2,58.3,50.1,58.5,50.1z"/>
		<path class="st5" d="M61.1,56.1c0,0.1-0.1,0.3-0.4,0.3c-0.3,0-0.6-0.3-0.5-0.6c0-0.1,0.2-0.3,0.4-0.3
			C60.8,55.4,61.1,55.7,61.1,56.1z"/>
		<path class="st5" d="M56.9,43.1c0.2,0.2,0.4,0.4,0.4,0.5c0.1,0.3-0.2,0.5-0.4,0.5c-0.2,0-0.3-0.3-0.5-0.4
			C56.6,43.5,56.7,43.4,56.9,43.1z"/>
		<path class="st5" d="M27.7,53.3c-0.9,0-1.9,0.1-2.7,0.5c-0.5,0.2-0.9,0.4-1.4,0.7c-0.1,0.1-0.3,0.2-0.3,0.4c0,0.4-0.3,0.5-0.5,0.7
			c-0.4,0.2-0.5,0.7-0.7,1.1c-0.3,0.5-0.4,1-0.5,1.5c-0.1,0.2-0.4,0.4-0.7,0.4c-0.3,0.1-0.7,0-0.8-0.5c0-0.3,0-0.6,0.1-0.9
			c0.1-0.6,0.2-1.1,0.3-1.7c0.3-0.9,0.6-1.7,1.4-2.3c0.3-0.2,0.6-0.5,0.9-0.7c0.1,0,0.1-0.1,0.1-0.2c-0.1-0.5,0.4-0.7,0.6-0.9
			c0.3-0.3,0.6-0.2,0.8,0.1c0.1,0.2,0.2,0.2,0.4,0.2c1.1-0.3,2.1-0.3,3.2,0c0.5,0.2,1,0.6,1.5,0.9c0,0,0,0.2,0,0.3
			c-0.3,0.4-0.7,0.4-1.2,0.4C28,53.3,27.8,53.3,27.7,53.3z"/>
		<path class="st5" d="M20.6,83.6c-0.3-0.2-0.6-0.3-0.8-0.5c-0.8-0.8-1.6-1.6-2.3-2.4c-0.4-0.5-0.7-1-0.7-1.7c0-0.2-0.1-0.4-0.1-0.6
			c0-0.4-0.1-0.6-0.5-0.8c-0.4-0.1-0.4-0.7,0-1.4c0.2-0.4,0.5-0.4,0.8-0.3c0.2,0.1,0.4,0.4,0.5,0.6c0.2,0.8,0.4,1.6,0.6,2.4
			c0.1,0.6,0.5,1.1,0.9,1.5c0.7,0.7,1.4,1.4,2.1,2.2c0.1,0.1,0.2,0.4,0.2,0.4C21.1,83.3,20.8,83.5,20.6,83.6z"/>
		<path class="st5" d="M20.7,68.3c0.2-0.4,0.3-0.8,0.5-1.1c0.3-0.4,0.7-0.9,1.1-1.1c0.8-0.4,1.3-1.1,1.7-1.8c0.3-0.4,0.4-1,0.3-1.5
			c-0.1-0.3,0.1-0.5,0.4-0.5c0.4,0,0.9,0.4,0.8,0.8c0,1-0.4,1.9-1.1,2.7c-0.5,0.7-1.3,1-1.9,1.5c-0.3,0.3-0.6,0.6-0.7,1.1
			c0,0.3-0.4,0.5-0.7,0.4C20.9,68.9,20.8,68.7,20.7,68.3C20.8,68.4,20.8,68.4,20.7,68.3z"/>
		<path class="st5" d="M18.9,58.6c0.2,0.3,0,0.6-0.2,0.8c-0.1,0.1-0.1,0.3-0.1,0.4c0,0.1-0.1,0.2-0.1,0.3c-0.1,0.4-0.3,0.8-0.4,1.2
			c-0.2,0.7-0.3,1.5-0.5,2.2c-0.1,0.3-0.3,0.5-0.5,0.7c-0.3,0.4-0.6,0.7-0.9,1c-0.3,0.3-0.6,0.3-1,0.3c-0.4,0-0.5-0.5-0.2-0.8
			c0.3-0.4,0.6-0.7,0.9-1.1c0.7-0.7,1-1.6,1-2.6C16.9,59.9,17.6,59,18.9,58.6z"/>
		<path class="st5" d="M36.1,60.4c-1-0.1-1.8-0.1-2.7-0.1c-0.5,0-1,0.1-1.4,0.5c-0.1,0.1-0.2,0.4-0.3,0.5c-0.2,0.1-0.5,0.3-0.6,0.2
			c-0.2-0.1-0.3-0.4-0.3-0.6c-0.1-0.6,0.2-1.1,0.7-1.5c0.8-0.6,1.7-0.4,2.6-0.3c0.7,0.1,1.4,0.2,2.1,0.1c0.2-0.1,0.4-0.1,0.6-0.3
			c0.3-0.3,0.6-0.2,0.8,0c0.2,0.2,0.2,0.6,0,0.8C37,60.1,36.5,60.4,36.1,60.4z"/>
		<path class="st5" d="M24.8,59.3c0.7,0.3,1.6,0.1,2.2,0.7c0.2,0.2,0.5,0.2,0.7,0.3c0.5,0.2,0.9,0.5,1,1c0,0.1,0,0.4-0.1,0.5
			c-0.1,0.1-0.3,0-0.4,0c-0.7-0.3-1.4-0.7-2.1-1.1c-0.3-0.1-0.7-0.2-1.1-0.2c-0.4,0-0.7,0.4-0.8,0.8c-0.2,0.4-0.5,0.5-0.9,0.4
			c-0.4-0.1-0.4-0.4-0.3-0.8c0.2-0.7,0.6-1.1,1.2-1.4C24.4,59.4,24.6,59.3,24.8,59.3z"/>
		<path class="st5" d="M25.7,55.2c0.5,0.2,1,0.3,1.5,0.5c0.2,0.1,0.5,0.1,0.7,0.2c0.2,0.1,0.4,0.1,0.6,0.2c0.3,0.1,0.6,0.2,0.9,0.3
			c0.1,0,0.3,0.1,0.3,0.2c0,0.1-0.1,0.3-0.2,0.4c-0.4,0.3-0.8,0.2-1.3,0.1c-1.1-0.2-2.2-0.4-3.3-0.6c-0.2,0-0.4-0.2-0.4-0.4
			c0-0.3,0.1-0.6,0.5-0.7C25.3,55.3,25.5,55.3,25.7,55.2C25.6,55.2,25.7,55.2,25.7,55.2z"/>
		<path class="st5" d="M14.5,76.1c0.2-0.7,0.4-1.5,1-2c0.3-0.3,0.8-0.4,1.2-0.5c0.1,0,0.4,0.2,0.4,0.3c0,0.1-0.1,0.4-0.2,0.5
			c-0.8,0.5-1,1.4-1.3,2.2c0,0.1-0.2,0.3-0.3,0.3C14.9,77,14.5,76.7,14.5,76.1z"/>
		<path class="st5" d="M20.3,78.5c0,0.2,0.1,0.4,0.2,0.7c0.1,0.5,0.3,0.9,0.4,1.4c0,0.1-0.1,0.4-0.2,0.4c-0.3,0.2-0.8,0.1-0.9-0.1
			c-0.4-0.8-0.6-1.7-0.5-2.6c0-0.4,0.3-0.5,0.7-0.5C20.3,77.9,20.4,78.1,20.3,78.5z"/>
		<path class="st5" d="M14.4,62.6c-0.2-0.1-0.6-0.3-0.6-0.4c0.1-0.3,0.1-0.8,0.4-1c0.4-0.3,0.8-0.4,1.3-0.5c0.4-0.1,0.6,0,0.7,0.4
			c0.1,0.4-0.1,0.5-0.5,0.6c-0.3,0.1-0.5,0.3-0.8,0.5C14.8,62.3,14.6,62.4,14.4,62.6z"/>
		<path class="st5" d="M30.3,54.3c0.4,0,0.8,0.2,1,0.5c0.1,0.1,0.1,0.3,0.1,0.4c0,0.1-0.2,0.2-0.3,0.2c-0.6,0-1.1,0-1.6-0.1
			c-0.2,0-0.4-0.3-0.4-0.5c0-0.3,0.2-0.3,0.5-0.4C29.8,54.5,30.1,54.4,30.3,54.3z"/>
		<path class="st5" d="M35.5,61.2c-0.1,0.1-0.2,0.3-0.4,0.3c-0.4,0.2-0.9,0.4-1.3,0.6c-0.1,0-0.3,0-0.3-0.1c-0.1-0.1-0.1-0.3,0-0.3
			c0.4-0.4,0.7-0.8,1.2-1C35,60.4,35.5,60.8,35.5,61.2z"/>
		<path class="st5" d="M20.5,64.7c-0.4,0-0.8-0.3-0.7-0.6c0-0.3,0.3-0.4,0.5-0.4c0.4,0,0.6,0.3,0.6,0.7
			C20.9,64.6,20.7,64.7,20.5,64.7z"/>
		<path class="st5" d="M21.6,82.4c-0.1-0.1-0.3-0.4-0.2-0.5c0.1-0.2,0.3-0.4,0.5-0.4c0.3-0.1,0.6,0.2,0.6,0.5
			C22.5,82.2,22.1,82.4,21.6,82.4z"/>
		<path class="st5" d="M20.7,121.2c0.3,0.1,0.6,0.2,0.8,0.4c0.5,0.5,1.1,0.4,1.6,0.4c0.5,0,0.7,0.1,0.9,0.6c0.1,0.2,0.4,0.4,0.5,0.6
			c0.4,0.4,0.4,0.7,0.1,0.9c-0.3,0.2-0.8,0.1-1.1-0.2c-0.4-0.4-0.8-0.6-1.4-0.6c-0.1,0-0.3,0.2-0.3,0.2c0.4,1-0.5,1.7-0.7,2.6
			c-0.1,0.5-0.3,1-0.5,1.6c-0.2,0.5-0.3,1.1-0.5,1.6c-0.1,0.2-0.3,0.4-0.6,0.3c-0.3-0.1-0.5-0.2-0.5-0.5c0-0.7,0-1.5,0.1-2.2
			c0.1-0.6,0.3-1.1,0.5-1.6c0.2-0.7,0.1-1.4-0.2-2c-0.3-0.8,0-1.3,0.4-1.9C20.2,121.3,20.5,121.3,20.7,121.2z"/>
		<path class="st5" d="M27.2,126.5c0.4,0.1,0.6,0.3,0.7,0.6c0.1,0.3-0.1,0.5-0.4,0.5c-0.5,0.1-0.7,0.5-1,0.9
			c-0.3,0.4-0.6,0.7-1.1,0.9c-0.4,0.2-0.7,0.7-1.1,0.9c-0.8,0.5-1.6,1.2-2.5,1.6c-0.2,0.1-0.4,0.3-0.6,0.5c-0.2,0.3-0.5,0.5-0.9,0.4
			c-0.1,0-0.3,0-0.4,0.1c-0.3,0.2-0.7,0.2-0.9,0c-0.3-0.3-0.1-0.5,0.1-0.7c0.5-0.5,0.9-1.1,1.4-1.5c0.8-0.6,1.6-1.1,2.5-1.6
			c0.6-0.3,1.3-0.6,1.8-1.1c0.4-0.4,0.7-0.7,1.1-1C26.4,126.8,26.8,126.7,27.2,126.5z"/>
		<path class="st5" d="M39.3,101.2c0.1-0.2,0.1-0.4,0.2-0.6c0.4-0.7,0.7-1.4,1.2-2.1c0.1-0.2,0.4-0.4,0.6-0.6
			c0.1-0.1,0.2-0.1,0.4-0.1c0,0.1,0.2,0.3,0.1,0.4c-0.1,0.3-0.3,0.7-0.5,1c-0.4,0.7-0.9,1.3-1.3,2c-0.1,0.1-0.3,0.2-0.4,0.3
			C39.4,101.3,39.3,101.2,39.3,101.2z"/>
	</g>
</g>
</svg>
