<?xml version="1.0" encoding="utf-8"?>
<svg xmlns="http://www.w3.org/2000/svg"
	xmlns:xlink="http://www.w3.org/1999/xlink"
	width="16px" height="28px" viewBox="0 0 16 28">
<path fillRule="evenodd" d="M 15.32 15.06C 15.97 14.42 15.97 13.39 15.32 12.76 15.32 12.76 2.63 0.22 2.63 0.22 2.31-0.1 1.79-0.1 1.47 0.22 1.47 0.22 0.3 1.37 0.3 1.37-0.02 1.69-0.02 2.21 0.3 2.52 0.3 2.52 11.24 13.33 11.24 13.33 11.57 13.65 11.57 14.17 11.24 14.48 11.24 14.48 0.3 25.29 0.3 25.29-0.02 25.61-0.02 26.13 0.3 26.45 0.3 26.45 1.47 27.6 1.47 27.6 1.79 27.91 2.31 27.91 2.63 27.6 2.63 27.6 15.32 15.06 15.32 15.06Z" fill="rgb(133,147,157)"/></svg>