<?xml version="1.0" encoding="utf-8"?>
<!-- Generator: Adobe Illustrator 21.0.0, SVG Export Plug-In . SVG Version: 6.00 Build 0)  -->
<svg version="1.1" id="Layer_1" xmlns="http://www.w3.org/2000/svg" xmlns:xlink="http://www.w3.org/1999/xlink" x="0px" y="0px"
	 viewBox="0 0 612.4 206.3" style="enable-background:new 0 0 612.4 206.3;" xml:space="preserve">
<style type="text/css">
	.st0{fill:#F9F1E9;}
	.st1{fill:#39374C;}
	.st2{fill:#D05C63;}
	.st3{font-family:'CosmopolitanScript-Bold';}
	.st4{font-size:69.3654px;}
</style>
<line class="st0" x1="612.4" y1="-1065.5" x2="612.4" y2="368.3"/>
<line class="st0" x1="0.9" y1="368.3" x2="0.9" y2="-1065.5"/>
<rect class="st1" width="612.4" height="206.3"/>
<g>
	<path class="st2" d="M250.9,81.3c-1.9,0.4-3.9-0.3-5.7,0.8c-0.2-0.2-0.5-0.4-0.5-0.6c-0.3-1-0.6-2.1-0.7-3.1
		c-0.3-2.1,0.3-4.1,1.6-5.8c0.8-1,1.5-1.9,1.6-3.3c0-0.5,0.4-0.7,0.8-0.7c2.4,0.4,4.9,0,7.4,0.5c0.6,0.1,1.2-0.1,1.8-0.2
		c0.1,0,0.2-0.1,0.4-0.1c1.4,0,2.8-0.5,4.2-0.8c0-0.3,0-0.6,0-0.9c0-0.8,0-1.6,0-2.4c0,0,0-0.1,0-0.1c-0.2-3.3,1-6.3,2.5-9.1
		c0.4-0.7,0.8-1.4,1.3-2.2c-0.3-0.4-0.6-0.8-0.9-1.3c0.2-0.1,0.4-0.3,0.6-0.5c-0.1-0.2-0.1-0.5-0.3-0.7c-1-1.5-2-3.1-3.5-4.1
		c-0.4-0.3-0.9-0.5-1.4-0.8c-1.2-0.7-2.4-1.5-3.6-2.2c-0.2-0.1-0.4-0.4-0.5-0.5c0.5-1.4,1-2.6,1.5-3.9c0.1-0.3,0.2-0.6,0.3-0.9
		c0.2-0.6,0.3-0.7,0.9-0.6c0.8,0.2,1.6,0.4,2.5,0.7c0.1,0,0.2,0,0.4-0.2c-0.6-0.3-1.1-0.7-1.8-1c-0.7-0.3-0.9-0.9-0.3-1.5
		c0.7-0.7,1.5-1.3,2.2-2.1c0.3-0.3,0.5-0.7,0.7-1c0.5-0.7,0.7-0.8,1.4-0.3c0.8,0.5,1.6,1.1,2.4,1.7c0.6,0.5,1.3,0.9,2,1.3
		c0.9,0.7,1.9,1.3,2.7,2c0.4,0.4,0.8,0.9,1.1,1.4c0.7,1.2,1.4,2.5,2.1,3.7c0.1,0.1,0.1,0.3,0.2,0.4c0.1-0.1,0.2-0.2,0.2-0.2
		c0.7-1.4,1.6-2.7,2.7-3.9c1.5-1.6,3-3.3,4.9-4.6c0.3-0.2,0.4-0.5,0.5-0.8c0.3-1.3,0.2-2.7,0-4.1c0-0.2-0.2-0.4-0.4-0.6
		c-0.9-0.7-0.9-1.5,0.1-2.1c0.9-0.5,1.8-0.8,2.7-1.2c0.3-0.1,0.7-0.2,1-0.3c1-0.6,2.1-0.5,3.2-0.2c0.9,0.2,1.8,0.5,2.6,0.7
		c0.2,0.1,0.5,0.2,0.7,0.3c0.3,0.2,0.4,0.5,0.1,0.9c-0.1,0.1-0.3,0.3-0.3,0.5c-0.1,1-0.1,2.1-0.2,3.1c0,0.5,0.3,0.8,0.7,0.9
		c0.4,0.2,0.9,0.4,1.4,0.4c1.3,0.1,2.6,0.1,3.9,0c0.7-0.1,1.5-0.4,2.2-0.6c0.2-0.1,0.4-0.3,0.4-0.6c0.2-1.7,0.4-3.4,0.7-5.1
		c0-0.3-0.1-0.5-0.3-0.7c-0.4-0.3-0.8-0.7-1.3-1c-0.7-0.5-1.2-1.2-1.6-1.9c-0.4-0.7-0.7-1.5-1.1-2.3c-0.2,0-0.3,0-0.5,0
		c-0.4,0-0.6-0.2-0.6-0.6c0-0.2,0-0.4,0-0.6c0-0.4,0.2-0.5,0.5-0.6c0.6-0.2,1.2-0.5,1.7-0.9c0.6-0.4,0.6-0.5,1.4,0
		c0.2-0.2,0.4-0.4,0.7-0.6c0.5-0.4,0.9-0.4,1.4,0.1c0.5,0.6,1,1.2,1.6,1.7c0.4,0.4,1,0.6,1.6,1c0.3-0.5,0.6-0.9,0.9-1.3
		c0.1-0.2,0.2-0.5,0.3-0.7c0.2-0.4,0.6-0.6,1-0.4c0.3,0.1,0.5,0.2,0.8,0.3c1.1,0.4,2.1,0.9,3.2,1.3c0.5,0.2,1,0.2,1.5,0.3
		c0.5,0.1,0.8,0.5,0.5,0.8c-0.6,0.7-0.6,1.5-0.9,2.3c-0.2,0.6-0.3,1.3-0.6,1.9c-0.7,1.7-0.6,3.4-0.3,5.1c0.2,0.8,0.6,1.6,1,2.4
		c0.1,0.3,0.5,0.5,0.8,0.7c1,0.6,1.9,1.3,3,1.6c1.2,0.4,2.2,1.2,3.1,2c0.1,0.1,0.3,0.2,0.5,0.3c1.6,1.1,3.2,2.1,4.8,3.2
		c0.7,0.5,1.1,1.3,1.6,2c0.6,0.9,1.3,1.9,1.7,2.9c0.4,1,0.6,2,0.8,3.1c0.2,0.7,0.2,1.4,0.4,2c0.4,1.6,0.6,3.2,0.7,4.9
		c0.1,1,0.2,1.9,0.2,2.9c0,0.8-0.2,1.7-0.4,2.5c-0.1,0.6-0.1,1.1,0.1,1.7c0.4,1.2,0.8,2.5,1.2,3.9c0.5-0.7,1-1.3,1.3-2
		c0.8-1.4,1.6-2.8,2.4-4.2c0.3-0.5,0.3-0.8,0-1.3c-0.9-1.8-1.4-3.8-1.8-5.7c-0.1-0.4-0.1-0.7,0.3-0.9c0.9-0.5,1.2-1.4,1.5-2.3
		c0.2-0.4,0.5-0.8,0.8-1.1c0.2-0.2,0.6-0.1,1-0.2c0.2-0.5,0.4-1.2,0.7-1.8c0.9-2.1,1.8-4.2,2.7-6.3c0.2-0.5,0.3-1,0.5-1.4
		c0.1-0.3,0.2-0.8,0.4-0.9c1.1-0.5,1.1-1.7,1.6-2.5c0.5-0.8,0.8-1.7,1.3-2.5c0.1-0.2,0.5-0.4,0.8-0.5c0.4-1,0.8-2,1.3-3
		c0.1-0.2,0.4-0.5,0.5-0.4c0.2,0,0.6,0.3,0.6,0.5c-0.1,0.8,0.6,1.4,0.8,2.1c0.3,1,0.7,2,1.1,3c0.1,0.2,0.3,0.4,0.5,0.7
		c0.4-0.5,0.8-1,1.1-1.4c0.3-0.4,0.6-0.8,1-1.1c0.5-0.5,0.7-0.4,1.4-0.1c0.5,0.3,1.1,0.4,1.7,0.5c0.8,0.1,1.4,0.6,2,1
		c0.2,0.1,0.4,0.3,0.6,0.4c0.8,0.5,1,1,0.5,1.9c-0.3,0.6-0.7,1.1-1,1.7c-0.1,0.1-0.1,0.3-0.2,0.5c1,0.1,1.9,0.2,2.8-0.1
		c0.6-0.2,1.3-0.3,1.9-0.4c0.7-0.1,1,0.3,1.3,1c-0.3,0.4-0.7,0.9-1,1.3c-0.1,0.1-0.2,0.2-0.2,0.3c-0.1,1.3-1.4,1.6-2.1,2.5
		c-0.1,0.1-0.2,0.1-0.2,0.1c-0.4,0.8-0.6,1.5-1,2.1c-1.2,1.8-2.4,3.6-3.9,5.2c-0.9,1-1.5,2.3-2.5,3.2c-0.3,0.2-0.3,0.7-0.5,1
		c-0.6,1.1-1.3,2.2-1.9,3.4c-0.3,0.5-0.4,1.1-0.4,1.7c0,0.6-0.1,1.2-0.3,1.7c-0.1,0.2-0.6,0.3-0.9,0.4c-1.8,0.1-3.5,0.3-5.3,0.4
		c-0.6,0-0.9,0.2-1.2,0.7c-0.4,0.5-0.8,1-1.2,1.6c-0.6,0.8-1.1,1.6-1.7,2.4c-0.7,1-1.3,2.1-2.1,3.2c0.3,0.3,0.6,0.7,0.9,1
		c1.7,1.8,3.4,3.7,4.8,5.7c0.8,1.2,1.4,2.5,2,3.8c0.1,0.3,0.1,0.6,0.2,0.9c0.1,0.3,0.1,0.7,0.3,1c1,1.5,0.8,3.2,1.2,4.8
		c0.2,1-0.1,2-0.4,2.9c-0.5,1.2-0.4,2.2,0.3,3.3c0.7,0.9,1.1,2.1,2,2.8c0.1,0.1,0.2,0.3,0.2,0.5c0.4,1.2,0.6,2.4,1.1,3.6
		c0.4,0.9,0.6,1.9,0.8,2.9c0.1,1,0.2,1.9,0.3,2.9c0.1,1.4,0.2,2.8,0.2,4.2c0,1.2-0.1,2.3-0.2,3.5c-0.1,1.1-0.3,2.1-0.5,3.2
		c0,0.2-0.1,0.3,0,0.5c0.1,0.4,0.3,0.7,0.3,1.1c-0.1,2.3-0.3,4.5-1.3,6.6c-0.9,2.1-1.8,4.1-2.8,6.2c-0.8,1.6-1.7,3.2-2.7,4.8
		c-1.6,2.7-2.9,5.5-3.7,8.6c-0.4,1.5-0.6,3.1-0.8,4.7c-0.1,0.3,0,0.7,0,1c0.1,1.6,0.1,3.1,0.2,4.7c0.1,0.8,0.2,1.5-0.1,2.2
		c-0.5,1.4-1.1,2.8-2,3.9c-0.7,1-1.7,1.5-3,1.4c-2-0.1-4-0.3-6-0.4c-3.1-0.2-6.1-0.7-9.2-1.3c-1-0.2-2-0.4-2.9-0.7
		c-0.7-0.2-1.4-0.5-2.1-0.8c-2.1-0.9-4.1-2-6.1-3.1c-0.8-0.5-1.8-0.6-2.7-1c-1.7-0.7-3.4-1.5-4.9-2.7c-0.1-0.1-0.3-0.2-0.5-0.3
		c-0.2,0.9-0.1,1.7,0,2.5c0.2,1.4,0.4,2.8,0.5,4.2c0.1,0.5,0.1,1,0.2,1.5c0.1,1.1,0.1,2.1,0.2,3.2c0,0.5,0.1,1.1,0.1,1.6
		c0,0.3,0.1,0.6,0.1,0.8c0,0.4-0.2,0.7-0.6,0.7c-0.4,0.1-0.7-0.1-0.8-0.5c-0.5-1.7-1-3.4-1.6-5c-0.3-1-0.6-2-0.8-3
		c-0.1-0.6-0.5-1.1-0.9-1.8c-1.1,1.6-0.4,3.2-0.6,4.7c-1,0.4-1,0.4-1.4-0.5c-0.4-0.8-0.7-1.6-0.6-2.5c0-0.3-0.1-0.6-0.2-0.9
		c-0.3-1-0.4-2,0-3c0.3-0.7,0.4-1.4,0.3-2.1c-0.1-0.8-0.1-1.7-0.2-2.5c-0.1-0.6-0.3-1.3-0.5-2c-0.3-0.1-0.6-0.3-1.1-0.6
		c-3,5.7-6.1,11.4-9,17c0.1,0.7,0.8,1,0.4,1.6c-0.4,0.5-0.8,0.2-1.3-0.1c0,0.5,0,0.7,0.1,1.1c-0.6,0.3-1.1,0.8-0.9,1.4
		c-0.4,0.5-0.7,0.8-1,1.2c0.2,0.3,0.3,0.5,0.4,0.7c0,0.1,0,0.4-0.1,0.5c-0.8,0.3-0.6,1.1-0.8,1.6c-0.1,0.4,0.3,0.8,0.8,0.7
		c0.7-0.2,1.2,0.2,1.7,0.5c0.8,0.5,1.5,1,2.3,1.5c0.4-0.3,0.8-0.7,1.3-0.3c0.4,0.3,0.6,0.7,0.3,1.1c-0.3,0.5-0.8,0.9-1.4,1
		c-0.5,0.1-0.8,0.4-1.1,0.8c-0.5,0.7-1,1.4-1.5,2.1c-0.6,0.8-1.4,1.4-2.5,1.6c-0.3,0.1-0.7,0.2-0.9,0.4c-1.1,1.4-2.7,2.2-4.1,3.1
		c-0.5,0.3-0.8,0.7-1,1.2c-0.4,1-1.1,1.6-2.2,1.8c-0.4,0-0.7,0.4-1,0.7c-0.3,0.3-0.6,0.8-0.8,1.2c-0.5,0.9-1.3,1.5-2.2,2
		c-1.3,0.7-3-0.3-3-1.8c0-0.2,0-0.4,0.1-0.7c0.4-1.8,0.6-3.6,0.6-5.4c0-0.2,0.1-0.4,0.1-0.6c0.2-0.6,0.1-1.1-0.1-1.7
		c-0.2-0.6-0.4-1.3-0.3-1.8c0.3-1.1-0.2-2.1-0.3-3.2c0-0.5-0.2-0.9-0.1-1.4c0.3-1.5,0.6-3.1,0.9-4.6c0.1-0.4,0-0.9-0.2-1.3
		c-0.5-1.2-0.7-2.4,0-3.6c0.1-0.2,0.1-0.4,0.2-0.6c0.1-0.7,0.9-1.1,1.4-0.7c0.9,0.6,1.8,1.2,2.6,1.9c0.2,0.2,0.3,0.6,0.5,0.9
		c0.2,0.4,0.4,0.9,0.7,1.3c0.3,0.4,0.8,0.5,1.3,0.3c0.2-0.1,0.5-0.1,0.7-0.2c0.5-0.2,0.6-0.5,0.2-0.8c-0.1-0.2-0.4-0.3-0.5-0.4
		c-0.1-0.2-0.3-0.5-0.3-0.7c0-0.2,0.4-0.3,0.6-0.4c0.1,0,0.3,0,0.5,0.1c0.2-0.6,0.4-1.3,0.7-2c0.4-0.3,0.8,0.3,1.4,0.2
		c0.2-0.3,0.3-0.6,0.5-1c-0.3-0.2-0.5-0.4-0.7-0.5c0-1,0-1,1.5-0.9c0.2-0.3,0.3-0.6,0.5-0.9c-0.6-1.2-0.4-1.3,0.7-1.5
		c1.5-3.4,3.1-6.7,5-9.9c1.1-1.8,2-3.6,3-5.5c0.1-0.2,0.2-0.4,0.2-0.6c-0.5-0.5-1.1-1-1.5-1.6c-1-1.2-2.4-2-3.5-3
		c-0.6-0.5-1.1-1-1.6-1.6c-0.9-1-1.9-1.8-2.9-2.6c-0.4-0.3-0.8-0.7-1.1-1.2c-0.8-1.2-1.9-2-2.9-2.9c-0.2-0.1-0.4-0.2-0.5-0.4
		c-0.8-1-1.9-1.7-2.9-2.6c-0.3-0.3-0.6-0.7-0.9-1.1c-0.6-0.8-1.4-1.4-2.3-1.8c-1.2-0.6-2.3-1.2-3.4-2c-0.8-0.6-1.9-0.9-2.7-1.5
		c-0.9-0.5-1.7-1.2-2.5-1.8c-0.5-0.4-0.9-0.9-1.4-1.3c-0.7-0.6-1.2-1.2-1.5-2.1c-0.2-0.6-0.6-1.2-1-1.7c-0.2-0.3-0.5-0.4-0.9-0.6
		c-0.6-0.3-1-0.6-1.3-1.2c-0.2-0.4-0.5-0.8-0.8-1.2c-1-1.2-1.1-2.2-0.2-3.5c0.2-0.3,0.4-0.6,0.6-0.9c-0.1-0.4-0.3-0.7-0.3-1.1
		c0-0.6-0.4-1-0.9-1.3c-0.7-0.4-1.4-0.8-2.1-1.2c-0.2-0.1-0.4-0.2-0.5-0.3c-0.5-0.6-0.9-1.3-1.3-1.9c-0.1-0.2-0.2-0.5-0.1-0.6
		c0.3-0.7,0-1.4-0.1-2.1c-0.1-0.7,0-1.4,0.3-2.1c0.5-1.1,0.8-2.2,1.2-3.3c0.1-0.4,0.1-1,0-1.4c-0.5-1.1,0-2.2,0.8-2.9
		c0.9-0.7,1.8-1.4,2.9-1.6c0.3,0,0.5-0.1,0.8-0.3c0.9-0.4,1.3-1,1.2-1.9C251.3,83.3,251.1,82.4,250.9,81.3z M267.5,187.2
		c0.1-0.1,0.2-0.1,0.3-0.2c0.5-1,1.3-1.4,2.3-1.5c0.4-0.1,0.7-0.3,0.9-0.8c0.1-0.4,0.3-0.7,0.5-1c0.6-0.9,1.5-1.3,2.4-1.8
		c0.9-0.5,1.8-1.1,2.4-1.9c0.5-0.6,1.1-1,1.9-1.1c0.6-0.1,1-0.3,1.4-0.8c0.9-1.1,1.7-2.2,2.6-3.3c-0.5-0.4-1.1-0.6-1.5-1
		c-0.3-0.3-0.5-0.4-0.9-0.3c-0.2,0.1-0.5,0-0.7-0.1c-0.9-0.6-1.8-1.2-1.5-2.5c0-0.1,0-0.3,0-0.4c-0.7-0.5-1.3-1.1-2-1.5
		c-0.5-0.3-1-0.7-1.5-0.9c-0.4-0.2-0.8-0.2-1.1,0.2c-0.2,0.3-0.4,0.6-0.7,0.6c-0.8,0.2-1.7,0.6-2.6,0.2c0.1,0.6,0.3,1.2,0.4,1.7
		c0.8,0,1.7,0,2.5,0c0.3,0,0.6,0.2,0.6,0.6c0,0.2-0.3,0.5-0.4,0.7c-0.1,0.1-0.2,0.1-0.4,0.1c-1,0.4-1.1,0.5-0.9,1.7
		c1.1,0.4,1.1,0.4,1,1c-0.6,0.1-1.1,0.2-1.7,0.2c-0.4,0-0.7-0.2-0.7-0.6c0-0.3,0-0.6,0.1-0.9c0.1-0.4-0.1-0.8-0.3-1.3
		c-0.5,0.8-1,1.4-1.2,2c-0.3,1-0.5,2-0.4,3.1c0.1,0.7,0.1,1.4,0,2.1c0,0.3-0.1,0.6-0.2,0.8c-0.1,0.2-0.4,0.5-0.6,0.5
		c-0.2,0-0.4-0.4-0.5-0.6c-0.1-0.4-0.1-0.8-0.2-1.2c-0.2-0.7-0.2-1.5,0-2.2c0.1-0.3,0.1-0.8-0.1-1.1c-0.3-0.4-0.4-0.9-0.4-1.4
		c0-0.7,0-1.4-0.2-1.9c-0.3-0.6-0.5-1-0.3-1.7c-0.2,0.3-0.3,0.6-0.4,0.9c-0.1,0.4-0.1,0.9-0.2,1.3c-0.3,1.4-0.4,2.8,0,4.2
		c0.2,0.6,0.2,1.1,0,1.7c-0.1,0.6-0.1,1.2,0.2,1.8c0.4,0.7,0.3,1.5,0.2,2.3c-0.1,0.6-0.2,1.2-0.2,1.8c0,0.9,0,1.8-0.3,2.6
		c-0.1,0.4-0.2,0.9-0.2,1.4c0,0.3,0.1,0.6,0.1,1C266.5,189.2,267,188.2,267.5,187.2L267.5,187.2z M272.5,121.8
		c0.1-0.6,0.2-1.2,1-1.4c0.2-0.1,0.4-0.3,0.5-0.5c0.2-0.2,0.2-0.5,0.4-0.6c0.1-0.1,0.4-0.2,0.6-0.2c0.3,0.1,0.3,0.3,0.2,0.6
		c-0.2,0.3-0.3,0.6-0.4,0.9c0.3,0.3,0.5,0.6,0.7,0.8c0.9-0.6,1.7-1.3,2.7-1.9c-0.3-0.2-0.5-0.3-0.7-0.4c-0.4-0.3-0.9-0.6-1.2-1
		c-0.5-0.6-1-1.2-1.4-1.9c-0.6-1.1-1.2-2.1-1.7-3.2c-0.1-0.3-0.1-0.6-0.1-0.9c0.1-1,0.2-1.9,0.3-2.9c0.1-0.7,0.2-1.5,0.4-2.2
		c0.7-2,0.8-4.1,0.6-6.3c0-0.5-0.2-1-0.4-1.8c-0.3,0.8-0.4,1.6-1.5,1.4c0.9,1.2,1.1,2.3,0.1,3.3c0.1,0.4,0.7,0.8,0.1,1.1
		c-0.3,0.2-0.7,0.1-0.9-0.2c-0.3-0.3-0.2-0.6,0.2-1.1c-0.1-0.2-0.1-0.4-0.2-0.5c-0.2-0.3-0.5-0.5-0.6-0.8c-0.1-0.4,0.1-0.8,0-1.2
		c-0.3-1.1-0.1-1.5,0.9-2c0.4-0.2,0.4-0.4,0.2-0.7c-0.6,0.1-1.1,0.2-1.7,0.4c-0.3,0.1-0.7,0.4-0.8,0.7c-0.2,1-0.3,2.1,0.3,3.1
		c0.8,1.6,0.8,3.1,0.2,4.7c-0.2,0.6-0.5,1.2-0.2,1.8c0,0.1,0.1,0.3,0,0.4c-0.6,0.6-0.1,1,0.1,1.5c0.2,0.4,0.4,0.8,0.5,1.2
		c0.2,1,0.3,1.9,0.4,2.9c0.1,0.6,0.1,1.2,0.2,1.8c0.4,1.5,0.4,3.1,1.2,4.4C272.5,121.2,272.4,121.5,272.5,121.8
		c0.4,1.6,0.8,3.1,1.2,4.7c0.1,0.5,0.2,0.9,0.4,1.3c0.7,1.2,1.4,2.5,2.1,3.7c1.1,1.7,2.2,3.5,4.3,4.2c-0.1,0.7,0.2,1.1,0.7,1.4
		c0.9,0.8,1.8,1.6,2.6,2.4c0.6,0.6,1.1,1.2,1.7,1.8c0.3-0.5,0.4-0.9,0.7-1.3c1-1.6,2-3.3,3-4.9c0.5-0.8,0.8-1.6,0.7-2.6
		c0-0.3-0.1-0.6-0.2-0.9c-0.1-0.3-0.2-0.7,0.2-1c0.1-0.1,0.2-0.2,0.1-0.3c-0.1-0.8,0.2-1.5,0.5-2.2c0.2-0.5,0.2-1.1,0-1.7
		c-0.1-0.2-0.2-0.6-0.1-0.8c0.4-1.2,0.8-2.4,1.2-3.6c0.5-1.4,1-2.8,1.5-4.2c0.7-1.8,1.1-3.7,1.5-5.6c0.1-0.3,0.2-0.7,0.1-0.9
		c-0.2-0.4-0.1-0.8,0-1.2c0.1-0.3,0.1-0.7,0.2-1c0.2-1.8,0.1-3.7-0.3-5.5c0,0-0.1-0.1-0.1-0.1c-0.1,0.2-0.2,0.3-0.3,0.5
		c-0.4-0.4-0.4-0.9-0.1-1.3c0.2-0.3,0.1-0.5,0-0.8c-0.2-0.9-0.6-1.8-1.2-2.5c-0.3-0.4-0.2-0.7,0.1-1c0.3-0.3,0.7-0.1,0.9,0.1
		c0.2,0.1,0.3,0.3,0.4,0.5c0.4,0.8,0.9,1.6,1.3,2.4c0.2,0.3,0.3,0.7,0.3,1.1c0.3,1.4,0.4,2.8,0.8,4.2c0.4,1.2,0.5,2.5,0.6,3.8
		c0.1,1,0.1,2,0.1,2.9c0,1.6,0.2,3.3,0.1,4.9c-0.1,1.5,0.2,2.9,0.5,4.4c0.4,1.5,0.8,3,1.2,4.5c0.6,0.4,0.9,0.8,1,1.5
		c0.3,1.7,0,3.3-0.1,5c-0.1,1.6-0.7,3-1.1,4.5c-0.4,1.3-0.6,2.6-0.3,3.9c0.3,1.9,0.3,3.8-0.1,5.6c-0.1,0.3,0,0.6-0.1,0.9
		c0,0.4,0.1,0.7,0.4,0.9c0.5,0.3,1,0.7,1.5,1c1.7,1.1,3.5,2.2,5.5,2.8c0.6,0.2,1.1,0.4,1.7,0.6c1.6,0.8,3.2,1.5,4.7,2.4
		c2.3,1.3,4.7,1.9,7.2,2.3c2.1,0.4,4.3,0.6,6.5,0.9c1.7,0.2,3.4,0.5,5.1,0.1c0.7-0.1,1.5-0.2,2.1-0.6c1-0.7,1.7-1.6,1.7-2.9
		c0-0.2,0.1-0.5,0.2-0.7c0.2-1.4,0.6-2.8,0.4-4.3c-0.3-2.1-0.3-4.2,0.1-6.2c0.3-1.3,0.8-2.6,1.2-3.9c0.2-0.7,0.6-1.3,0.9-2
		c0.5-0.9,1.1-1.7,1.6-2.6c0,0-0.1-0.1-0.1-0.1c-0.3,0.2-0.7,0.4-1,0.7c-0.3-0.6-0.2-1.1,0.2-1.5c0.5-0.5,1-0.6,1.8-0.3
		c0.4-0.7,0.7-1.3,1.1-2c0.7-1.5,1.9-2.8,2.5-4.5c0.1-0.2,0.2-0.4,0.3-0.6c0.2-0.3,0.3-0.6,0.5-0.9c0.2-0.4,0.4-0.9,0.6-1.3
		c0.9-1.7,1.8-3.4,2.3-5.3c0.3-1.3,0.5-2.7,0.2-4.1c-0.1-0.4,0-0.8,0-1.2c0.1-1,0.6-1.8,0.6-2.8c0-1.6,0.1-3.2,0.2-4.8
		c0-0.3-0.2-0.5-0.2-0.8c-0.2-0.7-0.4-1.4-0.4-2.1c0.1-2.1-0.2-4.1-0.8-6.1c-0.5-1.6-1.1-3.1-2.3-4.3c-0.5-0.5-1.3-0.9-1.1-1.8
		c0,0,0-0.1,0-0.1c-0.8-1.3-1.3-2.7-2.3-3.9c-0.3-0.4-0.7-0.6-1.2-0.6c-0.5,0-1.1-0.1-1.6-0.3c-0.6-0.3-1.1-0.8-1.7-1.2
		c-0.5-0.4-1.1-0.7-1.7-0.5c0.1,1.2,0.3,2.3,0.4,3.5c0,0.2-0.2,0.4-0.3,0.6c-0.2-0.2-0.5-0.3-0.5-0.5c-0.1-0.7-0.2-1.4-0.3-2.2
		c0-0.5,0-1,0-1.6c-1.2-0.4-2.5-0.9-3.5-1.8c-0.3-0.2-0.5-0.5-1-0.5c-0.3,0-0.6-0.2-0.3-0.6c0.2-0.4,0.1-0.7,0-1
		c-0.4-0.8-0.2-1.7,0.1-2.5c0.2-0.6,0.4-1.1,0.6-1.7c0.4-1.6,0.4-3.3,0.3-5c-0.2-2.6-0.5-5.1-1.3-7.6c-0.2-0.7-0.3-1.4-0.5-2
		c-0.1-0.3-0.3-0.7-0.6-0.9c-0.2-0.1-0.6,0-0.7-0.3c0-0.3,0.1-0.6,0.2-0.9c-0.1-0.1-0.2-0.3-0.3-0.5c-0.2,0.2-0.4,0.3-0.7,0.5
		c-0.2-0.3-0.5-0.6-0.5-0.9c0-0.2,0.4-0.4,0.7-0.6c-1.1-1.3-2.2-2.6-3.1-3.7c-1.7,0.3-3.2,0.4-4.7,0.9c-0.2,0.1-0.5,0-0.7,0
		c-0.2-0.5,0.1-0.6,0.4-0.7c1.3-0.4,2.5-1,3.9-1.2c-1-0.7-2.1-1.5-3.2-2.3c-0.2,0.5-0.4,0.7-0.9,0.7c-0.4,0-0.8,0.1-1.2,0.1
		c-0.4,0-0.7,0-1-0.3c0.1-0.1,0.2-0.2,0.3-0.2c0.7-0.2,0.6-0.2,0.5-0.9c-0.1-0.6-0.2-1.3,0-1.9c0.4-1.4,0.9-2.7,1.4-4
		c-0.6-0.4-1.3-0.7-1.9-1.1c-0.4,0.8-0.7,1.7-1.2,2.5c-0.5,0.7-1,1.4-2,1.5c0.3,0.7,0.4,0.7-0.2,1.1c-0.3,0.2-0.6,0.4-1,0.6
		c-0.9,0.5-1.9,0.8-2.7,1.5c-0.2,0.2-0.5,0.6-0.9,0.2c-0.3-0.3,0.1-0.6,0.3-0.9c0.1-0.1,0.3-0.2,0.5-0.3c0.8-0.5,1.7-1,2.7-1.6
		c-1.8,0.2-3.3,0.7-4.6,1.7c-0.5,0.4-1,0.7-1.5,1c-1,0.6-2.1,1.2-2.4,2.6c0,0.2-0.2,0.3-0.3,0.5c-0.5,1-0.6,1.7-0.3,2.7
		c0.2-0.3,0.3-0.6,0.4-0.9c0.5-1.5,1.4-2.6,2.7-3.4c0.6-0.4,0.6-0.4,1.3,0.2c-0.2,0.6-0.6,1.1-1,1.5c-1.1,1-1.2,2.5-1.7,3.8
		c0.7-0.5,1.1-1.5,2.2-1.6c0.6,0.3,0.5,0.6,0.1,1.2c-0.8,1.1-1.4,2.2-1.8,3.7c0.6-0.6,1.1-1,1.6-1.4c0.5-0.4,0.8-1.1,1.6-1.2
		c0.3,0.6,0.1,1.2-0.2,1.6c-0.3,0.5-0.7,0.9-1.1,1.3c-0.7,0.7-1.1,1.7-1.6,2.7c0.8-0.5,1.5-0.7,2-1.3c0,0,0.1-0.1,0.2-0.1
		c0.2,0,0.4,0.1,0.6,0.1c-0.1,0.2-0.1,0.4-0.2,0.6c-0.5,0.7-1.1,1.4-1.6,2.1c-0.1,0.1-0.1,0.3-0.1,0.5c1,0.3,1,0.4,0.4,1.2
		c-0.2,0.2-0.4,0.4-0.5,0.7c-0.2,0.4-0.3,0.8-0.2,1.2c1.2-0.8,1.3-0.9,1.5,0.3c0.1,0,0.2,0.1,0.2,0.1c0.8,0.2,0.8,0.3,0.4,1
		c-0.3,0.3-0.3,0.7-0.2,1.1c1.3-0.7,2.3-1.6,3.4-2.5c0.4,0.2,0.4,0.5,0.2,0.8c-0.2,0.2-0.4,0.4-0.6,0.6c-0.7,0.6-1.5,1.2-2.2,1.7
		c0.1,0.4,0.2,0.7,0.4,1c1-0.7,2-1.3,3-2c1.5-1,2.7-1.4,3.3-1.4c-0.1,0.5-0.1,0.5-0.5,0.7c-1.9,1-3.6,2.1-5.2,3.4
		c-0.7,0.5-1,1.1-1,1.9c0,0.3-0.1,0.5,0,0.8c0,0.1,0.1,0.2,0.3,0.5c0.3-0.8,0-1.6,0.6-2.1c1.7-0.6,2.8-2.1,4.4-2.7
		c0.4,0.5,0,0.7-0.2,0.9c-0.8,0.6-1.5,1.3-2.4,1.8c-1.1,0.7-1.1,1.7-1.3,2.8c0.2,0,0.4-0.1,0.5-0.1c0.4,0,0.8,0.1,0.7,0.5
		c0,0.5,0.3,0.7,0.6,0.8c1.4,0.6,2.8,1.2,4.3,1.7c1,0.3,2.2,0.3,3.3,0.4c0.1,0,0.3,0,0.4-0.1c0.8-0.6,1.7-0.5,2.6-0.4
		c1.3,0.1,2.4,1.3,2.3,2.6c0,0.8,0,1.6,0,2.4c0.2,0.1,0.5,0.4,0.9,0.6c0-0.5,0.1-0.9,0.1-1.2c0.1-0.5,0.1-1,0.2-1.5
		c0-0.2,0.2-0.4,0.4-0.4c0.2,0,0.4,0.1,0.5,0.3c0.1,0.2,0.2,0.4,0.2,0.6c-0.1,1.3-0.3,2.5-0.4,3.8c0,0.3-0.2,0.6-0.5,0.6
		c-0.3,0-0.6-0.3-0.6-0.7c0-0.3,0-0.6,0-0.8c-0.4-0.1-0.8-0.1-1.2-0.2c-0.1,0.6-0.2,1.1-0.2,1.6c0,0.3-0.1,0.6-0.2,0.8
		c-0.1,0.4-0.2,0.9-0.2,1.3c0.1,1.3,0.4,2.5,0.9,3.6c0.5,1,1.1,2.1,1.5,3.2c0.4,1.1,1,2.1,1.8,2.8c1.4,1.3,2.2,2.8,2.9,4.4
		c0.5,1,0.8,2.1,1.5,3c0.5,0.6,0.9,1.2,1.2,1.9c1,1.8,2.4,3.2,4.2,4.3c1.9,1.2,3.1,2.9,4.3,4.7c0.3,0.4,0.6,0.8,0.8,1.2
		c0.1,0.2,0.2,0.5,0.1,0.6c-0.1,0.1-0.4,0.3-0.6,0.2c-0.7-0.1-1.1-0.6-1.4-1.2c-1.2-2.3-3-4.1-5.3-5.4c0,0.1-0.1,0.2-0.1,0.3
		c0.4,2.3,0.5,4.7-0.2,7c-0.1,0.5-0.3,0.9-0.3,1.4c-0.1,2.3-0.7,4.5-1.1,6.7c-0.3,1.5-0.6,3,0,4.5c0.1,0.3,0.1,0.6,0.1,0.9
		c0,0.2-0.3,0.5-0.4,0.5c-0.2,0-0.5-0.1-0.6-0.3c-0.1-0.2-0.2-0.5-0.2-0.7c-0.2-0.8-0.4-1.7-0.6-2.5c-0.1,0-0.1,0-0.2,0
		c0,0.5,0.1,1,0.1,1.5c0,1,0.1,2,0.1,2.9c0,0.2-0.3,0.4-0.4,0.6c-0.2-0.1-0.5-0.3-0.5-0.4c-0.2-0.6-0.4-1.1-0.4-1.7
		c-0.1-0.7-0.1-1.3-0.1-2c-0.1-1.2,0-2.4,0.3-3.6c0.2-0.9,0.5-1.7,0.6-2.6c0.3-2.1,0.4-4.3,0.6-6.4c0.1-0.5,0.2-1.1,0.1-1.6
		c-0.1-1.3-0.3-2.6-0.5-3.9c-0.2-1.5-0.4-3.1-1.6-4.2c-0.1-0.1-0.1-0.2-0.1-0.3c-0.1-0.3-0.2-0.7-0.4-1c-0.6-1-1.3-2.1-2-3.1
		c-0.3-0.4-0.7-0.8-1-1.2c-0.4,0.4-0.7,0.7-0.9,1c-1.4,1.8-2.2,3.9-2.4,6.1c-0.2,1.9-0.1,3.8,0.2,5.7c0.1,0.5,0.2,0.9,0.2,1.4
		c0,0.5-0.3,0.8-0.8,0.6c-0.2-0.1-0.4-0.4-0.5-0.6c-0.1-0.3-0.1-0.7-0.2-1c-0.3-2-0.5-3.9-0.4-5.9c0-0.7,0.1-1.3-0.4-2.1
		c-0.2,1.3-0.4,2.4-0.7,3.5c-0.2,1.2,0.1,2.3,0.4,3.4c-0.8,0.4-0.9,0.4-1.2-0.2c-0.7-1.3-0.8-2.7-0.6-4.1c0.1-0.7,0.2-1.4,0.3-2.1
		c-0.4,0.3-0.7,0.6-1,1c-0.3,0.4-0.7,0.4-1.1,0.2c-0.4-0.3-0.4-0.6-0.2-1.1c0.1-0.2,0.2-0.3,0.3-0.5c0.9-0.9,1.6-1.9,2.7-2.7
		c0.6-0.4,1.1-0.8,1.8-0.4c0.8-1.7,2.3-2.6,3.4-3.9c0.4-0.4,1.3-0.3,1.6,0.1c0.5,0.7,1.1,1.3,1.5,2c0.9,1.4,1.9,2.8,2.7,4.2
		c0.6,1.1,1.2,2.3,1.6,3.5c0.4,1.3,0.5,2.7,0.7,4c0.1,0.9,0.2,1.8,0.2,2.7c0,1.1-0.2,2.3-0.4,3.4c-0.1,1.2-0.3,2.3-0.5,3.5
		c0.3-1.1,0.5-2.1,0.7-3.2c0.1-0.7,0.2-1.3,0.3-2c0.2-1.1,0.4-2.3,0.4-3.5c0-0.9-0.1-1.8-0.2-2.7c-0.1-0.7-0.1-1.4,0.6-1.8
		c-0.5-0.7-1.1-1.3-1.5-1.9c-0.9-1.3-1.7-2.6-2.5-4c-0.3-0.5-0.6-1-0.8-1.5c-0.5-1-1-2.1-1.5-3.1c-0.3-0.5-0.7-1-1.2-1.5
		c-1-1.1-1.9-2.3-2.5-3.7c-0.4-0.9-0.8-1.8-1.2-2.6c-0.6-1.2-1-2.4-1.1-3.7c-0.1-0.8-0.1-1.7,0.1-2.5c0.3-1.5,0.5-3,0.7-4.6
		c0-0.3,0-0.7-0.1-1c0-0.1-0.3-0.2-0.4-0.4c-0.1,0.7-0.3,1.3-0.3,1.9c0.1,1.7,0,3.3-0.8,4.8c-0.2,0.4-0.3,0.9,0.2,1.1
		c-0.2,0.4-0.4,0.7-0.4,0.9c0,1.3,0.1,2.7,1,3.7c0.3,0.4,0.5,0.8,0.6,1.3c0.2,0.7,0.5,1.4,0.9,2c0.6,0.8,1,1.7,1.2,2.7
		c0,0.2,0.1,0.5,0,0.6c-0.4,0.6-0.7,1.2-1.2,1.6c-0.6,0.6-1.3,0.9-2,1.4c-1.4,1-2.7,2-3.6,3.6c-0.2,0-0.3,0-0.5,0
		c-0.4,0-0.7-0.1-0.8-0.5c0-0.3,0-0.7,0.2-0.8c1.1-1.2,2.1-2.4,3.5-3.3c0.7-0.5,1.4-1,2.1-1.4c0.4-0.2,0.6-0.5,0.7-1
		c0.2-0.7,0.1-1.2-0.3-1.9c-0.9-1.6-2.3-3-2.6-4.9c0-0.1-0.1-0.3-0.2-0.4c-0.1-0.2-0.2-0.3-0.2-0.5c-0.2-1.8-0.4-3.6-0.2-5.4
		c0.1-1.2,0.1-2.5,0-3.7c0-0.7-0.3-1.3-0.4-2c-0.5-0.1-0.9-0.2-1.2-0.2c-0.8-0.1-1.6-0.1-2.3-0.3c-1.6-0.5-3.1-0.9-4.6-1.7
		c-1.2-0.7-2.4-1.3-3.5-2.1c-0.7-0.5-1.5-0.4-2.3-0.4c-0.3,0-0.6,0.2-0.4,0.5c0.3,0.5,0,0.8-0.3,1.3c0.4-0.1,0.6-0.1,0.9-0.2
		c0.7-0.1,1.3-0.3,2-0.3c0.4,0,0.7,0.1,0.7,0.6c0,0.2-0.3,0.4-0.6,0.5c-0.4,0.2-0.9,0.4-1.4,0.5c0.2,0.4,0.4,0.4,0.7,0.3
		c0.9-0.6,2-0.2,2.9-0.4c0.1,0,0.5,0.2,0.5,0.4c0,0.2-0.1,0.5-0.3,0.6c-0.4,0.2-0.8,0.2-1.3,0.3c-0.2,0-0.5,0-0.9,0
		c0.2,0.3,0.3,0.5,0.5,0.8c0.7-0.2,1.3-0.5,2-0.7c0.4-0.1,0.7-0.2,1.1-0.3c0.4-0.1,0.7,0.1,0.9,0.6c-0.2,0.1-0.3,0.3-0.5,0.4
		c-0.8,0.3-1.6,0.7-2.4,0.9c-0.5,0.2-0.3,0.4-0.2,0.7c1.1-0.6,2.2-1.1,3.3-1.6c0.2,0.2,0.4,0.4,0.6,0.6c0.4-0.3,0.7-0.5,1.1-0.8
		c1.1,0.5,0.2,1.1,0.1,1.8c0.4-0.2,0.7-0.4,0.9-0.6c0.2-0.1,0.4-0.2,0.5-0.1c0.3,0.3,0.6,0.1,0.9,0c0.2-0.1,0.5-0.2,0.7,0.1
		c0.1,0.2,0.1,0.6,0,0.8c-0.2,0.3-0.6,0.4-0.9,0.6c-0.2,0.1-0.5,0.1-0.7,0.3c-0.4,0.4-0.8,0.4-1.3,0.2c-0.5-0.2-0.8-0.1-1.2,0.2
		c-0.2,0.1-0.4,0.2-0.6,0.3c-0.6,0.1-0.8-0.2-0.5-0.7c0.3-0.4,0-0.6-0.2-0.9c-0.8,0.4-1.6,0.8-2.4,1.2c-0.5,0.3-0.8,0.1-0.8-0.5
		c0-0.1,0.1-0.2,0.1-0.3c-1.3-0.6-2.5-0.1-3.7,0.4c-0.7,0.3-1.2,0-1.2-0.9c1-0.4,2.1-0.7,3.2-1.1c-0.3-0.6-0.8-0.4-1.2-0.3
		c-1.3,0.4-2.7,0.7-4,1.1c-0.3,0.1-0.6,0.2-0.8,0.2c-0.4-0.1-0.7-0.2-1-0.5c-0.1-0.1-0.1-0.5-0.2-0.8c0.5,0,0.8,0.1,1.2,0
		c0.4-0.1,0.7-0.3,1-0.5c-0.6,0-1.2-0.2-1.7-0.1c-0.9,0.2-1.7,0.5-2.6,0.9c-1.7,0.7-3.3,1.4-5,2.2c-0.2,0.1-0.5,0.2-0.7,0.3
		c-0.5,0.2-1,0-1.3-0.5c0.4-0.9,1.4-0.8,2.2-1.5c-0.5,0.1-0.8,0.1-1.1,0.1c-0.5,0-0.9,0.1-1.4,0.1c-0.4,0-0.8-0.1-1-0.6
		c-0.1-0.2-0.4-0.4-0.7-0.6c-0.2,0.3-0.4,0.5-0.5,0.7c-0.2,0.3-0.4,0.6-0.7,0.4c-0.4-0.2-0.3-0.6-0.1-0.9c0.1-0.2,0.4-0.4,0.6-0.6
		c0.1-0.1,0.2-0.2,0.3-0.3c-0.2-0.1-0.4-0.1-0.5,0c-0.8,0.6-1.5,1.2-2.3,1.8c-0.2,0.2-0.4,0.4-0.7,0.2c-0.3-0.2-0.1-0.5,0.1-0.7
		c0.5-0.5,1-1.1,1.5-1.7c-0.5-0.3-1-0.4-1.5-0.1c-0.8,0.4-1.6,0.8-2.4,1.3c-0.3,0.2-0.5,0.5-0.8,0.1c-0.2-0.4,0.1-0.6,0.3-0.8
		c0.7-0.5,1.4-0.9,2.1-1.3c0,0,0.1-0.1,0.1-0.2c-0.1-0.2-0.2-0.3-0.4-0.5c-0.3,0.1-0.6,0.3-0.8,0.3c-1.1,0-1.8,0.5-2.7,1.1
		c-0.2,0.2-0.5,0.2-0.8,0.3c-0.1-0.1-0.1-0.1-0.2-0.2c0.2-0.3,0.3-0.7,0.5-1c0.2-0.1,0.4-0.2,0.6-0.3c0-0.1-0.1-0.1-0.1-0.2
		c-0.1,0.2-0.3,0.3-0.4,0.5c-0.5,0.3-1,0.6-1.6,1c-0.1-0.3-0.2-0.6-0.2-0.7c-0.4-0.1-0.7-0.2-0.9-0.4c-0.1-0.1-0.3-0.2-0.4-0.2
		c-0.9-0.2-1.7-0.3-2.6-0.4c-0.5-0.1-1,0-1.3,0.3c-0.4,0.4-0.7,0.9-0.8,1.5c0.4,0.2,0.9-0.1,1.1,0.5c0,0.1-0.1,0.1-0.1,0.2
		c-0.8,0.2-1.7,0-2.4,0.6c-0.1,0.1-0.6-0.1-0.7-0.3c-0.1-0.2-0.1-0.5,0-0.8c0.3-0.6,0.6-1.1,1-1.6c0.4-0.6,0.8-1.1,1.3-1.6
		c0.1-0.1,0.2-0.2,0.4-0.4c-0.7-0.4-1,0.2-1.4,0.3c-0.6-0.2-1-0.3-1.4-0.5c-0.2-0.1-0.4-0.1-0.5-0.2c-0.1-0.1-0.2-0.3-0.3-0.5
		c0.2-0.1,0.3-0.2,0.5-0.2c0.5,0,1,0,1.5,0c1.1,0,2.1-0.5,3.3-0.8c-0.9-0.4-1.7-0.5-2.5-0.3c-0.8,0.2-1.1-0.2-0.9-1
		c0.1-0.3,0.2-0.6,0.3-1c-0.3,0-0.5,0-0.7,0c-0.4,0.1-0.6,0-0.7-0.4c-0.1-0.3,0.1-0.6,0.4-0.7c0.2,0,0.4-0.1,0.7-0.1
		c-0.6-0.7-1.3-0.9-2.1-1c-0.3,0-0.6-0.1-0.9-0.2c-0.3-0.1-0.3-0.5,0-0.7c0.2-0.1,0.4-0.2,0.6-0.2c0.6,0,1.2,0.1,1.9,0.2
		c-0.2-0.3-0.3-0.6-0.5-0.9c-1.4,0.1-2.8,0.2-4.2,0.4c-0.6,0.1-1,0.1-1.3-0.4c-0.4,0.3-0.6,0.8-1.2,0.5c-0.1-0.3-0.2-0.5-0.4-0.9
		c-0.3,0.5-0.5,0.8-0.7,1.1c0.2,0.3,0.3,0.6,0.4,0.8c-0.6,0.5-2.1,1.4-2.8,1.4c-0.9,0.1-1.3,0.6-1.6,1.4c-0.2,0.7-0.8,1.3-1.1,2
		c-0.4,0.8-1.1,1.5-1.7,2.2c-0.4,0.6-0.9,1-1.7,0.9c-0.7-0.1-0.9,0.1-1.2,0.8c-0.3,0.7-0.2,1.4-0.1,2.1c0.1,0.6,0.3,1.3-0.2,1.9
		c-0.1,0.1,0.1,0.3,0.1,0.4c1.5-0.7,2.8-1,3.7-0.7c-0.5,1-1.6,1-2.3,1.4c-0.5,0.3-1,0.1-1.4-0.3c-0.6,0.8-0.6,0.7-1.4,1.1
		c-1.1,0.5-2.4,0.7-3.4,1.7c-0.5,0.5-0.8,0.9-0.6,1.7c0.4,1.5,0.1,3-0.7,4.2c-0.5,0.7-0.8,1.5-0.6,2.4c0.1,0.8,0.1,1.7,0.2,2.5
		c0,0.2,0.1,0.4,0.2,0.5c0.7,1,1.7,1.7,2.8,2.1l0,0c0.2,0.2,0.4,0.5,0.6,0.7c0.3,0.3,0.7,0.6,1.2,0.9c0.9-0.2,1.9-0.3,3-0.5
		c1.1-0.2,1.9-0.7,2.9-1.2c0.9-0.4,1.1-0.3,1.7,0.5c-0.4,0.4-0.8,0.9-1.5,1.1c-0.5,0.2-1,0.4-1.5,0.6c-0.7,0.5-1.4,0.7-2.3,0.6
		c-0.5-0.1-0.8,0.2-0.9,0.7c-0.1,0.6-0.3,1.3-0.3,2c-0.1,1.5-0.2,3,1.2,4.1c0,0,0.1,0.1,0.1,0.1c0.6,0.5,1.2,1,1.7,1.5
		c0.6-0.5,0.9-0.7,1.4-0.6c0.2,0.1,0.5,0.3,0.6,0.5c0.1,0.3-0.2,0.5-0.5,0.6c-0.3,0.1-0.5,0.2-0.9,0.3c1.5,2.3,3.7,3.4,6.2,4.3
		c-0.2-0.4-0.3-0.6-0.3-0.9c-0.1-0.4,0.3-0.8,0.7-0.9c0.5,0,0.5,0.4,0.4,0.7c0,0,0,0.1,0.1,0.3c0.6-0.5,1.3-0.9,1.9-1.3
		c0.4,0.2,0.4,0.5,0.2,0.8c-0.2,0.3-0.4,0.6-0.7,0.8c-0.3,0.3-0.7,0.6-1.1,0.9c0,0.1,0.1,0.1,0.1,0.2c1.5-0.9,3-1.8,4.5-2.6
		c0-0.3-0.1-0.6-0.1-0.8c-0.1-0.9-0.3-1.8-0.3-2.7c0.1-1.2-0.1-2.3-0.4-3.4c-0.3-1.1-0.4-2.3,0-3.5c0.1-0.4,0.2-0.7,0.3-1.1
		c0.1-1.1,0.2-2.2-0.3-3.3c-0.7-1.3-0.4-2.7,0.3-3.9c0.7-1.2,2-1.5,3.2-1.8c0.1,0,0.2,0,0.3,0c1.4,0.3,1.4,0.3,1.9-0.9
		c0.3,0,0.6,0.1,0.9,0.2c-0.3-2.2,1.7-3.9,3.8-3.2c0.5-0.3,0.9-0.6,1.4-0.8c0.7-0.2,1.4-0.3,2.1-0.5c0.8-0.2,1.7-0.4,2.1-1.1
		c0.4-0.6,1-0.9,1.5-1.4c0.6-0.5,1.2-0.8,2-0.7c1.1,0.1,1.7-0.4,2.3-1.2c0.2-0.3,0.5-0.5,0.8-0.7c0.2-0.1,0.6-0.1,0.7,0
		c0.1,0.2,0.2,0.5,0.2,0.7c-0.4,1.2-1.6,2.8-3.2,2.7c-0.4,0.3-0.6,0.6-0.9,0.7c-0.5,0.3-1.1,0.5-1.1,1.4c0,0.5-0.5,0.8-0.9,0.8
		c-0.4,0-0.6,0.2-0.8,0.4c0.9,0.5,1.9,0.9,2.9,0.5c0.2-0.1,0.4,0,0.6,0c1.1-0.1,2.2-0.1,3.3-0.7c1-0.6,2.3-0.7,3.5-0.4
		c1.5,0.4,2.9,0.9,4.4,1.4c0.4,0.1,0.8,0.3,1,0.8c-0.9,0.5-0.9,0.5-1.9,0.3c-0.8-0.2-1.6-0.4-2.5-0.7c0.4,0.4,0.8,0.7,1.1,1
		c0.2,0.2,0.4,0.5,0.2,0.8c-0.2,0.3-0.5,0.2-0.8,0.1c-0.4-0.2-0.8-0.4-1.2-0.6c-0.6-0.4-1.4-0.7-1.3-1.7c-0.6,0.1-1.1,0.2-1.5,0.4
		c-1,0.6-2.1,0.9-3.3,1.2c-1.9,0.5-3.7,0.6-5.6-0.1c-0.7-0.3-1.4-0.6-2.1-0.9c-0.4-0.2-0.7-0.3-1.1-0.1c-0.2,0.5-0.5,0.9-0.6,1.3
		c0.2,0.2,0.5,0.4,0.5,0.6c0,0.2-0.2,0.5-0.4,0.6c-0.3,0.2-0.7,0.4-1.1,0.6c-0.3,0.2-0.6,0.4-0.4,0.8c1.2-0.6,2.3-1.2,3.4-1.7
		c0.2-0.1,0.4-0.3,0.7-0.3c0.2,0,0.4,0.1,0.5,0.2c0.1,0.1,0.1,0.4,0,0.5c-0.1,0.2-0.4,0.3-0.6,0.4c-1.2,0.7-2.5,1.5-3.7,2.2
		c0,0.2,0,0.3,0,0.4c0.1,1.6,0.2,1.5,1.7,1.9c1.5,0.4,3,0.8,4.6,1.2c0.2,0.1,0.5,0.1,0.7,0.1c1.2,0.1,2.4,0,3.6-0.3
		c0.1,0,0.1,0,0.2,0.1c0.1,0.2,0.2,0.5,0.3,0.8c0.2-0.1,0.3-0.2,0.5-0.2c0.2,0,0.4,0,0.5,0.1c0.1,0,0.1,0.3,0,0.4
		c-0.2,0.5-0.4,1-1,1.2c-1.3,0.4-2.6,0.7-4,0.5c-1.8-0.3-3.5-1-5.2-1.7c-1-0.4-2.1-0.6-3.3-0.9c0.1,1.1,0.1,2,0.2,2.9
		c0.1,1.7,0.9,3.1,2.1,4.2c0.6,0.6,1.2,1.2,1.9,1.7c1.6,1.1,3,2.5,4.2,4.1c0.9,1.2,1.6,2.6,2.1,4c0.1,0.2,0.1,0.5,0.1,0.7
		c-0.1,0.2-0.3,0.5-0.5,0.5c-0.2,0-0.4-0.2-0.6-0.3c-0.3-0.3-0.5-0.7-0.8-1.1c-0.4-0.8-0.8-1.6-1.2-2.3c-0.1-0.2-0.3-0.3-0.4-0.5
		c0,1.6,0.1,3.1-0.3,4.5c-0.1,0.3-0.2,0.6-0.6,0.6c-0.4,0-0.7-0.2-0.8-0.7c-0.1-0.5,0-0.9,0-1.4c0-0.8,0-1.6-0.1-2.3
		c-0.1-1.1-0.2-2.1-0.2-3.3c-1.7-1.4-3.4-2.9-5.3-4.5c0.1,1.1,0.1,2.1,0.2,3.1c0.1,1.6,0.4,3.3,1.7,4.5c0.1,0.1,0.2,0.2,0.2,0.3
		c-0.1,0.4,0.2,0.5,0.4,0.8c0.2,0.3,0.6,0.7,0.5,0.9c-0.1,0.5,0,1.1-0.6,1.5c-0.6,0.4-1.1,1-1.6,1.4c-0.5,0.5-1,1-1.3,1.6
		c0.5-0.3,0.9-0.7,1.4-1.1c0.4-0.4,0.9-0.8,1.3-1.1c0.1-0.1,0.4,0,0.6,0c0,0.2,0,0.4-0.1,0.6c0,0.1-0.1,0.1-0.1,0.1
		c-0.8,0.8-1.6,1.7-2.4,2.5c-0.4,0.4-0.9,0.7-1.4,1c-0.2,0.1-0.6,0-0.7-0.1c-0.1-0.2-0.1-0.6,0-0.9c0-0.1,0.3-0.2,0.3-0.3
		c-0.3-0.4-0.6-0.7-0.7-1.1c-0.1-0.5,0.5-0.6,0.7-0.9c-0.5,0.2-0.8,0.1-1-0.4C273,121.8,272.8,121.6,272.5,121.8z M280,74.4
		c1.6-1.4,3.3-2.4,5-3.2c0.2-0.1,0.5-0.1,0.6,0c0.2,0.3,0,0.4-0.2,0.6c-0.3,0.2-0.7,0.4-1,0.7c-0.4,0.4-0.7,0.8-1.1,1.1
		c-0.9,0.9-1.8,1.7-2.6,2.6c-0.6,0.6-0.5,1.2,0.1,1.8c0.1,0.1,0.1,0.3,0.2,0.5c0.1,0.2,0.1,0.4,0.2,0.7c0.2-0.4,0.3-0.6,0.4-0.8
		c-0.3-0.3-0.6-0.6-0.8-0.8c1.4-1.6,2.3-1.9,3.1-0.9c-0.8,0.6-1.4,1.3-1.3,2.5c0.6-0.1,1.2,0.5,1.8-0.3c0.1-0.1,0.4-0.2,0.5-0.1
		c0.1,0.1,0.2,0.4,0.2,0.6c-0.1,0.2-0.2,0.4-0.4,0.7c0.4,0.4,0.7,0.9,1.2,1.1c0.7,0.3,1.6,0.5,2.3,0.6c0.7,0.2,1.3,0.3,1.5,1.2
		c0.1,0.3,0.4,0.5,0.7,0.2c0.2-0.2,0.6-0.2,0.9-0.3c1.6-0.2,3.2-0.2,4.7-0.9c1.4-0.7,3.1-1,4.2-2.3c0.8-1.1,1.8-2,1.7-3.6
		c0-0.3,0.2-0.6,0.3-1c-1.1-0.5-1.8-1.4-2.5-2.4c-0.9-1.4-1.5-2.9-2-4.5c-0.8-2.6-0.8-5.2-0.6-7.9c0.2-2.1,1.2-4,2.2-5.8
		c0.7-1.2,1.4-2.3,2.6-3.1c0.8-0.5,1.6-1,2.2-1.6c1.2-1,2.8-1.1,4.2-1.7c0.1,0,0.2,0,0.4,0c0.5,0,0.9,0,1.4,0c0.4,0,0.8,0,1.1,0.1
		c2.1,0.2,2.3,0.3,3.3-1.8c0.1-0.1,0.1-0.2,0.1-0.4c0.3-0.8,0.5-1.5,0.8-2.3c0.1-0.4,0.5-0.8,0.9-0.7c0.5,0.2,1,0.1,1.5,0.2
		c1,0.2,1.9,0.7,2.6,1.6c0.6,0.9,0.6,1,0,1.8c-0.2,0.3-0.4,0.6-0.5,0.9c-0.5,1.5,0.2,2.6,1.1,3.9c0.4-0.7,0.7-1.3,1-1.8
		c0.4-0.5,0.4-1.4,1.3-1.6c0,0.4,0.1,0.6,0,0.9c-0.2,0.7-0.5,1.4-0.7,2c-0.1,0.3-0.2,0.6-0.3,1c1.1-0.7,1.1-2,2.1-2.4
		c0.4,0.2,0.3,0.5,0.2,0.8c-0.4,0.8-0.7,1.6-1.1,2.4c-0.2,0.4,0,0.5,0.4,0.7c0.5-0.6,0.9-1.2,1.4-1.7c0.1-0.2,0.4-0.2,0.6-0.3
		c0.1,0.2,0.3,0.5,0.2,0.7c0,0.3-0.3,0.5-0.4,0.7c-0.1,0.2-0.2,0.3-0.3,0.5c0,0,0.1,0.1,0.1,0.1c0.4-0.2,0.7-0.4,1.2-0.7
		c-0.1-1.5-0.2-3.1-0.3-4.7c-0.1-1.5-0.6-2.8-1.3-4.1c-0.8-1.4-1.6-2.7-2.8-3.7c-1.1-0.9-2.2-1.7-3.3-2.6c-0.5-0.4-1.1-0.6-1.5-1.1
		c-1.1-1.2-2.4-2-3.7-2.8c-0.4-0.3-0.9-0.5-1.4-0.6c-0.7-0.2-1.3-0.6-1.5-1.4c0-0.2-0.2-0.3-0.2-0.5c-1.4-2.8-1.5-5.7-0.2-8.6
		c0.4-0.9,0.5-1.9,0.8-2.9c-0.8-0.2-1.5-0.5-2.2-0.6c-0.7-0.2-1.2-0.9-2-0.8c-0.3,0.5-0.5,0.9-0.8,1.4c0.6,0.3,1.2,0.6,1.7,0.8
		c0.3,0.1,0.4,0.4,0.4,0.7c0,0.2,0,0.4,0,0.5c0.1,0.6-0.1,1-0.7,1c-0.6,0-1.3,0.5-1.7-0.5c0-0.1-0.2-0.1-0.3-0.2
		c-0.9-0.6-1.8-1.2-2.7-1.8c-0.4-0.3-0.8-0.6-1.2-0.8c-0.3-0.2-0.7-0.3-0.9-0.5c-0.2-0.3-0.2-0.6-0.4-1c-0.6,0.4-1.2,0.7-1.7,1
		c-0.3,0.2-0.5,0.4-0.4,0.7c0.5,1,0.8,2,1.5,2.9c0.4,0.6,1.2,1,1.8,1.4c0.4-0.3,0.3-0.6,0.2-0.9c-0.1-0.2,0.1-0.6,0.2-0.7
		c0.2-0.1,0.8-0.1,0.8,0.1c0.2,0.4,0.5,0.4,0.8,0.5c0.4,0.1,0.6,0.7,0.4,1c-0.2,0.3-0.7,0.3-1,0.1c-0.2-0.1-0.3-0.3-0.5-0.6
		c0.1,1.3,0.1,1.3,0.5,1.9c0.3-0.2,0.6-0.5,1-0.7c0.2-0.1,0.5,0,0.7,0.1c0.1,0.1,0.1,0.4,0.2,0.6c0,0.1-0.1,0.2-0.2,0.4
		c0.2-0.1,0.3-0.1,0.4-0.2c0.3-0.2,0.6-0.3,0.8,0c0.3,0.4,0,0.6-0.2,0.8c-0.3,0.3-0.6,0.6-0.9,0.8c0.5-0.1,0.8-0.3,1.2-0.5
		c0.2-0.1,0.5-0.1,0.7,0c0.2,0.2,0.1,0.5-0.1,0.6c-0.2,0.2-0.5,0.4-0.7,0.6c-0.7,0.4-1.4,0.8-2.1,1.2c-0.6,0.3-0.8,0.2-1.1-0.5
		c0.3-0.3,0.6-0.5,0.9-0.7c-0.3-0.3-0.5-0.5-0.8-0.7c0.3-0.3,0.4-0.5,0.6-0.7c-0.3-0.1-0.5-0.2-0.7-0.2c0,0-0.1,0-0.1,0
		c-0.1,0.4-0.2,0.9-0.2,1.3c-0.1,0.8-0.3,1.7,0.3,2.4c0.1,0.2,0.2,0.5,0.2,0.7c-0.1,0.9-0.3,1.8-0.5,2.8c-0.3,0.1-0.7,0.3-1,0.4
		c-0.8,0.2-1.7,0.3-2.5,0.5c-1,0.3-2,0.9-3.1,1.2c-0.7,0.3-1.4,0.6-2.3,0.5c-1.2-0.2-2.1-0.9-3-1.7c-1.6-1.4-2.5-3.1-2.1-5.3
		c0.1-0.7,0.3-1.4,0.4-2c0-0.2,0.1-0.4,0.1-0.7c-0.9-0.2-1.7-0.4-2.6,0.1c-0.5,0.3-1.1,0.4-1.6,0.6c-0.4,0.2-0.8,0.4-1.3,0.6
		c0.2,0.3,0.3,0.5,0.5,0.8c0.5-0.3,1.1-0.6,1.6-0.8c0.2-0.1,0.5-0.2,0.8-0.2c0.4,0,0.5,0.4,0.2,0.7c-0.7,0.7-1.3,1.4-2.5,1.1
		c0,1.3,0,2.4,0,3.7c0.2,0,0.4,0,0.5,0.1c0.3,0.2,0.6,0.3,0.7,0.6c0.1,0.3-0.2,0.6-0.5,0.7c-0.2,0.1-0.4,0.2-0.5,0.4
		c-1.6,1.5-3.1,3-4.7,4.5c-1.2,1.2-2.2,2.6-2.9,4.2c-1.3,2.7-2.1,5.7-2.7,8.6c-0.1,0.6-0.3,1.1-0.4,1.7c-0.2,2.1-0.4,4.3-0.6,6.4
		c0,0.2,0.1,0.3,0.1,0.6c0.2-0.2,0.4-0.3,0.5-0.4c0.7-0.5,1.3-1.2,2.1-1.6c1.2-0.7,2.4-1.4,3.6-2c1-0.5,2-1,3.1-1.5
		c0.2-0.1,0.5-0.2,0.7-0.2c0.1,0,0.4,0.1,0.4,0.2c0,0.1-0.1,0.3-0.2,0.5c0,0.1-0.2,0.1-0.2,0.1c-1.7,0.7-3.2,1.7-4.8,2.7
		c-1,0.6-1.9,1.4-2.7,2.2c-0.2,0.2-0.4,0.4-0.6,0.5c-0.9,0.2-1.3,1-1.9,1.5c-0.4,0.3-0.4,0.8-0.1,1.2c0.4-0.3,0.7-0.6,1-0.8
		c1.4-0.8,2.8-1.7,4.2-2.5c0.6-0.3,1.2-0.7,1.8-0.7c0.7,0,1.1-0.3,1.7-0.6c0.7-0.4,1.3-0.7,2-1c0.1,0,0.4,0,0.4,0.1
		c0.1,0.1,0.1,0.4,0,0.5c-0.1,0.1-0.2,0.2-0.4,0.3c-0.5,0.4-1.4,0.4-1.4,1.3c0,0.1-0.1,0.1-0.2,0.2c-0.9,0.5-1.8,1-2.7,1.4
		c-1.1,0.5-2.2,1-3,1.9c-0.3,0.3-0.6,0.6-1,0.9c-0.4,0.3-0.8,0.8-1.3,1c-1.2,0.5-1.4,1.1-0.9,2.4c0.2-0.2,0.4-0.5,0.5-0.7
		c1-1.3,2.2-2.3,3.8-2.9c0.2-0.1,0.5-0.2,0.7-0.1c0.4,0.2,0.6,0.1,0.9-0.1c0.3-0.2,0.7-0.3,1-0.4c0.2,0,0.4,0,0.7,0.1
		c-0.2,0.3-0.3,0.4-0.4,0.5c-1.1,0.8-2.3,1.5-3.4,2.4c-0.8,0.6-1.6,1.4-2.4,2.1c-0.2,0.2-0.4,0.5-0.2,1.1c0.2-0.3,0.2-0.6,0.4-0.7
		c0.2-0.2,0.4-0.3,0.6-0.4c0.1,0,0.2,0.3,0.3,0.5c0.1,0.1,0.1,0.2,0.1,0.3c0.7-0.4,1.2-0.8,1.8-1.1c1.2-0.7,2.4-1.3,3.6-2
		c0.5-0.3,0.6-0.3,0.8,0.4c-1.9,1-3.7,2.2-5.4,3.7c1,0.5,0.2,1.2,0.3,1.8c0.2-0.1,0.4-0.2,0.6-0.3c0.5-0.3,0.9-0.6,1.4-0.9
		c0.4-0.3,0.9-0.4,1.3-0.7c0.3-0.2,0.6-0.2,0.8,0.1c0.2,0.4-0.2,0.5-0.4,0.6c-0.4,0.3-0.7,0.5-1.1,0.8c-0.2,0.1-0.3,0.3-0.3,0.5
		C280,73.4,280,73.8,280,74.4z M335.9,75.4c0.3,0.5,0.1,0.7-0.3,0.9c-0.3,0.1-0.5,0.1-0.8,0.2c-0.9,0.3-1.1,0.7-0.9,1.7
		c0.7-0.1,1.4-0.2,2.1-0.3c0.2,0,0.4,0.1,0.6,0.2c-0.1,0.2-0.2,0.4-0.4,0.5c-0.7,0.2-1.4,0.4-2.1,0.6c-0.5,0.1-0.6,0.4-0.5,1
		c1.3-0.5,2.7-0.4,4-0.4c0.3,0,0.7,0,0.8,0.5c-0.5,0.4-1.1,0.2-1.6,0.3c-0.5,0.1-1,0.2-1.6,0.3c-0.5,0.1-1.1,0.1-1.6,0.6
		c1.2-0.1,2.3-0.1,3.3-0.2c0.4,0,0.8-0.2,1.1,0.5c-0.4,0.1-0.7,0.3-1,0.4c-1,0.2-2,0.4-3.1,0.6c-0.2,0-0.3,0.2-0.5,0.3
		c0.2,0.1,0.3,0.1,0.4,0.1c0.8-0.1,1.6-0.2,2.3-0.2c0.4,0,0.9,0.1,1,0.6c0.1,0.5-0.5,0.5-0.7,0.7c0,0.3,0,0.7-0.1,0.9
		c0.7,0.5,1.3,0.9,1.8,1.4c0.6,0.5,1.2,0.8,2,0.8c0.9-0.1,1.7,0.2,2.2,1.1c0.2,0.3,0.5,0.6,0.8,0.9c0.1-0.4,0.2-0.7,0.3-0.9
		c0.4-1.5,0.2-2.9-0.1-4.4c-0.4-1.5-0.8-3-1.3-4.4c-0.7-1.9-1.9-3.5-3.1-5.1c-1.1-1.4-2.3-2.7-3.5-4c-0.5-0.5-1-1-1.5-1.5
		c0.2,1,0.5,4.7,0.4,6.4C334.7,75.4,335.4,75.4,335.9,75.4z M350.5,51.3c-0.1-0.1-0.2-0.2-0.3-0.3c-0.1-0.2-0.2-0.5-0.1-0.6
		c0.2-0.1,0.4-0.2,0.7-0.2c0.2,0,0.4,0.1,0.5,0.1c0.6-0.7,1.2-1.3,1.7-2c-0.2-0.1-0.3-0.3-0.4-0.4c-0.2-0.3-0.3-0.7,0-0.9
		c0.2-0.2,0.5-0.1,0.7,0.1c0.1,0.1,0.2,0.1,0.4,0.3c1-1.4,2.1-2.9,3.1-4.3c0.1-0.2,0.1-0.4,0.2-0.6c-0.5-0.1-0.9-0.2-1.3-0.3
		c-0.2-0.1-0.4-0.4-0.4-0.5c0.2-0.4,0.4-0.8,0.8-1.1c0.3-0.2,0.7-0.1,1,0.1c0.4,0.3,0.7,0.5,1.1,0c0.3-0.3,0.7-0.6,0.9-1
		c0.2-0.3,0.2-0.7,0.3-0.9c-0.7,0-1.5,0-2.3,0c-0.5,0-1-0.1-1.4,0c-1.4,0.5-2.8,1.1-4,2c-0.1,0.1-0.2,0.3-0.3,0.5
		c0.9-0.4,1.7-0.8,2.4-1.1c0.3-0.2,0.7-0.1,0.8,0.2c0.1,0.3-0.2,0.5-0.5,0.6c0,0-0.1,0-0.1,0c-1.3,0.7-2.6,1.4-3.8,2
		c-0.3,0.2-0.5,0.3-0.4,0.7c1.1-0.4,2-1.1,3.2-1.1c0,0.6-0.3,0.8-0.7,0.9c-0.4,0.2-0.8,0.3-1.1,0.6c-0.8,0.6-1.7,1.1-2.6,1.5
		c-0.3,0.1-0.6,0.4-0.7,0.9c0.3-0.1,0.4-0.1,0.6-0.2c0.7-0.4,1.5-0.8,2.2-1.2c0.4-0.2,0.6-0.1,0.8,0.3c-0.3,0.7-0.9,0.9-1.5,1.3
		c-0.8,0.5-1.7,0.9-2.5,1.3c-0.3,0.1-0.6,0.3-0.5,0.8c0.4-0.2,0.6-0.3,0.9-0.5c0.2-0.1,0.5-0.2,0.6,0.1c0,0.1-0.1,0.4-0.2,0.5
		c-0.7,0.6-1.4,1.1-2.1,1.6c-0.7,0.4-1,1-1.3,1.6c0,0,0.1,0.1,0.1,0.1c0.5-0.4,1-0.8,1.5-1.2c0.5,0.4,0.5,0.5,0.2,0.8
		c-0.7,0.7-1.3,1.5-2.2,1.9c-0.3,0.1-0.6,0.3-0.9,0.5c0.5,0,1,0,1.4,0c0.1,0,0.3,0.2,0.3,0.4c0,0.1-0.1,0.3-0.3,0.4
		c-0.1,0.1-0.3,0.1-0.4,0.1c-0.8,0.1-1.4,0.5-2.1,0.9c0.3,0.6,0,0.9-0.4,1.2c-0.2,0.1-0.4,0.3-0.6,0.4c-0.8,0.4-1.1,1.1-1.3,1.8
		c1.2,0.2,6.4-0.1,6.9-0.4c0-0.1-0.1-0.1-0.1-0.1c-0.9-0.2-1.6-0.9-2.5-1.1c-0.1,0-0.2-0.1-0.2-0.2c-0.3-0.3-0.3-0.6-0.1-0.9
		c0.2-0.3,0.5-0.2,0.8-0.1c0.2,0.1,0.3,0.2,0.5,0.3c0.1-0.3,0.2-0.5,0.3-0.8c0.4,0.1,0.8,0.1,1.1,0.2c0.7-0.3,1.1-0.9,1.3-1.5
		C348.6,53.7,349.9,52.8,350.5,51.3z M341.2,38.2c-0.3,0.8-0.6,1.6-0.9,2.4c-0.9,2.1-1.8,4.2-2.7,6.3c-0.2,0.5-0.1,0.9,0,1.4
		c0.2,0.6,0.2,1.2,0.3,1.8c0.1,0.4-0.2,0.6-0.5,0.7c-0.3,0.1-0.6,0.1-0.8-0.3c-0.2-0.3-0.4-0.6-0.5-0.9c-0.1-0.2-0.2-0.4-0.4-0.7
		c-0.5,0.8-0.9,1.5-1.5,2.1c-0.3,0.3-0.4,0.6-0.3,1c0.3,0.8,0.5,1.7,0.7,2.5c0.2,0.6,0.5,1.3,0.9,2.1c0.6-1.4,1.7-2.4,1.7-3.9
		c1-0.5,1.1-1.4,1-2.3c0.3,0,0.6,0,0.8,0c1-1,1.4-2,0.8-3.3c-0.2-0.5,0.3-0.7,0.7-0.7c0.2,0.3,0.4,0.6,0.6,0.9
		c0.3-0.5,0.1-0.8,0.1-1.2c-0.1-0.4-0.2-0.9-0.3-1.3c0-0.2,0.2-0.4,0.3-0.5c0.1-0.1,0.4,0,0.5,0.2c0.2,0.2,0.4,0.5,0.6,0.9
		c0.1-0.2,0.1-0.4,0.2-0.5c0.4-0.6,0.5-1.1,0.4-1.9c-0.1-1,0-2,0-2.9c0-0.1,0.1-0.3,0.3-0.3c0.1,0,0.4,0.1,0.4,0.2
		c0.2,0.5,0.3,1,0.4,1.4c0,0.2,0.1,0.4,0.1,0.6c0.1-0.1,0.1-0.1,0.1-0.1c0.3-0.6,0.4-1.2,0.3-2c-0.2-1-0.2-2.1-0.2-3.2
		c0-0.1,0.1-0.1,0.1-0.2c0.6-0.1,0.8,0.3,0.9,0.8c0.1,0.5,0.2,0.9,0.3,1.5c0.8-1.1,1.6-2.1,2.3-3.2c0.4-0.6,0.3-0.8-0.1-1.4
		c-0.3-0.4-0.6-0.9-0.8-1.4c-0.4-0.8-0.7-1.7-1-2.8c-0.3,0.9-0.7,1.5-0.4,2.3c0.3,1,0.7,2,1,3c0.1,0.2,0,0.6-0.1,0.7
		c-0.3,0.3-0.6,0.1-0.8-0.1c-0.2-0.2-0.3-0.4-0.4-0.6c-0.4-0.7-0.8-1.4-1.2-2.2c-0.5,1.2-1.1,2.1-1.3,3.3
		C342.3,37.8,342.3,38,341.2,38.2z M268.2,44.3c0.6,1.5,1.2,3,1.2,4.6c0,1,0,2.1,0,3.1c0,0.2-0.2,0.4-0.3,0.6
		c-0.4,0.5-0.9,1-1.3,1.5c-0.8,0.9-1.5,1.9-2.2,3c-0.4,0.5-0.6,1.2-0.8,1.8c-0.1,0.4-0.1,0.9-0.2,1.3c-0.3,1.4-0.7,2.8-0.5,4.2
		c0.1,1,0.3,2.2,1.4,2.7c0.7-0.5,1.5-0.8,2.4-0.9c0.3-0.1,0.8,0,0.8-0.6c-0.6-0.2-1.2-0.4-1.9-0.1c-0.4,0.2-0.8,0-0.8-0.4
		c-0.1-0.3,0.2-0.7,0.6-0.8c0.2,0,0.4-0.1,0.6,0c0.6,0,1.2,0.1,1.9,0.1c0-0.3,0.1-0.6,0.1-0.8c-0.3-0.2-0.6-0.3-0.8-0.5
		c-0.2-0.2-0.3-0.5-0.2-0.7c0.1-0.3,0.5-0.3,0.7-0.1c0.2,0.1,0.3,0.2,0.5,0.4c0.1-0.3,0.1-0.6,0.1-0.8c0.1-0.8,0.2-1.6,0.3-2.3
		c0.1-1.5,0.4-2.9,0.1-4.4c0-0.1,0.1-0.3,0.1-0.5c0-0.4,0.1-0.7,0.1-1.1c0-0.9-0.1-1.8,0.1-2.6c0.2-1.1,0.6-2.2,0.9-3.3
		c0.1-0.2,0.1-0.5,0.1-0.7c0-0.4-0.1-0.8-0.2-1.2c-1-0.5-1.1-0.8-0.6-1.8c0.1-0.1,0.1-0.3,0.2-0.4c0.3-0.7,0.3-0.7-0.5-1.2
		C269.3,42.9,268.8,43.5,268.2,44.3z M334.8,68.1c1.4-2.2,2.5-4.5,4.3-6.4c-1.2-1.2-1-1.3-0.4-2.5c0-0.1,0.1-0.2,0.1-0.2
		c0.5-0.7,0.9-1.4,1.4-2.1c1-1.6,2.1-3.3,3.1-5c0.1-0.2,0.2-0.6,0.2-0.9c0-0.4,0.1-0.7,0.6-0.7c0.4,0,0.6-0.3,0.8-0.7
		c0.2-0.4,0.4-0.7,0.6-1.1c0.6-0.8,1-1.7,1.3-2.7c0.2-0.7,0.6-1.3,1-1.9c0.9-1.3,1.9-2.7,2.9-4c0.5-0.7,1-1.4,1.6-2.1
		c0.9-1,0.9-0.9,2.3-0.7c0.6-0.9,1.1-1.7,1.8-2.7c-0.3-0.1-0.5-0.2-0.7-0.2c0,0.1-0.1,0.2-0.1,0.3c0,0.4-0.1,0.8-0.5,0.7
		c-0.4-0.1-0.4-0.4-0.4-0.8c0-0.2,0-0.3,0-0.5c-0.1,0-0.2,0-0.2,0c-0.9,1.2-1.8,2.4-2.6,3.6c-0.4,0.5-0.6,0.5-1-0.1
		c0.8-1.2,1.7-2.4,2.5-3.6c-0.2-0.3-0.4-0.4-0.7-0.1c-0.2,0.2-0.4,0.3-0.5,0.5c-1.6,2.3-3.3,4.5-4.4,7.1c-0.1,0.1-0.1,0.3-0.2,0.4
		c-0.9,1.6-1.8,3.2-2.7,4.8c-0.6,1.2-1.2,2.3-1.9,3.5c-1.8,2.9-3.6,5.9-5.4,8.8c-0.5,0.8-0.9,1.6-1.5,2.4c-0.9,1.3-1.9,2.6-2.9,3.8
		c-0.3,0.3-0.4,0.7-0.6,1.1c0.2,0.2,0.4,0.3,0.6,0.4c0.1,0,0.2,0.1,0.3,0.1c1.4-2.1,3.3-3.8,4.2-6.2c0.5,0.2,0.5,0.5,0.4,0.9
		c-0.2,0.9-0.6,1.7-1.1,2.4c-0.9,1.2-1.8,2.3-2.7,3.6C334.3,67.6,334.5,67.8,334.8,68.1z M281.6,160.8c1.3-2.7,2.7-5.3,4-7.9
		c1.3-2.6,3-5,4-7.7c-0.9,0.9-1.4,2-2,3.2c-0.6,1.1-1.2,2.2-1.8,3.2c-0.6,1.1-1.3,2.1-2,3.1c-0.6-0.3-0.7-0.6-0.4-1
		c0.6-0.9,1.1-1.8,1.7-2.6c0.5-0.8,1.1-1.5,1.4-2.3c0.4-1.2,1.1-2.1,1.8-3.1c0.5-0.9,1.2-1.6,2.3-1.6c1.9-3.4,3.9-6.6,5.8-10
		c0.6-1,0.7-2.2,0.9-3.3c0-0.1,0-0.2-0.1-0.3c-0.6,0.9-1.1,1.8-1.6,2.7c-0.5,0.9-1,1.9-1.6,2.8c-0.5,0.9-0.9,1.9-1.6,2.6
		c-0.6-0.3-0.4-0.7-0.2-1c0.8-1.5,1.7-3,2.5-4.4c0.3-0.5,0.5-1.1,0.8-1.6c0.5-1,0.9-1.9,1.4-2.9c0-0.1,0-0.2-0.1-0.4
		c-0.2,0.2-0.4,0.4-0.5,0.6c-0.2,0.3-0.4,0.7-0.5,1c-0.8,1.6-1.7,3.2-2.5,4.8c-0.8,1.7-1.5,3.4-2.6,4.9c-0.7,1-1.1,2-1.6,3.1
		c-0.7,1.4-1.6,2.8-2.5,4.1c-1.1,1.7-2.2,3.5-3,5.3c-0.4,0.9-0.9,1.8-1.4,2.7c-0.8,1.6-1.6,3.1-2.5,4.7c-0.2,0.4,0,0.6,0.4,0.7
		c0.1-0.2,0.2-0.3,0.3-0.4c0.7-1.4,1.5-2.7,2.5-4c0.1-0.2,0.4-0.2,0.6-0.3c0,0.2,0.2,0.5,0.1,0.7c-0.1,0.3-0.3,0.5-0.5,0.8
		c-0.7,1.2-1.5,2.3-2.3,3.6C281,160.4,281.3,160.6,281.6,160.8z M253.5,77.1c1.8-0.1,2.1-0.4,2.4-2c0-0.2,0-0.3,0.1-0.5
		c0.2-0.6,0.4-1.4,1-1.6c0.7-0.3,1.4-0.8,2.3-0.8c0.4,0,0.9,0,1.3,0c0.5-0.8,1-1.6,1.6-2.5c-0.7,0.1-1.3,0.1-1.8,0.2
		c-1,0.2-1.9,0.4-2.9,0.6c-0.8,0.1-1.6,0.2-2.4,0.2c-0.6,0-1.1-0.1-1.7-0.1c-0.8,0-1.6,0-2.5,0c-0.8,0-1.6-0.1-2.5-0.1
		c-0.2,1.2-0.8,2.1-1.4,2.9c-0.4,0.6-0.8,1.2-1.1,1.8c-0.5,0.9-0.5,1.8-0.1,2.8c0.1-0.1,0.1-0.2,0.1-0.3c-0.3-1,0.1-1.8,0.6-2.6
		c0.3-0.5,0.7-1,1.4-0.8c0.1-0.2,0.1-0.3,0.2-0.4c0.3-0.7,0.6-1.4,1-2c0.2-0.4,0.5-0.5,0.9-0.3c0.4,0.2,0.2,0.5,0.1,0.8
		c-0.2,0.4-0.3,0.7-0.5,1.1c0.2-0.1,0.2-0.2,0.3-0.4c0.2-0.4,0.4-0.8,0.8-0.6c0.4,0.2,0.3,0.6,0.2,0.9c-0.2,1.2-0.4,2.4-0.6,3.6
		c0,0.2,0,0.4,0,0.7c0.3-0.2,0.3-0.3,0.4-0.5c0.3-0.9,0.5-1.8,0.8-2.6c0.1-0.2,0.4-0.4,0.6-0.4c0.4,0,0.4,0.4,0.3,0.6
		c0,0.2-0.1,0.4-0.1,0.6c-0.1,0.6-0.3,1.3-0.4,2c0.3,0,0.5-0.1,0.7-0.1c-0.1-0.3-0.2-0.5-0.2-0.7c0-0.4,0.4-0.8,0.8-0.8
		c0.4,0.1,0.4,0.4,0.3,0.8C253.6,76.8,253.5,76.9,253.5,77.1z M302.6,73.9c0.1-0.3,0.3-0.4,0.3-0.6c0-0.5,0-0.9,0-1.4
		c-0.1-1.9-0.5-3.7-1.2-5.4c-0.1-0.2-0.2-0.4-0.4-0.6c-0.7-0.7-1.5-1.4-2.2-2c-0.1-0.1-0.3-0.2-0.6-0.4c0,0.6-0.1,1.1,0,1.6
		c0.3,1.6,0.5,3.3,1.2,4.8c0.6,1.2,1.2,2.4,2.1,3.5C302,73.6,302.3,73.7,302.6,73.9z M259.1,43.9c2.3,1,4.4,2.3,5.9,4.4
		c-0.3-1.2-0.5-2.4-0.8-3.7c-0.5,0.1-0.9-0.2-1.4,0.1c-0.4,0.3-1-0.2-1-0.7c0-0.2,0.1-0.4,0.1-0.6c-0.2,0.2-0.4,0.4-0.5,0.7
		c-0.2,0.3-0.4,0.5-0.8,0.3c-0.3-0.1-0.5-0.4-0.4-0.8c0-0.2,0.1-0.4,0.1-0.6C259.9,43.3,259.5,43.6,259.1,43.9z M295.7,145.9
		c-0.5,0.2-0.4,0.5-0.3,0.8c0.1,0.5-0.2,0.8-0.7,0.8c-0.2,0-0.5-0.1-0.7-0.1c0.1,1.4,0.3,2.8,0.4,4c0.4-0.2,0.8-0.4,1.3-0.6
		C295.8,149.3,295.9,147.6,295.7,145.9z M266.7,169.5c-0.2-0.3-0.4-0.5-0.5-0.7c-0.1-0.3-0.3-0.6-0.4-0.9c-0.1-0.4,0.2-0.8,0.5-1.1
		c0.4-0.3,0.7,0,0.9,0.2c0.4,0.2,0.5,0.7,0.6,1.1c0.2,0.6,0.6,0.8,1.3,0.7c-0.2-0.2-0.3-0.3-0.5-0.5c-0.2-0.2-0.3-0.3-0.5-0.5
		c-0.2-0.4-0.5-0.8-0.6-1.2c-0.3-0.9-0.9-1.3-1.7-1.6c-0.7,0.6-1,1.5-0.8,2.2c0.3,0.8,0.6,1.6,0.8,2.5
		C266.2,169.7,266.3,169.6,266.7,169.5z M294.1,144.1c0.1-0.9,0.2-1.7,0-2.7c-0.8,1.3-1.5,2.5-2.2,3.7c0.4,0.2,0.8,0.4,1.2,0.6
		C293.1,144.9,292.9,144,294.1,144.1z M264.4,120.2c0.5,0.2,0.8,0.6,1.3,0.3c0.8-0.5,1.7-1.1,2.5-1.6c-0.1-0.4-0.2-0.7-0.3-1
		C266.7,118.6,265.6,119.4,264.4,120.2z M267.1,42c0.3,0.4,0.3,0.8,0.8,0.9c0.4-0.6,0.8-1.1,1.2-1.7c-0.2-0.2-0.5-0.4-0.7-0.6
		C267.9,41.1,267.5,41.5,267.1,42z M267.5,39.8c-0.4-0.2-0.6-0.3-0.9-0.5c-0.3,0.3-0.6,0.6-0.9,0.9c0.3,0.4,0.5,0.7,0.8,1
		C266.8,40.7,267.1,40.3,267.5,39.8z M263.3,36c-0.7-0.5-1.1-0.3-1.7,0.8c0.3,0.2,0.6,0.4,0.9,0.5c0.2-0.2,0.3-0.4,0.4-0.6
		C263,36.5,263.2,36.3,263.3,36z M280.2,163.8c-0.6-0.6-1.8-1.1-2.6-1.1c0.9,0.5,1.6,1,2.3,1.4C279.9,164.1,280.1,163.9,280.2,163.8
		z M266.8,121.3c0.5,0.2,1.2,0.1,1.5-0.3c0.3-0.3,0.1-0.5,0-0.9C267.7,120.6,267.2,121,266.8,121.3z M265.4,37.6
		c-0.4,0.4-0.7,0.8-1,1.2c0.2,0.2,0.3,0.4,0.5,0.5C266,38.4,266,38.3,265.4,37.6z M307.7,74.8c-0.4,0.3-0.5,0.6-0.6,1.8
		c0,0.3-0.2,0.6,0.2,0.8C307.8,76.3,307.9,75.6,307.7,74.8z M276.9,164.3c0.7,0.6,1.4,1.2,2.3,1.3
		C278.6,164.8,277.8,164.5,276.9,164.3z M276.4,73.8c0.2-0.8,0.3-1.5,0.5-2.3C276,72.2,275.9,72.8,276.4,73.8z M276.6,166
		c0,0.1-0.1,0.1-0.1,0.2c0.6,0.4,1.2,0.8,1.8,1.3c0.3-0.4,0.3-0.6-0.1-0.8C277.7,166.4,277.1,166.2,276.6,166z M278.5,75.7
		c0.1,0,0.2,0,0.3,0c0.1-0.7,0.2-1.3,0.4-2c-0.1,0-0.2,0-0.2,0C278.6,74.3,278.3,74.9,278.5,75.7z M317.9,44.5
		c-0.1,0.1-0.1,0.2-0.2,0.2c0.4,0.5,0.9,0.7,1.8,0.7C318.9,45,318.4,44.7,317.9,44.5z M297.4,156.7c0.1-1.2,0.1-1.2-0.5-1.1
		C297.1,155.9,297.3,156.3,297.4,156.7z M306,76.8c0-0.4,0.1-0.8,0.1-1.3C305.4,75.9,305.4,75.9,306,76.8z M294.2,153.6
		c-0.1,0-0.2,0-0.3-0.1c-0.1,0.5-0.3,1-0.4,1.6c0.1,0,0.2,0,0.2,0.1C294,154.6,294.1,154.1,294.2,153.6z M267.6,67.2
		c-0.5,0.1-1,0.2-1.5,0.3C266.8,67.9,267,67.9,267.6,67.2z M257.9,43.1c0.2,0.1,0.4,0.2,0.6,0.3c0-0.4,0-0.8,0-1.1c0,0-0.1,0-0.1,0
		C258.2,42.5,258.1,42.7,257.9,43.1z M268.7,113.9c0.1,0,0.2,0,0.2,0c0-0.3,0-0.7-0.1-1c-0.1,0-0.1,0-0.2,0
		C268.7,113.2,268.7,113.6,268.7,113.9z M280.4,161.8c0,0.1-0.1,0.1-0.1,0.2c0.2,0.1,0.3,0.2,0.5,0.3c0-0.1,0.1-0.1,0.1-0.2
		C280.8,162,280.6,161.9,280.4,161.8z M249.1,76C249.2,76,249.2,76,249.1,76c0.1-0.2,0.1-0.3,0.1-0.5c0,0,0,0-0.1,0
		C249.1,75.7,249.1,75.8,249.1,76z M268.6,122.2c-0.1,0.1-0.2,0.2-0.2,0.3c0,0,0.1,0.1,0.1,0.1c0.1,0,0.2-0.1,0.3-0.2
		C268.7,122.5,268.7,122.4,268.6,122.2z"/>
	<path class="st2" d="M249,102.5c-0.4-0.3-0.4-0.7,0-0.9c0.5-0.4,1-0.6,1.5-0.9c0.1-0.1,0.5,0,0.6,0.1c0.1,0.1,0,0.4-0.1,0.6
		c-0.4,0.4-0.9,0.8-1.3,1.2C249.5,102.6,249.2,102.5,249,102.5L249,102.5z"/>
	<path class="st2" d="M268.8,75.4c-0.8-0.3-1.5-0.5-2.2-0.8c-0.9-0.4-1.9-0.2-2.6,0.4c-0.6,0.5-1.2,1-1.8,1.4
		c-0.6,0.5-1.2,1-1.7,1.7c-0.2,0.3-0.6,0.6-0.9,0.8c-0.3,0.2-0.5,0-0.7-0.2c-0.2-0.3-0.1-0.4,0.1-0.7c0.7-1.1,1.6-2.1,2.7-2.9
		c0.6-0.5,1.3-1,1.8-1.5c0.4-0.4,0.9-0.5,1.4-0.5c1,0,1.9,0.1,2.8,0.7c0.2,0.2,0.6,0.2,0.9,0.3c0.3,0.1,0.5,0.3,0.8,0.5
		c0.1,0.1,0.1,0.4,0,0.5C269.2,75.2,269,75.3,268.8,75.4z"/>
	<path class="st2" d="M336.2,118.4c0.5-0.2,0.8-0.2,1-0.7c0.1-0.4,0.7-0.3,1,0.1c0.2,0.3,0.3,0.7,0.4,1c0.3,1.1,0.7,2.2,1,3.3
		c0.1,0.4,0.1,0.8,0.1,1.1c-0.1,0.3-0.3,0.6-0.5,0.7c-0.2,0.1-0.5-0.1-0.7-0.2c-0.2,0.4,0.2,1.1-0.6,1.4c-0.1-0.2-0.3-0.4-0.3-0.7
		c-0.3-1.5-0.6-2.9-0.9-4.4C336.4,119.6,336.3,119,336.2,118.4z"/>
	<path class="st2" d="M317.8,94.8c-0.5,0.3-0.8,0.3-1-0.3c0.2-0.5,0.5-1,0.8-1.6c-0.3,0-0.4,0-0.5,0c-0.6,0-0.7-0.3-0.5-0.8
		c0.3-0.6,0.6-1.1,0.9-1.6c-0.8-0.5-0.8-0.5-0.4-1.3c0.1-0.3,0.2-0.6,0.3-0.9c-0.9-0.5-1-0.8-0.4-1.5c0.2-0.2,0.3-0.4,0.5-0.6
		c0.2-0.1,0.5-0.3,0.7-0.2c0.2,0.1,0.2,0.5,0.3,0.7c0,0.1,0,0.2-0.1,0.3c0.9,0.5,0.9,0.6,0.3,1.5c0.4,1.3-0.3,2.3-0.7,3.4
		c0.2,0.3,0.5,0.6,0.5,0.9c0,0.3-0.2,0.7-0.3,1.1c0.1,0.1,0.3,0.1,0.3,0.2c0.3,0.6,0.5,1.2,1,1.7c0.1,0.1,0,0.4-0.1,0.5
		c-0.1,0.1-0.5,0.1-0.6,0C318.4,96,317.9,95.6,317.8,94.8z"/>
	<path class="st2" d="M265.7,83.6c-0.6,0.9-1.4,1.5-2.5,1.6c-0.5,0.1-0.9,0-1.4,0.1c-0.8,0.1-1.3,0.6-1.3,1.4c0,0.8,0,0.8-0.6,1.4
		c-0.1,0-0.2,0-0.2,0c-0.2-0.6-0.4-1.2-0.5-1.9c-0.1-0.9,1-2,1.9-2.1c0.2,0,0.4-0.1,0.6,0c1.1,0.1,2-0.1,2.9-0.8
		C265.2,82.9,265.2,83,265.7,83.6z"/>
	<path class="st2" d="M302.4,141.5c0,0.5-0.1,0.9,0.4,1.2c0.3,0.2,0.2,0.5,0,0.7c-0.2,0.2-0.4,0.2-0.7,0.4c-0.7,0.4-1.4,0.8-2.2,1.2
		c-0.8-0.8,0.5-1.2,0.5-1.9c-0.7-0.3-0.7-0.7-0.3-1.2c0.1-0.1,0.3-0.2,0.5-0.3c0.6-0.4,1.2-0.7,1.8-1.1c0.3-0.2,0.6-0.3,0.9-0.4
		c0.3-0.1,0.6,0.1,0.7,0.3c0.1,0.3-0.1,0.4-0.4,0.5C303.1,141.1,302.7,141.3,302.4,141.5z"/>
	<path class="st2" d="M259.8,105.5c0.2,0.5-0.1,0.6-0.4,0.8c-1,0.4-2,0.8-2.9,1.3c-0.5,0.2-0.9,0.3-1.4,0.5c-0.5,0.1-1,0.3-1.5,0.4
		c-0.4,0.1-0.8-0.2-0.9-0.5c-0.1-0.4,0.2-0.6,0.5-0.7c1.3-0.3,2.5-0.7,3.8-1c0.7-0.2,1.4-0.4,2.1-0.5
		C259.4,105.5,259.6,105.5,259.8,105.5z"/>
	<path class="st2" d="M281.2,121.4c0,0.8-0.5,1.1-0.9,1.4c-1.4,1.1-2.6,2.2-3.9,3.4c-0.4,0.4-1,0.7-1.5,1c-0.1,0.1-0.4,0-0.6-0.1
		c-0.1-0.1-0.2-0.4-0.1-0.6c0.1-0.2,0.3-0.5,0.5-0.6c1.4-0.7,2.5-1.9,3.7-2.9c0.7-0.5,1.4-1,2.1-1.5
		C280.7,121.4,280.9,121.4,281.2,121.4z"/>
	<path class="st2" d="M248.9,94.4c0.3-0.2,0.5-0.3,0.8-0.5c-0.3-0.8-0.5-1.6-0.7-2.4c-0.3-0.8-0.1-1.6,0.3-2.3
		c0.1-0.2,0.4-0.4,0.6-0.4c0.4,0,0.5,0.4,0.5,0.7c0,0,0,0.1,0,0.1c-0.6,1.3,0.2,2.5,0.5,3.7c0.2,0.7-0.1,1.4-0.8,1.7
		C249.5,95.2,249.2,95,248.9,94.4z"/>
	<path class="st2" d="M335,146.4c-0.1,0.1-0.1,0.3-0.3,0.4c-1.5,1.1-2.8,2.5-3.8,4.1c-0.2,0.3-0.4,0.7-0.9,0.5
		c-0.3-0.2-0.5-0.9-0.2-1.2c0.3-0.5,0.7-1,1.1-1.4c0.9-0.9,1.8-1.7,2.8-2.5C334.3,145.7,334.3,145.8,335,146.4z"/>
	<path class="st2" d="M334.4,148.3c0.5,0.5,0.3,0.9,0,1.2c-0.6,0.6-1.1,1.2-1.7,1.8c-0.6,0.7-1.3,1.1-1.6,2.1
		c-0.1,0.3-0.6,0.5-1,0.6c-0.4,0.1-0.7-0.4-0.4-0.9c0.2-0.4,0.4-0.9,0.8-1.2C331.7,150.7,333,149.6,334.4,148.3z"/>
	<path class="st2" d="M337.1,95.8c-0.2-0.4-0.3-0.6-0.3-0.9c0.1-2.2-0.3-4.3-0.8-6.4c0-0.2-0.2-0.4-0.1-0.5c0.1-0.2,0.3-0.4,0.5-0.6
		c0.2,0.1,0.4,0.3,0.5,0.4c0.2,0.5,0.3,1,0.4,1.5c0.3,1.9,0.5,3.7,0.3,5.6c0,0.2,0,0.3-0.1,0.5C337.3,95.5,337.3,95.5,337.1,95.8z"
		/>
	<path class="st2" d="M254.5,91.2c0.3-0.3,0.5-0.5,0.8-0.7c0.6,0.3,1.1,0.5,1.5,0.8c0.6,0.4,1.2,0.6,1.8,0.2
		c0.2-0.1,0.5-0.2,0.8-0.3c0.3-0.1,0.5-0.2,0.7,0.1c0.3,0.3,0.2,0.7-0.2,0.9c-0.7,0.5-1.5,1-2.4,0.7
		C256.4,92.7,255.4,92.1,254.5,91.2z"/>
	<path class="st2" d="M333.2,94c-0.1-0.2-0.3-0.3-0.3-0.4c0-2.5-0.3-5-0.6-7.5c0.6-0.1,0.9,0.1,1,0.6c0.1,0.6,0.2,1.3,0.3,1.9
		c0.1,0.9,0.1,1.8,0.1,2.6c0,0.7-0.1,1.4-0.2,2.1C333.5,93.5,333.3,93.7,333.2,94z"/>
	<path class="st2" d="M339.2,93.2c-0.4-1.2-0.3-2.5-0.5-3.7c0.6-0.2,0.8,0,0.8,0.5c0.1,0.8,0.2,1.6,0.3,2.4c0.5,0.1,0.9,0.2,1.4,0.3
		c0,0.3,0.1,0.5,0.1,0.8c0.1,0.6,0.5,0.9,1.1,1c0.5,0,0.6,0.3,0.4,0.7c-0.2,0.2-0.4,0.5-0.7,0.6c-0.4,0.1-0.4-0.3-0.6-0.5
		c-0.2-0.2-0.4-0.4-0.5-0.6c-0.1-0.1-0.3-0.3-0.3-0.4C340.6,93.2,340,93.1,339.2,93.2z"/>
	<path class="st2" d="M305.2,143.6c-0.1,0.1-0.1,0.3-0.3,0.4c-1.3,0.8-2.6,1.7-3.9,2.5c-0.3,0.2-0.6,0.3-1,0.3
		c-0.2,0-0.5-0.1-0.5-0.3c-0.1-0.1,0.1-0.4,0.2-0.6c0-0.1,0.1-0.1,0.2-0.2c1.1-0.7,2.1-1.3,3.2-2c0.4-0.3,0.9-0.5,1.4-0.6
		C304.9,143,305.2,143.1,305.2,143.6z"/>
	<path class="st2" d="M314.7,56.2c0.1-0.1,0.3-0.2,0.4-0.3c1.4-0.5,2.8-1,4.3-1.5c0.2-0.1,0.5-0.1,0.7-0.1c0.3,0,0.6,0.3,0.6,0.6
		c0,0.2-0.3,0.5-0.5,0.5c-1.7,0-3.2,0.7-4.8,1.1c-0.2,0-0.4-0.1-0.7-0.1C314.7,56.4,314.7,56.3,314.7,56.2z"/>
	<path class="st2" d="M299.8,139.6c-0.4,0-0.6-0.4-0.3-0.7c0.3-0.3,0.7-0.7,1.1-0.9c1.1-0.6,2.2-1.2,3.2-1.8c0.3-0.2,0.5-0.2,0.7,0
		c0.2,0.3,0,0.5-0.2,0.7c-0.8,0.5-1.7,1.1-2.6,1.6c-0.5,0.3-1,0.6-1.5,0.9C300,139.5,299.9,139.6,299.8,139.6z"/>
	<path class="st2" d="M334.9,144.3c-0.3,0.3-0.5,0.5-0.8,0.8c-0.6,0.5-1.3,1-1.9,1.5c-0.3,0.3-0.6,0.6-0.8,0.9
		c-0.4,0.5-0.5,0.5-0.9,0c-0.1-0.1-0.1-0.2-0.2-0.4c0.3-0.3,0.5-0.8,0.9-1c0.9-0.7,1.8-1.3,2.8-1.9
		C334.2,143.9,334.5,143.9,334.9,144.3z"/>
	<path class="st2" d="M301.9,135.5c0.9-0.4,1.7-0.9,2.6-1.3c0.4-0.2,0.7-0.4,1,0.2c-0.2,0.2-0.3,0.4-0.5,0.5
		c-1.3,0.8-2.7,1.6-4.1,2.4c-0.2,0.1-0.5,0-0.7-0.1c-0.2-0.2-0.1-0.5,0.2-0.7C301,136.1,301.5,135.8,301.9,135.5L301.9,135.5z"/>
	<path class="st2" d="M320.2,76.1c0.1,0.7-0.2,0.8-0.4,1.1c-1.1,1-2.3,2-3.4,2.9c-0.3,0.3-0.6,0.6-1,0.9c-0.2-0.2-0.3-0.4-0.5-0.6
		c0.3-0.3,0.5-0.7,0.7-0.9c0.3-0.3,0.6-0.5,1-0.8C317.7,77.9,318.9,77,320.2,76.1z"/>
	<path class="st2" d="M275.7,128.8c-0.1-0.1-0.3-0.2-0.4-0.4c0-0.1,0.1-0.4,0.2-0.5c0.9-0.8,1.9-1.6,2.8-2.4
		c0.4-0.3,0.7-0.6,1.1-0.8c0.1-0.1,0.3,0,0.5,0c0,0.2,0,0.4-0.1,0.5c-0.9,0.9-1.8,1.7-2.7,2.6c-0.3,0.3-0.6,0.5-1,0.8
		C276,128.7,275.8,128.7,275.7,128.8z"/>
	<path class="st2" d="M252.4,102.9c-0.4,0.2-0.7,0.4-1.1,0.5c-0.2,0-0.5-0.1-0.6-0.3c-0.1-0.2-0.1-0.6,0.1-0.7
		c0.9-0.5,1.6-1.3,2.6-1.3c0.4,0.2,0.1,0.8,0.7,0.7c0.3,0,0.3,0.3,0.1,0.6C253.6,103,253.1,103.1,252.4,102.9z"/>
	<path class="st2" d="M304,146.5c-0.1,0.1-0.1,0.3-0.3,0.4c-1.1,0.6-2.1,1.2-3.2,1.8c-0.1,0-0.2,0.1-0.3,0.1c-0.3,0-0.6,0-0.7-0.4
		c-0.1-0.3,0-0.6,0.4-0.8c0.4-0.2,0.8-0.3,1.2-0.5c0.7-0.3,1.4-0.7,2.1-1C303.7,145.9,304,146,304,146.5z"/>
	<path class="st2" d="M315,75.3c0.4,0.5,0.2,0.7-0.1,0.9c-0.4,0.3-0.8,0.5-1.2,0.8c-0.8,0.6-1.5,1.2-2.3,1.8
		c-0.3,0.2-0.5,0.5-0.8,0.2c-0.3-0.3-0.1-0.7,0.1-0.9c0.5-0.4,1-0.9,1.6-1.3C313.2,76.4,314.1,75.9,315,75.3z"/>
	<path class="st2" d="M304,138.9c-1.3,0.5-2.3,1.4-3.5,2c-0.1,0.1-0.2,0.2-0.4,0.3c-0.3,0.2-0.5,0.1-0.7-0.2
		c-0.2-0.3-0.1-0.5,0.2-0.7c0.9-0.6,1.8-1.1,2.7-1.7c0.3-0.2,0.5-0.3,0.8-0.4C303.9,138,304,138.1,304,138.9z"/>
	<path class="st2" d="M281.9,85.8c0.4,0.8,0.3,1.1-0.5,1.2c-0.6,0.1-1.3,0-1.9,0c-0.5,0-0.9,0-1.4-0.1c-0.1,0-0.2,0-0.3-0.1
		c-0.2-0.2-0.4-0.4-0.4-0.6c0-0.1,0.3-0.4,0.4-0.4c0.5,0,1,0,1.5,0C280.2,86.1,281.1,86.3,281.9,85.8z"/>
	<path class="st2" d="M316.6,76.2c0.4,0.4,0.4,0.6,0.1,0.9c-0.2,0.2-0.4,0.4-0.6,0.6c-0.8,0.8-1.7,1.5-2.5,2.3
		c-0.2,0.2-0.5,0.4-0.7,0.1c-0.2-0.2-0.2-0.5,0.1-0.7C314.2,78.3,315.3,77.3,316.6,76.2z"/>
	<path class="st2" d="M331.3,154.5c0.9-1,1.8-1.9,2.7-2.9c0.2-0.2,0.4-0.4,0.6-0.1c0.3,0.2,0.2,0.5,0,0.8c-0.7,0.9-1.4,1.7-2.1,2.5
		C332.1,155.3,331.9,155.2,331.3,154.5z"/>
	<path class="st2" d="M277,130.1c-0.3,0-0.5-0.3-0.4-0.6c0.1-0.2,0.2-0.4,0.4-0.6c0.8-0.7,1.6-1.3,2.4-2c0.1-0.1,0.4-0.2,0.6-0.1
		c0.1,0.1,0.2,0.4,0.1,0.6C279.3,128.6,278.3,129.5,277,130.1C277.1,130.1,277.1,130.1,277,130.1z"/>
	<path class="st2" d="M268.1,77.6c-0.6,0.5-1.3,0.6-2,0.7c-0.5,0.1-0.9,0-1.4,0c-0.2,0-0.5-0.2-0.5-0.3c-0.1-0.1,0.1-0.4,0.2-0.6
		c0.2-0.3,0.5-0.5,0.9-0.4c0.6,0.2,1.2,0.1,1.8,0C267.7,76.8,267.8,76.9,268.1,77.6z"/>
	<path class="st2" d="M271,91.2c-1.2,0.2-1.9-0.6-2.7-1c-0.4-0.2-0.7-0.6-0.8-1.1c0-0.2,0.1-0.5,0.2-0.6c0.2-0.1,0.5,0,0.7,0
		c0.1,0,0.2,0.1,0.2,0.2c0.1,0.6,0.6,0.8,1,1c0.3,0.2,0.6,0.4,0.9,0.7C270.7,90.6,270.8,90.9,271,91.2z"/>
	<path class="st2" d="M256,108.7c0.1,0,0.4,0.1,0.4,0.3c0,0.2-0.2,0.5-0.3,0.6c-0.6,0.3-1.3,0.6-2,0.9c-0.2,0.1-0.5,0.1-0.7,0
		c-0.3-0.1-0.6-0.1-0.6-0.5c0-0.4,0.2-0.8,0.6-0.9c0.7-0.2,1.5-0.3,2.2-0.4C255.7,108.7,255.7,108.7,256,108.7z"/>
	<path class="st2" d="M318,82.3c-0.3-0.3-0.4-0.5-0.7-0.8c1.3-1,2.3-2.3,3.5-3.3c0.1,0,0.1,0.1,0.2,0.1c0,0.2,0,0.6-0.1,0.7
		C320.1,80.1,319.1,81.1,318,82.3z"/>
	<path class="st2" d="M302.6,131.4c0.4,0.1,0.6,0.2,1,0.3c-0.4,0.8-0.9,1.3-1.5,1.9c-0.1,0.1-0.5,0-0.7-0.1
		c-0.1-0.1-0.2-0.4-0.1-0.6c0.1-0.3,0.3-0.6,0.5-0.9c-0.1-0.3-0.2-0.5-0.2-0.7c0-0.3,0-0.6,0.4-0.7c0.3-0.1,0.5,0.2,0.6,0.5
		C302.6,131.2,302.6,131.3,302.6,131.4z"/>
	<path class="st2" d="M276.3,86.6c-0.2,0.8-0.9,0.7-1.5,0.8c-0.5,0-0.9-0.2-1.4,0.1c-0.1,0.1-0.5-0.1-0.6-0.3
		c-0.1-0.2,0-0.5,0.1-0.7c0.4-0.4,0.9-0.7,1.5-0.3c0.3,0.2,0.6,0.2,1,0.1C275.9,86,275.9,86.1,276.3,86.6z"/>
	<path class="st2" d="M278.5,100.7c-0.4-0.5-0.4-0.8,0-1c0.9-0.5,1.7-0.9,2.6-1.3c0.1-0.1,0.4,0.1,0.5,0.2c0.2,0.2,0.2,0.6-0.2,0.7
		C280.5,99.7,279.5,100.2,278.5,100.7z"/>
	<path class="st2" d="M314.7,51.6c-1.4,0.8-2.7,1.5-4,2.2c-0.4-0.4-0.4-0.6,0-0.9c0.8-0.5,1.7-1,2.5-1.5c0.2-0.1,0.5-0.2,0.8-0.3
		C314.4,51,314.6,51.2,314.7,51.6z"/>
	<path class="st2" d="M324.4,57.9c-0.3,0.2-0.5,0.4-0.7,0.4c-0.9-0.1-1.7,0.3-2.5,0.6c-0.2,0.1-0.4,0.2-0.5,0.2
		c-0.2,0-0.4-0.1-0.4-0.2c0-0.1,0.1-0.4,0.2-0.4c0.9-0.4,1.7-0.7,2.6-1.1C323.6,57.1,324,57.4,324.4,57.9z"/>
	<path class="st2" d="M333.1,143.4c-0.7-0.5-0.8-1-0.2-1.3c0.7-0.4,1.6-0.7,2.4-1.1c0.1-0.1,0.3,0.1,0.6,0.2
		C335.2,142.3,333.9,142.5,333.1,143.4z"/>
	<path class="st2" d="M280.3,129.3c-0.1,0.2-0.1,0.3-0.2,0.4c-0.4,0.5-0.8,1-1.2,1.4c-0.4,0.4-0.8,0.5-1,0.1c-0.3-0.4-0.2-0.7,0.2-1
		c0.5-0.4,0.8-0.8,1.3-1.2c0.1-0.1,0.4-0.2,0.6-0.1C280,128.9,280.1,129.1,280.3,129.3z"/>
	<path class="st2" d="M291.2,89.1c-0.2-0.2-0.5-0.3-0.6-0.5c-0.2-0.3,0-0.6,0.4-0.7c0.5-0.2,1-0.4,1.5-0.5c0.3-0.1,0.6-0.1,0.8,0
		c0.4,0.1,0.5,0.6,0.2,0.7C292.8,88.5,292,88.8,291.2,89.1z"/>
	<path class="st2" d="M248.4,101.7c-0.9-0.3-1.1-0.7-0.5-1.3c0.5-0.6,1.7-1,2.5-0.8c-0.4,0.4-0.7,0.8-1,1.1
		C249.1,101,248.7,101.3,248.4,101.7z"/>
	<path class="st2" d="M329,86.4c-0.1-0.5-0.1-1-0.1-1.6c0-0.2,0.2-0.4,0.3-0.5c0.2,0.1,0.5,0.2,0.5,0.3c0.2,0.6,0.3,1.1,0.3,1.7
		c0,0.4-0.1,0.8-0.2,1.2c0,0.2-0.3,0.3-0.4,0.4c-0.1-0.1-0.4-0.3-0.4-0.4C329,87.2,329,86.8,329,86.4C329,86.5,329,86.5,329,86.4z"
		/>
	<path class="st2" d="M301.5,150.4c-0.1-0.2-0.4-0.3-0.4-0.5c0-0.2,0.1-0.6,0.2-0.6c0.7-0.3,1.4-0.5,2.1-0.7c0.1,0,0.4,0.2,0.5,0.3
		c0.1,0.1,0,0.4-0.1,0.5C303,149.7,302.3,150,301.5,150.4z"/>
	<path class="st2" d="M309,70.3c-0.1-0.4-0.3-0.6-0.3-0.9c0-0.2,0.1-0.4,0.1-0.6c0.2,0.1,0.5,0.1,0.6,0.2c0.1,0.1,0.1,0.4,0.1,0.6
		c0.1,0,0.3-0.1,0.4-0.1c0.4,0,0.6,0.3,0.3,0.6c-0.3,0.5-0.7,0.9-1.1,1.4c-0.1,0.1-0.4,0.1-0.5,0c-0.1-0.1-0.2-0.4-0.2-0.6
		C308.7,70.7,308.9,70.5,309,70.3z"/>
	<path class="st2" d="M333.3,156.6c-0.4-1.2-0.2-1.8,0.5-2.4c0.2-0.2,0.5-0.4,0.8-0.5c0.1-0.1,0.4,0,0.5,0.1
		c0.1,0.1,0.2,0.4,0.1,0.5C334.5,155,334,155.8,333.3,156.6z"/>
	<path class="st2" d="M327.9,84.3c0.2,0.3,0.5,0.5,0.5,0.6c-0.1,0.8-0.2,1.6-0.4,2.4c-0.1,0.3-0.7,0.3-0.7-0.1
		C327.3,86.3,327.1,85.3,327.9,84.3z"/>
	<path class="st2" d="M295.1,89.9c-0.5,0.6-1,1-1.7,1.1c-0.4,0.1-0.7-0.1-0.8-0.4c-0.1-0.3-0.1-0.6,0.3-0.7c0.4-0.2,0.9-0.3,1.3-0.5
		C294.6,89.3,294.9,89.4,295.1,89.9z"/>
	<path class="st2" d="M248.1,95.1c-0.2,0.2-0.3,0.3-0.3,0.4c0.4,0.5,0.7,1,1,1.6c0.1,0.1,0.1,0.4,0,0.4c-0.1,0.1-0.4,0.2-0.5,0.1
		c-0.4-0.3-0.8-0.7-1.2-1c-0.1-0.1-0.1-0.2-0.1-0.3c0-0.2,0-0.4,0.1-0.5c0.2-0.3,0.4-0.5,0.7-0.8C247.8,95,248,95,248.1,95.1z"/>
	<path class="st2" d="M255.2,111.1c0.3,0.2,0.9-0.1,1,0.5c0.1,0.3-0.3,0.6-1,0.8c-0.2,0-0.4,0.1-0.5,0.1c-0.5,0.1-0.7,0-0.9-0.4
		c-0.1-0.5,0.1-0.8,0.6-0.9C254.7,111.1,254.9,111.1,255.2,111.1z"/>
	<path class="st2" d="M253.7,85c-0.1-0.1-0.3-0.2-0.4-0.3c0-0.2,0.1-0.6,0.3-0.6c0.5-0.2,1.1-0.4,1.5-0.8c0.1-0.1,0.4,0,0.6,0.1
		c0.1,0.1,0.1,0.4,0,0.5C255.2,84.5,254.6,84.9,253.7,85z"/>
	<path class="st2" d="M330.7,84.9c0.9,0.4,0.9,1,0.9,1.5c0,0.4-0.1,0.8-0.1,1.2c0,0.1-0.3,0.4-0.4,0.3c-0.2-0.1-0.4-0.3-0.4-0.4
		c-0.1-0.5-0.1-1-0.1-1.5C330.7,85.7,330.7,85.4,330.7,84.9z"/>
	<path class="st2" d="M254,82.2c0.3-0.1,0.6-0.2,0.9-0.3c0.5,0.5,0.5,0.5,0.1,0.8c-0.3,0.3-0.7,0.5-1.1,0.8
		c-0.4,0.3-0.8,0.2-1.1-0.3c0.3-0.3,0.5-0.6,0.8-0.8C253.8,82.3,253.9,82.2,254,82.2z"/>
	<path class="st2" d="M277.5,106.3c0.2-0.5,0.3-1,0.4-1.4c0.1-0.3,0.3-0.4,0.6-0.3c0.2,0.1,0.4,0.4,0.4,0.5c-0.1,0.5-0.3,1-0.4,1.5
		c0,0.1-0.4,0.2-0.5,0.2C277.7,106.7,277.6,106.4,277.5,106.3z"/>
	<path class="st2" d="M323.2,80c0,0.4,0,0.7-0.1,0.8c-0.4,0.4-0.9,0.8-1.4,1.1c-0.1,0.1-0.3,0-0.4-0.1c-0.1-0.1-0.2-0.3-0.2-0.5
		c0-0.1,0.1-0.3,0.2-0.4C321.9,80.5,322.4,80.3,323.2,80z"/>
	<path class="st2" d="M302,135.5c-0.2,0-0.3,0.1-0.5,0c-0.2-0.1-0.6-0.2-0.6-0.4c-0.1-0.3,0.3-0.3,0.5-0.4c0.4-0.2,0.7-0.5,1.1-0.7
		c0.2-0.1,0.5-0.1,0.7,0c0.2,0.2,0.2,0.5-0.1,0.7C302.6,134.8,302.3,135.2,302,135.5C301.9,135.5,302,135.5,302,135.5z"/>
	<path class="st2" d="M335.8,140.3c-0.8-0.9-0.7-1.3,0.1-1.6c0.4-0.1,0.9-0.6,1.4-0.1C337.1,139.5,336.1,139.5,335.8,140.3z"/>
	<path class="st2" d="M313.9,54.2c-0.1-0.3-0.2-0.4-0.1-0.6c0.1-0.5,1.5-1.4,2-1.2c0.1,0,0.3,0.2,0.3,0.3c0,0.1-0.1,0.3-0.1,0.4
		c0,0-0.1,0.1-0.2,0.1C315.1,53.5,314.5,53.8,313.9,54.2z"/>
	<path class="st2" d="M283.5,100.4c-0.5,0.2-0.9,0.4-1.3,0.4c-0.2,0-0.5-0.1-0.8-0.2c-0.1-0.1-0.1-0.5,0-0.5
		c0.4-0.2,0.8-0.4,1.3-0.5C283.4,99.5,283.3,100.1,283.5,100.4z"/>
	<path class="st2" d="M311.5,152.5c-0.3,0.3-0.5,0.6-0.7,0.8c-0.4,0.4-0.7,0.3-0.9,0c-0.2-0.4-0.2-0.8,0.2-1
		C310.5,152.1,311,152,311.5,152.5z"/>
	<path class="st2" d="M296,91.6c-0.1-0.1-0.4-0.3-0.5-0.5c-0.1-0.3,0.2-0.5,0.5-0.6c0.4,0,0.8,0,1.2,0c0.1,0,0.3,0.2,0.3,0.3
		c0,0.2-0.1,0.4-0.2,0.4C296.9,91.4,296.6,91.5,296,91.6z"/>
	<path class="st2" d="M291.5,89.5c0.1,0.1,0.4,0.1,0.5,0.2c0.1,0.1,0.2,0.2,0.2,0.4c0,0.3-0.4,0.6-1,0.6c-0.4,0-0.6-0.1-0.6-0.5
		C290.6,89.7,290.9,89.5,291.5,89.5z"/>
	<path class="st2" d="M323.8,60.6c-0.3,0-0.5-0.4-0.3-0.6c0.3-0.3,0.6-0.5,1-0.7c0.3-0.1,0.6,0.1,0.7,0.4c0.1,0.4-0.1,0.5-0.4,0.5
		C324.4,60.2,324.1,60.4,323.8,60.6z"/>
	<path class="st2" d="M285.7,101.2c-0.2-0.2-0.4-0.2-0.4-0.4c0-0.2-0.1-0.4,0-0.5c0.3-0.3,0.6-0.5,1-0.7c0.1-0.1,0.3,0,0.4,0
		c0.1,0.1,0.2,0.4,0.2,0.5C286.6,100.6,286.1,100.9,285.7,101.2z"/>
	<path class="st2" d="M258.2,115.6c-0.1,0.1-0.3,0.2-0.5,0.3c-0.4,0-1-0.4-1-0.7c0-0.3,0.3-0.6,0.6-0.6
		C257.7,114.6,258.2,115.1,258.2,115.6z"/>
	<path class="st2" d="M259.1,116.9c-0.5-0.1-0.9-0.4-0.8-0.7c0.1-0.4,0.4-0.5,0.7-0.5c0.5,0,0.9,0.4,0.8,0.8
		C259.8,116.8,259.5,116.9,259.1,116.9z"/>
	<path class="st2" d="M324.1,81.1c-0.4-0.4-0.3-0.7,0-1c0.3-0.3,0.7-0.4,1.1-0.3c0.3,0.1,0.3,0.5,0,0.7
		C324.9,80.7,324.5,80.9,324.1,81.1z"/>
	<path class="st2" d="M281.5,134.3c-0.3,0-0.7-0.3-0.7-0.6c0-0.3,0.3-0.6,0.7-0.5c0.1,0,0.3,0,0.4,0c0.2,0.1,0.4,0.3,0.4,0.5
		c0,0.2-0.2,0.4-0.4,0.5C281.8,134.3,281.6,134.3,281.5,134.3z"/>
	<path class="st2" d="M280.4,132.2c0,0.4-0.2,0.6-0.7,0.6c-0.4,0-0.7-0.2-0.7-0.5c0-0.4,0.4-0.7,0.7-0.7
		C280,131.5,280.4,131.8,280.4,132.2z"/>
	<path class="st2" d="M305.3,150.7c0,0.5-0.5,1.1-0.8,1.1c-0.4,0-0.5-0.3-0.5-0.6c0-0.4,0.3-0.8,0.8-0.7
		C305,150.5,305.1,150.6,305.3,150.7z"/>
	<path class="st2" d="M308,152.1c0,0.5-0.4,0.9-0.8,0.8c-0.3,0-0.6-0.1-0.6-0.5c0-0.4,0.5-0.9,0.8-0.8
		C307.7,151.7,307.9,151.9,308,152.1z"/>
	<path class="st2" d="M258.5,82.5c-0.3,0-0.6,0.1-0.9,0c-0.3-0.1-0.4-0.4-0.3-0.7c0.1-0.3,0.4-0.4,0.7-0.3
		C258.3,81.7,258.6,82,258.5,82.5z"/>
	<path class="st2" d="M302.1,128.9c0.1,0.2,0.3,0.5,0.4,0.7c0.1,0.3-0.1,0.6-0.4,0.6c-0.3,0-0.5-0.3-0.5-0.6c0-0.2,0.2-0.4,0.3-0.7
		C302,128.9,302,128.9,302.1,128.9z"/>
	<path class="st2" d="M282.5,135.4c0.2,0.2,0.4,0.4,0.6,0.7c-0.4,0.2-0.7,0.3-1,0.4C281.8,135.9,281.8,135.9,282.5,135.4z"/>
	<path class="st2" d="M310.4,57.8c-0.4,0.6-0.7,0.8-1.3,0.6C309.4,57.7,309.4,57.7,310.4,57.8z"/>
	<path class="st2" d="M254,82.2c-0.1,0.1-0.3,0.1-0.4,0.2c-0.2-0.1-0.4-0.1-0.6-0.2c0.3-0.4,0.5-0.8,1-0.6
		C254.3,81.6,254.2,81.9,254,82.2z"/>
	<path class="st2" d="M274.8,58.3c-0.1-0.1-0.4-0.2-0.4-0.4c-0.1-0.2,0-0.5,0.1-0.6c0.4-0.4,0.8-0.9,1.3-1.3c2.6-2,5.4-3.7,8.5-4.9
		c0.1-0.1,0.3-0.1,0.4-0.2c0.3-0.1,0.5,0,0.6,0.3c0,0.2-0.2,0.4-0.3,0.5c-1.1,0.5-2.2,1-3.2,1.6c-1.5,0.9-2.9,1.9-4.3,2.9
		c-0.2,0.1-0.3,0.3-0.5,0.5c-0.6,0.5-1.2,1-1.8,1.5C275,58.2,274.9,58.2,274.8,58.3z"/>
	<path class="st2" d="M274.2,53.9c0.4-0.4,0.7-0.8,1.1-1c2.4-1.5,4.7-3,7.1-4.4c0.5-0.3,1-0.5,1.5-0.7c0.1-0.1,0.4,0.1,0.5,0.2
		c-0.1,0.2-0.1,0.3-0.3,0.5c-0.1,0.1-0.2,0.1-0.3,0.2c-2.7,1.5-5.2,3.2-7.6,5.1c-0.2,0.2-0.4,0.4-0.6,0.6
		C275,54.9,274.9,54.8,274.2,53.9z"/>
	<path class="st2" d="M276.1,50.5c-0.8-0.5-0.9-1.2-0.2-1.7c0.5-0.4,1-0.6,1.5-0.9c1.4-0.7,2.8-1.4,4.3-2c0.7-0.3,1.5-0.6,2.2-0.8
		c0.2-0.1,0.6-0.1,0.6,0.3c0,0.1-0.2,0.4-0.3,0.5c-2.3,0.8-4.3,2-6.4,3.2c-0.6,0.3-1.2,0.6-1.4,1.3
		C276.3,50.4,276.1,50.5,276.1,50.5z"/>
	<path class="st2" d="M299.2,75c0.1,0.3,0.1,0.6,0.2,0.9c0.3-0.1,0.6-0.2,0.9-0.2c0.2,0,0.5,0.2,0.6,0.4c0.2,0.3,0,0.5-0.3,0.7
		c-0.6,0.4-1.2,0.8-1.8,1.2c-0.2,0.2-0.5,0.3-0.8,0.4c-0.5,0.2-0.9,0.1-1.2-0.3c-0.8,0.2-1.3,1.1-2.3,0.4
		C296.2,77.3,297.6,76.2,299.2,75z M297.3,77.6c0,0.1,0.1,0.1,0.1,0.2c0.4,0,0.7-0.3,0.9-0.6c0-0.1-0.1-0.1-0.1-0.2
		C297.9,77.2,297.6,77.4,297.3,77.6z"/>
	<path class="st2" d="M282.8,39.4c-0.4-0.9-0.4-1,0.2-1.4c1.1-0.7,2.3-1.4,3.6-1.5c0.2,0,0.5-0.1,0.6-0.2c0.6-0.6,1.3-0.7,2.1-0.9
		c0.1,0,0.3-0.1,0.5,0c0.1,0.1,0.3,0.2,0.3,0.4c0,0.1-0.1,0.3-0.2,0.4c-0.2,0.1-0.5,0.2-0.7,0.3c-0.3,0.1-0.6,0.1-0.8,0.3
		c-0.5,0.6-1.3,0.6-2,0.9c-1,0.4-2,1-3,1.5C283.2,39.2,283.1,39.3,282.8,39.4z"/>
	<path class="st2" d="M314.6,39.1c-1,0.1-1,0.1-1.2-0.6c-0.2-0.6-0.4-1.3-0.7-2c-0.5,0-0.9-0.2-0.8-0.8c0-0.3-0.1-0.6-0.3-0.8
		c-0.1-0.1-0.2-0.4-0.2-0.6c-0.1-0.5,0.2-0.8,0.7-0.7c0.6,0.2,1.1,0.6,1.3,1.1c0.2,0.6,0.4,1.2,0.6,1.8
		C314.2,37.3,314.3,38.1,314.6,39.1z"/>
	<path class="st2" d="M284.8,42.2c-1.3-0.3-2.2,0.5-3.2,0.9c-1,0.4-1.9,1.1-2.4,2.1c-0.6-0.1-0.7-0.4-0.6-0.8c0.2-0.5,0.5-1,0.9-1.3
		c1.1-0.9,2.4-1.4,3.7-1.8c0.3-0.1,0.6-0.1,0.9-0.1C284.6,41.3,284.9,41.5,284.8,42.2z"/>
	<path class="st2" d="M318.8,38.4c0.6,0,1,0.2,1.1,0.6c0.1,0.4,0.2,0.7,0.3,1.1c0.2,0.5,0.3,1.1,1.1,1.1c0.1,0,0.2,0.2,0.3,0.3
		c0.3,0.3,0.5,0.6,0.8,0.8c0.3,0.2,0.5,0.5,0.3,0.9c-0.2,0.3-0.5,0.2-0.9,0.1c-0.1,0-0.2-0.1-0.2-0.1c-0.8-1.1-2.3-1.6-2.7-3.1
		c0-0.2-0.2-0.4-0.4-0.5c-0.2-0.2-0.6-0.3-0.4-0.6C318.4,38.6,318.7,38.5,318.8,38.4z"/>
	<path class="st2" d="M317.8,39.1c-0.2,0.2-0.3,0.5-0.5,0.6c-0.3,0.1-0.5,0-0.6-0.3c-0.1-0.3-0.4-0.6-0.6-0.9
		c-0.7-0.8-1-1.7-1.2-2.6c0-0.2,0.1-0.5,0.2-0.5c0.2,0,0.5,0,0.7,0.2c0.2,0.2,0.4,0.5,0.4,0.8c0.2,0.7,0.5,1.2,1,1.7
		C317.5,38.3,317.6,38.7,317.8,39.1z"/>
	<path class="st2" d="M292.1,66.1c0.2-0.5,0.5-0.5,0.8-0.4c1,0.3,2,0.6,3,1c0.3,0.1,0.5,0.4,0.7,0.7c-0.3,0.5-0.7,0.6-1.1,0.5
		C294.2,67.5,293.2,66.8,292.1,66.1z"/>
	<path class="st2" d="M293.4,59.1c0.2,0.1,0.3,0.2,0.5,0.3c0.9,0.6,1.6,1.5,2.2,2.4c0.1,0.2,0.2,0.5,0.2,0.8c0,0.2-0.2,0.4-0.4,0.4
		c-0.1,0-0.4-0.1-0.5-0.3c-0.5-0.6-0.8-1.2-1.3-1.8c-0.3-0.3-0.6-0.6-0.9-0.9c-0.1-0.1-0.1-0.4-0.1-0.6
		C293.1,59.3,293.3,59.2,293.4,59.1z"/>
	<path class="st2" d="M293.2,69.7c0-0.5,0.2-0.7,0.5-0.6c0.4,0,0.8,0,1.2,0.1c0.6,0.1,1.2,0.4,1.8,0.1c0.3-0.1,0.6,0.1,0.8,0.4
		c0.1,0.2,0.1,0.5,0,0.6c-0.2,0.2-0.5,0.3-0.7,0.3c-0.9-0.2-1.7-0.4-2.5-0.6C293.9,69.9,293.5,69.8,293.2,69.7z"/>
	<path class="st2" d="M295.6,59.5c-0.3-1.1-0.7-2.2-1-3.4c0-0.1,0.1-0.2,0.1-0.4c0.5-0.1,0.7,0.2,0.9,0.5c0.3,0.6,0.6,1.2,0.9,1.8
		C296.9,59,296.7,59.4,295.6,59.5z"/>
	<path class="st2" d="M293.5,75.2c0.4-0.1,0.7-0.1,0.9-0.2c0.5-0.2,0.9-0.5,1.3-0.8c0.6-0.5,0.9-0.5,1.6,0c-0.6,0.7-1.3,1.3-2.2,1.5
		C294.6,75.7,294.1,76,293.5,75.2z"/>
	<path class="st2" d="M296.7,64.6c-0.2,0.2-0.4,0.4-0.6,0.6c-0.8-0.6-1.6-1.1-2.4-1.6c-0.1-0.1-0.3-0.3-0.4-0.4c0-0.1,0-0.3,0.1-0.4
		c0-0.1,0.2-0.1,0.3-0.1C294.7,63.3,295.8,63.7,296.7,64.6z"/>
	<path class="st2" d="M303.4,30.7c0.7-0.5,1.3-1,1.9-1.4c0.3-0.2,0.6-0.3,0.9-0.4c0.1,0,0.4,0.1,0.4,0.2c0.1,0.1,0,0.5-0.1,0.5
		c-0.7,0.3-1.1,1-1.7,1.4C304.3,31.4,304,31.3,303.4,30.7z"/>
	<path class="st2" d="M298.1,54.5c-0.5-0.4-0.5-0.8-0.2-1.1c0.3-0.4,0.5-0.9,0.2-1.4c-0.1-0.1,0-0.5,0.1-0.5c0.2-0.1,0.4-0.1,0.6,0
		c0.8,0.5,0.8,1.9,0.1,2.5C298.6,54.2,298.3,54.3,298.1,54.5z"/>
	<path class="st2" d="M297.4,54.9c0,0.3,0,0.6-0.1,0.8c-0.1,0.3-0.3,0.6-0.7,0.5c-0.4,0-0.5-0.3-0.5-0.7c0-0.3,0.1-0.7,0.2-1
		c0.1-0.2,0.3-0.3,0.5-0.5c0.2,0.2,0.4,0.3,0.5,0.5C297.5,54.7,297.4,54.8,297.4,54.9z"/>
	<path class="st2" d="M294.8,73.2c0.7-0.7,1.4-1.1,2.2-1.2c0.1,0,0.4,0.1,0.4,0.2c0,0.2-0.1,0.5-0.2,0.5c-0.7,0.3-1.3,0.5-2,0.7
		C295.2,73.4,295.1,73.3,294.8,73.2z"/>
	<path class="st2" d="M286.8,30.1c-0.5,0.7-1.2,1-1.7,0.8c-0.3-0.1-0.5-0.5-0.2-0.6c0.4-0.2,0.8-0.4,1.2-0.4
		C286.3,29.8,286.6,30,286.8,30.1z"/>
	<path class="st2" d="M306.1,31.4c-0.9,1.1-1.1,1.2-1.6,0.5C305.2,30.9,305.4,30.8,306.1,31.4z"/>
	<path class="st2" d="M267.5,187.2c-0.3,0.2-0.6,0.5-0.9,0.7c-0.3,0.1-0.6,0.2-0.9,0.1c-0.4-0.1-0.3-0.5-0.2-0.8
		c0.3-0.7,0.6-1.4,0.9-2.2c0-0.1,0.1-0.2,0.2-0.2c0.6,0,0.8-0.6,1.3-0.9c0.4-0.3,0.8-0.6,1.1-0.9c0.4-0.4,0.8-0.9,1.3-1.3
		c0.6-0.6,1.1-1.2,1.7-1.7c0.1-0.1,0.4-0.2,0.6-0.2c1.1,0,1.7-0.6,2.3-1.5c0.6-0.9,1.2-1.8,2.5-1.9c0.2,0,0.4-0.1,0.5-0.2
		c0.7-0.4,0.7-0.4,1.2,0.3c-0.4,0.6-0.9,0.9-1.6,1c-0.7,0.1-1.3,0.6-1.6,1.2c-0.9,1.7-1.6,2.3-3,2.5c-0.5,0.6-0.9,1.1-1.3,1.5
		c-0.3,0.4-0.6,0.7-1,1c-0.4,0.3-0.8,0.6-1.2,0.9C268.3,185.2,267.4,185.9,267.5,187.2L267.5,187.2z"/>
	<path class="st2" d="M273.5,174.8c0.3,0.3,0.6,0.5,0.9,0.7c0.2,0.2,0.1,0.4-0.2,0.5c-0.4,0.1-0.6-0.2-0.8-0.4
		C273.2,175.4,273,175.1,273.5,174.8z"/>
	<path class="st2" d="M272.4,118.5c-0.1,0-0.1,0-0.2,0c-0.1-0.1-0.4-0.3-0.4-0.4c-0.1-0.5-0.1-1.1-0.1-1.6c0-0.1,0.4-0.3,0.6-0.3
		c0.1,0,0.4,0.3,0.4,0.4C272.6,117.2,273.2,117.9,272.4,118.5z"/>
	<path class="st2" d="M272.4,120.2c-0.4-0.6-0.2-1,0.1-1.3c0.3-0.3,0.7-0.5,1-0.8c0.1-0.1,0.4,0.1,0.5,0.2c0.1,0.1,0,0.3,0,0.4
		c-0.3,0.4-0.6,0.8-0.9,1.2C272.9,120.1,272.6,120.1,272.4,120.2z"/>
	<path class="st2" d="M290.6,141.5c0.4,0.6,0.3,1.2-0.5,1.8C289.7,142.8,289.7,142.8,290.6,141.5z"/>
</g>
<text transform="matrix(1 0 0 1 173.8969 110.6268)" class="st0 st3 st4">Leigh Bryant</text>
</svg>
