<?xml version="1.0" encoding="utf-8"?>
<!-- Generator: Adobe Illustrator 21.0.0, SVG Export Plug-In . SVG Version: 6.00 Build 0)  -->
<svg version="1.1" id="Layer_1" xmlns="http://www.w3.org/2000/svg" xmlns:xlink="http://www.w3.org/1999/xlink" x="0px" y="0px"
	 viewBox="0 0 381.9 256" style="enable-background:new 0 0 381.9 256;" xml:space="preserve">
<style type="text/css">
	.st0{fill:#D05C63;}
	.st1{fill:#F9F1E9;}
	.st2{font-family:'CosmopolitanScript-Bold';}
	.st3{font-size:101.5657px;}
</style>
<g>
	<path class="st0" d="M114.3,95.4c-2.8,0.5-5.7-0.4-8.3,1.2c-0.3-0.3-0.7-0.6-0.7-0.9c-0.4-1.5-0.8-3-1-4.5
		c-0.4-3.1,0.4-5.9,2.3-8.4c1.1-1.4,2.2-2.8,2.3-4.8c0-0.7,0.5-1.1,1.2-1c3.6,0.5,7.2,0,10.8,0.7c0.8,0.1,1.7-0.1,2.6-0.2
		c0.2,0,0.4-0.1,0.5-0.1c2.1,0,4-0.8,6.2-1.2c0-0.4,0-0.9,0-1.3c0-1.2,0-2.4,0-3.6c0,0,0-0.1,0-0.1c-0.3-4.9,1.5-9.2,3.7-13.4
		c0.6-1.1,1.2-2.1,1.8-3.2c-0.4-0.6-0.8-1.2-1.3-1.9c0.2-0.2,0.5-0.4,0.9-0.7c-0.1-0.3-0.2-0.8-0.4-1.1c-1.5-2.2-2.9-4.5-5.2-6.1
		c-0.6-0.4-1.4-0.8-2-1.2c-1.8-1.1-3.6-2.1-5.3-3.3c-0.3-0.2-0.5-0.6-0.7-0.8c0.8-2,1.5-3.8,2.2-5.7c0.2-0.4,0.3-0.9,0.4-1.3
		c0.2-0.9,0.5-1,1.4-0.8c1.2,0.3,2.4,0.6,3.6,1c0.1,0,0.3,0,0.6-0.2c-0.9-0.5-1.7-1.1-2.6-1.5c-1.1-0.5-1.3-1.3-0.4-2.1
		c1.1-1,2.2-2,3.2-3c0.4-0.4,0.7-1,1-1.5c0.7-1.1,1-1.2,2.1-0.4c1.2,0.8,2.3,1.7,3.5,2.5c0.9,0.7,1.9,1.3,2.9,1.9c1.3,1,2.7,1.9,4,3
		c0.7,0.6,1.2,1.3,1.6,2c1.1,1.8,2,3.6,3,5.4c0.1,0.2,0.2,0.4,0.3,0.6c0.2-0.2,0.3-0.2,0.4-0.3c1-2.1,2.3-4,3.9-5.7
		c2.2-2.4,4.4-4.9,7.2-6.7c0.4-0.2,0.7-0.8,0.7-1.2c0.4-2,0.2-4,0-5.9c0-0.3-0.3-0.6-0.6-0.8c-1.3-1-1.3-2.3,0.1-3
		c1.3-0.7,2.6-1.2,3.9-1.7c0.5-0.2,1-0.3,1.4-0.5c1.5-0.9,3.1-0.7,4.7-0.3c1.3,0.3,2.6,0.7,3.8,1.1c0.3,0.1,0.7,0.3,1,0.5
		c0.5,0.3,0.6,0.8,0.2,1.3c-0.2,0.2-0.4,0.4-0.4,0.7c-0.1,1.5-0.2,3-0.3,4.5c0,0.7,0.4,1.1,1,1.3c0.7,0.2,1.3,0.5,2,0.6
		c1.9,0.1,3.9,0.2,5.8,0c1.1-0.1,2.1-0.5,3.2-0.9c0.3-0.1,0.6-0.5,0.6-0.8c0.4-2.5,0.7-4.9,1-7.4c0.1-0.5-0.1-0.8-0.4-1.1
		c-0.6-0.5-1.2-1-1.8-1.5c-1.1-0.7-1.8-1.7-2.4-2.8c-0.6-1.1-1.1-2.2-1.7-3.4c-0.2,0-0.5,0.1-0.8,0c-0.5,0-0.9-0.2-0.8-0.8
		c0-0.3,0-0.5,0-0.8c-0.1-0.6,0.3-0.7,0.8-0.9c0.9-0.3,1.8-0.7,2.5-1.3c0.9-0.6,0.9-0.7,2-0.1c0.3-0.3,0.6-0.6,1-0.9
		c0.8-0.7,1.3-0.6,2,0.1c0.8,0.8,1.5,1.8,2.4,2.5c0.6,0.6,1.5,0.9,2.3,1.5c0.5-0.7,0.9-1.3,1.3-1.9c0.2-0.3,0.3-0.7,0.5-1
		c0.4-0.6,0.8-0.9,1.5-0.6c0.4,0.1,0.8,0.3,1.2,0.4c1.6,0.6,3.1,1.3,4.7,1.9c0.7,0.2,1.4,0.3,2.1,0.4c0.8,0.1,1.2,0.7,0.8,1.2
		c-0.9,1-0.9,2.2-1.3,3.4c-0.3,0.9-0.5,1.9-0.8,2.8c-1,2.5-0.9,5-0.5,7.5c0.2,1.2,0.8,2.3,1.4,3.4c0.2,0.4,0.7,0.7,1.1,1
		c1.4,0.8,2.8,1.9,4.3,2.4c1.8,0.6,3.2,1.8,4.6,3c0.2,0.2,0.5,0.3,0.7,0.5c2.3,1.6,4.7,3,7,4.7c1,0.7,1.7,1.8,2.4,2.9
		c0.9,1.4,1.9,2.8,2.5,4.3c0.6,1.4,0.8,3,1.2,4.5c0.2,1,0.3,2,0.6,3c0.7,2.3,0.9,4.7,1,7.1c0.1,1.4,0.3,2.8,0.3,4.3
		c0,1.2-0.3,2.5-0.6,3.7c-0.2,0.8-0.2,1.6,0.1,2.4c0.6,1.8,1.1,3.7,1.8,5.7c0.7-1,1.4-1.9,2-2.9c1.2-2.1,2.4-4.2,3.6-6.2
		c0.4-0.7,0.4-1.2,0-1.9c-1.3-2.7-2-5.5-2.7-8.4c-0.1-0.5-0.1-1,0.4-1.3c1.4-0.7,1.7-2.1,2.3-3.4c0.3-0.6,0.7-1.2,1.1-1.7
		c0.3-0.2,0.8-0.2,1.4-0.3c0.3-0.8,0.6-1.7,1-2.6c1.3-3.1,2.7-6.2,4-9.2c0.3-0.7,0.4-1.4,0.7-2.1c0.2-0.5,0.3-1.1,0.6-1.3
		c1.6-0.8,1.7-2.5,2.4-3.7c0.7-1.2,1.2-2.5,1.9-3.7c0.2-0.4,0.8-0.5,1.1-0.8c0.6-1.4,1.2-2.9,1.9-4.4c0.1-0.3,0.5-0.7,0.7-0.6
		c0.3,0.1,0.9,0.5,0.9,0.7c-0.1,1.2,0.8,2,1.1,3c0.4,1.5,1.1,2.9,1.6,4.4c0.1,0.3,0.4,0.6,0.7,1c0.6-0.7,1.1-1.4,1.7-2.1
		c0.5-0.6,0.9-1.1,1.5-1.7c0.8-0.7,1-0.6,2-0.1c0.8,0.4,1.6,0.6,2.5,0.8c1.1,0.2,2,0.9,2.9,1.4c0.3,0.2,0.6,0.4,0.9,0.6
		c1.2,0.8,1.4,1.5,0.8,2.8c-0.4,0.9-1,1.7-1.4,2.5c-0.1,0.2-0.2,0.4-0.4,0.7c1.5,0.2,2.8,0.2,4.2-0.1c0.9-0.2,1.9-0.4,2.8-0.5
		c1-0.1,1.5,0.4,1.9,1.5c-0.5,0.6-1,1.3-1.5,1.9c-0.1,0.1-0.3,0.3-0.3,0.4c-0.1,2-2.1,2.4-3,3.7c-0.1,0.1-0.3,0.1-0.2,0.1
		c-0.6,1.2-0.9,2.2-1.5,3.1c-1.8,2.6-3.6,5.3-5.7,7.6c-1.3,1.5-2.1,3.3-3.7,4.6c-0.4,0.3-0.5,1-0.7,1.5c-0.9,1.6-1.9,3.3-2.8,4.9
		c-0.4,0.8-0.7,1.5-0.6,2.5c0.1,0.8-0.2,1.7-0.5,2.5c-0.1,0.3-0.8,0.5-1.3,0.5c-2.6,0.2-5.1,0.4-7.7,0.5c-0.8,0-1.4,0.4-1.8,1
		c-0.5,0.8-1.2,1.5-1.8,2.3c-0.9,1.1-1.7,2.3-2.5,3.5c-1,1.5-2,3-3,4.6c0.4,0.4,0.8,1,1.3,1.5c2.4,2.7,4.9,5.4,7,8.4
		c1.2,1.8,2,3.7,3,5.6c0.2,0.4,0.2,0.9,0.3,1.3c0.1,0.5,0.2,1,0.4,1.5c1.4,2.2,1.2,4.7,1.7,7.1c0.3,1.4-0.1,2.9-0.6,4.2
		c-0.7,1.8-0.7,3.3,0.5,4.9c1,1.4,1.6,3,3,4.1c0.2,0.2,0.3,0.5,0.4,0.7c0.5,1.8,0.9,3.6,1.6,5.3c0.6,1.4,0.9,2.8,1.2,4.2
		c0.2,1.4,0.4,2.8,0.4,4.3c0.1,2,0.2,4.1,0.2,6.1c0,1.7-0.2,3.4-0.4,5.1c-0.2,1.6-0.5,3.1-0.7,4.7c0,0.2-0.1,0.5-0.1,0.7
		c0.1,0.5,0.4,1.1,0.4,1.6c-0.2,3.3-0.4,6.6-1.9,9.7c-1.4,3-2.7,6.1-4.1,9c-1.2,2.4-2.5,4.7-3.9,7c-2.3,3.9-4.2,8.1-5.4,12.5
		c-0.6,2.2-0.8,4.5-1.2,6.8c-0.1,0.5,0,1,0,1.5c0.1,2.3,0.1,4.6,0.3,6.9c0.1,1.1,0.3,2.2-0.1,3.2c-0.7,2.1-1.6,4-2.9,5.8
		c-1.1,1.4-2.6,2.1-4.3,2c-3-0.2-5.9-0.4-8.8-0.6c-4.5-0.3-9-1.1-13.4-1.8c-1.5-0.3-2.9-0.6-4.3-1c-1.1-0.3-2.1-0.8-3.1-1.2
		c-3.1-1.3-6-2.9-8.9-4.5c-1.2-0.7-2.6-0.9-3.9-1.4c-2.5-1-5-2.2-7.1-3.9c-0.2-0.1-0.4-0.2-0.7-0.4c-0.3,1.3-0.2,2.4,0,3.6
		c0.3,2.1,0.5,4.1,0.8,6.2c0.1,0.7,0.2,1.5,0.3,2.2c0.1,1.6,0.2,3.1,0.3,4.7c0.1,0.8,0.1,1.6,0.2,2.3c0,0.4,0.1,0.8,0.1,1.2
		c0,0.6-0.2,1-0.8,1.1c-0.6,0.1-1-0.1-1.2-0.7c-0.8-2.5-1.5-4.9-2.3-7.4c-0.5-1.4-0.9-2.9-1.1-4.4c-0.2-0.9-0.8-1.6-1.3-2.6
		c-1.6,2.3-0.5,4.7-0.8,6.9c-1.4,0.6-1.4,0.5-2-0.7c-0.5-1.2-1-2.4-0.9-3.7c0-0.4-0.2-0.9-0.4-1.3c-0.5-1.4-0.6-2.9,0-4.3
		c0.4-1,0.6-2,0.4-3.1c-0.2-1.2-0.1-2.5-0.3-3.7c-0.1-0.9-0.4-1.9-0.7-2.9c-0.4-0.2-0.9-0.5-1.6-0.8c-4.4,8.4-8.9,16.7-13.2,24.8
		c0.1,1,1.2,1.5,0.5,2.4c-0.5,0.7-1.1,0.2-1.9-0.2c0,0.7,0.1,1.1,0.1,1.6c-0.9,0.4-1.6,1.1-1.4,2.1c-0.5,0.7-1,1.2-1.4,1.8
		c0.3,0.4,0.5,0.7,0.6,1.1c0.1,0.2-0.1,0.6-0.2,0.7c-1.2,0.5-0.9,1.6-1.1,2.4c-0.2,0.6,0.5,1.1,1.2,1c1-0.2,1.7,0.3,2.4,0.7
		c1.1,0.7,2.2,1.5,3.3,2.2c0.6-0.4,1.1-1,1.9-0.4c0.6,0.5,0.8,1,0.4,1.7c-0.5,0.8-1.1,1.4-2.1,1.5c-0.8,0.1-1.2,0.6-1.6,1.2
		c-0.7,1-1.4,2-2.2,3c-0.9,1.2-2.1,2-3.6,2.3c-0.5,0.1-1,0.3-1.3,0.6c-1.6,2-3.9,3.2-6,4.6c-0.7,0.4-1.2,1-1.5,1.7
		c-0.6,1.4-1.6,2.4-3.3,2.6c-0.5,0.1-1.1,0.6-1.5,1c-0.5,0.5-0.8,1.1-1.2,1.7c-0.7,1.4-1.9,2.2-3.2,2.9c-2,1-4.4-0.4-4.4-2.6
		c0-0.3,0-0.7,0.1-1c0.5-2.6,0.9-5.3,0.8-7.9c0-0.3,0.1-0.6,0.2-1c0.3-0.9,0.1-1.7-0.2-2.5c-0.3-0.8-0.6-1.9-0.4-2.7
		c0.4-1.6-0.2-3.1-0.4-4.6c-0.1-0.7-0.3-1.4-0.2-2c0.4-2.3,0.9-4.5,1.3-6.8c0.1-0.6,0-1.3-0.2-1.9c-0.8-1.8-1-3.5,0-5.3
		c0.2-0.3,0.2-0.6,0.2-0.9c0.2-1,1.3-1.6,2.1-1c1.3,0.8,2.6,1.8,3.8,2.7c0.4,0.3,0.5,0.8,0.7,1.3c0.3,0.6,0.6,1.3,1,1.9
		c0.4,0.6,1.2,0.8,2,0.5c0.3-0.1,0.7-0.2,1.1-0.3c0.7-0.2,0.8-0.7,0.3-1.2c-0.2-0.2-0.6-0.4-0.7-0.6c-0.2-0.3-0.5-0.7-0.4-1.1
		c0-0.2,0.5-0.4,0.9-0.5c0.2-0.1,0.4,0,0.7,0.1c0.3-0.9,0.6-1.9,1-2.9c0.6-0.4,1.2,0.4,2,0.3c0.2-0.4,0.5-0.9,0.8-1.5
		c-0.4-0.3-0.7-0.5-1.1-0.8c0.1-1.5,0.1-1.5,2.1-1.4c0.2-0.4,0.5-0.9,0.7-1.3c-0.8-1.7-0.5-1.9,1-2.2c2.1-5,4.5-9.8,7.3-14.4
		c1.6-2.6,2.9-5.3,4.4-8c0.2-0.3,0.2-0.6,0.3-0.8c-0.8-0.8-1.5-1.5-2.2-2.3c-1.5-1.7-3.5-2.9-5.1-4.4c-0.8-0.7-1.6-1.5-2.4-2.3
		c-1.3-1.4-2.7-2.6-4.2-3.7c-0.6-0.5-1.2-1-1.6-1.7c-1.1-1.7-2.7-3-4.3-4.3c-0.2-0.2-0.6-0.3-0.8-0.6c-1.2-1.5-2.8-2.5-4.2-3.7
		c-0.5-0.5-0.9-1-1.4-1.6c-0.9-1.1-2-2-3.3-2.6c-1.7-0.9-3.4-1.8-5-3c-1.2-0.9-2.7-1.4-4-2.1c-1.3-0.8-2.5-1.7-3.7-2.6
		c-0.7-0.6-1.3-1.3-2-1.9c-1-0.9-1.8-1.8-2.2-3.1c-0.3-0.9-0.9-1.7-1.5-2.5c-0.3-0.4-0.8-0.6-1.2-0.8c-0.8-0.4-1.5-0.9-1.9-1.8
		c-0.3-0.6-0.7-1.2-1.2-1.7c-1.4-1.7-1.6-3.3-0.3-5.1c0.3-0.4,0.6-0.8,0.9-1.3c-0.1-0.6-0.4-1.1-0.4-1.6c0-0.9-0.6-1.4-1.3-1.8
		c-1-0.6-2.1-1.2-3.1-1.8c-0.2-0.1-0.5-0.2-0.7-0.5c-0.7-0.9-1.3-1.9-1.9-2.9c-0.2-0.3-0.3-0.7-0.2-0.9c0.4-1.1,0-2.1-0.1-3.1
		c-0.1-1,0-2.1,0.4-3.1c0.7-1.6,1.2-3.2,1.7-4.9c0.2-0.6,0.2-1.5,0-2c-0.8-1.6-0.1-3.2,1.1-4.2c1.3-1,2.6-2.1,4.3-2.4
		c0.4-0.1,0.8-0.2,1.2-0.4c1.3-0.5,1.9-1.5,1.7-2.8C114.9,98.3,114.6,96.9,114.3,95.4z M138.5,250.4c0.1-0.1,0.3-0.2,0.4-0.3
		c0.7-1.4,1.9-2.1,3.4-2.3c0.6-0.1,1.1-0.4,1.3-1.1c0.2-0.5,0.4-1,0.7-1.5c0.8-1.3,2.3-1.9,3.5-2.6c1.4-0.8,2.6-1.7,3.6-2.8
		c0.8-0.9,1.6-1.4,2.8-1.6c0.8-0.1,1.5-0.5,2-1.1c1.3-1.6,2.6-3.2,3.8-4.8c-0.8-0.5-1.5-0.9-2.1-1.5c-0.4-0.4-0.7-0.6-1.3-0.5
		c-0.3,0.1-0.8,0-1-0.2c-1.4-0.8-2.7-1.7-2.2-3.7c0.1-0.2,0-0.5,0-0.5c-1-0.8-1.9-1.6-2.9-2.2c-0.7-0.5-1.5-1-2.2-1.4
		c-0.6-0.3-1.1-0.4-1.5,0.3c-0.2,0.4-0.6,0.8-1,0.9c-1.2,0.2-2.4,0.9-3.8,0.4c0.2,0.9,0.4,1.7,0.5,2.5c1.2,0,2.5,0,3.7,0
		c0.5,0,1,0.3,0.9,0.9c0,0.3-0.4,0.7-0.6,1c-0.1,0.1-0.3,0.1-0.5,0.2c-1.5,0.5-1.6,0.8-1.4,2.4c1.6,0.5,1.6,0.5,1.4,1.5
		c-0.8,0.1-1.6,0.3-2.4,0.3c-0.6,0-1-0.3-1.1-0.9c0-0.5,0-0.9,0.1-1.4c0.2-0.6-0.1-1.1-0.4-2c-0.7,1.1-1.5,2-1.8,3
		c-0.4,1.4-0.8,2.9-0.5,4.5c0.2,1,0.1,2.1,0,3.1c0,0.4-0.1,0.9-0.3,1.2c-0.2,0.3-0.6,0.7-0.9,0.7c-0.3-0.1-0.6-0.5-0.7-0.9
		c-0.2-0.6-0.1-1.2-0.3-1.8c-0.3-1.1-0.3-2.1,0-3.3c0.1-0.5,0.1-1.2-0.2-1.5c-0.5-0.7-0.6-1.3-0.6-2.1c0-1,0.1-2-0.3-2.8
		c-0.4-0.8-0.7-1.5-0.4-2.5c-0.3,0.4-0.5,0.8-0.6,1.3c-0.1,0.6-0.2,1.3-0.3,1.9c-0.4,2-0.6,4.1,0.1,6.1c0.3,0.8,0.3,1.6,0.1,2.5
		c-0.2,0.9-0.2,1.8,0.3,2.7c0.5,1.1,0.5,2.2,0.3,3.4c-0.1,0.9-0.3,1.7-0.3,2.6c0,1.3,0,2.6-0.4,3.8c-0.2,0.6-0.3,1.4-0.3,2
		c0,0.5,0.1,0.9,0.1,1.5C137.1,253.3,137.8,251.8,138.5,250.4L138.5,250.4z M145.8,154.6c0.1-0.9,0.3-1.8,1.4-2.1
		c0.3-0.1,0.5-0.5,0.8-0.7c0.2-0.3,0.3-0.7,0.6-0.9c0.2-0.2,0.6-0.3,0.8-0.2c0.4,0.1,0.5,0.5,0.3,0.9c-0.2,0.4-0.5,0.9-0.7,1.3
		c0.4,0.4,0.7,0.8,1,1.2c1.3-0.9,2.5-1.8,3.9-2.8c-0.4-0.2-0.7-0.4-1-0.6c-0.6-0.5-1.3-0.9-1.8-1.4c-0.7-0.9-1.4-1.8-2-2.8
		c-0.9-1.5-1.7-3.1-2.6-4.7c-0.2-0.4-0.2-0.9-0.2-1.3c0.1-1.4,0.3-2.8,0.4-4.3c0.1-1.1,0.3-2.2,0.6-3.3c1-3,1.1-6.1,0.9-9.2
		c-0.1-0.8-0.3-1.5-0.5-2.6c-0.5,1.2-0.7,2.3-2.2,2.1c1.3,1.7,1.6,3.3,0.2,4.8c0.1,0.6,1,1.1,0.2,1.7c-0.5,0.3-1,0.1-1.4-0.3
		c-0.4-0.4-0.3-0.9,0.3-1.6c-0.1-0.3-0.2-0.5-0.3-0.8c-0.3-0.4-0.8-0.8-0.9-1.2c-0.2-0.5,0.1-1.2,0-1.7c-0.4-1.7-0.2-2.2,1.4-2.9
		c0.6-0.3,0.6-0.6,0.3-1.1c-0.8,0.2-1.7,0.3-2.4,0.5c-0.5,0.2-1.1,0.6-1.1,1.1c-0.3,1.5-0.4,3.1,0.4,4.6c1.2,2.3,1.2,4.6,0.3,6.9
		c-0.3,0.9-0.7,1.7-0.4,2.7c0.1,0.2,0.1,0.4,0,0.5c-0.9,0.8-0.2,1.5,0.2,2.2c0.3,0.6,0.6,1.1,0.8,1.8c0.3,1.4,0.5,2.8,0.7,4.2
		c0.1,0.9,0.1,1.8,0.4,2.6c0.6,2.2,0.6,4.5,1.7,6.5C145.8,153.8,145.8,154.2,145.8,154.6c0.6,2.3,1.1,4.5,1.7,6.8
		c0.2,0.7,0.3,1.4,0.6,2c1,1.8,2,3.6,3.1,5.4c1.6,2.6,3.2,5.1,6.3,6.2c-0.2,1,0.4,1.5,1,2.1c1.3,1.2,2.6,2.4,3.8,3.6
		c0.9,0.8,1.6,1.7,2.5,2.7c0.4-0.7,0.7-1.3,1-1.9c1.4-2.4,2.9-4.8,4.3-7.2c0.7-1.2,1.2-2.4,1-3.8c-0.1-0.5-0.2-0.9-0.3-1.4
		c-0.1-0.5-0.3-1,0.2-1.4c0.1-0.1,0.2-0.3,0.2-0.5c-0.2-1.2,0.3-2.2,0.7-3.2c0.3-0.8,0.3-1.6,0-2.4c-0.2-0.4-0.3-0.8-0.2-1.2
		c0.5-1.8,1.1-3.5,1.7-5.2c0.7-2,1.4-4.1,2.2-6.1c1.1-2.6,1.6-5.4,2.2-8.1c0.1-0.4,0.3-1,0.1-1.3c-0.4-0.6-0.1-1.1,0-1.7
		c0.1-0.5,0.2-1,0.3-1.5c0.3-2.7,0.1-5.3-0.4-8c0-0.1-0.1-0.1-0.2-0.2c-0.2,0.2-0.3,0.5-0.5,0.8c-0.6-0.7-0.5-1.3-0.2-1.9
		c0.2-0.4,0.2-0.7,0.1-1.2c-0.3-1.4-0.9-2.6-1.8-3.7c-0.5-0.5-0.3-1,0.1-1.5c0.5-0.4,1-0.2,1.4,0.1c0.2,0.2,0.5,0.4,0.6,0.7
		c0.7,1.2,1.3,2.3,1.9,3.5c0.2,0.5,0.4,1,0.5,1.6c0.4,2,0.5,4.1,1.1,6.1c0.5,1.8,0.7,3.7,0.9,5.6c0.2,1.4,0.1,2.9,0.1,4.3
		c0.1,2.4,0.3,4.8,0.1,7.2c-0.1,2.2,0.2,4.3,0.8,6.4c0.6,2.2,1.2,4.3,1.8,6.6c0.9,0.6,1.3,1.2,1.5,2.2c0.5,2.4,0.1,4.9-0.1,7.3
		c-0.1,2.3-1,4.4-1.7,6.5c-0.6,1.9-0.8,3.8-0.5,5.7c0.5,2.8,0.5,5.5-0.1,8.3c-0.1,0.4,0,0.9-0.1,1.4c-0.1,0.6,0.2,1,0.6,1.3
		c0.7,0.5,1.4,1,2.2,1.5c2.5,1.6,5.1,3.2,8,4c0.8,0.2,1.7,0.5,2.5,0.9c2.3,1.1,4.6,2.3,6.9,3.5c3.3,1.9,6.9,2.8,10.6,3.4
		c3.1,0.6,6.3,0.8,9.5,1.2c2.5,0.3,4.9,0.7,7.4,0.2c1.1-0.2,2.2-0.3,3.1-0.9c1.4-1,2.4-2.4,2.5-4.2c0-0.4,0.2-0.7,0.2-1.1
		c0.4-2.1,0.9-4.1,0.6-6.3c-0.4-3-0.5-6.1,0.2-9.1c0.4-1.9,1.1-3.8,1.8-5.7c0.3-1,0.8-1.9,1.3-2.9c0.7-1.3,1.5-2.6,2.3-3.8
		c-0.1-0.1-0.1-0.1-0.2-0.2c-0.5,0.3-1,0.6-1.5,1c-0.4-0.9-0.3-1.6,0.2-2.2c0.7-0.7,1.5-0.9,2.6-0.4c0.5-1,1.1-1.9,1.6-2.9
		c1.1-2.3,2.8-4.1,3.6-6.5c0.1-0.3,0.3-0.5,0.5-0.8c0.3-0.4,0.5-0.9,0.7-1.3c0.3-0.6,0.6-1.3,0.9-1.9c1.3-2.5,2.7-4.9,3.4-7.7
		c0.5-2,0.7-4,0.3-6c-0.1-0.6,0-1.2,0.1-1.8c0.2-1.4,0.9-2.7,0.9-4.1c0-2.3,0.2-4.7,0.2-7c0-0.4-0.2-0.8-0.3-1.2
		c-0.2-1-0.6-2.1-0.6-3.1c0.1-3-0.3-6-1.2-8.9c-0.7-2.3-1.7-4.5-3.4-6.2c-0.7-0.8-1.9-1.3-1.6-2.7c0,0,0-0.1-0.1-0.1
		c-1.2-1.8-1.9-4-3.3-5.7c-0.5-0.6-1-0.8-1.8-0.8c-0.8,0-1.7-0.2-2.4-0.5c-0.9-0.4-1.7-1.1-2.5-1.7c-0.8-0.6-1.5-1-2.5-0.7
		c0.2,1.7,0.4,3.4,0.5,5.1c0,0.3-0.3,0.6-0.4,0.9c-0.2-0.2-0.7-0.4-0.7-0.7c-0.2-1-0.3-2.1-0.4-3.2c-0.1-0.8,0-1.5,0-2.3
		c-1.8-0.6-3.6-1.4-5.1-2.6c-0.4-0.3-0.8-0.7-1.5-0.7c-0.5,0-0.8-0.4-0.5-0.8c0.3-0.5,0.2-1-0.1-1.4c-0.6-1.2-0.3-2.4,0.2-3.6
		c0.3-0.8,0.6-1.6,0.8-2.5c0.6-2.4,0.6-4.9,0.4-7.3c-0.3-3.8-0.8-7.5-1.9-11.1c-0.3-1-0.4-2-0.7-3c-0.1-0.5-0.4-1.1-0.8-1.3
		c-0.3-0.2-0.9,0-1-0.5c-0.1-0.4,0.2-0.8,0.3-1.4c-0.1-0.1-0.3-0.4-0.5-0.7c-0.3,0.2-0.6,0.4-1.1,0.7c-0.3-0.5-0.7-0.9-0.7-1.3
		c0-0.3,0.6-0.5,1-0.8c-1.6-1.9-3.2-3.8-4.6-5.4c-2.5,0.4-4.8,0.5-6.9,1.3c-0.3,0.1-0.7,0-1,0c-0.2-0.7,0.1-0.9,0.6-1.1
		c1.9-0.6,3.6-1.4,5.7-1.7c-1.5-1.1-3-2.2-4.6-3.3c-0.3,0.7-0.6,1.1-1.3,1c-0.6,0-1.2,0.1-1.8,0.1c-0.5,0.1-1.1,0.1-1.4-0.5
		c0.2-0.1,0.3-0.3,0.4-0.3c1-0.3,0.9-0.3,0.8-1.4c-0.1-0.9-0.2-1.9,0-2.7c0.6-2,1.3-3.9,2-5.9c-0.9-0.5-1.9-1.1-2.8-1.6
		c-0.6,1.2-1.1,2.5-1.8,3.6c-0.7,1.1-1.5,2.1-2.9,2.2c0.5,1.1,0.5,1.1-0.3,1.7c-0.5,0.3-0.9,0.6-1.4,0.8c-1.3,0.8-2.8,1.1-3.9,2.3
		c-0.3,0.3-0.8,0.9-1.3,0.3c-0.4-0.5,0.2-0.9,0.4-1.3c0.1-0.2,0.5-0.3,0.7-0.4c1.2-0.7,2.4-1.5,3.9-2.4c-2.7,0.3-4.8,1-6.7,2.5
		c-0.7,0.5-1.5,1-2.2,1.4c-1.5,0.9-3.1,1.8-3.5,3.8c0,0.3-0.3,0.5-0.4,0.7c-0.7,1.4-0.8,2.5-0.4,3.9c0.2-0.5,0.4-0.9,0.6-1.3
		c0.7-2.2,2.1-3.8,3.9-5c0.9-0.6,0.9-0.6,1.8,0.3c-0.2,0.9-0.9,1.6-1.5,2.2c-1.6,1.5-1.7,3.6-2.4,5.6c1.1-0.8,1.7-2.2,3.2-2.3
		c0.9,0.5,0.7,0.9,0.1,1.7c-1.2,1.5-2,3.3-2.7,5.4c0.9-0.8,1.6-1.4,2.4-2.1c0.7-0.6,1.2-1.6,2.4-1.8c0.5,0.9,0.2,1.7-0.3,2.4
		c-0.5,0.7-1.1,1.3-1.7,1.9c-1.1,1.1-1.6,2.4-2.3,3.9c1.1-0.7,2.2-1.1,2.9-2c0-0.1,0.2-0.1,0.2-0.1c0.3,0,0.6,0.1,0.9,0.2
		c-0.1,0.3-0.1,0.6-0.2,0.8c-0.8,1-1.6,2-2.4,3c-0.1,0.2-0.1,0.5-0.2,0.8c1.4,0.5,1.4,0.6,0.6,1.8c-0.2,0.3-0.5,0.7-0.7,1
		c-0.3,0.5-0.5,1.1-0.3,1.8c1.7-1.2,1.9-1.3,2.2,0.4c0.1,0.1,0.2,0.1,0.3,0.2c1.1,0.3,1.2,0.5,0.5,1.4c-0.4,0.5-0.4,1-0.2,1.6
		c1.9-1,3.4-2.4,5-3.7c0.6,0.3,0.6,0.7,0.3,1.1c-0.3,0.3-0.6,0.6-0.9,0.9c-1.1,0.9-2.2,1.7-3.2,2.5c0.2,0.5,0.4,1,0.5,1.5
		c1.5-1,2.9-1.9,4.4-2.9c2.3-1.4,3.9-2.1,4.8-2.1c-0.1,0.7-0.1,0.7-0.8,1c-2.7,1.4-5.2,3.1-7.7,4.9c-1,0.7-1.4,1.6-1.4,2.8
		c0,0.4-0.1,0.7-0.1,1.1c0,0.2,0.2,0.4,0.4,0.7c0.5-1.2,0-2.4,0.9-3.1c2.5-0.8,4.1-3,6.4-4c0.5,0.7,0,1-0.4,1.3
		c-1.2,0.9-2.3,1.9-3.5,2.7c-1.7,1-1.7,2.5-1.9,4.1c0.3-0.1,0.6-0.1,0.8-0.1c0.6-0.1,1.1,0.2,1.1,0.8c0,0.8,0.4,1,0.9,1.2
		c2.1,0.8,4.2,1.8,6.3,2.4c1.5,0.4,3.2,0.5,4.8,0.6c0.2,0,0.5-0.1,0.7-0.2c1.2-0.8,2.5-0.7,3.7-0.6c1.9,0.1,3.4,1.9,3.4,3.8
		c0,1.1,0,2.3,0,3.6c0.3,0.2,0.8,0.5,1.4,0.9c0.1-0.7,0.1-1.2,0.2-1.8c0.1-0.7,0.1-1.5,0.3-2.2c0.1-0.3,0.4-0.6,0.6-0.6
		c0.2,0,0.6,0.2,0.8,0.4c0.2,0.2,0.3,0.6,0.3,0.9c-0.2,1.8-0.4,3.7-0.6,5.5c-0.1,0.4-0.2,0.8-0.7,0.9c-0.4,0-0.9-0.5-0.9-1
		c0-0.4,0-0.8,0.1-1.2c-0.6-0.1-1.1-0.2-1.8-0.2c-0.1,0.8-0.2,1.6-0.4,2.4c-0.1,0.4-0.2,0.8-0.2,1.2c-0.1,0.6-0.3,1.3-0.2,1.9
		c0.1,1.9,0.5,3.6,1.4,5.3c0.8,1.5,1.6,3,2.2,4.6c0.6,1.6,1.5,3,2.7,4.1c2,1.8,3.1,4.2,4.3,6.5c0.7,1.5,1.1,3.1,2.2,4.4
		c0.7,0.9,1.3,1.8,1.8,2.8c1.4,2.7,3.5,4.8,6.1,6.3c2.8,1.7,4.6,4.2,6.3,6.9c0.4,0.6,0.8,1.2,1.2,1.8c0.1,0.2,0.3,0.7,0.2,0.8
		c-0.2,0.2-0.6,0.4-0.9,0.3c-1-0.2-1.6-0.9-2.1-1.7c-1.7-3.4-4.4-6-7.8-7.8c0,0.2-0.1,0.3-0.1,0.5c0.6,3.4,0.7,6.9-0.2,10.3
		c-0.2,0.7-0.4,1.3-0.4,2c-0.2,3.3-1.1,6.5-1.7,9.8c-0.4,2.2-0.9,4.3-0.1,6.5c0.2,0.4,0.2,0.9,0.1,1.4c-0.1,0.3-0.4,0.7-0.7,0.7
		c-0.3,0.1-0.7-0.2-0.9-0.4c-0.2-0.3-0.3-0.7-0.3-1c-0.3-1.2-0.6-2.5-0.8-3.7c-0.1,0-0.2,0-0.3,0c0.1,0.7,0.1,1.4,0.2,2.1
		c0.1,1.4,0.1,2.9,0.1,4.3c0,0.3-0.4,0.6-0.6,0.8c-0.3-0.2-0.7-0.4-0.8-0.6c-0.3-0.8-0.5-1.7-0.6-2.5c-0.1-1-0.1-1.9-0.2-2.9
		c-0.2-1.8,0-3.5,0.4-5.2c0.3-1.2,0.7-2.5,0.9-3.8c0.4-3.1,0.6-6.2,0.9-9.4c0.1-0.8,0.2-1.6,0.2-2.3c-0.2-1.9-0.4-3.9-0.7-5.8
		c-0.4-2.2-0.6-4.5-2.4-6.1c-0.1-0.1-0.1-0.2-0.1-0.4c-0.2-0.5-0.3-1-0.6-1.5c-0.9-1.5-1.9-3.1-2.9-4.5c-0.4-0.6-1-1.2-1.5-1.8
		c-0.6,0.6-1,1-1.4,1.5c-2,2.7-3.3,5.6-3.5,9c-0.2,2.8-0.2,5.5,0.2,8.3c0.1,0.7,0.2,1.4,0.3,2.1c0.1,0.7-0.5,1.2-1.1,0.8
		c-0.3-0.2-0.6-0.5-0.8-0.9c-0.2-0.5-0.2-1-0.3-1.5c-0.5-2.9-0.7-5.8-0.6-8.7c0-1,0.1-2-0.6-3.1c-0.4,1.9-0.7,3.5-1,5.1
		c-0.3,1.7,0.2,3.4,0.6,5c-1.1,0.5-1.3,0.5-1.8-0.3c-1.1-1.9-1.2-3.9-0.9-6c0.1-1,0.3-2,0.4-3.1c-0.6,0.4-1.1,0.9-1.5,1.4
		c-0.5,0.5-1.1,0.6-1.6,0.2c-0.5-0.4-0.6-0.9-0.2-1.6c0.1-0.2,0.3-0.5,0.5-0.7c1.3-1.3,2.4-2.8,3.9-3.9c0.8-0.6,1.5-1.1,2.6-0.5
		c1.1-2.5,3.4-3.8,5-5.8c0.5-0.6,1.9-0.4,2.4,0.2c0.8,1,1.6,1.9,2.2,3c1.3,2,2.7,4.1,3.9,6.2c0.9,1.6,1.7,3.4,2.3,5.2
		c0.6,1.9,0.7,3.9,1,5.8c0.2,1.3,0.3,2.6,0.3,3.9c-0.1,1.7-0.3,3.3-0.5,5c-0.2,1.7-0.4,3.4-0.7,5.1c0.5-1.6,0.8-3.1,1-4.7
		c0.2-1,0.3-1.9,0.5-2.9c0.2-1.7,0.6-3.4,0.6-5.1c0.1-1.3-0.1-2.7-0.3-4c-0.1-1-0.2-2,0.8-2.6c-0.8-1-1.6-1.9-2.2-2.8
		c-1.3-1.9-2.5-3.9-3.7-5.8c-0.4-0.7-0.8-1.4-1.2-2.1c-0.8-1.5-1.4-3.1-2.3-4.6c-0.4-0.8-1.1-1.5-1.7-2.1c-1.5-1.6-2.8-3.4-3.7-5.5
		c-0.6-1.3-1.1-2.6-1.8-3.9c-0.9-1.7-1.4-3.5-1.7-5.4c-0.2-1.2-0.1-2.4,0.2-3.7c0.5-2.2,0.7-4.5,1-6.7c0.1-0.5,0-1-0.1-1.5
		c0-0.2-0.4-0.3-0.6-0.5c-0.2,1.1-0.4,1.9-0.4,2.8c0.1,2.4,0,4.8-1.2,7c-0.3,0.6-0.5,1.2,0.3,1.6c-0.2,0.5-0.6,1-0.6,1.4
		c0,1.9,0.2,3.9,1.5,5.5c0.5,0.6,0.7,1.2,0.9,2c0.3,1,0.7,2,1.3,2.9c0.9,1.2,1.5,2.5,1.8,4c0.1,0.3,0.2,0.7,0,0.9
		c-0.5,0.8-1,1.7-1.8,2.4c-0.9,0.8-2,1.4-2.9,2.1c-2,1.5-4,3-5.3,5.3c-0.2,0-0.5,0-0.8,0c-0.6,0-1.1-0.2-1.1-0.8
		c-0.1-0.4,0-1,0.3-1.2c1.5-1.8,3.1-3.5,5.1-4.8c1-0.7,2-1.4,3.1-2.1c0.5-0.4,0.8-0.8,1-1.4c0.2-1,0.1-1.8-0.4-2.8
		c-1.3-2.4-3.3-4.4-3.8-7.2c0-0.2-0.2-0.4-0.3-0.6c-0.1-0.2-0.3-0.5-0.3-0.8c-0.3-2.6-0.6-5.2-0.4-7.9c0.2-1.8,0.1-3.6,0-5.4
		c-0.1-1-0.4-2-0.6-2.9c-0.7-0.1-1.3-0.2-1.8-0.3c-1.1-0.2-2.3-0.2-3.4-0.5c-2.3-0.7-4.6-1.3-6.7-2.5c-1.7-1-3.4-2-5.1-3.1
		c-1.1-0.7-2.2-0.6-3.3-0.6c-0.4,0-0.8,0.4-0.6,0.7c0.5,0.7,0,1.1-0.4,1.8c0.6-0.1,0.9-0.2,1.3-0.2c1-0.2,1.9-0.4,2.9-0.5
		c0.5-0.1,1.1,0.2,1.1,0.8c0,0.3-0.5,0.6-0.8,0.7c-0.7,0.3-1.4,0.5-2,0.8c0.3,0.5,0.6,0.7,1,0.4c1.3-0.9,2.9-0.3,4.3-0.6
		c0.2-0.1,0.7,0.3,0.8,0.6c0.1,0.2-0.2,0.7-0.5,0.8c-0.6,0.2-1.2,0.3-1.9,0.4c-0.3,0.1-0.7,0-1.3,0c0.3,0.5,0.5,0.8,0.7,1.1
		c1-0.4,2-0.7,2.9-1c0.5-0.2,1.1-0.3,1.6-0.4c0.6-0.1,1.1,0.1,1.4,0.8c-0.3,0.2-0.5,0.5-0.8,0.6c-1.1,0.5-2.3,1-3.5,1.4
		c-0.7,0.2-0.4,0.5-0.2,1c1.7-0.8,3.3-1.6,4.9-2.4c0.3,0.3,0.6,0.6,0.9,0.9c0.6-0.4,1.1-0.8,1.6-1.2c1.6,0.7,0.2,1.6,0.1,2.6
		c0.6-0.3,1-0.6,1.4-0.8c0.2-0.1,0.6-0.3,0.7-0.2c0.5,0.4,0.9,0.2,1.4,0c0.4-0.2,0.8-0.3,1,0.1c0.1,0.3,0.1,0.9-0.1,1.1
		c-0.3,0.4-0.9,0.6-1.4,0.9c-0.3,0.2-0.8,0.2-1,0.4c-0.6,0.6-1.2,0.6-1.9,0.3c-0.7-0.4-1.2-0.2-1.8,0.2c-0.3,0.2-0.6,0.4-0.9,0.4
		c-0.8,0.2-1.2-0.3-0.8-1c0.4-0.6,0-0.9-0.2-1.4c-1.2,0.6-2.4,1.2-3.5,1.8c-0.8,0.4-1.2,0.1-1.2-0.8c0-0.2,0.1-0.3,0.2-0.5
		c-1.9-0.8-3.7-0.1-5.4,0.5c-1.1,0.4-1.7,0-1.8-1.3c1.5-0.5,3.1-1.1,4.6-1.6c-0.5-0.8-1.1-0.6-1.7-0.5c-2,0.5-3.9,1.1-5.9,1.6
		c-0.4,0.1-0.8,0.3-1.2,0.2c-0.5-0.1-1-0.4-1.4-0.7c-0.2-0.2-0.2-0.7-0.2-1.1c0.7,0,1.2,0.1,1.7,0c0.5-0.1,1-0.4,1.5-0.7
		c-0.9-0.1-1.7-0.3-2.5-0.1c-1.3,0.3-2.6,0.7-3.8,1.3c-2.5,1-4.9,2.1-7.3,3.2c-0.3,0.1-0.7,0.3-1,0.4c-0.7,0.2-1.4,0-1.9-0.8
		c0.5-1.4,2.1-1.1,3.2-2.1c-0.7,0.1-1.1,0.1-1.6,0.2c-0.7,0-1.4,0.1-2.1,0.1c-0.6,0-1.2-0.1-1.4-0.9c-0.1-0.4-0.6-0.6-1-0.9
		c-0.3,0.4-0.6,0.7-0.8,1c-0.3,0.4-0.5,0.8-1.1,0.5c-0.6-0.3-0.5-0.9-0.2-1.3c0.2-0.3,0.6-0.5,0.9-0.8c0.1-0.1,0.3-0.3,0.4-0.4
		c-0.3-0.1-0.5-0.1-0.7,0c-1.1,0.9-2.2,1.8-3.4,2.6c-0.3,0.3-0.7,0.6-1.1,0.3c-0.4-0.4-0.2-0.7,0.1-1.1c0.7-0.8,1.4-1.6,2.2-2.4
		c-0.7-0.5-1.4-0.5-2.2-0.2c-1.2,0.6-2.4,1.2-3.5,1.9c-0.4,0.2-0.8,0.7-1.2,0.1c-0.4-0.5,0.1-0.9,0.5-1.1c1-0.7,2-1.3,3-1.9
		c0.1,0,0.1-0.1,0.2-0.2c-0.2-0.2-0.4-0.5-0.6-0.7c-0.4,0.2-0.8,0.4-1.2,0.4c-1.5,0-2.7,0.8-3.9,1.6c-0.3,0.2-0.8,0.3-1.2,0.4
		c-0.1-0.1-0.2-0.2-0.2-0.3c0.2-0.5,0.4-1,0.7-1.5c0.3-0.1,0.6-0.3,0.9-0.4c-0.1-0.1-0.1-0.2-0.2-0.3c-0.2,0.2-0.4,0.5-0.6,0.7
		c-0.7,0.4-1.4,0.9-2.3,1.4c-0.2-0.5-0.3-0.9-0.4-1.1c-0.5-0.2-1-0.4-1.4-0.5c-0.2-0.1-0.4-0.3-0.6-0.3c-1.3-0.2-2.5-0.4-3.8-0.6
		c-0.7-0.1-1.4,0-1.9,0.5c-0.6,0.6-1.1,1.3-1.2,2.2c0.5,0.3,1.4-0.2,1.6,0.7c-0.1,0.1-0.1,0.2-0.2,0.2c-1.2,0.3-2.5,0.1-3.5,0.9
		c-0.2,0.1-0.9-0.1-1-0.4c-0.2-0.3-0.1-0.8,0.1-1.1c0.4-0.8,0.9-1.6,1.4-2.4c0.6-0.8,1.2-1.6,1.9-2.4c0.2-0.2,0.4-0.3,0.6-0.5
		c-1-0.6-1.5,0.3-2,0.4c-0.8-0.3-1.5-0.5-2.1-0.7c-0.3-0.1-0.6-0.1-0.8-0.3c-0.2-0.2-0.3-0.5-0.4-0.8c0.2-0.1,0.5-0.3,0.7-0.3
		c0.7,0,1.5,0,2.2,0c1.7,0.1,3.1-0.7,4.9-1.2c-1.4-0.6-2.5-0.7-3.7-0.5c-1.2,0.2-1.6-0.3-1.3-1.5c0.1-0.5,0.3-0.9,0.5-1.5
		c-0.4,0-0.7,0-1,0.1c-0.6,0.2-0.9,0-1-0.6c-0.1-0.5,0.1-0.9,0.7-1c0.3-0.1,0.6-0.1,1-0.2c-0.9-1.1-1.9-1.4-3.1-1.4
		c-0.4,0-0.9-0.1-1.3-0.3c-0.4-0.2-0.4-0.8,0-1c0.3-0.2,0.6-0.3,0.9-0.2c0.9,0,1.8,0.2,2.8,0.2c-0.3-0.5-0.5-0.9-0.7-1.3
		c-2.1,0.2-4.1,0.3-6.1,0.6c-0.8,0.1-1.5,0.1-1.9-0.7c-0.6,0.4-0.9,1.1-1.8,0.8c-0.1-0.4-0.3-0.8-0.5-1.3c-0.4,0.7-0.7,1.2-1,1.6
		c0.2,0.4,0.4,0.8,0.6,1.2c-0.9,0.7-3.1,2-4.1,2.1c-1.3,0.1-2,0.9-2.3,2c-0.4,1.1-1.2,1.9-1.7,3c-0.5,1.2-1.7,2.2-2.5,3.3
		c-0.6,0.9-1.3,1.4-2.5,1.3c-1.1-0.1-1.3,0.2-1.7,1.2c-0.5,1.1-0.3,2.1-0.1,3.1c0.1,0.9,0.5,1.9-0.2,2.8c-0.1,0.1,0.1,0.4,0.1,0.6
		c2.2-1.1,4.1-1.5,5.4-1c-0.7,1.5-2.3,1.4-3.4,2c-0.8,0.4-1.5,0.1-2.1-0.5c-0.9,1.1-0.9,1.1-2.1,1.6c-1.7,0.7-3.5,1.1-4.9,2.4
		c-0.7,0.7-1.2,1.4-0.9,2.5c0.6,2.2,0.2,4.3-1.1,6.2c-0.7,1.1-1.1,2.2-0.9,3.5c0.2,1.2,0.2,2.5,0.3,3.7c0,0.3,0.2,0.5,0.3,0.8
		c1,1.5,2.4,2.5,4.2,3l-0.1,0c0.3,0.3,0.6,0.7,0.9,1c0.5,0.4,1,0.8,1.7,1.3c1.3-0.2,2.8-0.5,4.3-0.7c1.5-0.2,2.8-1.1,4.2-1.7
		c1.3-0.6,1.7-0.5,2.6,0.8c-0.6,0.6-1.2,1.3-2.1,1.6c-0.7,0.2-1.5,0.5-2.1,1c-1,0.7-2.1,1.1-3.4,0.9c-0.7-0.1-1.2,0.2-1.3,1
		c-0.2,1-0.4,1.9-0.5,2.9c-0.1,2.2-0.2,4.4,1.8,6c0.1,0.1,0.1,0.2,0.2,0.2c0.9,0.8,1.7,1.5,2.5,2.3c0.9-0.8,1.4-1,2.1-0.9
		c0.3,0.1,0.8,0.4,0.9,0.7c0.2,0.5-0.3,0.7-0.7,0.9c-0.4,0.1-0.7,0.2-1.3,0.4c2.2,3.4,5.4,5,9.1,6.3c-0.2-0.6-0.4-0.9-0.5-1.3
		c-0.1-0.6,0.4-1.2,1-1.3c0.8,0,0.7,0.5,0.6,1.1c0,0.1,0.1,0.2,0.2,0.4c0.9-0.7,1.8-1.3,2.7-2c0.6,0.4,0.6,0.8,0.3,1.2
		c-0.3,0.4-0.6,0.8-1,1.2c-0.5,0.5-1.1,0.9-1.6,1.3c0.1,0.1,0.1,0.2,0.2,0.2c2.2-1.3,4.4-2.6,6.6-3.9c-0.1-0.4-0.1-0.8-0.1-1.2
		c-0.1-1.3-0.5-2.7-0.4-4c0.1-1.7-0.1-3.4-0.5-5c-0.4-1.7-0.6-3.4-0.1-5.1c0.2-0.5,0.4-1.1,0.4-1.6c0.1-1.6,0.3-3.2-0.5-4.9
		c-1-1.9-0.6-4,0.4-5.7c1-1.7,2.9-2.2,4.7-2.7c0.1,0,0.3,0,0.4,0c2,0.4,2,0.4,2.8-1.3c0.4,0.1,0.8,0.1,1.3,0.2
		c-0.5-3.3,2.5-5.6,5.6-4.6c0.7-0.4,1.4-0.9,2.1-1.1c1-0.3,2.1-0.5,3.1-0.7c1.2-0.3,2.5-0.6,3.1-1.6c0.6-0.9,1.5-1.3,2.2-2
		c0.8-0.8,1.8-1.2,2.9-1c1.5,0.2,2.5-0.5,3.3-1.7c0.3-0.4,0.8-0.8,1.2-1.1c0.3-0.2,0.8-0.2,1,0c0.2,0.3,0.3,0.8,0.2,1.1
		c-0.6,1.8-2.3,4-4.7,3.9c-0.5,0.4-0.9,0.8-1.3,1.1c-0.8,0.5-1.6,0.8-1.6,2c0,0.7-0.7,1.2-1.3,1.1c-0.7,0-0.9,0.3-1.1,0.7
		c1.4,0.8,2.7,1.4,4.3,0.7c0.2-0.1,0.5,0,0.8,0c1.7-0.1,3.3-0.1,4.9-1c1.5-0.8,3.4-1,5.1-0.6c2.2,0.6,4.3,1.4,6.4,2.1
		c0.6,0.2,1.2,0.5,1.4,1.2c-1.4,0.7-1.4,0.8-2.7,0.4c-1.2-0.3-2.4-0.6-3.7-1c0.6,0.6,1.2,1,1.6,1.5c0.3,0.3,0.7,0.7,0.3,1.2
		c-0.3,0.5-0.8,0.3-1.2,0.1c-0.6-0.3-1.2-0.5-1.7-0.9c-0.8-0.6-2-1-1.9-2.6c-0.9,0.2-1.6,0.2-2.3,0.6c-1.5,0.9-3.1,1.3-4.8,1.7
		c-2.7,0.7-5.5,0.8-8.2-0.1c-1-0.4-2.1-0.8-3.1-1.3c-0.5-0.2-1-0.5-1.6-0.2c-0.3,0.7-0.7,1.4-0.9,1.9c0.3,0.3,0.7,0.6,0.8,0.9
		c0,0.3-0.3,0.7-0.5,0.8c-0.5,0.3-1.1,0.6-1.6,0.8c-0.4,0.2-0.8,0.5-0.6,1.1c1.7-0.9,3.3-1.7,5-2.6c0.3-0.2,0.7-0.4,1-0.4
		c0.2,0,0.6,0.1,0.7,0.3c0.1,0.2,0.1,0.6,0,0.7c-0.2,0.3-0.6,0.5-0.9,0.7c-1.8,1.1-3.6,2.1-5.4,3.2c0,0.3,0,0.4,0,0.6
		c0.2,2.3,0.2,2.2,2.5,2.8c2.2,0.5,4.5,1.1,6.7,1.7c0.3,0.1,0.7,0.1,1.1,0.1c1.8,0.1,3.6,0,5.3-0.4c0.1,0,0.2,0.1,0.4,0.1
		c0.1,0.4,0.2,0.8,0.4,1.2c0.3-0.1,0.5-0.2,0.8-0.3c0.2,0,0.5,0,0.7,0.1c0.1,0.1,0.1,0.4,0,0.6c-0.3,0.7-0.6,1.5-1.4,1.8
		c-1.9,0.6-3.8,1-5.8,0.7c-2.7-0.4-5.1-1.5-7.6-2.5c-1.5-0.6-3.1-0.9-4.8-1.3c0.1,1.6,0.1,2.9,0.3,4.2c0.2,2.5,1.3,4.5,3,6.2
		c0.9,0.9,1.8,1.7,2.8,2.4c2.4,1.6,4.4,3.7,6.1,6c1.3,1.8,2.3,3.7,3,5.9c0.1,0.3,0.2,0.8,0.1,1.1c-0.1,0.3-0.4,0.7-0.7,0.8
		c-0.2,0.1-0.6-0.2-0.8-0.5c-0.4-0.5-0.8-1-1.1-1.6c-0.6-1.1-1.2-2.3-1.8-3.4c-0.1-0.3-0.4-0.5-0.7-0.8c0,2.3,0.1,4.5-0.4,6.6
		c-0.1,0.5-0.3,0.9-0.8,0.9c-0.6,0-1.1-0.3-1.2-1c-0.1-0.7,0-1.4,0-2.1c0-1.1,0-2.3-0.1-3.4c-0.1-1.5-0.2-3.1-0.3-4.8
		c-2.4-2.1-5-4.3-7.7-6.5c0.1,1.6,0.1,3.1,0.2,4.6c0.2,2.4,0.6,4.8,2.4,6.6c0.1,0.1,0.3,0.3,0.2,0.5c-0.2,0.6,0.3,0.8,0.6,1.1
		c0.3,0.4,0.9,1,0.8,1.4c-0.2,0.7,0,1.6-0.8,2.2c-0.9,0.6-1.6,1.4-2.4,2.1c-0.8,0.7-1.4,1.5-1.9,2.4c0.7-0.5,1.4-1,2-1.6
		c0.6-0.5,1.2-1.1,1.9-1.6c0.2-0.1,0.6,0,0.9,0c0,0.3-0.1,0.6-0.1,0.9c0,0.1-0.1,0.1-0.2,0.2c-1.2,1.2-2.3,2.5-3.5,3.7
		c-0.6,0.6-1.3,1.1-2,1.5c-0.3,0.1-0.9,0-1.1-0.2c-0.2-0.3-0.1-0.9-0.1-1.3c0-0.2,0.4-0.4,0.5-0.5c-0.4-0.6-0.9-1-1.1-1.6
		c-0.2-0.7,0.7-0.9,1.1-1.3c-0.7,0.3-1.2,0.2-1.4-0.6C146.6,154.6,146.3,154.4,145.8,154.6z M156.8,85.2c2.4-2,4.8-3.5,7.4-4.8
		c0.2-0.1,0.7-0.1,0.8,0c0.3,0.4,0,0.7-0.3,0.9c-0.5,0.3-1,0.6-1.4,1c-0.6,0.5-1.1,1.1-1.6,1.7c-1.3,1.3-2.6,2.5-3.8,3.8
		c-0.8,0.9-0.7,1.7,0.1,2.6c0.2,0.2,0.2,0.5,0.3,0.7c0.1,0.3,0.2,0.5,0.4,1c0.3-0.6,0.5-0.9,0.6-1.2c-0.4-0.5-0.8-0.9-1.2-1.2
		c2-2.3,3.4-2.7,4.6-1.4c-1.1,0.9-2.1,1.9-1.9,3.6c0.9-0.1,1.8,0.7,2.6-0.5c0.1-0.2,0.6-0.2,0.7-0.2c0.2,0.2,0.3,0.6,0.3,0.8
		c-0.1,0.3-0.3,0.6-0.6,1.1c0.6,0.5,1,1.3,1.7,1.6c1.1,0.5,2.3,0.7,3.4,0.9c1,0.2,2,0.5,2.3,1.7c0.1,0.5,0.5,0.7,1.1,0.3
		c0.4-0.2,0.8-0.4,1.3-0.4c2.3-0.2,4.7-0.3,6.9-1.4c2.1-1,4.5-1.5,6.1-3.4c1.2-1.5,2.7-3,2.5-5.2c0-0.4,0.3-0.9,0.5-1.4
		c-1.6-0.7-2.7-2.1-3.7-3.5c-1.3-2-2.2-4.3-2.9-6.6c-1.2-3.7-1.2-7.6-0.8-11.5c0.3-3.1,1.7-5.8,3.2-8.5c1-1.7,2.1-3.4,3.8-4.5
		c1.1-0.7,2.3-1.4,3.3-2.3c1.8-1.5,4.1-1.5,6.1-2.4c0.2-0.1,0.4,0,0.5,0c0.7,0,1.4,0,2,0c0.5,0,1.1,0,1.6,0.1c3,0.3,3.4,0.4,4.8-2.6
		c0.1-0.2,0.1-0.3,0.2-0.5c0.4-1.1,0.8-2.3,1.2-3.4c0.2-0.6,0.7-1.2,1.3-1c0.8,0.3,1.5,0.1,2.3,0.2c1.5,0.3,2.8,1,3.8,2.3
		c0.9,1.2,0.9,1.4,0,2.6c-0.3,0.4-0.5,0.8-0.7,1.3c-0.7,2.2,0.3,3.9,1.6,5.7c0.5-1,1-1.9,1.5-2.7c0.5-0.8,0.6-2,2-2.4
		c0,0.5,0.1,0.9,0,1.3c-0.3,1-0.7,2-1.1,3c-0.1,0.4-0.3,0.8-0.5,1.5c1.6-1,1.6-3,3.1-3.5c0.6,0.3,0.5,0.8,0.3,1.2
		c-0.5,1.2-1.1,2.4-1.6,3.5c-0.3,0.6,0,0.8,0.6,1c0.7-0.8,1.3-1.7,2-2.5c0.2-0.2,0.6-0.3,0.9-0.5c0.1,0.4,0.4,0.7,0.3,1.1
		c-0.1,0.4-0.4,0.7-0.6,1.1c-0.1,0.2-0.3,0.5-0.5,0.7c0.1,0,0.1,0.1,0.2,0.1c0.5-0.3,1.1-0.7,1.7-1c-0.1-2.3-0.3-4.6-0.4-6.9
		c-0.1-2.2-0.8-4.1-1.9-6c-1.1-2-2.3-4-4.1-5.5c-1.6-1.3-3.2-2.5-4.8-3.7c-0.7-0.6-1.6-1-2.2-1.6c-1.6-1.7-3.5-2.9-5.4-4.1
		c-0.6-0.4-1.3-0.7-2-0.9c-1.1-0.3-1.9-0.8-2.3-2c-0.1-0.3-0.2-0.5-0.4-0.7c-2-4.1-2.2-8.3-0.3-12.5c0.6-1.3,0.8-2.8,1.2-4.3
		c-1.2-0.3-2.2-0.7-3.2-0.9c-1-0.2-1.7-1.3-2.9-1.1c-0.4,0.7-0.8,1.4-1.1,2c0.9,0.4,1.7,0.8,2.6,1.2c0.5,0.2,0.6,0.5,0.6,1
		c0,0.3,0,0.5,0,0.8c0.1,0.8-0.2,1.4-1,1.5c-0.8,0.1-2,0.7-2.5-0.7c0-0.1-0.3-0.2-0.5-0.3c-1.3-0.9-2.6-1.7-3.9-2.6
		c-0.6-0.4-1.1-0.8-1.7-1.2c-0.4-0.3-1-0.4-1.3-0.8c-0.3-0.4-0.3-1-0.5-1.5c-0.9,0.5-1.7,1-2.5,1.5c-0.4,0.2-0.8,0.5-0.6,1
		c0.7,1.5,1.2,3,2.2,4.3c0.6,0.9,1.8,1.4,2.7,2.1c0.5-0.4,0.4-0.8,0.3-1.3c-0.1-0.3,0.1-0.9,0.3-1c0.3-0.1,1.1-0.1,1.2,0.1
		c0.3,0.6,0.7,0.6,1.2,0.8c0.6,0.2,0.9,1,0.6,1.4c-0.3,0.4-1,0.5-1.5,0.2c-0.2-0.2-0.4-0.5-0.7-0.9c0.1,1.9,0.1,1.9,0.7,2.8
		c0.5-0.4,0.9-0.8,1.4-1c0.3-0.1,0.7-0.1,1,0.1c0.2,0.1,0.2,0.5,0.2,0.8c0,0.2-0.1,0.3-0.2,0.6c0.3-0.2,0.4-0.2,0.5-0.3
		c0.4-0.2,0.8-0.5,1.2,0c0.4,0.5,0,0.9-0.3,1.2c-0.4,0.4-0.9,0.8-1.3,1.2c0.7-0.1,1.2-0.5,1.8-0.7c0.3-0.1,0.8-0.1,1,0
		c0.3,0.3,0.2,0.7-0.1,0.9c-0.3,0.3-0.7,0.6-1.1,0.9c-1,0.6-2.1,1.2-3.1,1.8c-0.8,0.5-1.1,0.3-1.6-0.8c0.5-0.4,0.9-0.8,1.3-1.1
		c-0.4-0.4-0.8-0.7-1.2-1.1c0.4-0.4,0.6-0.7,0.9-1c-0.4-0.1-0.7-0.2-1.1-0.3c0,0-0.1,0-0.1,0.1c-0.1,0.6-0.3,1.3-0.3,1.9
		c-0.1,1.2-0.4,2.5,0.5,3.6c0.2,0.3,0.3,0.7,0.2,1c-0.2,1.4-0.5,2.7-0.7,4.2c-0.5,0.2-1,0.4-1.5,0.5c-1.2,0.3-2.5,0.4-3.6,0.8
		c-1.5,0.5-3,1.2-4.5,1.8c-1.1,0.4-2.1,0.9-3.4,0.7c-1.8-0.3-3.1-1.3-4.4-2.5c-2.3-2-3.6-4.5-3.1-7.7c0.1-1,0.4-2,0.6-3
		c0.1-0.3,0.1-0.6,0.2-1c-1.3-0.3-2.6-0.6-3.8,0.1c-0.7,0.4-1.6,0.5-2.3,0.8c-0.6,0.2-1.2,0.5-1.9,0.9c0.3,0.5,0.5,0.8,0.8,1.2
		c0.8-0.4,1.5-0.8,2.3-1.2c0.4-0.2,0.8-0.3,1.2-0.3c0.5,0,0.7,0.6,0.3,1c-1,1-1.9,2-3.6,1.6c0,1.8,0,3.6,0,5.4c0.3,0,0.6,0,0.8,0.2
		c0.4,0.2,0.9,0.5,1,0.8c0.1,0.4-0.3,0.8-0.7,1c-0.3,0.1-0.5,0.3-0.8,0.6c-2.3,2.2-4.6,4.4-6.8,6.6c-1.8,1.8-3.2,3.9-4.3,6.1
		c-1.9,4-3,8.3-3.9,12.6c-0.2,0.8-0.5,1.6-0.5,2.4c-0.3,3.1-0.6,6.2-0.9,9.3c0,0.2,0.1,0.5,0.2,0.9c0.3-0.2,0.6-0.4,0.8-0.6
		c1-0.8,2-1.7,3-2.4c1.7-1.1,3.5-2,5.3-2.9c1.5-0.8,3-1.5,4.5-2.2c0.3-0.2,0.7-0.3,1-0.3c0.2,0,0.6,0.2,0.6,0.3
		c0.1,0.2-0.2,0.5-0.3,0.7c-0.1,0.1-0.2,0.1-0.4,0.2c-2.5,1.1-4.7,2.5-7,4c-1.4,0.9-2.8,2-3.9,3.2c-0.3,0.3-0.5,0.6-0.8,0.7
		c-1.3,0.3-1.8,1.5-2.7,2.3c-0.5,0.5-0.6,1.1-0.1,1.8c0.5-0.4,1-0.9,1.5-1.2c2-1.2,4.1-2.5,6.2-3.6c0.8-0.5,1.7-1,2.6-1.1
		c1,0,1.7-0.4,2.4-0.8c1-0.5,2-1,3-1.5c0.2-0.1,0.6,0,0.6,0.1c0.1,0.2,0.1,0.5,0,0.8c-0.1,0.2-0.4,0.3-0.5,0.4
		c-0.7,0.6-2,0.6-2.1,1.9c0,0.1-0.2,0.2-0.3,0.2c-1.3,0.7-2.6,1.5-3.9,2.1c-1.6,0.7-3.2,1.5-4.5,2.7c-0.5,0.5-1,0.9-1.5,1.3
		c-0.6,0.5-1.2,1.1-1.9,1.4c-1.8,0.8-2,1.6-1.3,3.5c0.3-0.4,0.5-0.7,0.8-1c1.5-1.9,3.3-3.3,5.5-4.3c0.3-0.1,0.8-0.3,1-0.2
		c0.5,0.3,0.9,0.2,1.4-0.1c0.5-0.3,1-0.5,1.5-0.6c0.3-0.1,0.6,0,1,0.1c-0.3,0.4-0.4,0.6-0.6,0.8c-1.7,1.2-3.4,2.2-5,3.5
		c-1.2,0.9-2.3,2.1-3.5,3.1c-0.3,0.3-0.6,0.8-0.3,1.6c0.3-0.5,0.4-0.8,0.6-1.1c0.2-0.2,0.5-0.5,0.8-0.5c0.1,0,0.3,0.4,0.5,0.7
		c0.1,0.1,0.1,0.3,0.2,0.4c1-0.6,1.8-1.2,2.7-1.6c1.7-1,3.5-1.9,5.2-2.9c0.8-0.4,0.8-0.4,1.2,0.6c-2.8,1.5-5.4,3.3-7.9,5.4
		c1.4,0.7,0.2,1.7,0.5,2.7c0.3-0.2,0.6-0.3,0.9-0.4c0.7-0.4,1.4-0.9,2.1-1.4c0.6-0.4,1.3-0.6,2-1c0.5-0.3,0.9-0.3,1.2,0.2
		c0.3,0.5-0.3,0.7-0.6,0.9c-0.5,0.4-1.1,0.7-1.6,1.1c-0.2,0.2-0.4,0.5-0.5,0.8C156.8,83.7,156.8,84.4,156.8,85.2z M238.7,86.6
		c0.4,0.8,0.1,1.1-0.5,1.3c-0.4,0.1-0.8,0.2-1.2,0.3c-1.3,0.4-1.6,1-1.3,2.5c1-0.2,2.1-0.3,3.1-0.4c0.3,0,0.6,0.2,0.8,0.3
		c-0.2,0.3-0.4,0.7-0.6,0.7c-1,0.3-2,0.6-3.1,0.9c-0.8,0.2-0.9,0.6-0.8,1.4c2-0.7,3.9-0.5,5.8-0.5c0.5,0,1.1-0.1,1.1,0.7
		c-0.7,0.7-1.6,0.3-2.4,0.5c-0.8,0.2-1.5,0.3-2.3,0.4c-0.8,0.1-1.6,0.2-2.4,0.9c1.8-0.1,3.3-0.2,4.8-0.2c0.6,0,1.2-0.3,1.6,0.7
		c-0.5,0.2-1,0.5-1.5,0.6c-1.5,0.3-3,0.6-4.5,0.9c-0.2,0.1-0.4,0.3-0.7,0.4c0.3,0.2,0.5,0.2,0.6,0.1c1.1-0.1,2.3-0.2,3.4-0.3
		c0.6,0,1.3,0.2,1.4,0.9c0.2,0.8-0.7,0.7-1,1c0,0.5-0.1,1-0.1,1.2c1,0.7,1.9,1.4,2.7,2.1c0.9,0.7,1.7,1.2,3,1.2
		c1.3-0.1,2.5,0.3,3.2,1.6c0.3,0.4,0.7,0.8,1.1,1.4c0.2-0.6,0.3-1,0.4-1.3c0.6-2.2,0.3-4.3-0.2-6.4c-0.5-2.2-1.2-4.4-1.9-6.5
		c-1-2.8-2.8-5.1-4.5-7.4c-1.6-2-3.4-3.9-5.1-5.8c-0.7-0.8-1.5-1.5-2.3-2.2c0.3,1.4,0.8,6.8,0.6,9.4C237,86.7,237.9,86.7,238.7,86.6
		z M260.1,51.4c-0.1-0.1-0.3-0.3-0.4-0.5c-0.1-0.3-0.3-0.7-0.2-0.9c0.2-0.2,0.6-0.3,1-0.3c0.3,0,0.6,0.2,0.7,0.2
		c0.9-1,1.7-2,2.5-2.9c-0.2-0.2-0.5-0.4-0.7-0.6c-0.3-0.4-0.4-1,0-1.4c0.4-0.3,0.8-0.2,1.1,0.2c0.1,0.1,0.3,0.2,0.6,0.4
		c1.5-2.1,3-4.2,4.5-6.3c0.2-0.2,0.2-0.5,0.3-0.8c-0.7-0.2-1.3-0.3-1.8-0.5c-0.3-0.1-0.6-0.6-0.6-0.8c0.3-0.6,0.6-1.2,1.1-1.7
		c0.4-0.4,1.1-0.2,1.5,0.2c0.5,0.5,1.1,0.7,1.6,0.1c0.4-0.5,1-0.9,1.4-1.5c0.3-0.4,0.3-1,0.4-1.4c-1,0-2.2,0-3.4,0
		c-0.7,0-1.4-0.2-2.1,0.1c-2,0.7-4,1.6-5.8,2.9c-0.2,0.1-0.2,0.5-0.4,0.8c1.3-0.6,2.4-1.1,3.6-1.6c0.5-0.2,1-0.2,1.1,0.3
		c0.2,0.5-0.3,0.7-0.7,0.9c0,0-0.1,0-0.1,0.1c-1.9,1-3.7,2-5.6,2.9c-0.5,0.2-0.7,0.5-0.6,1.1c1.5-0.6,2.9-1.6,4.6-1.6
		c0,0.9-0.5,1.1-1,1.4c-0.5,0.3-1.1,0.5-1.6,0.8c-1.2,0.9-2.5,1.6-3.8,2.1c-0.5,0.2-0.9,0.5-1,1.3c0.4-0.1,0.7-0.1,0.9-0.2
		c1.1-0.6,2.2-1.2,3.3-1.8c0.5-0.3,0.9-0.1,1.1,0.4c-0.4,1-1.3,1.4-2.2,1.8c-1.2,0.7-2.4,1.3-3.7,1.9c-0.4,0.2-0.8,0.4-0.7,1.2
		c0.5-0.3,0.9-0.5,1.3-0.7c0.3-0.2,0.8-0.3,0.9,0.2c0.1,0.2-0.1,0.6-0.3,0.8c-1,0.8-2,1.7-3.1,2.3c-1,0.6-1.4,1.5-2,2.3
		c0.1,0.1,0.1,0.1,0.2,0.2c0.7-0.6,1.5-1.1,2.2-1.7c0.7,0.6,0.8,0.7,0.4,1.1c-1,1-1.9,2.2-3.2,2.8c-0.4,0.2-0.8,0.5-1.3,0.8
		c0.8,0,1.4,0,2,0c0.2,0,0.5,0.4,0.5,0.6c0,0.2-0.2,0.5-0.4,0.7c-0.2,0.1-0.4,0.2-0.6,0.2c-1.1,0.1-2.1,0.7-3.1,1.3
		c0.4,0.8,0,1.3-0.6,1.7c-0.3,0.2-0.6,0.4-0.9,0.6c-1.1,0.6-1.6,1.6-2,2.7c1.8,0.3,9.3-0.1,10.1-0.5c0-0.1-0.1-0.2-0.1-0.2
		c-1.3-0.3-2.3-1.4-3.7-1.6c-0.1,0-0.3-0.1-0.3-0.2c-0.4-0.4-0.5-0.9-0.2-1.4c0.3-0.4,0.7-0.3,1.1-0.1c0.2,0.1,0.5,0.2,0.8,0.4
		c0.1-0.4,0.2-0.7,0.4-1.1c0.6,0.1,1.1,0.2,1.7,0.3c1-0.5,1.6-1.3,2-2.2C257.3,55,259.1,53.6,260.1,51.4z M246.5,32.2
		c-0.5,1.2-0.9,2.3-1.4,3.5c-1.3,3.1-2.6,6.2-3.9,9.3c-0.3,0.7-0.2,1.3,0,2c0.2,0.9,0.3,1.8,0.5,2.7c0.1,0.5-0.2,0.9-0.7,1.1
		c-0.5,0.2-0.9,0.1-1.2-0.4c-0.3-0.4-0.5-0.9-0.8-1.3c-0.2-0.3-0.4-0.7-0.5-1c-0.8,1.1-1.4,2.1-2.1,3c-0.4,0.5-0.5,0.9-0.4,1.5
		c0.4,1.2,0.7,2.5,1.1,3.7c0.3,0.9,0.8,1.8,1.3,3.1c0.9-2.1,2.5-3.5,2.4-5.7c1.5-0.7,1.6-2,1.5-3.4c0.5,0,0.9,0,1.1,0
		c1.5-1.4,2-2.9,1.2-4.8c-0.3-0.8,0.4-1,1.1-1.1c0.3,0.4,0.5,0.8,0.8,1.4c0.5-0.7,0.2-1.2,0.1-1.8c-0.1-0.6-0.3-1.3-0.4-1.9
		c0-0.2,0.2-0.6,0.5-0.7c0.1-0.1,0.6,0.1,0.7,0.2c0.3,0.3,0.5,0.8,0.9,1.2c0.1-0.3,0.2-0.6,0.3-0.7c0.6-0.8,0.7-1.7,0.6-2.7
		c-0.2-1.4,0-2.9,0-4.3c0-0.2,0.2-0.5,0.4-0.5c0.2,0,0.5,0.1,0.6,0.2c0.2,0.7,0.4,1.4,0.6,2.1c0.1,0.3,0.1,0.6,0.2,0.9
		c0.1-0.1,0.2-0.1,0.2-0.2c0.4-0.9,0.6-1.8,0.4-2.9c-0.3-1.5-0.3-3.1-0.3-4.7c0-0.1,0.1-0.2,0.1-0.3c0.9-0.1,1.1,0.4,1.3,1.1
		c0.1,0.7,0.2,1.4,0.4,2.2c1.2-1.7,2.3-3.1,3.3-4.7c0.6-0.9,0.5-1.2-0.2-2.1c-0.4-0.6-0.9-1.3-1.2-2c-0.5-1.2-1-2.5-1.5-4
		c-0.4,1.3-1,2.3-0.6,3.4c0.4,1.5,1,3,1.4,4.4c0.1,0.3,0,0.8-0.2,1.1c-0.4,0.4-0.9,0.2-1.2-0.1c-0.3-0.2-0.4-0.6-0.6-0.9
		c-0.6-1-1.1-2-1.8-3.2c-0.7,1.7-1.6,3.1-2,4.8C248,31.7,248,32,246.5,32.2z M139.6,41.1c0.9,2.2,1.7,4.4,1.8,6.7c0,1.5,0,3,0,4.5
		c0,0.3-0.3,0.6-0.5,0.8c-0.7,0.7-1.3,1.5-2,2.2c-1.2,1.3-2.2,2.8-3.2,4.3c-0.5,0.8-0.9,1.7-1.2,2.6c-0.2,0.6-0.2,1.3-0.3,1.9
		c-0.5,2-1,4-0.7,6.1c0.2,1.5,0.4,3.2,2.1,4c1-0.8,2.2-1.2,3.5-1.4c0.4-0.1,1.2,0,1.2-0.8c-0.9-0.3-1.8-0.6-2.8-0.1
		c-0.6,0.3-1.1-0.1-1.2-0.5c-0.1-0.4,0.3-1,0.8-1.1c0.3-0.1,0.6-0.1,0.8-0.1c0.9,0.1,1.7,0.1,2.7,0.2c0-0.4,0.1-0.9,0.1-1.2
		c-0.5-0.3-0.9-0.4-1.2-0.7c-0.2-0.3-0.5-0.8-0.4-1.1c0.2-0.5,0.7-0.4,1.1-0.2c0.2,0.1,0.4,0.3,0.8,0.5c0.1-0.5,0.2-0.8,0.2-1.2
		c0.1-1.1,0.3-2.3,0.4-3.4c0.2-2.1,0.6-4.3,0.2-6.5c0-0.2,0.1-0.4,0.1-0.7c0.1-0.5,0.1-1.1,0.1-1.6c0-1.3-0.1-2.6,0.1-3.8
		c0.3-1.6,0.9-3.2,1.3-4.8c0.1-0.3,0.1-0.7,0.1-1.1c0-0.6-0.2-1.2-0.2-1.7c-1.4-0.8-1.6-1.2-0.9-2.7c0.1-0.2,0.2-0.4,0.3-0.6
		c0.5-1,0.4-1-0.7-1.7C141.2,39,140.4,40,139.6,41.1z M237,76c2-3.3,3.7-6.6,6.2-9.4c-1.7-1.7-1.4-1.9-0.6-3.6
		c0.1-0.1,0.1-0.2,0.2-0.4c0.7-1,1.3-2.1,2-3.1c1.5-2.4,3-4.8,4.5-7.3c0.2-0.4,0.3-0.8,0.3-1.3c0-0.6,0.2-1,0.8-1
		c0.6,0,0.9-0.5,1.2-1c0.3-0.5,0.5-1.1,0.9-1.6c0.9-1.2,1.4-2.6,1.9-4c0.3-1,0.9-1.9,1.5-2.8c1.3-2,2.8-3.9,4.2-5.8
		c0.8-1,1.5-2.1,2.4-3c1.3-1.4,1.4-1.4,3.3-1c0.8-1.3,1.7-2.5,2.6-3.9c-0.5-0.1-0.8-0.2-1.1-0.3c-0.1,0.2-0.2,0.3-0.2,0.4
		c0,0.5-0.1,1.1-0.8,1c-0.6-0.1-0.6-0.6-0.5-1.1c0-0.2,0-0.5-0.1-0.7c-0.2,0-0.2,0-0.3,0c-1.3,1.7-2.6,3.5-3.8,5.2
		c-0.6,0.8-0.9,0.7-1.4-0.2c1.2-1.7,2.5-3.5,3.7-5.2c-0.3-0.4-0.6-0.5-1-0.2c-0.3,0.3-0.6,0.5-0.8,0.8c-2.4,3.3-4.9,6.6-6.4,10.4
		c-0.1,0.2-0.2,0.4-0.3,0.6c-1.3,2.3-2.6,4.6-3.9,7c-0.9,1.7-1.8,3.4-2.8,5.1c-2.6,4.3-5.3,8.6-7.9,12.9c-0.7,1.2-1.4,2.4-2.2,3.5
		c-1.4,1.9-2.8,3.7-4.2,5.6c-0.4,0.5-0.6,1.1-0.9,1.7c0.4,0.2,0.6,0.4,0.8,0.6c0.1,0.1,0.2,0.1,0.4,0.2c2-3.1,4.9-5.5,6.1-9.1
		c0.7,0.3,0.7,0.7,0.6,1.3c-0.3,1.3-0.8,2.4-1.6,3.5c-1.3,1.7-2.6,3.4-3.9,5.2C236.4,75.3,236.7,75.6,237,76z M159.2,211.7
		c2-3.9,3.9-7.7,5.8-11.6c1.9-3.8,4.3-7.3,5.8-11.3c-1.3,1.4-2.1,3-3,4.6c-0.8,1.6-1.7,3.2-2.6,4.7c-0.9,1.6-1.9,3.1-2.9,4.6
		c-0.9-0.4-1-0.8-0.6-1.5c0.8-1.3,1.6-2.6,2.4-3.9c0.7-1.1,1.6-2.2,2.1-3.4c0.6-1.7,1.7-3.1,2.6-4.6c0.8-1.3,1.8-2.3,3.4-2.3
		c2.9-4.9,5.7-9.7,8.4-14.6c0.9-1.5,1.1-3.2,1.3-4.9c0-0.1,0-0.3-0.1-0.5c-0.9,1.3-1.6,2.6-2.3,3.9c-0.8,1.4-1.5,2.7-2.3,4.1
		c-0.8,1.3-1.3,2.7-2.4,3.8c-0.9-0.5-0.5-1-0.3-1.5c1.2-2.2,2.4-4.3,3.6-6.5c0.4-0.8,0.8-1.6,1.2-2.3c0.7-1.4,1.4-2.8,2-4.2
		c0-0.1-0.1-0.2-0.2-0.6c-0.3,0.4-0.6,0.6-0.8,0.9c-0.3,0.5-0.5,1-0.8,1.5c-1.2,2.3-2.5,4.6-3.7,7c-1.2,2.4-2.3,5-3.9,7.2
		c-1,1.4-1.6,3-2.4,4.5c-1.1,2.1-2.4,4-3.7,6c-1.6,2.5-3.2,5.1-4.5,7.8c-0.6,1.3-1.4,2.6-2.1,3.9c-1.2,2.3-2.4,4.6-3.6,6.8
		c-0.3,0.6-0.1,0.9,0.5,1.1c0.2-0.2,0.3-0.4,0.4-0.6c1-2.1,2.2-4,3.7-5.8c0.2-0.2,0.6-0.3,0.9-0.4c0.1,0.3,0.3,0.7,0.2,1
		c-0.1,0.4-0.5,0.8-0.7,1.2c-1.1,1.7-2.2,3.4-3.3,5.2C158.3,211.2,158.7,211.4,159.2,211.7z M118,89.2c2.6-0.1,3.1-0.5,3.5-2.9
		c0-0.2,0-0.5,0.1-0.7c0.3-0.9,0.6-2,1.5-2.4c1.1-0.5,2.1-1.2,3.4-1.1c0.6,0,1.3,0,2,0c0.8-1.2,1.5-2.3,2.4-3.7
		c-1.1,0.1-1.8,0.1-2.6,0.2c-1.4,0.3-2.8,0.7-4.2,0.9c-1.2,0.2-2.4,0.3-3.6,0.3c-0.8,0-1.6-0.2-2.5-0.2c-1.2,0-2.4,0-3.6-0.1
		c-1.2,0-2.4-0.1-3.6-0.2c-0.2,1.8-1.2,3-2.1,4.3c-0.6,0.8-1.1,1.7-1.6,2.6c-0.7,1.3-0.7,2.7-0.2,4c0.1-0.2,0.2-0.3,0.2-0.5
		c-0.4-1.4,0.1-2.6,0.8-3.8c0.5-0.8,1-1.4,2-1.2c0.1-0.3,0.2-0.4,0.3-0.6c0.5-1,0.9-2,1.4-3c0.3-0.5,0.8-0.7,1.3-0.4
		c0.5,0.3,0.3,0.8,0.1,1.2c-0.3,0.5-0.5,1.1-0.7,1.6c0.2-0.1,0.4-0.3,0.5-0.5c0.2-0.5,0.5-1.1,1.2-0.9c0.6,0.2,0.4,0.9,0.3,1.4
		c-0.3,1.8-0.6,3.6-0.9,5.3c0,0.3,0,0.6,0,1c0.4-0.2,0.5-0.5,0.6-0.8c0.4-1.3,0.7-2.6,1.2-3.8c0.1-0.3,0.6-0.6,0.9-0.6
		c0.6,0,0.6,0.5,0.5,0.9c0,0.3-0.1,0.6-0.2,0.9c-0.2,0.9-0.4,1.9-0.6,3c0.4,0,0.7-0.1,1.1-0.1c-0.1-0.4-0.2-0.7-0.3-1
		c0-0.6,0.6-1.2,1.1-1.1c0.6,0.1,0.6,0.6,0.5,1.1C118.1,88.7,118.1,88.9,118,89.2z M189.9,84.5c0.2-0.4,0.4-0.7,0.4-0.9
		c0-0.7,0-1.3,0-2c-0.2-2.7-0.7-5.4-1.7-7.9c-0.1-0.3-0.3-0.7-0.6-0.9c-1.1-1-2.2-2-3.3-3c-0.2-0.2-0.4-0.3-0.8-0.6
		c0,0.9-0.1,1.7,0,2.4c0.4,2.4,0.8,4.8,1.8,7c0.8,1.8,1.8,3.5,3,5.1C189,84,189.4,84.2,189.9,84.5z M126.2,40.5
		c3.3,1.5,6.4,3.4,8.6,6.4c-0.4-1.8-0.8-3.5-1.2-5.4c-0.7,0.1-1.3-0.3-2,0.2c-0.6,0.4-1.5-0.3-1.4-1.1c0-0.3,0.1-0.6,0.2-0.9
		c-0.4,0.3-0.5,0.7-0.8,1c-0.3,0.4-0.6,0.7-1.1,0.5c-0.5-0.2-0.7-0.6-0.6-1.1c0-0.3,0.1-0.5,0.1-0.9
		C127.4,39.7,126.9,40.1,126.2,40.5z M179.8,189.9c-0.8,0.3-0.5,0.8-0.5,1.2c0.1,0.8-0.3,1.2-1.1,1.2c-0.3,0-0.7-0.1-1.1-0.2
		c0.2,2.1,0.4,4.1,0.6,5.9c0.6-0.3,1.2-0.6,1.9-0.9C180,194.8,180.1,192.4,179.8,189.9z M137.3,224.4c-0.3-0.4-0.6-0.7-0.7-1
		c-0.2-0.4-0.4-0.8-0.5-1.3c-0.1-0.7,0.2-1.2,0.7-1.5c0.5-0.4,1,0,1.4,0.2c0.6,0.4,0.8,1,0.9,1.6c0.2,0.9,0.8,1.2,1.9,1
		c-0.3-0.3-0.5-0.4-0.7-0.7c-0.2-0.2-0.5-0.5-0.7-0.8c-0.3-0.6-0.7-1.1-0.9-1.7c-0.4-1.3-1.3-1.9-2.4-2.4c-1,0.9-1.4,2.3-1.1,3.2
		c0.4,1.2,0.8,2.4,1.2,3.7C136.5,224.7,136.8,224.6,137.3,224.4z M177.5,187.2c0.1-1.3,0.3-2.5-0.1-4c-1.1,1.9-2.1,3.6-3.2,5.4
		c0.6,0.3,1.1,0.6,1.7,1C176,188.4,175.7,187.2,177.5,187.2z M134,152.3c0.7,0.4,1.2,0.9,1.9,0.4c1.2-0.8,2.4-1.6,3.6-2.4
		c-0.2-0.6-0.3-1-0.5-1.5C137.3,150,135.7,151.1,134,152.3z M137.9,37.8c0.4,0.5,0.5,1.2,1.1,1.4c0.6-0.9,1.1-1.7,1.7-2.5
		c-0.4-0.3-0.7-0.5-1.1-0.8C139.1,36.5,138.6,37.1,137.9,37.8z M138.5,34.5c-0.6-0.3-0.9-0.5-1.4-0.8c-0.4,0.5-0.8,0.9-1.3,1.4
		c0.4,0.5,0.7,1,1.2,1.5C137.5,35.9,137.9,35.3,138.5,34.5z M132.4,29c-1.1-0.7-1.6-0.4-2.5,1.1c0.5,0.3,0.9,0.5,1.4,0.8
		c0.2-0.4,0.4-0.6,0.5-0.9C132,29.7,132.2,29.4,132.4,29z M157.2,216.1c-0.9-0.9-2.6-1.7-3.8-1.6c1.3,0.8,2.3,1.4,3.3,2
		C156.7,216.5,156.9,216.3,157.2,216.1z M137.4,154c0.8,0.4,1.7,0.2,2.2-0.4c0.4-0.4,0.2-0.8-0.1-1.3
		C138.8,152.9,138.1,153.4,137.4,154z M135.5,31.3c-0.5,0.7-1,1.2-1.4,1.8c0.3,0.3,0.5,0.5,0.7,0.8
		C136.3,32.5,136.3,32.4,135.5,31.3z M197.4,85.9c-0.6,0.5-0.7,0.9-0.9,2.7c0,0.4-0.3,0.9,0.3,1.2C197.5,88,197.6,86.9,197.4,85.9z
		 M152.3,216.8c1,0.9,2,1.7,3.4,1.9C154.8,217.6,153.6,217.1,152.3,216.8z M151.6,84.3c0.3-1.2,0.5-2.3,0.7-3.4
		C150.9,82,150.8,82.8,151.6,84.3z M151.9,219.4c-0.1,0.1-0.1,0.2-0.2,0.3c0.9,0.6,1.7,1.2,2.6,1.9c0.5-0.6,0.4-0.9-0.2-1.2
		C153.4,220,152.6,219.7,151.9,219.4z M154.7,87.1c0.1,0,0.3,0,0.4,0.1c0.2-1,0.4-1.9,0.5-2.9c-0.1,0-0.2,0-0.4-0.1
		C154.7,85,154.3,86,154.7,87.1z M212.3,41.4c-0.1,0.1-0.1,0.2-0.2,0.3c0.6,0.7,1.4,1.1,2.6,1C213.7,42.2,213,41.8,212.3,41.4z
		 M182.3,205.7c0.2-1.8,0.2-1.8-0.8-1.7C181.8,204.6,182.1,205.1,182.3,205.7z M194.8,88.7c0.1-0.6,0.1-1.2,0.2-1.9
		C194,87.4,194,87.5,194.8,88.7z M177.7,201.2c-0.1,0-0.2-0.1-0.4-0.1c-0.2,0.8-0.4,1.5-0.6,2.3c0.1,0,0.2,0.1,0.4,0.1
		C177.3,202.7,177.5,201.9,177.7,201.2z M138.6,74.8c-0.8,0.1-1.5,0.2-2.2,0.4C137.5,75.8,137.8,75.7,138.6,74.8z M124.5,39.3
		c0.3,0.2,0.5,0.3,0.8,0.4c0-0.6,0-1.1,0-1.6c-0.1,0-0.1,0-0.2,0C124.9,38.5,124.7,38.9,124.5,39.3z M140.3,143.1c0.1,0,0.2,0,0.3,0
		c0-0.5-0.1-1-0.1-1.5c-0.1,0-0.1,0-0.2,0C140.3,142.1,140.3,142.6,140.3,143.1z M157.5,213.2c-0.1,0.1-0.1,0.2-0.2,0.3
		c0.3,0.1,0.5,0.3,0.8,0.4c0-0.1,0.1-0.2,0.1-0.3C157.9,213.4,157.7,213.3,157.5,213.2z M111.6,87.6
		C111.7,87.6,111.7,87.6,111.6,87.6c0.1-0.2,0.1-0.5,0.1-0.7c0,0-0.1,0-0.1,0C111.6,87.1,111.6,87.3,111.6,87.6z M140.2,155.3
		c-0.2,0.2-0.3,0.3-0.4,0.4c0,0,0.1,0.2,0.1,0.2c0.1-0.1,0.3-0.1,0.4-0.2C140.3,155.7,140.2,155.5,140.2,155.3z"/>
	<path class="st0" d="M111.5,126.4c-0.6-0.4-0.6-1-0.1-1.4c0.7-0.5,1.5-0.9,2.2-1.3c0.2-0.1,0.7,0,0.8,0.2c0.1,0.2,0,0.7-0.1,0.8
		c-0.6,0.6-1.2,1.2-2,1.7C112.2,126.5,111.8,126.3,111.5,126.4L111.5,126.4z"/>
	<path class="st0" d="M140.4,86.6c-1.1-0.4-2.2-0.7-3.3-1.1c-1.3-0.6-2.7-0.4-3.8,0.6c-0.8,0.7-1.7,1.4-2.6,2.1
		c-0.9,0.7-1.7,1.5-2.4,2.4c-0.3,0.5-0.8,0.8-1.3,1.1c-0.4,0.2-0.8,0-1.1-0.4c-0.3-0.4-0.1-0.6,0.1-1c1-1.7,2.3-3.1,3.9-4.2
		c0.9-0.7,1.8-1.4,2.7-2.2c0.6-0.6,1.3-0.7,2-0.7c1.4,0,2.8,0.2,4.1,1.1c0.4,0.2,0.9,0.2,1.3,0.4c0.4,0.2,0.8,0.4,1.1,0.7
		c0.1,0.1,0.1,0.6,0,0.7C141,86.4,140.7,86.5,140.4,86.6z"/>
	<path class="st0" d="M239.1,149.6c0.7-0.2,1.2-0.3,1.5-1c0.2-0.6,1-0.5,1.4,0.2c0.3,0.5,0.5,1,0.6,1.5c0.5,1.6,1,3.3,1.5,4.9
		c0.1,0.5,0.2,1.1,0.1,1.6c-0.1,0.4-0.4,0.8-0.8,1c-0.2,0.1-0.7-0.2-1.1-0.3c-0.3,0.5,0.3,1.6-0.9,2c-0.2-0.3-0.4-0.6-0.5-1
		c-0.5-2.2-0.9-4.3-1.4-6.5C239.4,151.3,239.3,150.5,239.1,149.6z"/>
	<path class="st0" d="M212.2,115.1c-0.7,0.4-1.2,0.4-1.5-0.4c0.4-0.7,0.7-1.4,1.2-2.3c-0.4,0-0.5,0-0.7,0c-0.8,0-1.1-0.4-0.7-1.1
		c0.4-0.8,0.9-1.6,1.3-2.4c-1.2-0.7-1.2-0.7-0.6-1.9c0.2-0.4,0.3-0.9,0.5-1.3c-1.3-0.7-1.4-1.1-0.5-2.2c0.2-0.3,0.4-0.6,0.7-0.8
		c0.3-0.2,0.8-0.4,1-0.3c0.3,0.2,0.4,0.7,0.5,1c0,0.1-0.1,0.3-0.1,0.5c1.2,0.8,1.3,0.9,0.4,2.1c0.6,1.9-0.4,3.4-1.1,5
		c0.3,0.4,0.7,0.8,0.8,1.3c0,0.5-0.3,1-0.4,1.6c0.1,0.1,0.4,0.2,0.5,0.3c0.4,0.8,0.8,1.7,1.4,2.4c0.1,0.1,0,0.6-0.1,0.7
		c-0.2,0.1-0.7,0.2-0.8,0.1C213,116.9,212.3,116.3,212.2,115.1z"/>
	<path class="st0" d="M135.9,98.7c-0.8,1.4-2,2.2-3.7,2.4c-0.7,0.1-1.4,0-2.1,0.1c-1.2,0.1-1.9,0.9-1.9,2.1c0,1.2,0,1.2-0.9,2.1
		c-0.1,0-0.2,0-0.2-0.1c-0.2-0.9-0.6-1.8-0.7-2.7c-0.1-1.4,1.4-3,2.8-3.1c0.3,0,0.6-0.1,0.8,0c1.6,0.2,3-0.2,4.3-1.2
		C135.1,97.7,135.2,97.8,135.9,98.7z"/>
	<path class="st0" d="M189.5,183.4c0.1,0.7-0.1,1.4,0.6,1.8c0.4,0.3,0.3,0.8-0.1,1.1c-0.3,0.2-0.6,0.4-1,0.5c-1,0.6-2.1,1.1-3.3,1.8
		c-1.2-1.1,0.7-1.8,0.7-2.8c-1-0.5-1.1-1.1-0.4-1.8c0.2-0.2,0.4-0.3,0.7-0.5c0.9-0.5,1.7-1,2.6-1.5c0.4-0.2,0.8-0.4,1.3-0.6
		c0.5-0.2,0.8,0.1,1,0.5c0.2,0.5-0.2,0.6-0.5,0.8C190.6,182.9,190,183.2,189.5,183.4z"/>
	<path class="st0" d="M127.3,130.8c0.2,0.8-0.2,0.9-0.6,1.1c-1.4,0.6-2.9,1.2-4.3,1.8c-0.7,0.3-1.4,0.5-2.1,0.7
		c-0.7,0.2-1.4,0.4-2.1,0.6c-0.7,0.1-1.1-0.3-1.3-0.8c-0.1-0.6,0.2-0.9,0.8-1.1c1.9-0.5,3.7-1,5.6-1.5c1-0.3,2-0.5,3.1-0.8
		C126.6,130.8,127,130.8,127.3,130.8z"/>
	<path class="st0" d="M158.6,154c0,1.1-0.8,1.6-1.4,2c-2,1.5-3.9,3.3-5.7,5c-0.6,0.6-1.4,1-2.1,1.4c-0.2,0.1-0.7,0-0.8-0.1
		c-0.2-0.2-0.3-0.6-0.2-0.8c0.2-0.4,0.4-0.8,0.8-0.9c2.1-1.1,3.6-2.8,5.4-4.2c1-0.7,2-1.4,3-2.1C157.9,154.1,158.2,154.1,158.6,154z
		"/>
	<path class="st0" d="M111.3,114.5c0.4-0.3,0.8-0.5,1.1-0.8c-0.4-1.2-0.7-2.4-1.1-3.5c-0.4-1.2-0.1-2.3,0.5-3.3
		c0.2-0.3,0.5-0.6,0.8-0.6c0.5,0,0.7,0.5,0.8,1c0,0,0,0.1,0,0.1c-0.8,1.9,0.3,3.6,0.7,5.4c0.2,1.1-0.2,2.1-1.1,2.5
		C112.2,115.7,111.7,115.4,111.3,114.5z"/>
	<path class="st0" d="M237.3,190.6c-0.1,0.2-0.2,0.4-0.4,0.5c-2.2,1.6-4.1,3.6-5.6,6c-0.3,0.4-0.5,1.1-1.3,0.8
		c-0.5-0.2-0.7-1.3-0.3-1.8c0.5-0.7,1.1-1.4,1.7-2c1.3-1.3,2.7-2.5,4.1-3.7C236.3,189.6,236.4,189.7,237.3,190.6z"/>
	<path class="st0" d="M236.4,193.5c0.7,0.7,0.5,1.3,0,1.8c-0.8,0.9-1.7,1.7-2.4,2.6c-0.8,1-1.9,1.6-2.3,3c-0.1,0.4-0.9,0.7-1.5,0.9
		c-0.6,0.2-1-0.6-0.6-1.3c0.3-0.6,0.7-1.3,1.1-1.7C232.5,197,234.5,195.3,236.4,193.5z"/>
	<path class="st0" d="M240.4,116.6c-0.3-0.6-0.5-0.9-0.5-1.3c0.1-3.2-0.4-6.3-1.2-9.4c-0.1-0.3-0.3-0.6-0.2-0.8
		c0.1-0.3,0.4-0.6,0.7-0.9c0.3,0.2,0.7,0.4,0.8,0.6c0.3,0.7,0.4,1.4,0.6,2.1c0.5,2.7,0.8,5.5,0.5,8.2c0,0.2-0.1,0.5-0.1,0.7
		C240.8,116.1,240.7,116.2,240.4,116.6z"/>
	<path class="st0" d="M119.4,109.8c0.5-0.4,0.8-0.7,1.1-1c0.8,0.4,1.6,0.8,2.2,1.2c0.9,0.6,1.7,0.8,2.7,0.3c0.4-0.2,0.8-0.2,1.2-0.4
		c0.4-0.2,0.8-0.3,1.1,0.1c0.4,0.5,0.2,1-0.2,1.3c-1.1,0.7-2.2,1.4-3.6,1.1C122.3,112,120.8,111.2,119.4,109.8z"/>
	<path class="st0" d="M234.6,113.9c-0.2-0.3-0.4-0.4-0.4-0.6c0-3.6-0.4-7.3-0.9-10.9c0.9-0.1,1.4,0.1,1.5,0.9
		c0.2,0.9,0.3,1.9,0.4,2.8c0.1,1.3,0.2,2.6,0.2,3.8c0,1-0.1,2-0.3,3C235.2,113.3,234.9,113.5,234.6,113.9z"/>
	<path class="st0" d="M243.5,112.7c-0.6-1.8-0.5-3.6-0.7-5.4c0.8-0.3,1.1,0.1,1.2,0.7c0.1,1.2,0.3,2.4,0.4,3.5
		c0.7,0.2,1.3,0.3,2,0.5c0.1,0.4,0.1,0.8,0.2,1.2c0.1,0.8,0.7,1.4,1.6,1.4c0.7,0,0.9,0.4,0.6,1c-0.2,0.4-0.6,0.7-1,0.8
		c-0.5,0.2-0.6-0.4-0.8-0.7c-0.2-0.3-0.5-0.6-0.8-0.9c-0.2-0.2-0.5-0.4-0.5-0.6C245.5,112.7,244.6,112.6,243.5,112.7z"/>
	<path class="st0" d="M193.7,186.5c-0.1,0.1-0.2,0.4-0.4,0.6c-1.9,1.2-3.8,2.4-5.7,3.6c-0.4,0.3-0.9,0.4-1.4,0.5
		c-0.2,0-0.7-0.2-0.8-0.4c-0.1-0.2,0.1-0.6,0.2-0.8c0-0.1,0.2-0.2,0.3-0.3c1.6-1,3.1-1.9,4.7-2.9c0.6-0.4,1.3-0.7,2-0.9
		C193.2,185.6,193.7,185.9,193.7,186.5z"/>
	<path class="st0" d="M207.6,58.5c0.2-0.2,0.4-0.4,0.6-0.4c2.1-0.7,4.1-1.4,6.2-2.1c0.3-0.1,0.7-0.1,1.1-0.1c0.5,0,0.9,0.4,0.9,0.9
		c-0.1,0.3-0.5,0.8-0.8,0.8c-2.5,0-4.7,1-7.1,1.6c-0.3,0.1-0.6-0.1-1-0.2C207.6,58.8,207.6,58.7,207.6,58.5z"/>
	<path class="st0" d="M185.8,180.7c-0.6,0-0.9-0.6-0.5-1c0.4-0.5,1-1,1.6-1.3c1.5-0.9,3.2-1.7,4.7-2.6c0.4-0.2,0.8-0.4,1.1,0.1
		c0.3,0.5,0,0.8-0.3,1c-1.2,0.8-2.5,1.6-3.8,2.3c-0.7,0.4-1.5,0.9-2.3,1.3C186.1,180.5,185.9,180.6,185.8,180.7z"/>
	<path class="st0" d="M237.2,187.5c-0.4,0.4-0.8,0.8-1.2,1.1c-0.9,0.7-1.9,1.4-2.8,2.2c-0.4,0.4-0.8,0.9-1.2,1.3
		c-0.6,0.7-0.7,0.7-1.3,0c-0.1-0.1-0.2-0.3-0.3-0.6c0.4-0.5,0.8-1.1,1.3-1.5c1.3-1,2.7-1.9,4.1-2.8C236.1,187,236.6,187,237.2,187.5
		z"/>
	<path class="st0" d="M188.9,174.7c1.3-0.6,2.5-1.3,3.8-1.9c0.5-0.3,1-0.6,1.5,0.3c-0.2,0.2-0.4,0.6-0.7,0.8c-2,1.2-4,2.3-6,3.5
		c-0.2,0.1-0.8,0.1-1-0.1c-0.3-0.4-0.1-0.8,0.3-1C187.5,175.6,188.2,175.1,188.9,174.7L188.9,174.7z"/>
	<path class="st0" d="M215.7,87.7c0.2,1-0.3,1.2-0.6,1.5c-1.7,1.4-3.4,2.9-5,4.3c-0.5,0.4-0.9,0.9-1.5,1.4c-0.3-0.3-0.5-0.6-0.7-0.9
		c0.4-0.5,0.7-1,1.1-1.4c0.4-0.4,0.9-0.8,1.4-1.1C212,90.3,213.8,89.1,215.7,87.7z"/>
	<path class="st0" d="M150.4,164.9c-0.2-0.2-0.5-0.4-0.6-0.6c-0.1-0.2,0.1-0.5,0.3-0.7c1.4-1.2,2.7-2.4,4.1-3.6
		c0.5-0.4,1.1-0.8,1.7-1.2c0.2-0.1,0.5,0,0.7,0.1c-0.1,0.2,0,0.6-0.2,0.7c-1.3,1.3-2.6,2.5-4,3.8c-0.5,0.4-0.9,0.8-1.4,1.2
		C150.9,164.8,150.7,164.8,150.4,164.9z"/>
	<path class="st0" d="M116.3,126.9c-0.6,0.3-1.1,0.6-1.6,0.7c-0.3,0.1-0.8-0.1-0.9-0.4c-0.1-0.2-0.1-0.9,0.1-1
		c1.3-0.7,2.4-1.9,3.8-2c0.6,0.2,0.1,1.1,1,1.1c0.4,0,0.4,0.5,0.1,0.9C118.2,127.1,117.4,127.3,116.3,126.9z"/>
	<path class="st0" d="M192,190.7c-0.1,0.1-0.2,0.4-0.4,0.6c-1.5,0.9-3.1,1.8-4.7,2.6c-0.1,0.1-0.3,0.1-0.4,0.1c-0.4,0-0.9-0.1-1-0.5
		c-0.1-0.5,0-0.9,0.5-1.1c0.6-0.2,1.2-0.5,1.8-0.7c1-0.5,2.1-1,3.1-1.4C191.6,189.9,192,190.1,192,190.7z"/>
	<path class="st0" d="M208,86.6c0.5,0.7,0.2,1.1-0.2,1.4c-0.6,0.4-1.1,0.8-1.7,1.2c-1.1,0.9-2.2,1.8-3.3,2.7
		c-0.4,0.3-0.7,0.7-1.2,0.3c-0.5-0.5-0.2-1,0.2-1.3c0.8-0.7,1.5-1.3,2.4-1.9C205.5,88.1,206.7,87.4,208,86.6z"/>
	<path class="st0" d="M191.9,179.7c-1.9,0.7-3.4,2-5.1,3c-0.2,0.1-0.4,0.3-0.6,0.4c-0.4,0.3-0.8,0.2-1.1-0.2c-0.3-0.5-0.1-0.8,0.3-1
		c1.3-0.8,2.6-1.6,4-2.4c0.4-0.2,0.8-0.4,1.2-0.6C191.7,178.3,192,178.5,191.9,179.7z"/>
	<path class="st0" d="M159.5,102c0.6,1.1,0.4,1.7-0.7,1.8c-0.9,0.1-1.8,0-2.8,0c-0.7,0-1.4,0-2-0.1c-0.1,0-0.3,0-0.4-0.1
		c-0.2-0.3-0.5-0.5-0.6-0.8c0-0.2,0.4-0.6,0.6-0.6c0.7-0.1,1.5,0,2.2,0C157.2,102.4,158.4,102.6,159.5,102z"/>
	<path class="st0" d="M210.4,87.9c0.6,0.6,0.6,0.9,0.2,1.3c-0.3,0.3-0.6,0.5-0.9,0.8c-1.2,1.1-2.5,2.2-3.7,3.3
		c-0.3,0.3-0.7,0.6-1.1,0.1c-0.2-0.3-0.3-0.7,0.1-1.1C206.8,90.9,208.6,89.4,210.4,87.9z"/>
	<path class="st0" d="M231.9,202.5c1.3-1.4,2.6-2.8,3.9-4.2c0.3-0.3,0.6-0.5,0.9-0.2c0.4,0.3,0.3,0.7,0,1.1c-1,1.2-2,2.5-3.1,3.7
		C233.1,203.7,232.8,203.6,231.9,202.5z"/>
	<path class="st0" d="M152.5,166.9c-0.5,0-0.8-0.4-0.6-0.8c0.1-0.3,0.4-0.7,0.6-0.9c1.1-1,2.3-1.9,3.5-2.9c0.2-0.2,0.7-0.2,0.8-0.1
		c0.2,0.1,0.3,0.6,0.2,0.8c-1.2,1.6-2.6,2.9-4.4,3.9C152.6,166.8,152.5,166.8,152.5,166.9z"/>
	<path class="st0" d="M139.4,89.8c-0.8,0.8-1.9,0.8-2.9,1c-0.7,0.1-1.4,0-2.1,0c-0.3,0-0.7-0.2-0.8-0.4c-0.1-0.2,0.1-0.6,0.3-0.8
		c0.3-0.4,0.8-0.8,1.3-0.6c0.9,0.3,1.7,0.1,2.6,0C138.8,88.7,138.9,88.8,139.4,89.8z"/>
	<path class="st0" d="M143.6,109.9c-1.8,0.2-2.8-0.8-4-1.4c-0.6-0.3-1.1-0.9-1.1-1.6c0-0.3,0.1-0.8,0.3-0.9c0.2-0.1,0.7,0,1,0
		c0.1,0,0.2,0.2,0.3,0.3c0.2,0.8,0.9,1.1,1.5,1.5c0.5,0.3,0.9,0.6,1.3,1C143.2,109,143.3,109.4,143.6,109.9z"/>
	<path class="st0" d="M121.6,135.5c0.1,0.1,0.6,0.2,0.6,0.4c0.1,0.2-0.2,0.7-0.5,0.8c-0.9,0.5-1.9,0.9-2.9,1.3
		c-0.3,0.1-0.7,0.1-1.1,0c-0.4-0.1-0.9-0.2-0.9-0.7c0-0.6,0.3-1.1,0.9-1.3c1.1-0.3,2.1-0.4,3.2-0.6
		C121.2,135.4,121.3,135.5,121.6,135.5z"/>
	<path class="st0" d="M212.5,96.8c-0.4-0.5-0.6-0.7-1-1.2c1.9-1.5,3.3-3.4,5.1-4.9c0.1,0,0.2,0.1,0.3,0.1c0,0.4,0.1,0.8-0.1,1.1
		C215.5,93.5,214,95.1,212.5,96.8z"/>
	<path class="st0" d="M189.9,168.7c0.5,0.2,0.9,0.3,1.4,0.4c-0.5,1.2-1.4,2-2.1,2.8c-0.1,0.1-0.7,0-1-0.1c-0.2-0.1-0.3-0.6-0.2-0.8
		c0.2-0.5,0.5-0.9,0.7-1.3c-0.1-0.4-0.2-0.7-0.3-1.1c-0.1-0.4,0-0.9,0.5-1c0.5-0.1,0.8,0.2,0.9,0.7
		C189.9,168.4,189.9,168.5,189.9,168.7z"/>
	<path class="st0" d="M151.5,103c-0.4,1.1-1.4,1.1-2.2,1.1c-0.7,0-1.3-0.3-2,0.1c-0.2,0.1-0.8-0.2-0.9-0.4c-0.1-0.2,0-0.8,0.2-1
		c0.6-0.6,1.4-1,2.2-0.5c0.5,0.3,0.9,0.3,1.4,0.1C150.8,102.3,150.8,102.3,151.5,103z"/>
	<path class="st0" d="M154.7,123.7c-0.6-0.7-0.5-1.2,0-1.5c1.2-0.7,2.5-1.3,3.8-1.9c0.2-0.1,0.6,0.1,0.8,0.3
		c0.2,0.4,0.3,0.8-0.2,1.1C157.6,122.3,156.2,123,154.7,123.7z"/>
	<path class="st0" d="M207.6,51.9c-2,1.1-3.9,2.2-5.8,3.2c-0.6-0.5-0.6-0.9,0.1-1.3c1.2-0.7,2.4-1.5,3.6-2.2
		c0.4-0.2,0.7-0.3,1.1-0.5C207.2,51,207.5,51.3,207.6,51.9z"/>
	<path class="st0" d="M221.9,61.1c-0.4,0.2-0.7,0.5-1,0.5c-1.4-0.1-2.5,0.5-3.7,0.9c-0.3,0.1-0.5,0.3-0.8,0.2
		c-0.2,0-0.6-0.2-0.6-0.3c-0.1-0.1,0.1-0.6,0.3-0.6c1.3-0.6,2.5-1.1,3.8-1.5C220.6,59.9,221.2,60.3,221.9,61.1z"/>
	<path class="st0" d="M234.6,186.2c-1-0.7-1.2-1.4-0.3-1.9c1.1-0.7,2.3-1.1,3.5-1.5c0.2-0.1,0.5,0.1,0.9,0.3
		C237.6,184.6,235.7,184.9,234.6,186.2z"/>
	<path class="st0" d="M157.2,165.6c-0.1,0.3-0.2,0.5-0.3,0.6c-0.6,0.7-1.2,1.4-1.8,2.1c-0.6,0.6-1.1,0.7-1.5,0.2
		c-0.4-0.5-0.3-1,0.4-1.5c0.7-0.6,1.2-1.2,1.9-1.8c0.2-0.2,0.6-0.3,0.9-0.2C156.9,165,157,165.4,157.2,165.6z"/>
	<path class="st0" d="M173.2,106.8c-0.3-0.3-0.7-0.5-0.9-0.8c-0.2-0.5,0-0.9,0.6-1c0.7-0.2,1.5-0.6,2.2-0.8c0.4-0.1,0.8-0.1,1.2,0
		c0.5,0.1,0.7,0.9,0.2,1.1C175.5,105.8,174.4,106.3,173.2,106.8z"/>
	<path class="st0" d="M110.5,125.2c-1.4-0.5-1.5-1-0.7-1.9c0.8-0.9,2.5-1.5,3.7-1.1c-0.5,0.6-1,1.1-1.4,1.6
		C111.6,124.2,111,124.6,110.5,125.2z"/>
	<path class="st0" d="M228.6,102.9c-0.1-0.8-0.2-1.5-0.2-2.3c0-0.3,0.3-0.5,0.4-0.8c0.3,0.1,0.7,0.2,0.7,0.4
		c0.2,0.8,0.4,1.7,0.5,2.5c0,0.6-0.1,1.2-0.2,1.8c-0.1,0.2-0.4,0.4-0.6,0.6c-0.2-0.2-0.6-0.4-0.6-0.7
		C228.5,104,228.6,103.4,228.6,102.9C228.6,102.9,228.6,102.9,228.6,102.9z"/>
	<path class="st0" d="M188.3,196.5c-0.2-0.2-0.6-0.5-0.6-0.8c-0.1-0.3,0.1-0.8,0.3-0.9c1-0.4,2.1-0.8,3.1-1c0.2-0.1,0.6,0.2,0.7,0.5
		c0.1,0.2,0,0.6-0.2,0.7C190.6,195.5,189.5,196,188.3,196.5z"/>
	<path class="st0" d="M199.3,79.2c-0.2-0.5-0.4-0.9-0.5-1.4c0-0.3,0.1-0.5,0.2-0.8c0.3,0.1,0.7,0.1,0.9,0.3c0.2,0.2,0.1,0.6,0.2,0.9
		c0.2,0,0.4-0.1,0.6-0.1c0.6,0,0.8,0.4,0.5,0.9c-0.5,0.7-1.1,1.4-1.7,2c-0.1,0.1-0.6,0.2-0.7,0.1c-0.2-0.2-0.3-0.6-0.3-0.8
		C198.8,79.8,199.1,79.5,199.3,79.2z"/>
	<path class="st0" d="M234.8,205.6c-0.6-1.8-0.4-2.7,0.7-3.5c0.4-0.3,0.7-0.6,1.1-0.8c0.2-0.1,0.6,0,0.7,0.1
		c0.2,0.1,0.3,0.6,0.2,0.7C236.7,203.3,235.9,204.5,234.8,205.6z"/>
	<path class="st0" d="M226.9,99.8c0.3,0.4,0.7,0.7,0.7,0.9c-0.1,1.2-0.3,2.3-0.5,3.5c-0.1,0.5-1,0.4-1-0.1
		C226,102.7,225.8,101.2,226.9,99.8z"/>
	<path class="st0" d="M179,108c-0.7,0.8-1.5,1.4-2.5,1.6c-0.6,0.1-1-0.1-1.2-0.6c-0.2-0.5-0.1-0.8,0.4-1c0.6-0.2,1.3-0.5,1.9-0.7
		C178.2,107.1,178.7,107.2,179,108z"/>
	<path class="st0" d="M110.2,115.5c-0.2,0.3-0.4,0.5-0.5,0.6c0.5,0.8,1,1.5,1.5,2.3c0.1,0.2,0.1,0.5,0,0.6c-0.2,0.1-0.6,0.2-0.7,0.1
		c-0.6-0.4-1.2-1-1.8-1.5c-0.1-0.1-0.1-0.3-0.1-0.4c0-0.3,0-0.6,0.1-0.8c0.3-0.4,0.7-0.8,1-1.2C109.7,115.3,109.9,115.4,110.2,115.5
		z"/>
	<path class="st0" d="M120.5,138.9c0.4,0.3,1.3-0.2,1.5,0.7c0.1,0.5-0.5,0.9-1.5,1.1c-0.3,0.1-0.5,0.1-0.8,0.2
		c-0.8,0.2-1.1,0-1.2-0.6c-0.2-0.8,0.1-1.2,0.9-1.3C119.7,139,120,139,120.5,138.9z"/>
	<path class="st0" d="M118.2,100.7c-0.1-0.1-0.5-0.3-0.5-0.5c0-0.3,0.2-0.8,0.4-0.9c0.8-0.3,1.5-0.5,2.2-1.2c0.1-0.1,0.6,0,0.8,0.1
		c0.1,0.1,0.1,0.5,0,0.7C120.5,100,119.6,100.6,118.2,100.7z"/>
	<path class="st0" d="M231.1,100.7c1.3,0.6,1.3,1.4,1.4,2.2c0,0.6-0.1,1.2-0.2,1.8c0,0.2-0.4,0.5-0.5,0.5c-0.2-0.1-0.5-0.4-0.6-0.6
		c-0.1-0.7-0.1-1.5-0.1-2.2C231,101.8,231.1,101.4,231.1,100.7z"/>
	<path class="st0" d="M118.8,96.6c0.4-0.2,0.9-0.3,1.3-0.5c0.7,0.7,0.7,0.8,0.2,1.2c-0.5,0.4-1,0.8-1.6,1.1
		c-0.6,0.4-1.1,0.3-1.6-0.4c0.4-0.4,0.8-0.8,1.2-1.2C118.4,96.8,118.6,96.7,118.8,96.6z"/>
	<path class="st0" d="M153.1,131.9c0.2-0.8,0.4-1.4,0.6-2c0.1-0.4,0.5-0.7,0.8-0.5c0.3,0.1,0.6,0.5,0.6,0.8
		c-0.1,0.8-0.4,1.5-0.7,2.2c-0.1,0.2-0.5,0.3-0.7,0.2C153.5,132.5,153.3,132.1,153.1,131.9z"/>
	<path class="st0" d="M220.1,93.4c0,0.5,0.1,1-0.1,1.2c-0.6,0.6-1.3,1.1-2,1.6c-0.1,0.1-0.5,0-0.6-0.1c-0.2-0.2-0.3-0.5-0.3-0.7
		c0-0.2,0.2-0.4,0.3-0.6C218.1,94.2,219,93.8,220.1,93.4z"/>
	<path class="st0" d="M189,174.6c-0.2,0-0.5,0.1-0.7,0c-0.3-0.1-0.8-0.3-0.9-0.6c-0.2-0.5,0.4-0.5,0.7-0.7c0.5-0.3,1-0.8,1.6-1.1
		c0.3-0.1,0.8-0.2,1-0.1c0.4,0.3,0.2,0.7-0.1,1.1C189.9,173.7,189.4,174.2,189,174.6C188.9,174.7,189,174.6,189,174.6z"/>
	<path class="st0" d="M238.5,181.7c-1.1-1.3-1.1-1.9,0.2-2.3c0.6-0.2,1.3-0.9,2-0.1C240.4,180.5,238.9,180.5,238.5,181.7z"/>
	<path class="st0" d="M206.4,55.6c-0.1-0.4-0.2-0.6-0.2-0.8c0.1-0.7,2.2-2,2.9-1.8c0.2,0.1,0.4,0.3,0.4,0.5c0,0.2-0.1,0.4-0.2,0.6
		c0,0.1-0.2,0.1-0.2,0.1C208.2,54.6,207.4,55.1,206.4,55.6z"/>
	<path class="st0" d="M161.9,123.3c-0.7,0.3-1.3,0.6-1.8,0.6c-0.3,0.1-0.8-0.1-1.1-0.3c-0.1-0.1-0.1-0.7,0-0.8
		c0.6-0.3,1.2-0.7,1.9-0.7C161.8,122,161.6,122.8,161.9,123.3z"/>
	<path class="st0" d="M203,199.6c-0.4,0.4-0.7,0.8-1,1.2c-0.6,0.5-1,0.5-1.3,0c-0.4-0.5-0.3-1.1,0.3-1.4
		C201.5,199,202.2,198.8,203,199.6z"/>
	<path class="st0" d="M180.3,110.4c-0.2-0.2-0.6-0.5-0.8-0.8c-0.2-0.5,0.3-0.8,0.7-0.8c0.6,0,1.2,0,1.8,0.1c0.2,0,0.4,0.3,0.4,0.4
		c0,0.2-0.2,0.6-0.3,0.7C181.6,110.2,181.1,110.3,180.3,110.4z"/>
	<path class="st0" d="M173.7,107.3c0.2,0.1,0.5,0.1,0.8,0.3c0.2,0.1,0.3,0.4,0.3,0.6c0,0.5-0.6,0.8-1.5,0.9c-0.5,0-0.9-0.2-0.9-0.8
		C172.3,107.7,172.8,107.3,173.7,107.3z"/>
	<path class="st0" d="M220.9,64.9c-0.4,0-0.7-0.6-0.4-0.9c0.4-0.4,0.9-0.7,1.5-1c0.4-0.2,0.8,0.1,1,0.5c0.1,0.5-0.1,0.7-0.6,0.8
		C221.8,64.5,221.4,64.8,220.9,64.9z"/>
	<path class="st0" d="M165.2,124.5c-0.3-0.2-0.6-0.3-0.6-0.5c-0.1-0.2-0.1-0.6,0.1-0.7c0.4-0.4,0.9-0.7,1.4-1
		c0.2-0.1,0.5-0.1,0.6,0.1c0.2,0.2,0.3,0.6,0.2,0.7C166.4,123.5,165.8,124,165.2,124.5z"/>
	<path class="st0" d="M124.9,145.6c-0.2,0.1-0.5,0.4-0.8,0.4c-0.6,0.1-1.4-0.6-1.5-1c0-0.4,0.4-0.9,0.9-0.9
		C124.1,144,124.9,144.8,124.9,145.6z"/>
	<path class="st0" d="M126.3,147.4c-0.8-0.1-1.3-0.5-1.2-1c0.1-0.5,0.5-0.7,1.1-0.7c0.7,0.1,1.3,0.6,1.2,1.1
		C127.2,147.4,126.8,147.5,126.3,147.4z"/>
	<path class="st0" d="M221.4,95c-0.6-0.6-0.4-1.1,0-1.4c0.5-0.4,1-0.6,1.6-0.4c0.4,0.2,0.5,0.7,0.1,1C222.6,94.4,222,94.7,221.4,95z
		"/>
	<path class="st0" d="M159,173c-0.5,0-1-0.4-1.1-0.9c0-0.5,0.4-0.8,1-0.8c0.2,0,0.4,0,0.5,0.1c0.3,0.2,0.6,0.5,0.6,0.7
		c0,0.3-0.4,0.5-0.6,0.7C159.4,173,159.2,172.9,159,173z"/>
	<path class="st0" d="M157.4,169.8c0,0.5-0.3,0.9-1,0.9c-0.6,0-1.1-0.3-1.1-0.8c0-0.5,0.5-1.1,1-1.1
		C156.9,168.8,157.3,169.3,157.4,169.8z"/>
	<path class="st0" d="M193.8,196.9c0,0.8-0.7,1.6-1.2,1.6c-0.6,0-0.7-0.4-0.7-0.9c-0.1-0.6,0.4-1.1,1.1-1.1
		C193.4,196.6,193.6,196.8,193.8,196.9z"/>
	<path class="st0" d="M197.8,198.9c0,0.7-0.6,1.2-1.1,1.2c-0.4,0-0.9-0.1-0.8-0.7c0-0.6,0.7-1.3,1.2-1.1
		C197.4,198.4,197.6,198.8,197.8,198.9z"/>
	<path class="st0" d="M125.3,97.1c-0.4,0-0.9,0.1-1.3,0c-0.5-0.1-0.6-0.5-0.5-1c0.2-0.5,0.5-0.6,1-0.4C125,96,125.5,96.3,125.3,97.1
		z"/>
	<path class="st0" d="M189.2,165c0.2,0.3,0.5,0.7,0.6,1c0.1,0.4-0.1,0.9-0.7,0.8c-0.5,0-0.7-0.4-0.7-0.9c0-0.3,0.3-0.7,0.4-1
		C189,165,189.1,165,189.2,165z"/>
	<path class="st0" d="M160.5,174.5c0.3,0.3,0.5,0.6,0.8,1c-0.6,0.2-1,0.4-1.4,0.6C159.5,175.3,159.5,175.3,160.5,174.5z"/>
	<path class="st0" d="M201.3,60.9c-0.5,0.8-1,1.2-1.9,0.9C199.8,60.8,199.8,60.8,201.3,60.9z"/>
	<path class="st0" d="M118.8,96.6c-0.2,0.1-0.4,0.2-0.6,0.3c-0.3-0.1-0.6-0.2-0.9-0.3c0.4-0.6,0.7-1.2,1.4-1
		C119.2,95.8,119,96.2,118.8,96.6z"/>
	<path class="st0" d="M149.2,61.6c-0.2-0.2-0.5-0.3-0.6-0.6c-0.1-0.2,0-0.7,0.2-0.9c0.6-0.7,1.2-1.3,1.9-1.8c3.8-3,7.9-5.3,12.4-7.1
		c0.2-0.1,0.4-0.2,0.6-0.3c0.4-0.1,0.8,0,0.8,0.4c0,0.2-0.3,0.6-0.5,0.7c-1.6,0.8-3.2,1.4-4.7,2.3c-2.2,1.3-4.2,2.8-6.3,4.2
		c-0.3,0.2-0.4,0.5-0.7,0.7c-0.9,0.7-1.8,1.4-2.7,2.1C149.5,61.5,149.4,61.6,149.2,61.6z"/>
	<path class="st0" d="M148.4,55.2c0.6-0.5,1-1.1,1.6-1.5c3.5-2.2,6.9-4.3,10.4-6.5c0.7-0.4,1.4-0.7,2.1-1c0.2-0.1,0.5,0.2,0.8,0.3
		c-0.1,0.2-0.2,0.5-0.4,0.7c-0.1,0.1-0.3,0.2-0.5,0.3c-3.9,2.2-7.5,4.7-11.1,7.4c-0.3,0.2-0.6,0.5-0.9,0.8
		C149.5,56.6,149.3,56.6,148.4,55.2z"/>
	<path class="st0" d="M151,50.3c-1.1-0.7-1.3-1.7-0.3-2.5c0.7-0.5,1.5-0.9,2.3-1.3c2.1-1,4.1-2,6.2-3c1-0.5,2.1-0.8,3.2-1.2
		c0.4-0.1,0.8-0.1,0.9,0.4c0,0.2-0.3,0.6-0.5,0.7c-3.3,1.2-6.3,3-9.4,4.7c-0.8,0.5-1.7,0.9-2.1,1.9C151.4,50.1,151.2,50.2,151,50.3z
		"/>
	<path class="st0" d="M185,86.1c0.1,0.5,0.2,0.9,0.3,1.3c0.4-0.1,0.8-0.3,1.3-0.3c0.3,0,0.8,0.3,0.9,0.6c0.2,0.4,0,0.8-0.4,1
		c-0.9,0.6-1.8,1.2-2.6,1.7c-0.3,0.2-0.7,0.4-1.1,0.6c-0.7,0.4-1.3,0.2-1.7-0.5c-1.1,0.2-1.9,1.6-3.4,0.5
		C180.5,89.5,182.6,87.9,185,86.1z M182.1,90c0.1,0.1,0.1,0.2,0.2,0.3c0.6-0.1,1-0.4,1.3-0.9c-0.1-0.1-0.1-0.2-0.2-0.3
		C183,89.3,182.6,89.7,182.1,90z"/>
	<path class="st0" d="M161,34c-0.6-1.3-0.6-1.5,0.2-2.1c1.6-1.1,3.3-2,5.3-2.2c0.3,0,0.7-0.1,0.9-0.3c0.8-0.9,2-1,3-1.3
		c0.2-0.1,0.5-0.1,0.7,0c0.2,0.1,0.4,0.4,0.5,0.6c0,0.2-0.1,0.5-0.3,0.6c-0.3,0.2-0.7,0.3-1,0.4c-0.4,0.1-0.9,0.1-1.2,0.4
		c-0.8,0.9-1.9,0.9-2.9,1.3c-1.5,0.6-2.9,1.5-4.4,2.3C161.5,33.7,161.3,33.8,161,34z"/>
	<path class="st0" d="M207.4,33.5c-1.4,0.1-1.4,0.1-1.8-0.9c-0.3-1-0.6-1.9-1-2.9c-0.7,0-1.3-0.3-1.2-1.2c0-0.5-0.1-0.9-0.5-1.2
		c-0.2-0.2-0.3-0.6-0.3-0.9c-0.1-0.7,0.3-1.1,1.1-1c0.9,0.2,1.6,0.8,1.9,1.7c0.3,0.8,0.6,1.7,0.9,2.6
		C206.8,30.9,207.1,32.1,207.4,33.5z"/>
	<path class="st0" d="M163.9,38.1c-1.9-0.4-3.2,0.7-4.7,1.4c-1.5,0.7-2.7,1.7-3.5,3c-0.8-0.1-1.1-0.6-0.8-1.1
		c0.3-0.7,0.7-1.4,1.3-1.9c1.6-1.3,3.5-2,5.4-2.7c0.4-0.1,0.9-0.1,1.4-0.1C163.6,36.7,164,37.1,163.9,38.1z"/>
	<path class="st0" d="M213.7,32.5c0.9,0.1,1.4,0.3,1.6,0.9c0.2,0.5,0.3,1.1,0.5,1.6c0.3,0.7,0.4,1.7,1.6,1.6c0.2,0,0.3,0.3,0.5,0.4
		c0.4,0.4,0.7,0.8,1.2,1.1c0.5,0.3,0.8,0.7,0.4,1.2c-0.3,0.5-0.8,0.3-1.2,0.2c-0.1-0.1-0.3-0.1-0.4-0.2c-1.2-1.6-3.3-2.4-3.9-4.6
		c-0.1-0.3-0.3-0.6-0.5-0.7c-0.4-0.2-0.8-0.5-0.6-0.9C213,32.8,213.5,32.6,213.7,32.5z"/>
	<path class="st0" d="M212.2,33.6c-0.3,0.3-0.4,0.7-0.7,0.8c-0.4,0.2-0.7,0-0.9-0.5c-0.2-0.5-0.5-0.9-0.9-1.3
		c-1-1.1-1.5-2.4-1.7-3.9c0-0.3,0.1-0.8,0.3-0.8c0.3-0.1,0.8,0,1,0.2c0.3,0.3,0.5,0.8,0.6,1.2c0.2,1,0.8,1.7,1.4,2.5
		C211.7,32.3,211.9,32.9,212.2,33.6z"/>
	<path class="st0" d="M174.5,73.1c0.3-0.8,0.8-0.7,1.2-0.6c1.5,0.5,2.9,0.9,4.3,1.4c0.4,0.2,0.7,0.6,1,1c-0.4,0.8-1,0.9-1.6,0.8
		C177.6,75.2,176.1,74.1,174.5,73.1z"/>
	<path class="st0" d="M176.5,62.9c0.3,0.1,0.5,0.2,0.7,0.4c1.4,0.9,2.4,2.1,3.3,3.5c0.2,0.3,0.3,0.8,0.3,1.2c0,0.2-0.3,0.6-0.5,0.7
		c-0.2,0-0.6-0.2-0.7-0.4c-0.7-0.9-1.2-1.8-1.9-2.7c-0.4-0.5-0.9-0.9-1.4-1.4c-0.2-0.2-0.2-0.6-0.2-0.8
		C176,63.1,176.3,63,176.5,62.9z"/>
	<path class="st0" d="M176.1,78.4c-0.1-0.7,0.3-1,0.8-0.9c0.6,0,1.2,0.1,1.8,0.2c0.9,0.2,1.7,0.6,2.7,0.2c0.5-0.2,0.9,0.1,1.1,0.6
		c0.1,0.3,0.1,0.7,0,0.9c-0.3,0.2-0.7,0.4-1.1,0.4c-1.2-0.2-2.5-0.6-3.7-0.9C177.2,78.6,176.6,78.5,176.1,78.4z"/>
	<path class="st0" d="M179.7,63.4c-0.5-1.6-1-3.3-1.5-4.9c0-0.1,0.1-0.3,0.2-0.5c0.7-0.1,1,0.3,1.3,0.8c0.4,0.9,0.9,1.8,1.3,2.7
		C181.5,62.7,181.2,63.2,179.7,63.4z"/>
	<path class="st0" d="M176.6,86.4c0.6-0.1,1-0.2,1.3-0.3c0.7-0.4,1.3-0.8,2-1.2c0.9-0.7,1.3-0.7,2.3,0c-0.9,1.1-2,1.9-3.3,2.2
		C178.2,87.2,177.4,87.5,176.6,86.4z"/>
	<path class="st0" d="M181.2,70.9c-0.3,0.3-0.6,0.6-0.9,0.9c-1.2-0.8-2.3-1.6-3.5-2.4c-0.2-0.2-0.4-0.4-0.5-0.6
		c-0.1-0.2,0-0.4,0.1-0.6c0.1-0.1,0.4-0.2,0.5-0.1C178.4,68.9,180,69.5,181.2,70.9z"/>
	<path class="st0" d="M191.1,21.3c1-0.8,1.9-1.5,2.8-2.1c0.4-0.3,0.8-0.4,1.3-0.5c0.2,0,0.6,0.1,0.7,0.3c0.1,0.2,0,0.7-0.1,0.7
		c-1.1,0.4-1.6,1.5-2.5,2.1C192.4,22.3,191.9,22.2,191.1,21.3z"/>
	<path class="st0" d="M183.3,56.1c-0.7-0.5-0.7-1.1-0.3-1.7c0.5-0.6,0.7-1.2,0.3-2c-0.1-0.2,0-0.7,0.1-0.7c0.3-0.1,0.6-0.1,0.9,0.1
		c1.1,0.8,1.2,2.7,0.1,3.6C184,55.6,183.6,55.8,183.3,56.1z"/>
	<path class="st0" d="M182.4,56.6c0,0.5,0,0.8-0.1,1.1c-0.1,0.5-0.4,0.8-1,0.8c-0.5-0.1-0.8-0.5-0.7-1c0.1-0.5,0.2-1,0.3-1.4
		c0.1-0.3,0.4-0.5,0.7-0.7c0.2,0.2,0.5,0.5,0.7,0.8C182.4,56.3,182.4,56.6,182.4,56.6z"/>
	<path class="st0" d="M178.5,83.4c1-1.1,2-1.7,3.3-1.7c0.2,0,0.6,0.2,0.6,0.3c0,0.3-0.1,0.7-0.3,0.8c-1,0.4-1.9,0.7-2.9,1
		C179.1,83.8,178.9,83.6,178.5,83.4z"/>
	<path class="st0" d="M166.8,20.3c-0.7,1-1.7,1.5-2.5,1.2c-0.5-0.1-0.7-0.7-0.3-0.9c0.5-0.3,1.1-0.5,1.7-0.6
		C166.1,19.9,166.4,20.2,166.8,20.3z"/>
	<path class="st0" d="M195.1,22.3c-1.3,1.7-1.6,1.8-2.4,0.8C193.7,21.5,194.1,21.4,195.1,22.3z"/>
	<path class="st0" d="M138.5,250.3c-0.4,0.3-0.8,0.7-1.3,1c-0.4,0.2-0.9,0.3-1.3,0.2c-0.5-0.2-0.5-0.7-0.3-1.2
		c0.4-1.1,0.8-2.1,1.3-3.2c0-0.1,0.2-0.3,0.3-0.3c0.9,0,1.2-0.9,1.8-1.3c0.5-0.4,1.1-0.8,1.6-1.3c0.6-0.6,1.2-1.2,1.8-1.9
		c0.8-0.8,1.7-1.7,2.6-2.5c0.2-0.2,0.6-0.3,0.9-0.3c1.6,0,2.5-0.9,3.3-2.2c0.8-1.3,1.8-2.7,3.7-2.8c0.3,0,0.5-0.2,0.7-0.3
		c1-0.6,1-0.6,1.7,0.5c-0.5,0.9-1.3,1.3-2.3,1.5c-1.1,0.2-1.8,0.8-2.3,1.7c-1.3,2.5-2.3,3.3-4.5,3.6c-0.7,0.9-1.3,1.6-2,2.3
		c-0.5,0.5-0.9,1-1.4,1.5c-0.5,0.5-1.2,0.9-1.8,1.3C139.7,247.5,138.4,248.5,138.5,250.3L138.5,250.3z"/>
	<path class="st0" d="M147.3,232.2c0.4,0.4,0.9,0.7,1.3,1.1c0.2,0.3,0.2,0.6-0.2,0.7c-0.5,0.2-0.8-0.2-1.1-0.6
		C146.9,233,146.6,232.7,147.3,232.2z"/>
	<path class="st0" d="M145.7,149.9c-0.1,0-0.2,0-0.3,0c-0.2-0.2-0.6-0.4-0.6-0.6c-0.1-0.8-0.2-1.6-0.1-2.3c0-0.2,0.6-0.4,0.9-0.4
		c0.2,0,0.5,0.4,0.5,0.5C146,147.9,146.8,149,145.7,149.9z"/>
	<path class="st0" d="M145.7,152.3c-0.6-0.9-0.2-1.4,0.2-1.8c0.4-0.4,1-0.8,1.5-1.1c0.1-0.1,0.5,0.1,0.7,0.3
		c0.1,0.1,0.1,0.5-0.1,0.6c-0.4,0.6-0.8,1.2-1.4,1.7C146.4,152.2,146,152.2,145.7,152.3z"/>
	<path class="st0" d="M172.4,183.4c0.6,0.9,0.4,1.7-0.7,2.7C171.1,185.4,171.1,185.3,172.4,183.4z"/>
</g>
<text transform="matrix(1 0 0 1 1.4572 138.267)" class="st1 st2 st3">Leigh Bryant</text>
</svg>
